<?xml version="1.0" encoding="UTF-8" standalone="no"?>
<!-- Created with Inkscape (http://www.inkscape.org/) -->

<svg
   xmlns:dc="http://purl.org/dc/elements/1.1/"
   xmlns:cc="http://creativecommons.org/ns#"
   xmlns:rdf="http://www.w3.org/1999/02/22-rdf-syntax-ns#"
   xmlns:svg="http://www.w3.org/2000/svg"
   xmlns="http://www.w3.org/2000/svg"
   xmlns:sodipodi="http://sodipodi.sourceforge.net/DTD/sodipodi-0.dtd"
   xmlns:inkscape="http://www.inkscape.org/namespaces/inkscape"
   width="484.009"
   height="473.57779"
   id="svg4927"
   version="1.1"
   inkscape:version="0.91 r13725"
   sodipodi:docname="geschwindigkeitsanzeiger-90-light.svg">
  <defs
     id="defs4929" />
  <sodipodi:namedview
     id="base"
     pagecolor="#ffffff"
     bordercolor="#666666"
     borderopacity="1.0"
     inkscape:pageopacity="0.0"
     inkscape:pageshadow="2"
     inkscape:zoom="0.57875767"
     inkscape:cx="-151.57765"
     inkscape:cy="412.73131"
     inkscape:document-units="px"
     inkscape:current-layer="layer1"
     showgrid="false"
     inkscape:window-width="1920"
     inkscape:window-height="1003"
     inkscape:window-x="-9"
     inkscape:window-y="-9"
     inkscape:window-maximized="1"
     fit-margin-top="0"
     fit-margin-left="0"
     fit-margin-right="0"
     fit-margin-bottom="0" />
  <metadata
     id="metadata4932">
    <rdf:RDF>
      <cc:Work
         rdf:about="">
        <dc:format>image/svg+xml</dc:format>
        <dc:type
           rdf:resource="http://purl.org/dc/dcmitype/StillImage" />
        <dc:title></dc:title>
      </cc:Work>
    </rdf:RDF>
  </metadata>
  <g
     inkscape:label="Ebene 1"
     inkscape:groupmode="layer"
     id="layer1"
     transform="translate(-9.3976416,-564.43008)">
    <g
       transform="matrix(1.3927961,0,0,1.3927961,-2492.9573,-1615.4771)"
       id="g10378">
      <path
         inkscape:connector-curvature="0"
         id="path3847"
         d="m 2143.6422,1904.6439 -346.4952,0 0,-339.008 345.0332,0 z"
         style="fill:#000000;fill-opacity:1;stroke:#000000;stroke-width:1.01147771px;stroke-linecap:butt;stroke-linejoin:miter;stroke-opacity:1" />
      <path
         inkscape:connector-curvature="0"
         id="path7209"
         d="m 1890.4229,1856.1109 c 0,-1.9493 1.4914,-3.5296 3.3313,-3.5296 1.8398,0 3.3313,1.5803 3.3313,3.5296 0,1.9493 -1.4915,3.5295 -3.3313,3.5295 -1.8399,0 -3.3313,-1.5802 -3.3313,-3.5295 z"
         style="fill:#ffffff;fill-opacity:1;stroke:#000000;stroke-width:0;stroke-miterlimit:4;stroke-opacity:1" />
      <path
         style="fill:#ffffff;fill-opacity:1;stroke:#000000;stroke-width:0;stroke-miterlimit:4;stroke-opacity:1"
         d="m 1898.4229,1850.1109 c 0,-1.9493 1.4914,-3.5296 3.3313,-3.5296 1.8398,0 3.3313,1.5803 3.3313,3.5296 0,1.9493 -1.4915,3.5295 -3.3313,3.5295 -1.8399,0 -3.3313,-1.5802 -3.3313,-3.5295 z"
         id="path9039"
         inkscape:connector-curvature="0" />
      <path
         inkscape:connector-curvature="0"
         id="path9041"
         d="m 1914.4229,1864.1109 c 0,-1.9493 1.4914,-3.5296 3.3313,-3.5296 1.8398,0 3.3313,1.5803 3.3313,3.5296 0,1.9493 -1.4915,3.5295 -3.3313,3.5295 -1.8399,0 -3.3313,-1.5802 -3.3313,-3.5295 z"
         style="fill:#ffffff;fill-opacity:1;stroke:#000000;stroke-width:0;stroke-miterlimit:4;stroke-opacity:1" />
      <path
         style="fill:#ffffff;fill-opacity:1;stroke:#000000;stroke-width:0;stroke-miterlimit:4;stroke-opacity:1"
         d="m 1908.4229,1872.1109 c 0,-1.9493 1.4914,-3.5296 3.3313,-3.5296 1.8398,0 3.3313,1.5803 3.3313,3.5296 0,1.9493 -1.4915,3.5295 -3.3313,3.5295 -1.8399,0 -3.3313,-1.5802 -3.3313,-3.5295 z"
         id="path9043"
         inkscape:connector-curvature="0" />
      <path
         inkscape:connector-curvature="0"
         id="path9045"
         d="m 1930.4229,1886.1109 c 0,-1.9493 1.4914,-3.5296 3.3313,-3.5296 1.8398,0 3.3313,1.5803 3.3313,3.5296 0,1.9493 -1.4915,3.5295 -3.3313,3.5295 -1.8399,0 -3.3313,-1.5802 -3.3313,-3.5295 z"
         style="fill:#ffffff;fill-opacity:1;stroke:#000000;stroke-width:0;stroke-miterlimit:4;stroke-opacity:1" />
      <path
         style="fill:#ffffff;fill-opacity:1;stroke:#000000;stroke-width:0;stroke-miterlimit:4;stroke-opacity:1"
         d="m 1934.4229,1876.1109 c 0,-1.9493 1.4914,-3.5296 3.3313,-3.5296 1.8398,0 3.3313,1.5803 3.3313,3.5296 0,1.9493 -1.4915,3.5295 -3.3313,3.5295 -1.8399,0 -3.3313,-1.5802 -3.3313,-3.5295 z"
         id="path9047"
         inkscape:connector-curvature="0" />
      <path
         inkscape:connector-curvature="0"
         id="path9049"
         d="m 1952.4229,1882.1109 c 0,-1.9493 1.4914,-3.5296 3.3313,-3.5296 1.8398,0 3.3313,1.5803 3.3313,3.5296 0,1.9493 -1.4915,3.5295 -3.3313,3.5295 -1.8399,0 -3.3313,-1.5802 -3.3313,-3.5295 z"
         style="fill:#ffffff;fill-opacity:1;stroke:#000000;stroke-width:0;stroke-miterlimit:4;stroke-opacity:1" />
      <path
         style="fill:#ffffff;fill-opacity:1;stroke:#000000;stroke-width:0;stroke-miterlimit:4;stroke-opacity:1"
         d="m 1950.4229,1892.1109 c 0,-1.9493 1.4914,-3.5296 3.3313,-3.5296 1.8398,0 3.3313,1.5803 3.3313,3.5296 0,1.9493 -1.4915,3.5295 -3.3313,3.5295 -1.8399,0 -3.3313,-1.5802 -3.3313,-3.5295 z"
         id="path9051"
         inkscape:connector-curvature="0" />
      <path
         inkscape:connector-curvature="0"
         id="path9053"
         d="m 1970.4229,1894.1109 c 0,-1.9493 1.4914,-3.5296 3.3313,-3.5296 1.8398,0 3.3313,1.5803 3.3313,3.5296 0,1.9493 -1.4915,3.5295 -3.3313,3.5295 -1.8399,0 -3.3313,-1.5802 -3.3313,-3.5295 z"
         style="fill:#ffffff;fill-opacity:1;stroke:#000000;stroke-width:0;stroke-miterlimit:4;stroke-opacity:1" />
      <path
         style="fill:#ffffff;fill-opacity:1;stroke:#000000;stroke-width:0;stroke-miterlimit:4;stroke-opacity:1"
         d="m 1970.4229,1884.1109 c 0,-1.9493 1.4914,-3.5296 3.3313,-3.5296 1.8398,0 3.3313,1.5803 3.3313,3.5296 0,1.9493 -1.4915,3.5295 -3.3313,3.5295 -1.8399,0 -3.3313,-1.5802 -3.3313,-3.5295 z"
         id="path9055"
         inkscape:connector-curvature="0" />
      <path
         inkscape:connector-curvature="0"
         id="path9068"
         d="m 1990.4229,1882.1109 c 0,-1.9493 1.4914,-3.5296 3.3313,-3.5296 1.8398,0 3.3313,1.5803 3.3313,3.5296 0,1.9493 -1.4915,3.5295 -3.3313,3.5295 -1.8399,0 -3.3313,-1.5802 -3.3313,-3.5295 z"
         style="fill:#ffffff;fill-opacity:1;stroke:#000000;stroke-width:0;stroke-miterlimit:4;stroke-opacity:1" />
      <path
         style="fill:#ffffff;fill-opacity:1;stroke:#000000;stroke-width:0;stroke-miterlimit:4;stroke-opacity:1"
         d="m 1992.4229,1892.1109 c 0,-1.9493 1.4914,-3.5296 3.3313,-3.5296 1.8398,0 3.3313,1.5803 3.3313,3.5296 0,1.9493 -1.4915,3.5295 -3.3313,3.5295 -1.8399,0 -3.3313,-1.5802 -3.3313,-3.5295 z"
         id="path9070"
         inkscape:connector-curvature="0" />
      <path
         inkscape:connector-curvature="0"
         id="path9072"
         d="m 2014.4229,1884.1109 c 0,-1.9493 1.4914,-3.5296 3.3313,-3.5296 1.8398,0 3.3313,1.5803 3.3313,3.5296 0,1.9493 -1.4915,3.5295 -3.3313,3.5295 -1.8399,0 -3.3313,-1.5802 -3.3313,-3.5295 z"
         style="fill:#ffffff;fill-opacity:1;stroke:#000000;stroke-width:0;stroke-miterlimit:4;stroke-opacity:1" />
      <path
         style="fill:#ffffff;fill-opacity:1;stroke:#000000;stroke-width:0;stroke-miterlimit:4;stroke-opacity:1"
         d="m 2014.4229,1884.1109 c 0,-1.9493 1.4914,-3.5296 3.3313,-3.5296 1.8398,0 3.3313,1.5803 3.3313,3.5296 0,1.9493 -1.4915,3.5295 -3.3313,3.5295 -1.8399,0 -3.3313,-1.5802 -3.3313,-3.5295 z"
         id="path9074"
         inkscape:connector-curvature="0" />
      <path
         inkscape:connector-curvature="0"
         id="path9076"
         d="m 2008.4229,1876.1109 c 0,-1.9493 1.4914,-3.5296 3.3313,-3.5296 1.8398,0 3.3313,1.5803 3.3313,3.5296 0,1.9493 -1.4915,3.5295 -3.3313,3.5295 -1.8399,0 -3.3313,-1.5802 -3.3313,-3.5295 z"
         style="fill:#ffffff;fill-opacity:1;stroke:#000000;stroke-width:0;stroke-miterlimit:4;stroke-opacity:1" />
      <path
         style="fill:#ffffff;fill-opacity:1;stroke:#000000;stroke-width:0;stroke-miterlimit:4;stroke-opacity:1"
         d="m 2030.4229,1872.1109 c 0,-1.9493 1.4914,-3.5296 3.3313,-3.5296 1.8398,0 3.3313,1.5803 3.3313,3.5296 0,1.9493 -1.4915,3.5295 -3.3313,3.5295 -1.8399,0 -3.3313,-1.5802 -3.3313,-3.5295 z"
         id="path9078"
         inkscape:connector-curvature="0" />
      <path
         inkscape:connector-curvature="0"
         id="path9080"
         d="m 2022.4229,1864.1109 c 0,-1.9493 1.4914,-3.5296 3.3313,-3.5296 1.8398,0 3.3313,1.5803 3.3313,3.5296 0,1.9493 -1.4915,3.5295 -3.3313,3.5295 -1.8399,0 -3.3313,-1.5802 -3.3313,-3.5295 z"
         style="fill:#ffffff;fill-opacity:1;stroke:#000000;stroke-width:0;stroke-miterlimit:4;stroke-opacity:1" />
      <path
         style="fill:#ffffff;fill-opacity:1;stroke:#000000;stroke-width:0;stroke-miterlimit:4;stroke-opacity:1"
         d="m 2046.4229,1856.1109 c 0,-1.9493 1.4914,-3.5296 3.3313,-3.5296 1.8398,0 3.3313,1.5803 3.3313,3.5296 0,1.9493 -1.4915,3.5295 -3.3313,3.5295 -1.8399,0 -3.3313,-1.5802 -3.3313,-3.5295 z"
         id="path9082"
         inkscape:connector-curvature="0" />
      <path
         inkscape:connector-curvature="0"
         id="path9084"
         d="m 2034.4229,1850.1109 c 0,-1.9493 1.4914,-3.5296 3.3313,-3.5296 1.8398,0 3.3313,1.5803 3.3313,3.5296 0,1.9493 -1.4915,3.5295 -3.3313,3.5295 -1.8399,0 -3.3313,-1.5802 -3.3313,-3.5295 z"
         style="fill:#ffffff;fill-opacity:1;stroke:#000000;stroke-width:0;stroke-miterlimit:4;stroke-opacity:1" />
      <path
         style="fill:#ffffff;fill-opacity:1;stroke:#000000;stroke-width:0;stroke-miterlimit:4;stroke-opacity:1"
         d="m 2054.4229,1840.1109 c 0,-1.9493 1.4914,-3.5296 3.3313,-3.5296 1.8398,0 3.3313,1.5803 3.3313,3.5296 0,1.9493 -1.4915,3.5295 -3.3313,3.5295 -1.8399,0 -3.3313,-1.5802 -3.3313,-3.5295 z"
         id="path9086"
         inkscape:connector-curvature="0" />
      <path
         inkscape:connector-curvature="0"
         id="path9088"
         d="m 2042.4229,1836.1109 c 0,-1.9493 1.4914,-3.5296 3.3313,-3.5296 1.8398,0 3.3313,1.5803 3.3313,3.5296 0,1.9493 -1.4915,3.5295 -3.3313,3.5295 -1.8399,0 -3.3313,-1.5802 -3.3313,-3.5295 z"
         style="fill:#ffffff;fill-opacity:1;stroke:#000000;stroke-width:0;stroke-miterlimit:4;stroke-opacity:1" />
      <path
         style="fill:#ffffff;fill-opacity:1;stroke:#000000;stroke-width:0;stroke-miterlimit:4;stroke-opacity:1"
         d="m 2058.4229,1818.1109 c 0,-1.9493 1.4914,-3.5296 3.3313,-3.5296 1.8398,0 3.3313,1.5803 3.3313,3.5296 0,1.9493 -1.4915,3.5295 -3.3313,3.5295 -1.8399,0 -3.3313,-1.5802 -3.3313,-3.5295 z"
         id="path9090"
         inkscape:connector-curvature="0" />
      <path
         inkscape:connector-curvature="0"
         id="path9092"
         d="m 2058.4229,1798.1109 c 0,-1.9493 1.4914,-3.5296 3.3313,-3.5296 1.8398,0 3.3313,1.5803 3.3313,3.5296 0,1.9493 -1.4915,3.5295 -3.3313,3.5295 -1.8399,0 -3.3313,-1.5802 -3.3313,-3.5295 z"
         style="fill:#ffffff;fill-opacity:1;stroke:#000000;stroke-width:0;stroke-miterlimit:4;stroke-opacity:1" />
      <path
         style="fill:#ffffff;fill-opacity:1;stroke:#000000;stroke-width:0;stroke-miterlimit:4;stroke-opacity:1"
         d="m 2058.4229,1780.1109 c 0,-1.9493 1.4914,-3.5296 3.3313,-3.5296 1.8398,0 3.3313,1.5803 3.3313,3.5296 0,1.9493 -1.4915,3.5295 -3.3313,3.5295 -1.8399,0 -3.3313,-1.5802 -3.3313,-3.5295 z"
         id="path9094"
         inkscape:connector-curvature="0" />
      <path
         inkscape:connector-curvature="0"
         id="path9096"
         d="m 2058.4229,1764.1109 c 0,-1.9493 1.4914,-3.5296 3.3313,-3.5296 1.8398,0 3.3313,1.5803 3.3313,3.5296 0,1.9493 -1.4915,3.5295 -3.3313,3.5295 -1.8399,0 -3.3313,-1.5802 -3.3313,-3.5295 z"
         style="fill:#ffffff;fill-opacity:1;stroke:#000000;stroke-width:0;stroke-miterlimit:4;stroke-opacity:1" />
      <path
         style="fill:#ffffff;fill-opacity:1;stroke:#000000;stroke-width:0;stroke-miterlimit:4;stroke-opacity:1"
         d="m 2058.4229,1746.1109 c 0,-1.9493 1.4914,-3.5296 3.3313,-3.5296 1.8398,0 3.3313,1.5803 3.3313,3.5296 0,1.9493 -1.4915,3.5295 -3.3313,3.5295 -1.8399,0 -3.3313,-1.5802 -3.3313,-3.5295 z"
         id="path9098"
         inkscape:connector-curvature="0" />
      <path
         inkscape:connector-curvature="0"
         id="path9100"
         d="m 2058.4229,1730.1109 c 0,-1.9493 1.4914,-3.5296 3.3313,-3.5296 1.8398,0 3.3313,1.5803 3.3313,3.5296 0,1.9493 -1.4915,3.5295 -3.3313,3.5295 -1.8399,0 -3.3313,-1.5802 -3.3313,-3.5295 z"
         style="fill:#ffffff;fill-opacity:1;stroke:#000000;stroke-width:0;stroke-miterlimit:4;stroke-opacity:1" />
      <path
         style="fill:#ffffff;fill-opacity:1;stroke:#000000;stroke-width:0;stroke-miterlimit:4;stroke-opacity:1"
         d="m 2058.4229,1714.1109 c 0,-1.9493 1.4914,-3.5296 3.3313,-3.5296 1.8398,0 3.3313,1.5803 3.3313,3.5296 0,1.9493 -1.4915,3.5295 -3.3313,3.5295 -1.8399,0 -3.3313,-1.5802 -3.3313,-3.5295 z"
         id="path9102"
         inkscape:connector-curvature="0" />
      <path
         inkscape:connector-curvature="0"
         id="path9104"
         d="m 2058.4229,1696.1109 c 0,-1.9493 1.4914,-3.5296 3.3313,-3.5296 1.8398,0 3.3313,1.5803 3.3313,3.5296 0,1.9493 -1.4915,3.5295 -3.3313,3.5295 -1.8399,0 -3.3313,-1.5802 -3.3313,-3.5295 z"
         style="fill:#ffffff;fill-opacity:1;stroke:#000000;stroke-width:0;stroke-miterlimit:4;stroke-opacity:1" />
      <path
         style="fill:#ffffff;fill-opacity:1;stroke:#000000;stroke-width:0;stroke-miterlimit:4;stroke-opacity:1"
         d="m 2058.4229,1682.1109 c 0,-1.9493 1.4914,-3.5296 3.3313,-3.5296 1.8398,0 3.3313,1.5803 3.3313,3.5296 0,1.9493 -1.4915,3.5295 -3.3313,3.5295 -1.8399,0 -3.3313,-1.5802 -3.3313,-3.5295 z"
         id="path9106"
         inkscape:connector-curvature="0" />
      <path
         inkscape:connector-curvature="0"
         id="path9108"
         d="m 2058.4229,1662.1109 c 0,-1.9493 1.4914,-3.5296 3.3313,-3.5296 1.8398,0 3.3313,1.5803 3.3313,3.5296 0,1.9493 -1.4915,3.5295 -3.3313,3.5295 -1.8399,0 -3.3313,-1.5802 -3.3313,-3.5295 z"
         style="fill:#ffffff;fill-opacity:1;stroke:#000000;stroke-width:0;stroke-miterlimit:4;stroke-opacity:1" />
      <path
         style="fill:#ffffff;fill-opacity:1;stroke:#000000;stroke-width:0;stroke-miterlimit:4;stroke-opacity:1"
         d="m 2054.4229,1640.1109 c 0,-1.9493 1.4914,-3.5296 3.3313,-3.5296 1.8398,0 3.3313,1.5803 3.3313,3.5296 0,1.9493 -1.4915,3.5295 -3.3313,3.5295 -1.8399,0 -3.3313,-1.5802 -3.3313,-3.5295 z"
         id="path9110"
         inkscape:connector-curvature="0" />
      <path
         inkscape:connector-curvature="0"
         id="path9112"
         d="m 2042.4229,1642.1109 c 0,-1.9493 1.4914,-3.5296 3.3313,-3.5296 1.8398,0 3.3313,1.5803 3.3313,3.5296 0,1.9493 -1.4915,3.5295 -3.3313,3.5295 -1.8399,0 -3.3313,-1.5802 -3.3313,-3.5295 z"
         style="fill:#ffffff;fill-opacity:1;stroke:#000000;stroke-width:0;stroke-miterlimit:4;stroke-opacity:1" />
      <path
         style="fill:#ffffff;fill-opacity:1;stroke:#000000;stroke-width:0;stroke-miterlimit:4;stroke-opacity:1"
         d="m 2046.4229,1662.1109 c 0,-1.9493 1.4914,-3.5296 3.3313,-3.5296 1.8398,0 3.3313,1.5803 3.3313,3.5296 0,1.9493 -1.4915,3.5295 -3.3313,3.5295 -1.8399,0 -3.3313,-1.5802 -3.3313,-3.5295 z"
         id="path9114"
         inkscape:connector-curvature="0" />
      <path
         inkscape:connector-curvature="0"
         id="path9116"
         d="m 2046.4229,1682.1109 c 0,-1.9493 1.4914,-3.5296 3.3313,-3.5296 1.8398,0 3.3313,1.5803 3.3313,3.5296 0,1.9493 -1.4915,3.5295 -3.3313,3.5295 -1.8399,0 -3.3313,-1.5802 -3.3313,-3.5295 z"
         style="fill:#ffffff;fill-opacity:1;stroke:#000000;stroke-width:0;stroke-miterlimit:4;stroke-opacity:1" />
      <path
         style="fill:#ffffff;fill-opacity:1;stroke:#000000;stroke-width:0;stroke-miterlimit:4;stroke-opacity:1"
         d="m 2046.4229,1696.1109 c 0,-1.9493 1.4914,-3.5296 3.3313,-3.5296 1.8398,0 3.3313,1.5803 3.3313,3.5296 0,1.9493 -1.4915,3.5295 -3.3313,3.5295 -1.8399,0 -3.3313,-1.5802 -3.3313,-3.5295 z"
         id="path9118"
         inkscape:connector-curvature="0" />
      <path
         inkscape:connector-curvature="0"
         id="path9120"
         d="m 2046.4229,1714.1109 c 0,-1.9493 1.4914,-3.5296 3.3313,-3.5296 1.8398,0 3.3313,1.5803 3.3313,3.5296 0,1.9493 -1.4915,3.5295 -3.3313,3.5295 -1.8399,0 -3.3313,-1.5802 -3.3313,-3.5295 z"
         style="fill:#ffffff;fill-opacity:1;stroke:#000000;stroke-width:0;stroke-miterlimit:4;stroke-opacity:1" />
      <path
         style="fill:#ffffff;fill-opacity:1;stroke:#000000;stroke-width:0;stroke-miterlimit:4;stroke-opacity:1"
         d="m 2046.4229,1730.1109 c 0,-1.9493 1.4914,-3.5296 3.3313,-3.5296 1.8398,0 3.3313,1.5803 3.3313,3.5296 0,1.9493 -1.4915,3.5295 -3.3313,3.5295 -1.8399,0 -3.3313,-1.5802 -3.3313,-3.5295 z"
         id="path9122"
         inkscape:connector-curvature="0" />
      <path
         inkscape:connector-curvature="0"
         id="path9124"
         d="m 2046.4229,1746.1109 c 0,-1.9493 1.4914,-3.5296 3.3313,-3.5296 1.8398,0 3.3313,1.5803 3.3313,3.5296 0,1.9493 -1.4915,3.5295 -3.3313,3.5295 -1.8399,0 -3.3313,-1.5802 -3.3313,-3.5295 z"
         style="fill:#ffffff;fill-opacity:1;stroke:#000000;stroke-width:0;stroke-miterlimit:4;stroke-opacity:1" />
      <path
         style="fill:#ffffff;fill-opacity:1;stroke:#000000;stroke-width:0;stroke-miterlimit:4;stroke-opacity:1"
         d="m 2046.4229,1764.1109 c 0,-1.9493 1.4914,-3.5296 3.3313,-3.5296 1.8398,0 3.3313,1.5803 3.3313,3.5296 0,1.9493 -1.4915,3.5295 -3.3313,3.5295 -1.8399,0 -3.3313,-1.5802 -3.3313,-3.5295 z"
         id="path9126"
         inkscape:connector-curvature="0" />
      <path
         inkscape:connector-curvature="0"
         id="path9128"
         d="m 2046.4229,1780.1109 c 0,-1.9493 1.4914,-3.5296 3.3313,-3.5296 1.8398,0 3.3313,1.5803 3.3313,3.5296 0,1.9493 -1.4915,3.5295 -3.3313,3.5295 -1.8399,0 -3.3313,-1.5802 -3.3313,-3.5295 z"
         style="fill:#ffffff;fill-opacity:1;stroke:#000000;stroke-width:0;stroke-miterlimit:4;stroke-opacity:1" />
      <path
         style="fill:#ffffff;fill-opacity:1;stroke:#000000;stroke-width:0;stroke-miterlimit:4;stroke-opacity:1"
         d="m 2046.4229,1798.1109 c 0,-1.9493 1.4914,-3.5296 3.3313,-3.5296 1.8398,0 3.3313,1.5803 3.3313,3.5296 0,1.9493 -1.4915,3.5295 -3.3313,3.5295 -1.8399,0 -3.3313,-1.5802 -3.3313,-3.5295 z"
         id="path9130"
         inkscape:connector-curvature="0" />
      <path
         inkscape:connector-curvature="0"
         id="path9132"
         d="m 2046.4229,1818.1109 c 0,-1.9493 1.4914,-3.5296 3.3313,-3.5296 1.8398,0 3.3313,1.5803 3.3313,3.5296 0,1.9493 -1.4915,3.5295 -3.3313,3.5295 -1.8399,0 -3.3313,-1.5802 -3.3313,-3.5295 z"
         style="fill:#ffffff;fill-opacity:1;stroke:#000000;stroke-width:0;stroke-miterlimit:4;stroke-opacity:1" />
      <path
         style="fill:#ffffff;fill-opacity:1;stroke:#000000;stroke-width:0;stroke-miterlimit:4;stroke-opacity:1"
         d="m 2031.7059,1753.2052 c 0,-1.9493 1.4914,-3.5296 3.3313,-3.5296 1.8398,0 3.3313,1.5803 3.3313,3.5296 0,1.9493 -1.4915,3.5295 -3.3313,3.5295 -1.8399,0 -3.3313,-1.5802 -3.3313,-3.5295 z"
         id="path9134"
         inkscape:connector-curvature="0" />
      <path
         inkscape:connector-curvature="0"
         id="path9138"
         d="m 2027.7059,1741.2052 c 0,-1.9493 1.4914,-3.5296 3.3313,-3.5296 1.8398,0 3.3313,1.5803 3.3313,3.5296 0,1.9493 -1.4915,3.5295 -3.3313,3.5295 -1.8399,0 -3.3313,-1.5802 -3.3313,-3.5295 z"
         style="fill:#ffffff;fill-opacity:1;stroke:#000000;stroke-width:0;stroke-miterlimit:4;stroke-opacity:1" />
      <path
         style="fill:#ffffff;fill-opacity:1;stroke:#000000;stroke-width:0;stroke-miterlimit:4;stroke-opacity:1"
         d="m 2017.7059,1761.2052 c 0,-1.9493 1.4914,-3.5296 3.3313,-3.5296 1.8398,0 3.3313,1.5803 3.3313,3.5296 0,1.9493 -1.4915,3.5295 -3.3313,3.5295 -1.8399,0 -3.3313,-1.5802 -3.3313,-3.5295 z"
         id="path9140"
         inkscape:connector-curvature="0" />
      <path
         inkscape:connector-curvature="0"
         id="path9142"
         d="m 2013.7059,1749.2052 c 0,-1.9493 1.4914,-3.5296 3.3313,-3.5296 1.8398,0 3.3313,1.5803 3.3313,3.5296 0,1.9493 -1.4915,3.5295 -3.3313,3.5295 -1.8399,0 -3.3313,-1.5802 -3.3313,-3.5295 z"
         style="fill:#ffffff;fill-opacity:1;stroke:#000000;stroke-width:0;stroke-miterlimit:4;stroke-opacity:1" />
      <path
         style="fill:#ffffff;fill-opacity:1;stroke:#000000;stroke-width:0;stroke-miterlimit:4;stroke-opacity:1"
         d="m 1999.7059,1757.2052 c 0,-1.9493 1.4914,-3.5296 3.3313,-3.5296 1.8398,0 3.3313,1.5803 3.3313,3.5296 0,1.9493 -1.4915,3.5295 -3.3313,3.5295 -1.8399,0 -3.3313,-1.5802 -3.3313,-3.5295 z"
         id="path9144"
         inkscape:connector-curvature="0" />
      <path
         inkscape:connector-curvature="0"
         id="path9146"
         d="m 2003.7059,1767.2052 c 0,-1.9493 1.4914,-3.5296 3.3313,-3.5296 1.8398,0 3.3313,1.5803 3.3313,3.5296 0,1.9493 -1.4915,3.5295 -3.3313,3.5295 -1.8399,0 -3.3313,-1.5802 -3.3313,-3.5295 z"
         style="fill:#ffffff;fill-opacity:1;stroke:#000000;stroke-width:0;stroke-miterlimit:4;stroke-opacity:1" />
      <path
         style="fill:#ffffff;fill-opacity:1;stroke:#000000;stroke-width:0;stroke-miterlimit:4;stroke-opacity:1"
         d="m 1981.7059,1773.2052 c 0,-1.9493 1.4914,-3.5296 3.3313,-3.5296 1.8398,0 3.3313,1.5803 3.3313,3.5296 0,1.9493 -1.4915,3.5295 -3.3313,3.5295 -1.8399,0 -3.3313,-1.5802 -3.3313,-3.5295 z"
         id="path9148"
         inkscape:connector-curvature="0" />
      <path
         inkscape:connector-curvature="0"
         id="path9150"
         d="m 1981.7059,1761.2052 c 0,-1.9493 1.4914,-3.5296 3.3313,-3.5296 1.8398,0 3.3313,1.5803 3.3313,3.5296 0,1.9493 -1.4915,3.5295 -3.3313,3.5295 -1.8399,0 -3.3313,-1.5802 -3.3313,-3.5295 z"
         style="fill:#ffffff;fill-opacity:1;stroke:#000000;stroke-width:0;stroke-miterlimit:4;stroke-opacity:1" />
      <path
         style="fill:#ffffff;fill-opacity:1;stroke:#000000;stroke-width:0;stroke-miterlimit:4;stroke-opacity:1"
         d="m 1963.7059,1763.2052 c 0,-1.9493 1.4914,-3.5296 3.3313,-3.5296 1.8398,0 3.3313,1.5803 3.3313,3.5296 0,1.9493 -1.4915,3.5295 -3.3313,3.5295 -1.8399,0 -3.3313,-1.5802 -3.3313,-3.5295 z"
         id="path9152"
         inkscape:connector-curvature="0" />
      <path
         inkscape:connector-curvature="0"
         id="path9154"
         d="m 1961.7059,1775.2052 c 0,-1.9493 1.4914,-3.5296 3.3313,-3.5296 1.8398,0 3.3313,1.5803 3.3313,3.5296 0,1.9493 -1.4915,3.5295 -3.3313,3.5295 -1.8399,0 -3.3313,-1.5802 -3.3313,-3.5295 z"
         style="fill:#ffffff;fill-opacity:1;stroke:#000000;stroke-width:0;stroke-miterlimit:4;stroke-opacity:1" />
      <path
         style="fill:#ffffff;fill-opacity:1;stroke:#000000;stroke-width:0;stroke-miterlimit:4;stroke-opacity:1"
         d="m 1945.7059,1759.2052 c 0,-1.9493 1.4914,-3.5296 3.3313,-3.5296 1.8398,0 3.3313,1.5803 3.3313,3.5296 0,1.9493 -1.4915,3.5295 -3.3313,3.5295 -1.8399,0 -3.3313,-1.5802 -3.3313,-3.5295 z"
         id="path9156"
         inkscape:connector-curvature="0" />
      <path
         inkscape:connector-curvature="0"
         id="path9158"
         d="m 1941.7059,1771.2052 c 0,-1.9493 1.4914,-3.5296 3.3313,-3.5296 1.8398,0 3.3313,1.5803 3.3313,3.5296 0,1.9493 -1.4915,3.5295 -3.3313,3.5295 -1.8399,0 -3.3313,-1.5802 -3.3313,-3.5295 z"
         style="fill:#ffffff;fill-opacity:1;stroke:#000000;stroke-width:0;stroke-miterlimit:4;stroke-opacity:1" />
      <path
         style="fill:#ffffff;fill-opacity:1;stroke:#000000;stroke-width:0;stroke-miterlimit:4;stroke-opacity:1"
         d="m 1923.7059,1763.2052 c 0,-1.9493 1.4914,-3.5296 3.3313,-3.5296 1.8398,0 3.3313,1.5803 3.3313,3.5296 0,1.9493 -1.4915,3.5295 -3.3313,3.5295 -1.8399,0 -3.3313,-1.5802 -3.3313,-3.5295 z"
         id="path9160"
         inkscape:connector-curvature="0" />
      <path
         inkscape:connector-curvature="0"
         id="path9162"
         d="m 1931.7059,1753.2052 c 0,-1.9493 1.4914,-3.5296 3.3313,-3.5296 1.8398,0 3.3313,1.5803 3.3313,3.5296 0,1.9493 -1.4915,3.5295 -3.3313,3.5295 -1.8399,0 -3.3313,-1.5802 -3.3313,-3.5295 z"
         style="fill:#ffffff;fill-opacity:1;stroke:#000000;stroke-width:0;stroke-miterlimit:4;stroke-opacity:1" />
      <path
         style="fill:#ffffff;fill-opacity:1;stroke:#000000;stroke-width:0;stroke-miterlimit:4;stroke-opacity:1"
         d="m 1905.7059,1751.2052 c 0,-1.9493 1.4914,-3.5296 3.3313,-3.5296 1.8398,0 3.3313,1.5803 3.3313,3.5296 0,1.9493 -1.4915,3.5295 -3.3313,3.5295 -1.8399,0 -3.3313,-1.5802 -3.3313,-3.5295 z"
         id="path9164"
         inkscape:connector-curvature="0" />
      <path
         inkscape:connector-curvature="0"
         id="path9166"
         d="m 1913.7059,1743.2052 c 0,-1.9493 1.4914,-3.5296 3.3313,-3.5296 1.8398,0 3.3313,1.5803 3.3313,3.5296 0,1.9493 -1.4915,3.5295 -3.3313,3.5295 -1.8399,0 -3.3313,-1.5802 -3.3313,-3.5295 z"
         style="fill:#ffffff;fill-opacity:1;stroke:#000000;stroke-width:0;stroke-miterlimit:4;stroke-opacity:1" />
      <path
         style="fill:#ffffff;fill-opacity:1;stroke:#000000;stroke-width:0;stroke-miterlimit:4;stroke-opacity:1"
         d="m 1903.7059,1731.2052 c 0,-1.9493 1.4914,-3.5296 3.3313,-3.5296 1.8398,0 3.3313,1.5803 3.3313,3.5296 0,1.9493 -1.4915,3.5295 -3.3313,3.5295 -1.8399,0 -3.3313,-1.5802 -3.3313,-3.5295 z"
         id="path9168"
         inkscape:connector-curvature="0" />
      <path
         inkscape:connector-curvature="0"
         id="path9170"
         d="m 1891.7059,1737.2052 c 0,-1.9493 1.4914,-3.5296 3.3313,-3.5296 1.8398,0 3.3313,1.5803 3.3313,3.5296 0,1.9493 -1.4915,3.5295 -3.3313,3.5295 -1.8399,0 -3.3313,-1.5802 -3.3313,-3.5295 z"
         style="fill:#ffffff;fill-opacity:1;stroke:#000000;stroke-width:0;stroke-miterlimit:4;stroke-opacity:1" />
      <path
         style="fill:#ffffff;fill-opacity:1;stroke:#000000;stroke-width:0;stroke-miterlimit:4;stroke-opacity:1"
         d="m 1881.7059,1715.2052 c 0,-1.9493 1.4914,-3.5296 3.3313,-3.5296 1.8398,0 3.3313,1.5803 3.3313,3.5296 0,1.9493 -1.4915,3.5295 -3.3313,3.5295 -1.8399,0 -3.3313,-1.5802 -3.3313,-3.5295 z"
         id="path9172"
         inkscape:connector-curvature="0" />
      <path
         inkscape:connector-curvature="0"
         id="path9174"
         d="m 1895.7059,1711.2052 c 0,-1.9493 1.4914,-3.5296 3.3313,-3.5296 1.8398,0 3.3313,1.5803 3.3313,3.5296 0,1.9493 -1.4915,3.5295 -3.3313,3.5295 -1.8399,0 -3.3313,-1.5802 -3.3313,-3.5295 z"
         style="fill:#ffffff;fill-opacity:1;stroke:#000000;stroke-width:0;stroke-miterlimit:4;stroke-opacity:1" />
      <path
         style="fill:#ffffff;fill-opacity:1;stroke:#000000;stroke-width:0;stroke-miterlimit:4;stroke-opacity:1"
         d="m 1891.7059,1695.2052 c 0,-1.9493 1.4914,-3.5296 3.3313,-3.5296 1.8398,0 3.3313,1.5803 3.3313,3.5296 0,1.9493 -1.4915,3.5295 -3.3313,3.5295 -1.8399,0 -3.3313,-1.5802 -3.3313,-3.5295 z"
         id="path9176"
         inkscape:connector-curvature="0" />
      <path
         inkscape:connector-curvature="0"
         id="path9178"
         d="m 1879.7059,1695.2052 c 0,-1.9493 1.4914,-3.5296 3.3313,-3.5296 1.8398,0 3.3313,1.5803 3.3313,3.5296 0,1.9493 -1.4915,3.5295 -3.3313,3.5295 -1.8399,0 -3.3313,-1.5802 -3.3313,-3.5295 z"
         style="fill:#ffffff;fill-opacity:1;stroke:#000000;stroke-width:0;stroke-miterlimit:4;stroke-opacity:1" />
      <path
         style="fill:#ffffff;fill-opacity:1;stroke:#000000;stroke-width:0;stroke-miterlimit:4;stroke-opacity:1"
         d="m 1879.7059,1679.2052 c 0,-1.9493 1.4914,-3.5296 3.3313,-3.5296 1.8398,0 3.3313,1.5803 3.3313,3.5296 0,1.9493 -1.4915,3.5295 -3.3313,3.5295 -1.8399,0 -3.3313,-1.5802 -3.3313,-3.5295 z"
         id="path9180"
         inkscape:connector-curvature="0" />
      <path
         inkscape:connector-curvature="0"
         id="path9182"
         d="m 1891.7059,1679.2052 c 0,-1.9493 1.4914,-3.5296 3.3313,-3.5296 1.8398,0 3.3313,1.5803 3.3313,3.5296 0,1.9493 -1.4915,3.5295 -3.3313,3.5295 -1.8399,0 -3.3313,-1.5802 -3.3313,-3.5295 z"
         style="fill:#ffffff;fill-opacity:1;stroke:#000000;stroke-width:0;stroke-miterlimit:4;stroke-opacity:1" />
      <path
         style="fill:#ffffff;fill-opacity:1;stroke:#000000;stroke-width:0;stroke-miterlimit:4;stroke-opacity:1"
         d="m 1891.7059,1661.2052 c 0,-1.9493 1.4914,-3.5296 3.3313,-3.5296 1.8398,0 3.3313,1.5803 3.3313,3.5296 0,1.9493 -1.4915,3.5295 -3.3313,3.5295 -1.8399,0 -3.3313,-1.5802 -3.3313,-3.5295 z"
         id="path9184"
         inkscape:connector-curvature="0" />
      <path
         inkscape:connector-curvature="0"
         id="path9186"
         d="m 1879.7059,1661.2052 c 0,-1.9493 1.4914,-3.5296 3.3313,-3.5296 1.8398,0 3.3313,1.5803 3.3313,3.5296 0,1.9493 -1.4915,3.5295 -3.3313,3.5295 -1.8399,0 -3.3313,-1.5802 -3.3313,-3.5295 z"
         style="fill:#ffffff;fill-opacity:1;stroke:#000000;stroke-width:0;stroke-miterlimit:4;stroke-opacity:1" />
      <path
         style="fill:#ffffff;fill-opacity:1;stroke:#000000;stroke-width:0;stroke-miterlimit:4;stroke-opacity:1"
         d="m 1883.7059,1637.2052 c 0,-1.9493 1.4914,-3.5296 3.3313,-3.5296 1.8398,0 3.3313,1.5803 3.3313,3.5296 0,1.9493 -1.4915,3.5295 -3.3313,3.5295 -1.8399,0 -3.3313,-1.5802 -3.3313,-3.5295 z"
         id="path9188"
         inkscape:connector-curvature="0" />
      <path
         inkscape:connector-curvature="0"
         id="path9190"
         d="m 1895.7059,1641.2052 c 0,-1.9493 1.4914,-3.5296 3.3313,-3.5296 1.8398,0 3.3313,1.5803 3.3313,3.5296 0,1.9493 -1.4915,3.5295 -3.3313,3.5295 -1.8399,0 -3.3313,-1.5802 -3.3313,-3.5295 z"
         style="fill:#ffffff;fill-opacity:1;stroke:#000000;stroke-width:0;stroke-miterlimit:4;stroke-opacity:1" />
      <path
         style="fill:#ffffff;fill-opacity:1;stroke:#000000;stroke-width:0;stroke-miterlimit:4;stroke-opacity:1"
         d="m 1893.7059,1619.2052 c 0,-1.9493 1.4914,-3.5296 3.3313,-3.5296 1.8398,0 3.3313,1.5803 3.3313,3.5296 0,1.9493 -1.4915,3.5295 -3.3313,3.5295 -1.8399,0 -3.3313,-1.5802 -3.3313,-3.5295 z"
         id="path9192"
         inkscape:connector-curvature="0" />
      <path
         inkscape:connector-curvature="0"
         id="path9194"
         d="m 1903.7059,1625.2052 c 0,-1.9493 1.4914,-3.5296 3.3313,-3.5296 1.8398,0 3.3313,1.5803 3.3313,3.5296 0,1.9493 -1.4915,3.5295 -3.3313,3.5295 -1.8399,0 -3.3313,-1.5802 -3.3313,-3.5295 z"
         style="fill:#ffffff;fill-opacity:1;stroke:#000000;stroke-width:0;stroke-miterlimit:4;stroke-opacity:1" />
      <path
         style="fill:#ffffff;fill-opacity:1;stroke:#000000;stroke-width:0;stroke-miterlimit:4;stroke-opacity:1"
         d="m 1907.7059,1601.2052 c 0,-1.9493 1.4914,-3.5296 3.3313,-3.5296 1.8398,0 3.3313,1.5803 3.3313,3.5296 0,1.9493 -1.4915,3.5295 -3.3313,3.5295 -1.8399,0 -3.3313,-1.5802 -3.3313,-3.5295 z"
         id="path9196"
         inkscape:connector-curvature="0" />
      <path
         inkscape:connector-curvature="0"
         id="path9198"
         d="m 1915.7059,1609.2052 c 0,-1.9493 1.4914,-3.5296 3.3313,-3.5296 1.8398,0 3.3313,1.5803 3.3313,3.5296 0,1.9493 -1.4915,3.5295 -3.3313,3.5295 -1.8399,0 -3.3313,-1.5802 -3.3313,-3.5295 z"
         style="fill:#ffffff;fill-opacity:1;stroke:#000000;stroke-width:0;stroke-miterlimit:4;stroke-opacity:1" />
      <path
         style="fill:#ffffff;fill-opacity:1;stroke:#000000;stroke-width:0;stroke-miterlimit:4;stroke-opacity:1"
         d="m 1929.7059,1597.2052 c 0,-1.9493 1.4914,-3.5296 3.3313,-3.5296 1.8398,0 3.3313,1.5803 3.3313,3.5296 0,1.9493 -1.4915,3.5295 -3.3313,3.5295 -1.8399,0 -3.3313,-1.5802 -3.3313,-3.5295 z"
         id="path9200"
         inkscape:connector-curvature="0" />
      <path
         inkscape:connector-curvature="0"
         id="path9202"
         d="m 1923.7059,1589.2052 c 0,-1.9493 1.4914,-3.5296 3.3313,-3.5296 1.8398,0 3.3313,1.5803 3.3313,3.5296 0,1.9493 -1.4915,3.5295 -3.3313,3.5295 -1.8399,0 -3.3313,-1.5802 -3.3313,-3.5295 z"
         style="fill:#ffffff;fill-opacity:1;stroke:#000000;stroke-width:0;stroke-miterlimit:4;stroke-opacity:1" />
      <path
         style="fill:#ffffff;fill-opacity:1;stroke:#000000;stroke-width:0;stroke-miterlimit:4;stroke-opacity:1"
         d="m 1943.7059,1593.2052 c 0,-1.9493 1.4914,-3.5296 3.3313,-3.5296 1.8398,0 3.3313,1.5803 3.3313,3.5296 0,1.9493 -1.4915,3.5295 -3.3313,3.5295 -1.8399,0 -3.3313,-1.5802 -3.3313,-3.5295 z"
         id="path9204"
         inkscape:connector-curvature="0" />
      <path
         inkscape:connector-curvature="0"
         id="path9206"
         d="m 1943.7059,1581.2052 c 0,-1.9493 1.4914,-3.5296 3.3313,-3.5296 1.8398,0 3.3313,1.5803 3.3313,3.5296 0,1.9493 -1.4915,3.5295 -3.3313,3.5295 -1.8399,0 -3.3313,-1.5802 -3.3313,-3.5295 z"
         style="fill:#ffffff;fill-opacity:1;stroke:#000000;stroke-width:0;stroke-miterlimit:4;stroke-opacity:1" />
      <path
         style="fill:#ffffff;fill-opacity:1;stroke:#000000;stroke-width:0;stroke-miterlimit:4;stroke-opacity:1"
         d="m 1961.7059,1589.2052 c 0,-1.9493 1.4914,-3.5296 3.3313,-3.5296 1.8398,0 3.3313,1.5803 3.3313,3.5296 0,1.9493 -1.4915,3.5295 -3.3313,3.5295 -1.8399,0 -3.3313,-1.5802 -3.3313,-3.5295 z"
         id="path9208"
         inkscape:connector-curvature="0" />
      <path
         inkscape:connector-curvature="0"
         id="path9210"
         d="m 1961.7059,1577.2052 c 0,-1.9493 1.4914,-3.5296 3.3313,-3.5296 1.8398,0 3.3313,1.5803 3.3313,3.5296 0,1.9493 -1.4915,3.5295 -3.3313,3.5295 -1.8399,0 -3.3313,-1.5802 -3.3313,-3.5295 z"
         style="fill:#ffffff;fill-opacity:1;stroke:#000000;stroke-width:0;stroke-miterlimit:4;stroke-opacity:1" />
      <path
         style="fill:#ffffff;fill-opacity:1;stroke:#000000;stroke-width:0;stroke-miterlimit:4;stroke-opacity:1"
         d="m 1977.7059,1589.2052 c 0,-1.9493 1.4914,-3.5296 3.3313,-3.5296 1.8398,0 3.3313,1.5803 3.3313,3.5296 0,1.9493 -1.4915,3.5295 -3.3313,3.5295 -1.8399,0 -3.3313,-1.5802 -3.3313,-3.5295 z"
         id="path9212"
         inkscape:connector-curvature="0" />
      <path
         inkscape:connector-curvature="0"
         id="path9214"
         d="m 1977.7059,1577.2052 c 0,-1.9493 1.4914,-3.5296 3.3313,-3.5296 1.8398,0 3.3313,1.5803 3.3313,3.5296 0,1.9493 -1.4915,3.5295 -3.3313,3.5295 -1.8399,0 -3.3313,-1.5802 -3.3313,-3.5295 z"
         style="fill:#ffffff;fill-opacity:1;stroke:#000000;stroke-width:0;stroke-miterlimit:4;stroke-opacity:1" />
      <path
         style="fill:#ffffff;fill-opacity:1;stroke:#000000;stroke-width:0;stroke-miterlimit:4;stroke-opacity:1"
         d="m 1999.7059,1583.2052 c 0,-1.9493 1.4914,-3.5296 3.3313,-3.5296 1.8398,0 3.3313,1.5803 3.3313,3.5296 0,1.9493 -1.4915,3.5295 -3.3313,3.5295 -1.8399,0 -3.3313,-1.5802 -3.3313,-3.5295 z"
         id="path9216"
         inkscape:connector-curvature="0" />
      <path
         inkscape:connector-curvature="0"
         id="path9218"
         d="m 1995.7059,1593.2052 c 0,-1.9493 1.4914,-3.5296 3.3313,-3.5296 1.8398,0 3.3313,1.5803 3.3313,3.5296 0,1.9493 -1.4915,3.5295 -3.3313,3.5295 -1.8399,0 -3.3313,-1.5802 -3.3313,-3.5295 z"
         style="fill:#ffffff;fill-opacity:1;stroke:#000000;stroke-width:0;stroke-miterlimit:4;stroke-opacity:1" />
      <path
         style="fill:#ffffff;fill-opacity:1;stroke:#000000;stroke-width:0;stroke-miterlimit:4;stroke-opacity:1"
         d="m 2011.7059,1601.2052 c 0,-1.9493 1.4914,-3.5296 3.3313,-3.5296 1.8398,0 3.3313,1.5803 3.3313,3.5296 0,1.9493 -1.4915,3.5295 -3.3313,3.5295 -1.8399,0 -3.3313,-1.5802 -3.3313,-3.5295 z"
         id="path9220"
         inkscape:connector-curvature="0" />
      <path
         inkscape:connector-curvature="0"
         id="path9222"
         d="m 2019.7059,1591.2052 c 0,-1.9493 1.4914,-3.5296 3.3313,-3.5296 1.8398,0 3.3313,1.5803 3.3313,3.5296 0,1.9493 -1.4915,3.5295 -3.3313,3.5295 -1.8399,0 -3.3313,-1.5802 -3.3313,-3.5295 z"
         style="fill:#ffffff;fill-opacity:1;stroke:#000000;stroke-width:0;stroke-miterlimit:4;stroke-opacity:1" />
      <path
         style="fill:#ffffff;fill-opacity:1;stroke:#000000;stroke-width:0;stroke-miterlimit:4;stroke-opacity:1"
         d="m 2025.7059,1613.2052 c 0,-1.9493 1.4914,-3.5296 3.3313,-3.5296 1.8398,0 3.3313,1.5803 3.3313,3.5296 0,1.9493 -1.4915,3.5295 -3.3313,3.5295 -1.8399,0 -3.3313,-1.5802 -3.3313,-3.5295 z"
         id="path9224"
         inkscape:connector-curvature="0" />
      <path
         inkscape:connector-curvature="0"
         id="path9226"
         d="m 2035.7059,1605.2052 c 0,-1.9493 1.4914,-3.5296 3.3313,-3.5296 1.8398,0 3.3313,1.5803 3.3313,3.5296 0,1.9493 -1.4915,3.5295 -3.3313,3.5295 -1.8399,0 -3.3313,-1.5802 -3.3313,-3.5295 z"
         style="fill:#ffffff;fill-opacity:1;stroke:#000000;stroke-width:0;stroke-miterlimit:4;stroke-opacity:1" />
      <path
         style="fill:#ffffff;fill-opacity:1;stroke:#000000;stroke-width:0;stroke-miterlimit:4;stroke-opacity:1"
         d="m 2035.7059,1627.2052 c 0,-1.9493 1.4914,-3.5296 3.3313,-3.5296 1.8398,0 3.3313,1.5803 3.3313,3.5296 0,1.9493 -1.4915,3.5295 -3.3313,3.5295 -1.8399,0 -3.3313,-1.5802 -3.3313,-3.5295 z"
         id="path9228"
         inkscape:connector-curvature="0" />
      <path
         inkscape:connector-curvature="0"
         id="path9230"
         d="m 2045.7059,1623.2052 c 0,-1.9493 1.4914,-3.5296 3.3313,-3.5296 1.8398,0 3.3313,1.5803 3.3313,3.5296 0,1.9493 -1.4915,3.5295 -3.3313,3.5295 -1.8399,0 -3.3313,-1.5802 -3.3313,-3.5295 z"
         style="fill:#ffffff;fill-opacity:1;stroke:#000000;stroke-width:0;stroke-miterlimit:4;stroke-opacity:1" />
    </g>
  </g>
</svg>
