<?xml version="1.0" encoding="UTF-8" standalone="no"?>
<!-- Created with Inkscape (http://www.inkscape.org/) -->

<svg
   xmlns:dc="http://purl.org/dc/elements/1.1/"
   xmlns:cc="http://creativecommons.org/ns#"
   xmlns:rdf="http://www.w3.org/1999/02/22-rdf-syntax-ns#"
   xmlns:svg="http://www.w3.org/2000/svg"
   xmlns="http://www.w3.org/2000/svg"
   xmlns:sodipodi="http://sodipodi.sourceforge.net/DTD/sodipodi-0.dtd"
   xmlns:inkscape="http://www.inkscape.org/namespaces/inkscape"
   width="487.0304"
   height="476.53421"
   id="svg4927"
   version="1.1"
   inkscape:version="0.91 r13725"
   sodipodi:docname="geschwindigkeitsvoranzeiger-70-light.svg">
  <defs
     id="defs4929" />
  <sodipodi:namedview
     id="base"
     pagecolor="#ffffff"
     bordercolor="#666666"
     borderopacity="1.0"
     inkscape:pageopacity="0.0"
     inkscape:pageshadow="2"
     inkscape:zoom="0.57875767"
     inkscape:cx="-539.47745"
     inkscape:cy="79.38409"
     inkscape:document-units="px"
     inkscape:current-layer="layer1"
     showgrid="false"
     inkscape:window-width="1920"
     inkscape:window-height="1003"
     inkscape:window-x="-9"
     inkscape:window-y="-9"
     inkscape:window-maximized="1"
     showguides="true"
     inkscape:guide-bbox="true"
     fit-margin-top="0"
     fit-margin-left="0"
     fit-margin-right="0"
     fit-margin-bottom="0" />
  <metadata
     id="metadata4932">
    <rdf:RDF>
      <cc:Work
         rdf:about="">
        <dc:format>image/svg+xml</dc:format>
        <dc:type
           rdf:resource="http://purl.org/dc/dcmitype/StillImage" />
        <dc:title></dc:title>
      </cc:Work>
    </rdf:RDF>
  </metadata>
  <g
     inkscape:label="Ebene 1"
     inkscape:groupmode="layer"
     id="layer1"
     transform="translate(-7.6697692,-566.15798)">
    <g
       id="g12007">
      <path
         inkscape:connector-curvature="0"
         id="path3847"
         d="m 493.98832,1041.9834 -485.6097625,0 0,-475.11663 483.5607825,0 z"
         style="fill:#000000;fill-opacity:1;stroke:#000000;stroke-width:1.41757667px;stroke-linecap:butt;stroke-linejoin:miter;stroke-opacity:1" />
      <path
         inkscape:connector-curvature="0"
         id="path9049"
         d="m 145.91112,641.04516 c 0,-2.73193 2.09019,-4.9467 4.66879,-4.9467 2.57846,0 4.66879,2.21477 4.66879,4.9467 0,2.73192 -2.09033,4.94656 -4.66879,4.94656 -2.5786,0 -4.66879,-2.21464 -4.66879,-4.94656 z"
         style="fill:#ffff00;fill-opacity:1;stroke:#000000;stroke-width:0;stroke-miterlimit:4;stroke-opacity:1" />
      <path
         style="fill:#ffff00;fill-opacity:1;stroke:#000000;stroke-width:0;stroke-miterlimit:4;stroke-opacity:1"
         d="m 367.48486,646.77543 c 0,-2.73192 2.09018,-4.9467 4.66878,-4.9467 2.57847,0 4.66879,2.21478 4.66879,4.9467 0,2.73193 -2.09032,4.94657 -4.66879,4.94657 -2.5786,0 -4.66878,-2.21464 -4.66878,-4.94657 z"
         id="path9051"
         inkscape:connector-curvature="0" />
      <path
         style="fill:#ffff00;fill-opacity:1;stroke:#000000;stroke-width:0;stroke-miterlimit:4;stroke-opacity:1"
         d="m 145.91112,618.62131 c 0,-2.73193 2.09019,-4.94671 4.66879,-4.94671 2.57846,0 4.66879,2.21478 4.66879,4.94671 0,2.73192 -2.09033,4.94656 -4.66879,4.94656 -2.5786,0 -4.66879,-2.21464 -4.66879,-4.94656 z"
         id="path11552"
         inkscape:connector-curvature="0" />
      <path
         inkscape:connector-curvature="0"
         id="path11554"
         d="m 145.91112,593.39447 c 0,-2.73193 2.09019,-4.9467 4.66879,-4.9467 2.57846,0 4.66879,2.21477 4.66879,4.9467 0,2.73193 -2.09033,4.94656 -4.66879,4.94656 -2.5786,0 -4.66879,-2.21463 -4.66879,-4.94656 z"
         style="fill:#ffff00;fill-opacity:1;stroke:#000000;stroke-width:0;stroke-miterlimit:4;stroke-opacity:1" />
      <path
         style="fill:#ffff00;fill-opacity:1;stroke:#000000;stroke-width:0;stroke-miterlimit:4;stroke-opacity:1"
         d="m 145.91112,579.37956 c 0,-2.73192 2.09019,-4.9467 4.66879,-4.9467 2.57846,0 4.66879,2.21478 4.66879,4.9467 0,2.73193 -2.09033,4.94656 -4.66879,4.94656 -2.5786,0 -4.66879,-2.21463 -4.66879,-4.94656 z"
         id="path11556"
         inkscape:connector-curvature="0" />
      <path
         inkscape:connector-curvature="0"
         id="path11558"
         d="m 165.532,579.37956 c 0,-2.73192 2.09018,-4.9467 4.66878,-4.9467 2.57846,0 4.66879,2.21478 4.66879,4.9467 0,2.73193 -2.09033,4.94656 -4.66879,4.94656 -2.5786,0 -4.66878,-2.21463 -4.66878,-4.94656 z"
         style="fill:#ffff00;fill-opacity:1;stroke:#000000;stroke-width:0;stroke-miterlimit:4;stroke-opacity:1" />
      <path
         style="fill:#ffff00;fill-opacity:1;stroke:#000000;stroke-width:0;stroke-miterlimit:4;stroke-opacity:1"
         d="m 190.75883,579.37956 c 0,-2.73192 2.09018,-4.9467 4.66879,-4.9467 2.57846,0 4.66878,2.21478 4.66878,4.9467 0,2.73193 -2.09032,4.94656 -4.66878,4.94656 -2.57861,0 -4.66879,-2.21463 -4.66879,-4.94656 z"
         id="path11560"
         inkscape:connector-curvature="0" />
      <path
         inkscape:connector-curvature="0"
         id="path11562"
         d="m 218.78865,579.37956 c 0,-2.73192 2.09018,-4.9467 4.66878,-4.9467 2.57846,0 4.66879,2.21478 4.66879,4.9467 0,2.73193 -2.09033,4.94656 -4.66879,4.94656 -2.5786,0 -4.66878,-2.21463 -4.66878,-4.94656 z"
         style="fill:#ffff00;fill-opacity:1;stroke:#000000;stroke-width:0;stroke-miterlimit:4;stroke-opacity:1" />
      <path
         style="fill:#ffff00;fill-opacity:1;stroke:#000000;stroke-width:0;stroke-miterlimit:4;stroke-opacity:1"
         d="m 246.81846,579.37956 c 0,-2.73192 2.09019,-4.9467 4.66879,-4.9467 2.57846,0 4.66878,2.21478 4.66878,4.9467 0,2.73193 -2.09032,4.94656 -4.66878,4.94656 -2.5786,0 -4.66879,-2.21463 -4.66879,-4.94656 z"
         id="path11564"
         inkscape:connector-curvature="0" />
      <path
         inkscape:connector-curvature="0"
         id="path11566"
         d="m 272.0453,579.37956 c 0,-2.73192 2.09018,-4.9467 4.66878,-4.9467 2.57847,0 4.66879,2.21478 4.66879,4.9467 0,2.73193 -2.09032,4.94656 -4.66879,4.94656 -2.5786,0 -4.66878,-2.21463 -4.66878,-4.94656 z"
         style="fill:#ffff00;fill-opacity:1;stroke:#000000;stroke-width:0;stroke-miterlimit:4;stroke-opacity:1" />
      <path
         style="fill:#ffff00;fill-opacity:1;stroke:#000000;stroke-width:0;stroke-miterlimit:4;stroke-opacity:1"
         d="m 300.07511,579.37956 c 0,-2.73192 2.09019,-4.9467 4.66879,-4.9467 2.57846,0 4.66878,2.21478 4.66878,4.9467 0,2.73193 -2.09032,4.94656 -4.66878,4.94656 -2.5786,0 -4.66879,-2.21463 -4.66879,-4.94656 z"
         id="path11568"
         inkscape:connector-curvature="0" />
      <path
         inkscape:connector-curvature="0"
         id="path11570"
         d="m 328.10493,579.37956 c 0,-2.73192 2.09018,-4.9467 4.66878,-4.9467 2.57847,0 4.66879,2.21478 4.66879,4.9467 0,2.73193 -2.09032,4.94656 -4.66879,4.94656 -2.5786,0 -4.66878,-2.21463 -4.66878,-4.94656 z"
         style="fill:#ffff00;fill-opacity:1;stroke:#000000;stroke-width:0;stroke-miterlimit:4;stroke-opacity:1" />
      <path
         style="fill:#ffff00;fill-opacity:1;stroke:#000000;stroke-width:0;stroke-miterlimit:4;stroke-opacity:1"
         d="m 353.33176,579.37956 c 0,-2.73192 2.09019,-4.9467 4.66879,-4.9467 2.57846,0 4.66879,2.21478 4.66879,4.9467 0,2.73193 -2.09033,4.94656 -4.66879,4.94656 -2.5786,0 -4.66879,-2.21463 -4.66879,-4.94656 z"
         id="path11572"
         inkscape:connector-curvature="0" />
      <path
         inkscape:connector-curvature="0"
         id="path11574"
         d="m 370.14965,579.37956 c 0,-2.73192 2.09019,-4.9467 4.66879,-4.9467 2.57846,0 4.66878,2.21478 4.66878,4.9467 0,2.73193 -2.09032,4.94656 -4.66878,4.94656 -2.5786,0 -4.66879,-2.21463 -4.66879,-4.94656 z"
         style="fill:#ffff00;fill-opacity:1;stroke:#000000;stroke-width:0;stroke-miterlimit:4;stroke-opacity:1" />
      <path
         style="fill:#ffff00;fill-opacity:1;stroke:#000000;stroke-width:0;stroke-miterlimit:4;stroke-opacity:1"
         d="m 370.14965,593.39447 c 0,-2.73193 2.09019,-4.9467 4.66879,-4.9467 2.57846,0 4.66878,2.21477 4.66878,4.9467 0,2.73193 -2.09032,4.94656 -4.66878,4.94656 -2.5786,0 -4.66879,-2.21463 -4.66879,-4.94656 z"
         id="path11576"
         inkscape:connector-curvature="0" />
      <path
         inkscape:connector-curvature="0"
         id="path11578"
         d="m 353.33176,593.39447 c 0,-2.73193 2.09019,-4.9467 4.66879,-4.9467 2.57846,0 4.66879,2.21477 4.66879,4.9467 0,2.73193 -2.09033,4.94656 -4.66879,4.94656 -2.5786,0 -4.66879,-2.21463 -4.66879,-4.94656 z"
         style="fill:#ffff00;fill-opacity:1;stroke:#000000;stroke-width:0;stroke-miterlimit:4;stroke-opacity:1" />
      <path
         style="fill:#ffff00;fill-opacity:1;stroke:#000000;stroke-width:0;stroke-miterlimit:4;stroke-opacity:1"
         d="m 328.10493,593.39447 c 0,-2.73193 2.09018,-4.9467 4.66878,-4.9467 2.57847,0 4.66879,2.21477 4.66879,4.9467 0,2.73193 -2.09032,4.94656 -4.66879,4.94656 -2.5786,0 -4.66878,-2.21463 -4.66878,-4.94656 z"
         id="path11580"
         inkscape:connector-curvature="0" />
      <path
         inkscape:connector-curvature="0"
         id="path11582"
         d="m 300.07511,593.39447 c 0,-2.73193 2.09019,-4.9467 4.66879,-4.9467 2.57846,0 4.66878,2.21477 4.66878,4.9467 0,2.73193 -2.09032,4.94656 -4.66878,4.94656 -2.5786,0 -4.66879,-2.21463 -4.66879,-4.94656 z"
         style="fill:#ffff00;fill-opacity:1;stroke:#000000;stroke-width:0;stroke-miterlimit:4;stroke-opacity:1" />
      <path
         style="fill:#ffff00;fill-opacity:1;stroke:#000000;stroke-width:0;stroke-miterlimit:4;stroke-opacity:1"
         d="m 272.0453,593.39447 c 0,-2.73193 2.09018,-4.9467 4.66878,-4.9467 2.57847,0 4.66879,2.21477 4.66879,4.9467 0,2.73193 -2.09032,4.94656 -4.66879,4.94656 -2.5786,0 -4.66878,-2.21463 -4.66878,-4.94656 z"
         id="path11584"
         inkscape:connector-curvature="0" />
      <path
         inkscape:connector-curvature="0"
         id="path11586"
         d="m 246.81846,593.39447 c 0,-2.73193 2.09019,-4.9467 4.66879,-4.9467 2.57846,0 4.66878,2.21477 4.66878,4.9467 0,2.73193 -2.09032,4.94656 -4.66878,4.94656 -2.5786,0 -4.66879,-2.21463 -4.66879,-4.94656 z"
         style="fill:#ffff00;fill-opacity:1;stroke:#000000;stroke-width:0;stroke-miterlimit:4;stroke-opacity:1" />
      <path
         style="fill:#ffff00;fill-opacity:1;stroke:#000000;stroke-width:0;stroke-miterlimit:4;stroke-opacity:1"
         d="m 218.78865,593.39447 c 0,-2.73193 2.09018,-4.9467 4.66878,-4.9467 2.57846,0 4.66879,2.21477 4.66879,4.9467 0,2.73193 -2.09033,4.94656 -4.66879,4.94656 -2.5786,0 -4.66878,-2.21463 -4.66878,-4.94656 z"
         id="path11588"
         inkscape:connector-curvature="0" />
      <path
         inkscape:connector-curvature="0"
         id="path11590"
         d="m 190.75883,593.39447 c 0,-2.73193 2.09018,-4.9467 4.66879,-4.9467 2.57846,0 4.66878,2.21477 4.66878,4.9467 0,2.73193 -2.09032,4.94656 -4.66878,4.94656 -2.57861,0 -4.66879,-2.21463 -4.66879,-4.94656 z"
         style="fill:#ffff00;fill-opacity:1;stroke:#000000;stroke-width:0;stroke-miterlimit:4;stroke-opacity:1" />
      <path
         style="fill:#ffff00;fill-opacity:1;stroke:#000000;stroke-width:0;stroke-miterlimit:4;stroke-opacity:1"
         d="m 165.532,593.39447 c 0,-2.73193 2.09018,-4.9467 4.66878,-4.9467 2.57846,0 4.66879,2.21477 4.66879,4.9467 0,2.73193 -2.09033,4.94656 -4.66879,4.94656 -2.5786,0 -4.66878,-2.21463 -4.66878,-4.94656 z"
         id="path11592"
         inkscape:connector-curvature="0" />
      <path
         inkscape:connector-curvature="0"
         id="path11594"
         d="m 165.532,618.62131 c 0,-2.73193 2.09018,-4.94671 4.66878,-4.94671 2.57846,0 4.66879,2.21478 4.66879,4.94671 0,2.73192 -2.09033,4.94656 -4.66879,4.94656 -2.5786,0 -4.66878,-2.21464 -4.66878,-4.94656 z"
         style="fill:#ffff00;fill-opacity:1;stroke:#000000;stroke-width:0;stroke-miterlimit:4;stroke-opacity:1" />
      <path
         style="fill:#ffff00;fill-opacity:1;stroke:#000000;stroke-width:0;stroke-miterlimit:4;stroke-opacity:1"
         d="m 165.532,641.04516 c 0,-2.73193 2.09018,-4.9467 4.66878,-4.9467 2.57846,0 4.66879,2.21477 4.66879,4.9467 0,2.73192 -2.09033,4.94656 -4.66879,4.94656 -2.5786,0 -4.66878,-2.21464 -4.66878,-4.94656 z"
         id="path11596"
         inkscape:connector-curvature="0" />
      <path
         inkscape:connector-curvature="0"
         id="path11598"
         d="m 370.14965,615.81832 c 0,-2.73192 2.09019,-4.9467 4.66879,-4.9467 2.57846,0 4.66878,2.21478 4.66878,4.9467 0,2.73193 -2.09032,4.94657 -4.66878,4.94657 -2.5786,0 -4.66879,-2.21464 -4.66879,-4.94657 z"
         style="fill:#ffff00;fill-opacity:1;stroke:#000000;stroke-width:0;stroke-miterlimit:4;stroke-opacity:1" />
      <path
         style="fill:#ffff00;fill-opacity:1;stroke:#000000;stroke-width:0;stroke-miterlimit:4;stroke-opacity:1"
         d="m 353.33176,615.81832 c 0,-2.73192 2.09019,-4.9467 4.66879,-4.9467 2.57846,0 4.66879,2.21478 4.66879,4.9467 0,2.73193 -2.09033,4.94657 -4.66879,4.94657 -2.5786,0 -4.66879,-2.21464 -4.66879,-4.94657 z"
         id="path11600"
         inkscape:connector-curvature="0" />
      <path
         inkscape:connector-curvature="0"
         id="path11602"
         d="m 353.33176,643.84814 c 0,-2.73193 2.09019,-4.9467 4.66879,-4.9467 2.57846,0 4.66879,2.21477 4.66879,4.9467 0,2.73193 -2.09033,4.94656 -4.66879,4.94656 -2.5786,0 -4.66879,-2.21463 -4.66879,-4.94656 z"
         style="fill:#ffff00;fill-opacity:1;stroke:#000000;stroke-width:0;stroke-miterlimit:4;stroke-opacity:1" />
      <path
         style="fill:#ffff00;fill-opacity:1;stroke:#000000;stroke-width:0;stroke-miterlimit:4;stroke-opacity:1"
         d="m 353.33176,669.07497 c 0,-2.73192 2.09019,-4.9467 4.66879,-4.9467 2.57846,0 4.66879,2.21478 4.66879,4.9467 0,2.73193 -2.09033,4.94657 -4.66879,4.94657 -2.5786,0 -4.66879,-2.21464 -4.66879,-4.94657 z"
         id="path11604"
         inkscape:connector-curvature="0" />
      <path
         inkscape:connector-curvature="0"
         id="path11606"
         d="m 339.31685,660.66603 c 0,-2.73193 2.09019,-4.9467 4.66879,-4.9467 2.57846,0 4.66879,2.21477 4.66879,4.9467 0,2.73193 -2.09033,4.94656 -4.66879,4.94656 -2.5786,0 -4.66879,-2.21463 -4.66879,-4.94656 z"
         style="fill:#ffff00;fill-opacity:1;stroke:#000000;stroke-width:0;stroke-miterlimit:4;stroke-opacity:1" />
      <path
         style="fill:#ffff00;fill-opacity:1;stroke:#000000;stroke-width:0;stroke-miterlimit:4;stroke-opacity:1"
         d="m 328.10493,683.08988 c 0,-2.73192 2.09018,-4.9467 4.66878,-4.9467 2.57847,0 4.66879,2.21478 4.66879,4.9467 0,2.73193 -2.09032,4.94656 -4.66879,4.94656 -2.5786,0 -4.66878,-2.21463 -4.66878,-4.94656 z"
         id="path11608"
         inkscape:connector-curvature="0" />
      <path
         inkscape:connector-curvature="0"
         id="path11610"
         d="m 342.11984,691.49883 c 0,-2.73193 2.09018,-4.94671 4.66878,-4.94671 2.57847,0 4.66879,2.21478 4.66879,4.94671 0,2.73192 -2.09032,4.94656 -4.66879,4.94656 -2.5786,0 -4.66878,-2.21464 -4.66878,-4.94656 z"
         style="fill:#ffff00;fill-opacity:1;stroke:#000000;stroke-width:0;stroke-miterlimit:4;stroke-opacity:1" />
      <path
         style="fill:#ffff00;fill-opacity:1;stroke:#000000;stroke-width:0;stroke-miterlimit:4;stroke-opacity:1"
         d="m 328.10493,713.92268 c 0,-2.73193 2.09018,-4.9467 4.66878,-4.9467 2.57847,0 4.66879,2.21477 4.66879,4.9467 0,2.73193 -2.09032,4.94656 -4.66879,4.94656 -2.5786,0 -4.66878,-2.21463 -4.66878,-4.94656 z"
         id="path11612"
         inkscape:connector-curvature="0" />
      <path
         inkscape:connector-curvature="0"
         id="path11614"
         d="m 314.09002,705.51373 c 0,-2.73192 2.09018,-4.9467 4.66879,-4.9467 2.57846,0 4.66878,2.21478 4.66878,4.9467 0,2.73193 -2.09032,4.94657 -4.66878,4.94657 -2.57861,0 -4.66879,-2.21464 -4.66879,-4.94657 z"
         style="fill:#ffff00;fill-opacity:1;stroke:#000000;stroke-width:0;stroke-miterlimit:4;stroke-opacity:1" />
      <path
         style="fill:#ffff00;fill-opacity:1;stroke:#000000;stroke-width:0;stroke-miterlimit:4;stroke-opacity:1"
         d="m 314.09002,736.34653 c 0,-2.73192 2.09018,-4.9467 4.66879,-4.9467 2.57846,0 4.66878,2.21478 4.66878,4.9467 0,2.73193 -2.09032,4.94656 -4.66878,4.94656 -2.57861,0 -4.66879,-2.21463 -4.66879,-4.94656 z"
         id="path11616"
         inkscape:connector-curvature="0" />
      <path
         inkscape:connector-curvature="0"
         id="path11618"
         d="m 300.07511,725.13461 c 0,-2.73193 2.09019,-4.94671 4.66879,-4.94671 2.57846,0 4.66878,2.21478 4.66878,4.94671 0,2.73192 -2.09032,4.94656 -4.66878,4.94656 -2.5786,0 -4.66879,-2.21464 -4.66879,-4.94656 z"
         style="fill:#ffff00;fill-opacity:1;stroke:#000000;stroke-width:0;stroke-miterlimit:4;stroke-opacity:1" />
      <path
         style="fill:#ffff00;fill-opacity:1;stroke:#000000;stroke-width:0;stroke-miterlimit:4;stroke-opacity:1"
         d="m 300.07511,758.77039 c 0,-2.73193 2.09019,-4.94671 4.66879,-4.94671 2.57846,0 4.66878,2.21478 4.66878,4.94671 0,2.73192 -2.09032,4.94656 -4.66878,4.94656 -2.5786,0 -4.66879,-2.21464 -4.66879,-4.94656 z"
         id="path11620"
         inkscape:connector-curvature="0" />
      <path
         inkscape:connector-curvature="0"
         id="path11622"
         d="m 286.0602,747.55846 c 0,-2.73193 2.09019,-4.9467 4.66879,-4.9467 2.57846,0 4.66879,2.21477 4.66879,4.9467 0,2.73192 -2.09033,4.94656 -4.66879,4.94656 -2.5786,0 -4.66879,-2.21464 -4.66879,-4.94656 z"
         style="fill:#ffff00;fill-opacity:1;stroke:#000000;stroke-width:0;stroke-miterlimit:4;stroke-opacity:1" />
      <path
         style="fill:#ffff00;fill-opacity:1;stroke:#000000;stroke-width:0;stroke-miterlimit:4;stroke-opacity:1"
         d="m 288.86319,778.39126 c 0,-2.73193 2.09018,-4.94671 4.66878,-4.94671 2.57846,0 4.66879,2.21478 4.66879,4.94671 0,2.73192 -2.09033,4.94656 -4.66879,4.94656 -2.5786,0 -4.66878,-2.21464 -4.66878,-4.94656 z"
         id="path11624"
         inkscape:connector-curvature="0" />
      <path
         inkscape:connector-curvature="0"
         id="path11626"
         d="m 274.84828,769.98231 c 0,-2.73192 2.09018,-4.9467 4.66878,-4.9467 2.57847,0 4.66879,2.21478 4.66879,4.9467 0,2.73193 -2.09032,4.94656 -4.66879,4.94656 -2.5786,0 -4.66878,-2.21463 -4.66878,-4.94656 z"
         style="fill:#ffff00;fill-opacity:1;stroke:#000000;stroke-width:0;stroke-miterlimit:4;stroke-opacity:1" />
      <path
         style="fill:#ffff00;fill-opacity:1;stroke:#000000;stroke-width:0;stroke-miterlimit:4;stroke-opacity:1"
         d="m 277.65126,798.01213 c 0,-2.73193 2.09018,-4.9467 4.66879,-4.9467 2.57846,0 4.66878,2.21477 4.66878,4.9467 0,2.73192 -2.09032,4.94656 -4.66878,4.94656 -2.57861,0 -4.66879,-2.21464 -4.66879,-4.94656 z"
         id="path11628"
         inkscape:connector-curvature="0" />
      <path
         inkscape:connector-curvature="0"
         id="path11630"
         d="m 263.63635,789.60318 c 0,-2.73192 2.09018,-4.9467 4.66879,-4.9467 2.57846,0 4.66878,2.21478 4.66878,4.9467 0,2.73193 -2.09032,4.94656 -4.66878,4.94656 -2.57861,0 -4.66879,-2.21463 -4.66879,-4.94656 z"
         style="fill:#ffff00;fill-opacity:1;stroke:#000000;stroke-width:0;stroke-miterlimit:4;stroke-opacity:1" />
      <path
         style="fill:#ffff00;fill-opacity:1;stroke:#000000;stroke-width:0;stroke-miterlimit:4;stroke-opacity:1"
         d="m 263.63635,820.43598 c 0,-2.73193 2.09018,-4.9467 4.66879,-4.9467 2.57846,0 4.66878,2.21477 4.66878,4.9467 0,2.73193 -2.09032,4.94656 -4.66878,4.94656 -2.57861,0 -4.66879,-2.21463 -4.66879,-4.94656 z"
         id="path11632"
         inkscape:connector-curvature="0" />
      <path
         inkscape:connector-curvature="0"
         id="path11634"
         d="m 249.62144,812.02704 c 0,-2.73193 2.09019,-4.94671 4.66879,-4.94671 2.57846,0 4.66879,2.21478 4.66879,4.94671 0,2.73192 -2.09033,4.94656 -4.66879,4.94656 -2.5786,0 -4.66879,-2.21464 -4.66879,-4.94656 z"
         style="fill:#ffff00;fill-opacity:1;stroke:#000000;stroke-width:0;stroke-miterlimit:4;stroke-opacity:1" />
      <path
         style="fill:#ffff00;fill-opacity:1;stroke:#000000;stroke-width:0;stroke-miterlimit:4;stroke-opacity:1"
         d="m 249.62144,840.05685 c 0,-2.73192 2.09019,-4.9467 4.66879,-4.9467 2.57846,0 4.66879,2.21478 4.66879,4.9467 0,2.73193 -2.09033,4.94656 -4.66879,4.94656 -2.5786,0 -4.66879,-2.21463 -4.66879,-4.94656 z"
         id="path11636"
         inkscape:connector-curvature="0" />
      <path
         inkscape:connector-curvature="0"
         id="path11638"
         d="m 235.60654,834.45089 c 0,-2.73193 2.09018,-4.9467 4.66878,-4.9467 2.57846,0 4.66879,2.21477 4.66879,4.9467 0,2.73192 -2.09033,4.94656 -4.66879,4.94656 -2.5786,0 -4.66878,-2.21464 -4.66878,-4.94656 z"
         style="fill:#ffff00;fill-opacity:1;stroke:#000000;stroke-width:0;stroke-miterlimit:4;stroke-opacity:1" />
      <path
         style="fill:#ffff00;fill-opacity:1;stroke:#000000;stroke-width:0;stroke-miterlimit:4;stroke-opacity:1"
         d="m 238.40952,862.4807 c 0,-2.73192 2.09018,-4.9467 4.66878,-4.9467 2.57847,0 4.66879,2.21478 4.66879,4.9467 0,2.73193 -2.09032,4.94657 -4.66879,4.94657 -2.5786,0 -4.66878,-2.21464 -4.66878,-4.94657 z"
         id="path11640"
         inkscape:connector-curvature="0" />
      <path
         inkscape:connector-curvature="0"
         id="path11642"
         d="m 221.59163,856.87474 c 0,-2.73192 2.09018,-4.9467 4.66878,-4.9467 2.57847,0 4.66879,2.21478 4.66879,4.9467 0,2.73193 -2.09032,4.94656 -4.66879,4.94656 -2.5786,0 -4.66878,-2.21463 -4.66878,-4.94656 z"
         style="fill:#ffff00;fill-opacity:1;stroke:#000000;stroke-width:0;stroke-miterlimit:4;stroke-opacity:1" />
      <path
         style="fill:#ffff00;fill-opacity:1;stroke:#000000;stroke-width:0;stroke-miterlimit:4;stroke-opacity:1"
         d="m 221.59163,884.90456 c 0,-2.73193 2.09018,-4.9467 4.66878,-4.9467 2.57847,0 4.66879,2.21477 4.66879,4.9467 0,2.73192 -2.09032,4.94656 -4.66879,4.94656 -2.5786,0 -4.66878,-2.21464 -4.66878,-4.94656 z"
         id="path11644"
         inkscape:connector-curvature="0" />
      <path
         inkscape:connector-curvature="0"
         id="path11646"
         d="m 207.57672,876.49561 c 0,-2.73192 2.09018,-4.9467 4.66879,-4.9467 2.57846,0 4.66878,2.21478 4.66878,4.9467 0,2.73193 -2.09032,4.94656 -4.66878,4.94656 -2.57861,0 -4.66879,-2.21463 -4.66879,-4.94656 z"
         style="fill:#ffff00;fill-opacity:1;stroke:#000000;stroke-width:0;stroke-miterlimit:4;stroke-opacity:1" />
      <path
         style="fill:#ffff00;fill-opacity:1;stroke:#000000;stroke-width:0;stroke-miterlimit:4;stroke-opacity:1"
         d="m 210.3797,907.32841 c 0,-2.73193 2.09018,-4.9467 4.66879,-4.9467 2.57846,0 4.66878,2.21477 4.66878,4.9467 0,2.73193 -2.09032,4.94656 -4.66878,4.94656 -2.57861,0 -4.66879,-2.21463 -4.66879,-4.94656 z"
         id="path11648"
         inkscape:connector-curvature="0" />
      <path
         inkscape:connector-curvature="0"
         id="path11650"
         d="m 196.36479,898.91947 c 0,-2.73193 2.09019,-4.94671 4.66879,-4.94671 2.57846,0 4.66879,2.21478 4.66879,4.94671 0,2.73192 -2.09033,4.94656 -4.66879,4.94656 -2.5786,0 -4.66879,-2.21464 -4.66879,-4.94656 z"
         style="fill:#ffff00;fill-opacity:1;stroke:#000000;stroke-width:0;stroke-miterlimit:4;stroke-opacity:1" />
      <path
         style="fill:#ffff00;fill-opacity:1;stroke:#000000;stroke-width:0;stroke-miterlimit:4;stroke-opacity:1"
         d="m 196.36479,926.94928 c 0,-2.73192 2.09019,-4.9467 4.66879,-4.9467 2.57846,0 4.66879,2.21478 4.66879,4.9467 0,2.73193 -2.09033,4.94656 -4.66879,4.94656 -2.5786,0 -4.66879,-2.21463 -4.66879,-4.94656 z"
         id="path11652"
         inkscape:connector-curvature="0" />
      <path
         inkscape:connector-curvature="0"
         id="path11654"
         d="m 182.34989,921.34332 c 0,-2.73193 2.09018,-4.9467 4.66878,-4.9467 2.57846,0 4.66879,2.21477 4.66879,4.9467 0,2.73192 -2.09033,4.94656 -4.66879,4.94656 -2.5786,0 -4.66878,-2.21464 -4.66878,-4.94656 z"
         style="fill:#ffff00;fill-opacity:1;stroke:#000000;stroke-width:0;stroke-miterlimit:4;stroke-opacity:1" />
      <path
         style="fill:#ffff00;fill-opacity:1;stroke:#000000;stroke-width:0;stroke-miterlimit:4;stroke-opacity:1"
         d="m 182.34989,949.37313 c 0,-2.73192 2.09018,-4.9467 4.66878,-4.9467 2.57846,0 4.66879,2.21478 4.66879,4.9467 0,2.73193 -2.09033,4.94657 -4.66879,4.94657 -2.5786,0 -4.66878,-2.21464 -4.66878,-4.94657 z"
         id="path11656"
         inkscape:connector-curvature="0" />
      <path
         inkscape:connector-curvature="0"
         id="path11658"
         d="m 171.13796,940.96419 c 0,-2.73193 2.09018,-4.9467 4.66878,-4.9467 2.57847,0 4.66879,2.21477 4.66879,4.9467 0,2.73193 -2.09032,4.94656 -4.66879,4.94656 -2.5786,0 -4.66878,-2.21463 -4.66878,-4.94656 z"
         style="fill:#ffff00;fill-opacity:1;stroke:#000000;stroke-width:0;stroke-miterlimit:4;stroke-opacity:1" />
      <path
         style="fill:#ffff00;fill-opacity:1;stroke:#000000;stroke-width:0;stroke-miterlimit:4;stroke-opacity:1"
         d="m 171.13796,971.79699 c 0,-2.73193 2.09018,-4.94671 4.66878,-4.94671 2.57847,0 4.66879,2.21478 4.66879,4.94671 0,2.73192 -2.09032,4.94656 -4.66879,4.94656 -2.5786,0 -4.66878,-2.21464 -4.66878,-4.94656 z"
         id="path11660"
         inkscape:connector-curvature="0" />
      <path
         inkscape:connector-curvature="0"
         id="path11662"
         d="m 157.12305,960.58506 c 0,-2.73193 2.09018,-4.9467 4.66879,-4.9467 2.57846,0 4.66878,2.21477 4.66878,4.9467 0,2.73193 -2.09032,4.94656 -4.66878,4.94656 -2.57861,0 -4.66879,-2.21463 -4.66879,-4.94656 z"
         style="fill:#ffff00;fill-opacity:1;stroke:#000000;stroke-width:0;stroke-miterlimit:4;stroke-opacity:1" />
      <path
         style="fill:#ffff00;fill-opacity:1;stroke:#000000;stroke-width:0;stroke-miterlimit:4;stroke-opacity:1"
         d="m 157.12305,991.41786 c 0,-2.73193 2.09018,-4.9467 4.66879,-4.9467 2.57846,0 4.66878,2.21477 4.66878,4.9467 0,2.73192 -2.09032,4.94656 -4.66878,4.94656 -2.57861,0 -4.66879,-2.21464 -4.66879,-4.94656 z"
         id="path11664"
         inkscape:connector-curvature="0" />
      <path
         inkscape:connector-curvature="0"
         id="path11666"
         d="m 143.10814,983.00891 c 0,-2.73192 2.09019,-4.9467 4.66879,-4.9467 2.57846,0 4.66879,2.21478 4.66879,4.9467 0,2.73193 -2.09033,4.94656 -4.66879,4.94656 -2.5786,0 -4.66879,-2.21463 -4.66879,-4.94656 z"
         style="fill:#ffff00;fill-opacity:1;stroke:#000000;stroke-width:0;stroke-miterlimit:4;stroke-opacity:1" />
      <path
         style="fill:#ffff00;fill-opacity:1;stroke:#000000;stroke-width:0;stroke-miterlimit:4;stroke-opacity:1"
         d="m 145.91112,1013.8417 c 0,-2.7319 2.09019,-4.9467 4.66879,-4.9467 2.57846,0 4.66879,2.2148 4.66879,4.9467 0,2.7319 -2.09033,4.9466 -4.66879,4.9466 -2.5786,0 -4.66879,-2.2147 -4.66879,-4.9466 z"
         id="path11668"
         inkscape:connector-curvature="0" />
      <path
         inkscape:connector-curvature="0"
         id="path11670"
         d="m 131.89622,1008.2357 c 0,-2.7319 2.09018,-4.9467 4.66878,-4.9467 2.57847,0 4.66879,2.2148 4.66879,4.9467 0,2.732 -2.09032,4.9466 -4.66879,4.9466 -2.5786,0 -4.66878,-2.2146 -4.66878,-4.9466 z"
         style="fill:#ffff00;fill-opacity:1;stroke:#000000;stroke-width:0;stroke-miterlimit:4;stroke-opacity:1" />
    </g>
  </g>
</svg>
