<?xml version="1.0" encoding="UTF-8" standalone="no"?>
<svg
   xmlns:dc="http://purl.org/dc/elements/1.1/"
   xmlns:cc="http://creativecommons.org/ns#"
   xmlns:rdf="http://www.w3.org/1999/02/22-rdf-syntax-ns#"
   xmlns:svg="http://www.w3.org/2000/svg"
   xmlns="http://www.w3.org/2000/svg"
   width="160"
   height="160"
   id="svg3894"
   version="1.1">
  <defs
     id="defs3896" />
  <metadata
     id="metadata3899">
    <rdf:RDF>
      <cc:Work
         rdf:about="">
        <dc:format>image/svg+xml</dc:format>
        <dc:type
           rdf:resource="http://purl.org/dc/dcmitype/StillImage" />
        <dc:title />
      </cc:Work>
    </rdf:RDF>
  </metadata>
  <g
     id="layer1"
     transform="translate(0,-892.36218)">
    <rect
       style="fill:#000000;fill-opacity:1;stroke:none"
       id="rect2987"
       width="160"
       height="160"
       x="0"
       y="892.36218" />
    <path
       style="fill:none;stroke:#ffffff;stroke-width:10;stroke-linecap:butt;stroke-linejoin:miter;stroke-opacity:1;stroke-miterlimit:4;stroke-dasharray:none"
       d="M 8,8 8,152 152,152 152,8 8,8 z"
       id="path3925"
       transform="translate(0,892.36218)" />
    <g
       style="font-size:144px;font-style:normal;font-variant:normal;font-weight:normal;font-stretch:normal;text-align:start;line-height:125%;writing-mode:lr-tb;text-anchor:start;fill:#ffffff;fill-opacity:1;stroke:none;font-family:Swis721 BT;-inkscape-font-specification:Swis721 BT"
       id="text4437">
      <path
         d="m 48.41304,919.2204 14.414063,0 0,100.8281 -14.414063,0 0,-86.41404 -14.34375,14.41406 0,-14.41406 14.34375,-14.41406"
         style="font-weight:bold;font-family:OSP-DIN;-inkscape-font-specification:OSP-DIN Bold;fill:#ffffff;fill-opacity:1"
         id="path3052" />
      <path
         d="m 90.530228,925.61884 c 4.218734,-4.26553 9.304667,-6.39834 15.257812,-6.39844 5.95309,10e-5 11.03903,2.13291 15.25781,6.39844 4.21871,4.21884 6.32808,9.30477 6.32813,15.25781 -5e-5,3.18757 -0.63286,6.16413 -1.89844,8.92969 l -25.17187,55.82816 27.07031,0 0,14.414 -43.171877,0 0,-14.414 27.070317,-59.20316 c 1.17184,-2.76555 1.73434,-4.61711 1.6875,-5.55469 -4e-5,-2.01555 -0.70316,-3.72648 -2.10938,-5.13281 -1.35941,-1.40617 -3.0469,-2.10929 -5.0625,-2.10938 -2.01565,9e-5 -3.72659,0.70321 -5.13281,2.10938 -1.406272,1.40633 -2.109397,3.11726 -2.109377,5.13281 l -14.34375,0 c -5e-6,-5.95304 2.109368,-11.03897 6.328125,-15.25781"
         style="font-weight:bold;font-family:OSP-DIN;-inkscape-font-specification:OSP-DIN Bold;fill:#ffffff;fill-opacity:1"
         id="path3054" />
    </g>
  </g>
</svg>
