<?xml version="1.0" encoding="UTF-8" standalone="no"?>
<!-- Created with Inkscape (http://www.inkscape.org/) -->

<svg
   xmlns:dc="http://purl.org/dc/elements/1.1/"
   xmlns:cc="http://creativecommons.org/ns#"
   xmlns:rdf="http://www.w3.org/1999/02/22-rdf-syntax-ns#"
   xmlns:svg="http://www.w3.org/2000/svg"
   xmlns="http://www.w3.org/2000/svg"
   xmlns:sodipodi="http://sodipodi.sourceforge.net/DTD/sodipodi-0.dtd"
   xmlns:inkscape="http://www.inkscape.org/namespaces/inkscape"
   width="482.28113"
   height="471.88718"
   id="svg4927"
   version="1.1"
   inkscape:version="0.91 r13725"
   sodipodi:docname="geschwindigkeitsvoranzeiger-60-light.svg">
  <defs
     id="defs4929" />
  <sodipodi:namedview
     id="base"
     pagecolor="#ffffff"
     bordercolor="#666666"
     borderopacity="1.0"
     inkscape:pageopacity="0.0"
     inkscape:pageshadow="2"
     inkscape:zoom="0.57875767"
     inkscape:cx="-151.57454"
     inkscape:cy="409.31281"
     inkscape:document-units="px"
     inkscape:current-layer="layer1"
     showgrid="false"
     inkscape:window-width="1920"
     inkscape:window-height="1003"
     inkscape:window-x="-9"
     inkscape:window-y="-9"
     inkscape:window-maximized="1"
     fit-margin-top="0"
     fit-margin-left="0"
     fit-margin-right="0"
     fit-margin-bottom="0" />
  <metadata
     id="metadata4932">
    <rdf:RDF>
      <cc:Work
         rdf:about="">
        <dc:format>image/svg+xml</dc:format>
        <dc:type
           rdf:resource="http://purl.org/dc/dcmitype/StillImage" />
        <dc:title></dc:title>
      </cc:Work>
    </rdf:RDF>
  </metadata>
  <g
     inkscape:label="Ebene 1"
     inkscape:groupmode="layer"
     id="layer1"
     transform="translate(-9.3945257,-562.7022)">
    <g
       transform="matrix(1.387824,0,0,1.387824,-3077.7046,-1019.5978)"
       id="g9232">
      <path
         inkscape:connector-curvature="0"
         id="path3847"
         d="m 2224.9248,1140.6359 346.4952,0 0,339.008 -345.0332,0 z"
         style="fill:#000000;fill-opacity:1;stroke:#000000;stroke-width:1.01147771px;stroke-linecap:butt;stroke-linejoin:miter;stroke-opacity:1" />
      <path
         inkscape:connector-curvature="0"
         id="path7209"
         d="m 2478.1441,1189.1689 c 0,1.9493 -1.4914,3.5296 -3.3313,3.5296 -1.8398,0 -3.3313,-1.5803 -3.3313,-3.5296 0,-1.9493 1.4915,-3.5295 3.3313,-3.5295 1.8399,0 3.3313,1.5802 3.3313,3.5295 z"
         style="fill:#ffff00;fill-opacity:1;stroke:#000000;stroke-width:0;stroke-miterlimit:4;stroke-opacity:1" />
      <path
         style="fill:#ffff00;fill-opacity:1;stroke:#000000;stroke-width:0;stroke-miterlimit:4;stroke-opacity:1"
         d="m 2470.1441,1195.1689 c 0,1.9493 -1.4914,3.5296 -3.3313,3.5296 -1.8398,0 -3.3313,-1.5803 -3.3313,-3.5296 0,-1.9493 1.4915,-3.5295 3.3313,-3.5295 1.8399,0 3.3313,1.5802 3.3313,3.5295 z"
         id="path9039"
         inkscape:connector-curvature="0" />
      <path
         inkscape:connector-curvature="0"
         id="path9041"
         d="m 2454.1441,1181.1689 c 0,1.9493 -1.4914,3.5296 -3.3313,3.5296 -1.8398,0 -3.3313,-1.5803 -3.3313,-3.5296 0,-1.9493 1.4915,-3.5295 3.3313,-3.5295 1.8399,0 3.3313,1.5802 3.3313,3.5295 z"
         style="fill:#ffff00;fill-opacity:1;stroke:#000000;stroke-width:0;stroke-miterlimit:4;stroke-opacity:1" />
      <path
         style="fill:#ffff00;fill-opacity:1;stroke:#000000;stroke-width:0;stroke-miterlimit:4;stroke-opacity:1"
         d="m 2460.1441,1173.1689 c 0,1.9493 -1.4914,3.5296 -3.3313,3.5296 -1.8398,0 -3.3313,-1.5803 -3.3313,-3.5296 0,-1.9493 1.4915,-3.5295 3.3313,-3.5295 1.8399,0 3.3313,1.5802 3.3313,3.5295 z"
         id="path9043"
         inkscape:connector-curvature="0" />
      <path
         inkscape:connector-curvature="0"
         id="path9045"
         d="m 2438.1441,1159.1689 c 0,1.9493 -1.4914,3.5296 -3.3313,3.5296 -1.8398,0 -3.3313,-1.5803 -3.3313,-3.5296 0,-1.9493 1.4915,-3.5295 3.3313,-3.5295 1.8399,0 3.3313,1.5802 3.3313,3.5295 z"
         style="fill:#ffff00;fill-opacity:1;stroke:#000000;stroke-width:0;stroke-miterlimit:4;stroke-opacity:1" />
      <path
         style="fill:#ffff00;fill-opacity:1;stroke:#000000;stroke-width:0;stroke-miterlimit:4;stroke-opacity:1"
         d="m 2434.1441,1169.1689 c 0,1.9493 -1.4914,3.5296 -3.3313,3.5296 -1.8398,0 -3.3313,-1.5803 -3.3313,-3.5296 0,-1.9493 1.4915,-3.5295 3.3313,-3.5295 1.8399,0 3.3313,1.5802 3.3313,3.5295 z"
         id="path9047"
         inkscape:connector-curvature="0" />
      <path
         inkscape:connector-curvature="0"
         id="path9049"
         d="m 2416.1441,1163.1689 c 0,1.9493 -1.4914,3.5296 -3.3313,3.5296 -1.8398,0 -3.3313,-1.5803 -3.3313,-3.5296 0,-1.9493 1.4915,-3.5295 3.3313,-3.5295 1.8399,0 3.3313,1.5802 3.3313,3.5295 z"
         style="fill:#ffff00;fill-opacity:1;stroke:#000000;stroke-width:0;stroke-miterlimit:4;stroke-opacity:1" />
      <path
         style="fill:#ffff00;fill-opacity:1;stroke:#000000;stroke-width:0;stroke-miterlimit:4;stroke-opacity:1"
         d="m 2418.1441,1153.1689 c 0,1.9493 -1.4914,3.5296 -3.3313,3.5296 -1.8398,0 -3.3313,-1.5803 -3.3313,-3.5296 0,-1.9493 1.4915,-3.5295 3.3313,-3.5295 1.8399,0 3.3313,1.5802 3.3313,3.5295 z"
         id="path9051"
         inkscape:connector-curvature="0" />
      <path
         inkscape:connector-curvature="0"
         id="path9053"
         d="m 2398.1441,1151.1689 c 0,1.9493 -1.4914,3.5296 -3.3313,3.5296 -1.8398,0 -3.3313,-1.5803 -3.3313,-3.5296 0,-1.9493 1.4915,-3.5295 3.3313,-3.5295 1.8399,0 3.3313,1.5802 3.3313,3.5295 z"
         style="fill:#ffff00;fill-opacity:1;stroke:#000000;stroke-width:0;stroke-miterlimit:4;stroke-opacity:1" />
      <path
         style="fill:#ffff00;fill-opacity:1;stroke:#000000;stroke-width:0;stroke-miterlimit:4;stroke-opacity:1"
         d="m 2398.1441,1161.1689 c 0,1.9493 -1.4914,3.5296 -3.3313,3.5296 -1.8398,0 -3.3313,-1.5803 -3.3313,-3.5296 0,-1.9493 1.4915,-3.5295 3.3313,-3.5295 1.8399,0 3.3313,1.5802 3.3313,3.5295 z"
         id="path9055"
         inkscape:connector-curvature="0" />
      <path
         inkscape:connector-curvature="0"
         id="path9068"
         d="m 2378.1441,1163.1689 c 0,1.9493 -1.4914,3.5296 -3.3313,3.5296 -1.8398,0 -3.3313,-1.5803 -3.3313,-3.5296 0,-1.9493 1.4915,-3.5295 3.3313,-3.5295 1.8399,0 3.3313,1.5802 3.3313,3.5295 z"
         style="fill:#ffff00;fill-opacity:1;stroke:#000000;stroke-width:0;stroke-miterlimit:4;stroke-opacity:1" />
      <path
         style="fill:#ffff00;fill-opacity:1;stroke:#000000;stroke-width:0;stroke-miterlimit:4;stroke-opacity:1"
         d="m 2376.1441,1153.1689 c 0,1.9493 -1.4914,3.5296 -3.3313,3.5296 -1.8398,0 -3.3313,-1.5803 -3.3313,-3.5296 0,-1.9493 1.4915,-3.5295 3.3313,-3.5295 1.8399,0 3.3313,1.5802 3.3313,3.5295 z"
         id="path9070"
         inkscape:connector-curvature="0" />
      <path
         inkscape:connector-curvature="0"
         id="path9072"
         d="m 2354.1441,1161.1689 c 0,1.9493 -1.4914,3.5296 -3.3313,3.5296 -1.8398,0 -3.3313,-1.5803 -3.3313,-3.5296 0,-1.9493 1.4915,-3.5295 3.3313,-3.5295 1.8399,0 3.3313,1.5802 3.3313,3.5295 z"
         style="fill:#ffff00;fill-opacity:1;stroke:#000000;stroke-width:0;stroke-miterlimit:4;stroke-opacity:1" />
      <path
         style="fill:#ffff00;fill-opacity:1;stroke:#000000;stroke-width:0;stroke-miterlimit:4;stroke-opacity:1"
         d="m 2354.1441,1161.1689 c 0,1.9493 -1.4914,3.5296 -3.3313,3.5296 -1.8398,0 -3.3313,-1.5803 -3.3313,-3.5296 0,-1.9493 1.4915,-3.5295 3.3313,-3.5295 1.8399,0 3.3313,1.5802 3.3313,3.5295 z"
         id="path9074"
         inkscape:connector-curvature="0" />
      <path
         inkscape:connector-curvature="0"
         id="path9076"
         d="m 2360.1441,1169.1689 c 0,1.9493 -1.4914,3.5296 -3.3313,3.5296 -1.8398,0 -3.3313,-1.5803 -3.3313,-3.5296 0,-1.9493 1.4915,-3.5295 3.3313,-3.5295 1.8399,0 3.3313,1.5802 3.3313,3.5295 z"
         style="fill:#ffff00;fill-opacity:1;stroke:#000000;stroke-width:0;stroke-miterlimit:4;stroke-opacity:1" />
      <path
         style="fill:#ffff00;fill-opacity:1;stroke:#000000;stroke-width:0;stroke-miterlimit:4;stroke-opacity:1"
         d="m 2338.1441,1173.1689 c 0,1.9493 -1.4914,3.5296 -3.3313,3.5296 -1.8398,0 -3.3313,-1.5803 -3.3313,-3.5296 0,-1.9493 1.4915,-3.5295 3.3313,-3.5295 1.8399,0 3.3313,1.5802 3.3313,3.5295 z"
         id="path9078"
         inkscape:connector-curvature="0" />
      <path
         inkscape:connector-curvature="0"
         id="path9080"
         d="m 2346.1441,1181.1689 c 0,1.9493 -1.4914,3.5296 -3.3313,3.5296 -1.8398,0 -3.3313,-1.5803 -3.3313,-3.5296 0,-1.9493 1.4915,-3.5295 3.3313,-3.5295 1.8399,0 3.3313,1.5802 3.3313,3.5295 z"
         style="fill:#ffff00;fill-opacity:1;stroke:#000000;stroke-width:0;stroke-miterlimit:4;stroke-opacity:1" />
      <path
         style="fill:#ffff00;fill-opacity:1;stroke:#000000;stroke-width:0;stroke-miterlimit:4;stroke-opacity:1"
         d="m 2322.1441,1189.1689 c 0,1.9493 -1.4914,3.5296 -3.3313,3.5296 -1.8398,0 -3.3313,-1.5803 -3.3313,-3.5296 0,-1.9493 1.4915,-3.5295 3.3313,-3.5295 1.8399,0 3.3313,1.5802 3.3313,3.5295 z"
         id="path9082"
         inkscape:connector-curvature="0" />
      <path
         inkscape:connector-curvature="0"
         id="path9084"
         d="m 2334.1441,1195.1689 c 0,1.9493 -1.4914,3.5296 -3.3313,3.5296 -1.8398,0 -3.3313,-1.5803 -3.3313,-3.5296 0,-1.9493 1.4915,-3.5295 3.3313,-3.5295 1.8399,0 3.3313,1.5802 3.3313,3.5295 z"
         style="fill:#ffff00;fill-opacity:1;stroke:#000000;stroke-width:0;stroke-miterlimit:4;stroke-opacity:1" />
      <path
         style="fill:#ffff00;fill-opacity:1;stroke:#000000;stroke-width:0;stroke-miterlimit:4;stroke-opacity:1"
         d="m 2314.1441,1205.1689 c 0,1.9493 -1.4914,3.5296 -3.3313,3.5296 -1.8398,0 -3.3313,-1.5803 -3.3313,-3.5296 0,-1.9493 1.4915,-3.5295 3.3313,-3.5295 1.8399,0 3.3313,1.5802 3.3313,3.5295 z"
         id="path9086"
         inkscape:connector-curvature="0" />
      <path
         inkscape:connector-curvature="0"
         id="path9088"
         d="m 2326.1441,1209.1689 c 0,1.9493 -1.4914,3.5296 -3.3313,3.5296 -1.8398,0 -3.3313,-1.5803 -3.3313,-3.5296 0,-1.9493 1.4915,-3.5295 3.3313,-3.5295 1.8399,0 3.3313,1.5802 3.3313,3.5295 z"
         style="fill:#ffff00;fill-opacity:1;stroke:#000000;stroke-width:0;stroke-miterlimit:4;stroke-opacity:1" />
      <path
         style="fill:#ffff00;fill-opacity:1;stroke:#000000;stroke-width:0;stroke-miterlimit:4;stroke-opacity:1"
         d="m 2310.1441,1227.1689 c 0,1.9493 -1.4914,3.5296 -3.3313,3.5296 -1.8398,0 -3.3313,-1.5803 -3.3313,-3.5296 0,-1.9493 1.4915,-3.5295 3.3313,-3.5295 1.8399,0 3.3313,1.5802 3.3313,3.5295 z"
         id="path9090"
         inkscape:connector-curvature="0" />
      <path
         inkscape:connector-curvature="0"
         id="path9092"
         d="m 2310.1441,1247.1689 c 0,1.9493 -1.4914,3.5296 -3.3313,3.5296 -1.8398,0 -3.3313,-1.5803 -3.3313,-3.5296 0,-1.9493 1.4915,-3.5295 3.3313,-3.5295 1.8399,0 3.3313,1.5802 3.3313,3.5295 z"
         style="fill:#ffff00;fill-opacity:1;stroke:#000000;stroke-width:0;stroke-miterlimit:4;stroke-opacity:1" />
      <path
         style="fill:#ffff00;fill-opacity:1;stroke:#000000;stroke-width:0;stroke-miterlimit:4;stroke-opacity:1"
         d="m 2310.1441,1265.1689 c 0,1.9493 -1.4914,3.5296 -3.3313,3.5296 -1.8398,0 -3.3313,-1.5803 -3.3313,-3.5296 0,-1.9493 1.4915,-3.5295 3.3313,-3.5295 1.8399,0 3.3313,1.5802 3.3313,3.5295 z"
         id="path9094"
         inkscape:connector-curvature="0" />
      <path
         inkscape:connector-curvature="0"
         id="path9096"
         d="m 2310.1441,1281.1689 c 0,1.9493 -1.4914,3.5296 -3.3313,3.5296 -1.8398,0 -3.3313,-1.5803 -3.3313,-3.5296 0,-1.9493 1.4915,-3.5295 3.3313,-3.5295 1.8399,0 3.3313,1.5802 3.3313,3.5295 z"
         style="fill:#ffff00;fill-opacity:1;stroke:#000000;stroke-width:0;stroke-miterlimit:4;stroke-opacity:1" />
      <path
         style="fill:#ffff00;fill-opacity:1;stroke:#000000;stroke-width:0;stroke-miterlimit:4;stroke-opacity:1"
         d="m 2310.1441,1299.1689 c 0,1.9493 -1.4914,3.5296 -3.3313,3.5296 -1.8398,0 -3.3313,-1.5803 -3.3313,-3.5296 0,-1.9493 1.4915,-3.5295 3.3313,-3.5295 1.8399,0 3.3313,1.5802 3.3313,3.5295 z"
         id="path9098"
         inkscape:connector-curvature="0" />
      <path
         inkscape:connector-curvature="0"
         id="path9100"
         d="m 2310.1441,1315.1689 c 0,1.9493 -1.4914,3.5296 -3.3313,3.5296 -1.8398,0 -3.3313,-1.5803 -3.3313,-3.5296 0,-1.9493 1.4915,-3.5295 3.3313,-3.5295 1.8399,0 3.3313,1.5802 3.3313,3.5295 z"
         style="fill:#ffff00;fill-opacity:1;stroke:#000000;stroke-width:0;stroke-miterlimit:4;stroke-opacity:1" />
      <path
         style="fill:#ffff00;fill-opacity:1;stroke:#000000;stroke-width:0;stroke-miterlimit:4;stroke-opacity:1"
         d="m 2310.1441,1331.1689 c 0,1.9493 -1.4914,3.5296 -3.3313,3.5296 -1.8398,0 -3.3313,-1.5803 -3.3313,-3.5296 0,-1.9493 1.4915,-3.5295 3.3313,-3.5295 1.8399,0 3.3313,1.5802 3.3313,3.5295 z"
         id="path9102"
         inkscape:connector-curvature="0" />
      <path
         inkscape:connector-curvature="0"
         id="path9104"
         d="m 2310.1441,1349.1689 c 0,1.9493 -1.4914,3.5296 -3.3313,3.5296 -1.8398,0 -3.3313,-1.5803 -3.3313,-3.5296 0,-1.9493 1.4915,-3.5295 3.3313,-3.5295 1.8399,0 3.3313,1.5802 3.3313,3.5295 z"
         style="fill:#ffff00;fill-opacity:1;stroke:#000000;stroke-width:0;stroke-miterlimit:4;stroke-opacity:1" />
      <path
         style="fill:#ffff00;fill-opacity:1;stroke:#000000;stroke-width:0;stroke-miterlimit:4;stroke-opacity:1"
         d="m 2310.1441,1363.1689 c 0,1.9493 -1.4914,3.5296 -3.3313,3.5296 -1.8398,0 -3.3313,-1.5803 -3.3313,-3.5296 0,-1.9493 1.4915,-3.5295 3.3313,-3.5295 1.8399,0 3.3313,1.5802 3.3313,3.5295 z"
         id="path9106"
         inkscape:connector-curvature="0" />
      <path
         inkscape:connector-curvature="0"
         id="path9108"
         d="m 2310.1441,1383.1689 c 0,1.9493 -1.4914,3.5296 -3.3313,3.5296 -1.8398,0 -3.3313,-1.5803 -3.3313,-3.5296 0,-1.9493 1.4915,-3.5295 3.3313,-3.5295 1.8399,0 3.3313,1.5802 3.3313,3.5295 z"
         style="fill:#ffff00;fill-opacity:1;stroke:#000000;stroke-width:0;stroke-miterlimit:4;stroke-opacity:1" />
      <path
         style="fill:#ffff00;fill-opacity:1;stroke:#000000;stroke-width:0;stroke-miterlimit:4;stroke-opacity:1"
         d="m 2314.1441,1405.1689 c 0,1.9493 -1.4914,3.5296 -3.3313,3.5296 -1.8398,0 -3.3313,-1.5803 -3.3313,-3.5296 0,-1.9493 1.4915,-3.5295 3.3313,-3.5295 1.8399,0 3.3313,1.5802 3.3313,3.5295 z"
         id="path9110"
         inkscape:connector-curvature="0" />
      <path
         inkscape:connector-curvature="0"
         id="path9112"
         d="m 2326.1441,1403.1689 c 0,1.9493 -1.4914,3.5296 -3.3313,3.5296 -1.8398,0 -3.3313,-1.5803 -3.3313,-3.5296 0,-1.9493 1.4915,-3.5295 3.3313,-3.5295 1.8399,0 3.3313,1.5802 3.3313,3.5295 z"
         style="fill:#ffff00;fill-opacity:1;stroke:#000000;stroke-width:0;stroke-miterlimit:4;stroke-opacity:1" />
      <path
         style="fill:#ffff00;fill-opacity:1;stroke:#000000;stroke-width:0;stroke-miterlimit:4;stroke-opacity:1"
         d="m 2322.1441,1383.1689 c 0,1.9493 -1.4914,3.5296 -3.3313,3.5296 -1.8398,0 -3.3313,-1.5803 -3.3313,-3.5296 0,-1.9493 1.4915,-3.5295 3.3313,-3.5295 1.8399,0 3.3313,1.5802 3.3313,3.5295 z"
         id="path9114"
         inkscape:connector-curvature="0" />
      <path
         inkscape:connector-curvature="0"
         id="path9116"
         d="m 2322.1441,1363.1689 c 0,1.9493 -1.4914,3.5296 -3.3313,3.5296 -1.8398,0 -3.3313,-1.5803 -3.3313,-3.5296 0,-1.9493 1.4915,-3.5295 3.3313,-3.5295 1.8399,0 3.3313,1.5802 3.3313,3.5295 z"
         style="fill:#ffff00;fill-opacity:1;stroke:#000000;stroke-width:0;stroke-miterlimit:4;stroke-opacity:1" />
      <path
         style="fill:#ffff00;fill-opacity:1;stroke:#000000;stroke-width:0;stroke-miterlimit:4;stroke-opacity:1"
         d="m 2322.1441,1349.1689 c 0,1.9493 -1.4914,3.5296 -3.3313,3.5296 -1.8398,0 -3.3313,-1.5803 -3.3313,-3.5296 0,-1.9493 1.4915,-3.5295 3.3313,-3.5295 1.8399,0 3.3313,1.5802 3.3313,3.5295 z"
         id="path9118"
         inkscape:connector-curvature="0" />
      <path
         inkscape:connector-curvature="0"
         id="path9120"
         d="m 2322.1441,1331.1689 c 0,1.9493 -1.4914,3.5296 -3.3313,3.5296 -1.8398,0 -3.3313,-1.5803 -3.3313,-3.5296 0,-1.9493 1.4915,-3.5295 3.3313,-3.5295 1.8399,0 3.3313,1.5802 3.3313,3.5295 z"
         style="fill:#ffff00;fill-opacity:1;stroke:#000000;stroke-width:0;stroke-miterlimit:4;stroke-opacity:1" />
      <path
         style="fill:#ffff00;fill-opacity:1;stroke:#000000;stroke-width:0;stroke-miterlimit:4;stroke-opacity:1"
         d="m 2322.1441,1315.1689 c 0,1.9493 -1.4914,3.5296 -3.3313,3.5296 -1.8398,0 -3.3313,-1.5803 -3.3313,-3.5296 0,-1.9493 1.4915,-3.5295 3.3313,-3.5295 1.8399,0 3.3313,1.5802 3.3313,3.5295 z"
         id="path9122"
         inkscape:connector-curvature="0" />
      <path
         inkscape:connector-curvature="0"
         id="path9124"
         d="m 2322.1441,1299.1689 c 0,1.9493 -1.4914,3.5296 -3.3313,3.5296 -1.8398,0 -3.3313,-1.5803 -3.3313,-3.5296 0,-1.9493 1.4915,-3.5295 3.3313,-3.5295 1.8399,0 3.3313,1.5802 3.3313,3.5295 z"
         style="fill:#ffff00;fill-opacity:1;stroke:#000000;stroke-width:0;stroke-miterlimit:4;stroke-opacity:1" />
      <path
         style="fill:#ffff00;fill-opacity:1;stroke:#000000;stroke-width:0;stroke-miterlimit:4;stroke-opacity:1"
         d="m 2322.1441,1281.1689 c 0,1.9493 -1.4914,3.5296 -3.3313,3.5296 -1.8398,0 -3.3313,-1.5803 -3.3313,-3.5296 0,-1.9493 1.4915,-3.5295 3.3313,-3.5295 1.8399,0 3.3313,1.5802 3.3313,3.5295 z"
         id="path9126"
         inkscape:connector-curvature="0" />
      <path
         inkscape:connector-curvature="0"
         id="path9128"
         d="m 2322.1441,1265.1689 c 0,1.9493 -1.4914,3.5296 -3.3313,3.5296 -1.8398,0 -3.3313,-1.5803 -3.3313,-3.5296 0,-1.9493 1.4915,-3.5295 3.3313,-3.5295 1.8399,0 3.3313,1.5802 3.3313,3.5295 z"
         style="fill:#ffff00;fill-opacity:1;stroke:#000000;stroke-width:0;stroke-miterlimit:4;stroke-opacity:1" />
      <path
         style="fill:#ffff00;fill-opacity:1;stroke:#000000;stroke-width:0;stroke-miterlimit:4;stroke-opacity:1"
         d="m 2322.1441,1247.1689 c 0,1.9493 -1.4914,3.5296 -3.3313,3.5296 -1.8398,0 -3.3313,-1.5803 -3.3313,-3.5296 0,-1.9493 1.4915,-3.5295 3.3313,-3.5295 1.8399,0 3.3313,1.5802 3.3313,3.5295 z"
         id="path9130"
         inkscape:connector-curvature="0" />
      <path
         inkscape:connector-curvature="0"
         id="path9132"
         d="m 2322.1441,1227.1689 c 0,1.9493 -1.4914,3.5296 -3.3313,3.5296 -1.8398,0 -3.3313,-1.5803 -3.3313,-3.5296 0,-1.9493 1.4915,-3.5295 3.3313,-3.5295 1.8399,0 3.3313,1.5802 3.3313,3.5295 z"
         style="fill:#ffff00;fill-opacity:1;stroke:#000000;stroke-width:0;stroke-miterlimit:4;stroke-opacity:1" />
      <path
         style="fill:#ffff00;fill-opacity:1;stroke:#000000;stroke-width:0;stroke-miterlimit:4;stroke-opacity:1"
         d="m 2336.8611,1292.0746 c 0,1.9493 -1.4914,3.5296 -3.3313,3.5296 -1.8398,0 -3.3313,-1.5803 -3.3313,-3.5296 0,-1.9493 1.4915,-3.5295 3.3313,-3.5295 1.8399,0 3.3313,1.5802 3.3313,3.5295 z"
         id="path9134"
         inkscape:connector-curvature="0" />
      <path
         inkscape:connector-curvature="0"
         id="path9138"
         d="m 2340.8611,1304.0746 c 0,1.9493 -1.4914,3.5296 -3.3313,3.5296 -1.8398,0 -3.3313,-1.5803 -3.3313,-3.5296 0,-1.9493 1.4915,-3.5295 3.3313,-3.5295 1.8399,0 3.3313,1.5802 3.3313,3.5295 z"
         style="fill:#ffff00;fill-opacity:1;stroke:#000000;stroke-width:0;stroke-miterlimit:4;stroke-opacity:1" />
      <path
         style="fill:#ffff00;fill-opacity:1;stroke:#000000;stroke-width:0;stroke-miterlimit:4;stroke-opacity:1"
         d="m 2350.8611,1284.0746 c 0,1.9493 -1.4914,3.5296 -3.3313,3.5296 -1.8398,0 -3.3313,-1.5803 -3.3313,-3.5296 0,-1.9493 1.4915,-3.5295 3.3313,-3.5295 1.8399,0 3.3313,1.5802 3.3313,3.5295 z"
         id="path9140"
         inkscape:connector-curvature="0" />
      <path
         inkscape:connector-curvature="0"
         id="path9142"
         d="m 2354.8611,1296.0746 c 0,1.9493 -1.4914,3.5296 -3.3313,3.5296 -1.8398,0 -3.3313,-1.5803 -3.3313,-3.5296 0,-1.9493 1.4915,-3.5295 3.3313,-3.5295 1.8399,0 3.3313,1.5802 3.3313,3.5295 z"
         style="fill:#ffff00;fill-opacity:1;stroke:#000000;stroke-width:0;stroke-miterlimit:4;stroke-opacity:1" />
      <path
         style="fill:#ffff00;fill-opacity:1;stroke:#000000;stroke-width:0;stroke-miterlimit:4;stroke-opacity:1"
         d="m 2368.8611,1288.0746 c 0,1.9493 -1.4914,3.5296 -3.3313,3.5296 -1.8398,0 -3.3313,-1.5803 -3.3313,-3.5296 0,-1.9493 1.4915,-3.5295 3.3313,-3.5295 1.8399,0 3.3313,1.5802 3.3313,3.5295 z"
         id="path9144"
         inkscape:connector-curvature="0" />
      <path
         inkscape:connector-curvature="0"
         id="path9146"
         d="m 2364.8611,1278.0746 c 0,1.9493 -1.4914,3.5296 -3.3313,3.5296 -1.8398,0 -3.3313,-1.5803 -3.3313,-3.5296 0,-1.9493 1.4915,-3.5295 3.3313,-3.5295 1.8399,0 3.3313,1.5802 3.3313,3.5295 z"
         style="fill:#ffff00;fill-opacity:1;stroke:#000000;stroke-width:0;stroke-miterlimit:4;stroke-opacity:1" />
      <path
         style="fill:#ffff00;fill-opacity:1;stroke:#000000;stroke-width:0;stroke-miterlimit:4;stroke-opacity:1"
         d="m 2386.8611,1272.0746 c 0,1.9493 -1.4914,3.5296 -3.3313,3.5296 -1.8398,0 -3.3313,-1.5803 -3.3313,-3.5296 0,-1.9493 1.4915,-3.5295 3.3313,-3.5295 1.8399,0 3.3313,1.5802 3.3313,3.5295 z"
         id="path9148"
         inkscape:connector-curvature="0" />
      <path
         inkscape:connector-curvature="0"
         id="path9150"
         d="m 2386.8611,1284.0746 c 0,1.9493 -1.4914,3.5296 -3.3313,3.5296 -1.8398,0 -3.3313,-1.5803 -3.3313,-3.5296 0,-1.9493 1.4915,-3.5295 3.3313,-3.5295 1.8399,0 3.3313,1.5802 3.3313,3.5295 z"
         style="fill:#ffff00;fill-opacity:1;stroke:#000000;stroke-width:0;stroke-miterlimit:4;stroke-opacity:1" />
      <path
         style="fill:#ffff00;fill-opacity:1;stroke:#000000;stroke-width:0;stroke-miterlimit:4;stroke-opacity:1"
         d="m 2404.8611,1282.0746 c 0,1.9493 -1.4914,3.5296 -3.3313,3.5296 -1.8398,0 -3.3313,-1.5803 -3.3313,-3.5296 0,-1.9493 1.4915,-3.5295 3.3313,-3.5295 1.8399,0 3.3313,1.5802 3.3313,3.5295 z"
         id="path9152"
         inkscape:connector-curvature="0" />
      <path
         inkscape:connector-curvature="0"
         id="path9154"
         d="m 2406.8611,1270.0746 c 0,1.9493 -1.4914,3.5296 -3.3313,3.5296 -1.8398,0 -3.3313,-1.5803 -3.3313,-3.5296 0,-1.9493 1.4915,-3.5295 3.3313,-3.5295 1.8399,0 3.3313,1.5802 3.3313,3.5295 z"
         style="fill:#ffff00;fill-opacity:1;stroke:#000000;stroke-width:0;stroke-miterlimit:4;stroke-opacity:1" />
      <path
         style="fill:#ffff00;fill-opacity:1;stroke:#000000;stroke-width:0;stroke-miterlimit:4;stroke-opacity:1"
         d="m 2422.8611,1286.0746 c 0,1.9493 -1.4914,3.5296 -3.3313,3.5296 -1.8398,0 -3.3313,-1.5803 -3.3313,-3.5296 0,-1.9493 1.4915,-3.5295 3.3313,-3.5295 1.8399,0 3.3313,1.5802 3.3313,3.5295 z"
         id="path9156"
         inkscape:connector-curvature="0" />
      <path
         inkscape:connector-curvature="0"
         id="path9158"
         d="m 2426.8611,1274.0746 c 0,1.9493 -1.4914,3.5296 -3.3313,3.5296 -1.8398,0 -3.3313,-1.5803 -3.3313,-3.5296 0,-1.9493 1.4915,-3.5295 3.3313,-3.5295 1.8399,0 3.3313,1.5802 3.3313,3.5295 z"
         style="fill:#ffff00;fill-opacity:1;stroke:#000000;stroke-width:0;stroke-miterlimit:4;stroke-opacity:1" />
      <path
         style="fill:#ffff00;fill-opacity:1;stroke:#000000;stroke-width:0;stroke-miterlimit:4;stroke-opacity:1"
         d="m 2444.8611,1282.0746 c 0,1.9493 -1.4914,3.5296 -3.3313,3.5296 -1.8398,0 -3.3313,-1.5803 -3.3313,-3.5296 0,-1.9493 1.4915,-3.5295 3.3313,-3.5295 1.8399,0 3.3313,1.5802 3.3313,3.5295 z"
         id="path9160"
         inkscape:connector-curvature="0" />
      <path
         inkscape:connector-curvature="0"
         id="path9162"
         d="m 2436.8611,1292.0746 c 0,1.9493 -1.4914,3.5296 -3.3313,3.5296 -1.8398,0 -3.3313,-1.5803 -3.3313,-3.5296 0,-1.9493 1.4915,-3.5295 3.3313,-3.5295 1.8399,0 3.3313,1.5802 3.3313,3.5295 z"
         style="fill:#ffff00;fill-opacity:1;stroke:#000000;stroke-width:0;stroke-miterlimit:4;stroke-opacity:1" />
      <path
         style="fill:#ffff00;fill-opacity:1;stroke:#000000;stroke-width:0;stroke-miterlimit:4;stroke-opacity:1"
         d="m 2462.8611,1294.0746 c 0,1.9493 -1.4914,3.5296 -3.3313,3.5296 -1.8398,0 -3.3313,-1.5803 -3.3313,-3.5296 0,-1.9493 1.4915,-3.5295 3.3313,-3.5295 1.8399,0 3.3313,1.5802 3.3313,3.5295 z"
         id="path9164"
         inkscape:connector-curvature="0" />
      <path
         inkscape:connector-curvature="0"
         id="path9166"
         d="m 2454.8611,1302.0746 c 0,1.9493 -1.4914,3.5296 -3.3313,3.5296 -1.8398,0 -3.3313,-1.5803 -3.3313,-3.5296 0,-1.9493 1.4915,-3.5295 3.3313,-3.5295 1.8399,0 3.3313,1.5802 3.3313,3.5295 z"
         style="fill:#ffff00;fill-opacity:1;stroke:#000000;stroke-width:0;stroke-miterlimit:4;stroke-opacity:1" />
      <path
         style="fill:#ffff00;fill-opacity:1;stroke:#000000;stroke-width:0;stroke-miterlimit:4;stroke-opacity:1"
         d="m 2464.8611,1314.0746 c 0,1.9493 -1.4914,3.5296 -3.3313,3.5296 -1.8398,0 -3.3313,-1.5803 -3.3313,-3.5296 0,-1.9493 1.4915,-3.5295 3.3313,-3.5295 1.8399,0 3.3313,1.5802 3.3313,3.5295 z"
         id="path9168"
         inkscape:connector-curvature="0" />
      <path
         inkscape:connector-curvature="0"
         id="path9170"
         d="m 2476.8611,1308.0746 c 0,1.9493 -1.4914,3.5296 -3.3313,3.5296 -1.8398,0 -3.3313,-1.5803 -3.3313,-3.5296 0,-1.9493 1.4915,-3.5295 3.3313,-3.5295 1.8399,0 3.3313,1.5802 3.3313,3.5295 z"
         style="fill:#ffff00;fill-opacity:1;stroke:#000000;stroke-width:0;stroke-miterlimit:4;stroke-opacity:1" />
      <path
         style="fill:#ffff00;fill-opacity:1;stroke:#000000;stroke-width:0;stroke-miterlimit:4;stroke-opacity:1"
         d="m 2486.8611,1330.0746 c 0,1.9493 -1.4914,3.5296 -3.3313,3.5296 -1.8398,0 -3.3313,-1.5803 -3.3313,-3.5296 0,-1.9493 1.4915,-3.5295 3.3313,-3.5295 1.8399,0 3.3313,1.5802 3.3313,3.5295 z"
         id="path9172"
         inkscape:connector-curvature="0" />
      <path
         inkscape:connector-curvature="0"
         id="path9174"
         d="m 2472.8611,1334.0746 c 0,1.9493 -1.4914,3.5296 -3.3313,3.5296 -1.8398,0 -3.3313,-1.5803 -3.3313,-3.5296 0,-1.9493 1.4915,-3.5295 3.3313,-3.5295 1.8399,0 3.3313,1.5802 3.3313,3.5295 z"
         style="fill:#ffff00;fill-opacity:1;stroke:#000000;stroke-width:0;stroke-miterlimit:4;stroke-opacity:1" />
      <path
         style="fill:#ffff00;fill-opacity:1;stroke:#000000;stroke-width:0;stroke-miterlimit:4;stroke-opacity:1"
         d="m 2476.8611,1350.0746 c 0,1.9493 -1.4914,3.5296 -3.3313,3.5296 -1.8398,0 -3.3313,-1.5803 -3.3313,-3.5296 0,-1.9493 1.4915,-3.5295 3.3313,-3.5295 1.8399,0 3.3313,1.5802 3.3313,3.5295 z"
         id="path9176"
         inkscape:connector-curvature="0" />
      <path
         inkscape:connector-curvature="0"
         id="path9178"
         d="m 2488.8611,1350.0746 c 0,1.9493 -1.4914,3.5296 -3.3313,3.5296 -1.8398,0 -3.3313,-1.5803 -3.3313,-3.5296 0,-1.9493 1.4915,-3.5295 3.3313,-3.5295 1.8399,0 3.3313,1.5802 3.3313,3.5295 z"
         style="fill:#ffff00;fill-opacity:1;stroke:#000000;stroke-width:0;stroke-miterlimit:4;stroke-opacity:1" />
      <path
         style="fill:#ffff00;fill-opacity:1;stroke:#000000;stroke-width:0;stroke-miterlimit:4;stroke-opacity:1"
         d="m 2488.8611,1366.0746 c 0,1.9493 -1.4914,3.5296 -3.3313,3.5296 -1.8398,0 -3.3313,-1.5803 -3.3313,-3.5296 0,-1.9493 1.4915,-3.5295 3.3313,-3.5295 1.8399,0 3.3313,1.5802 3.3313,3.5295 z"
         id="path9180"
         inkscape:connector-curvature="0" />
      <path
         inkscape:connector-curvature="0"
         id="path9182"
         d="m 2476.8611,1366.0746 c 0,1.9493 -1.4914,3.5296 -3.3313,3.5296 -1.8398,0 -3.3313,-1.5803 -3.3313,-3.5296 0,-1.9493 1.4915,-3.5295 3.3313,-3.5295 1.8399,0 3.3313,1.5802 3.3313,3.5295 z"
         style="fill:#ffff00;fill-opacity:1;stroke:#000000;stroke-width:0;stroke-miterlimit:4;stroke-opacity:1" />
      <path
         style="fill:#ffff00;fill-opacity:1;stroke:#000000;stroke-width:0;stroke-miterlimit:4;stroke-opacity:1"
         d="m 2476.8611,1384.0746 c 0,1.9493 -1.4914,3.5296 -3.3313,3.5296 -1.8398,0 -3.3313,-1.5803 -3.3313,-3.5296 0,-1.9493 1.4915,-3.5295 3.3313,-3.5295 1.8399,0 3.3313,1.5802 3.3313,3.5295 z"
         id="path9184"
         inkscape:connector-curvature="0" />
      <path
         inkscape:connector-curvature="0"
         id="path9186"
         d="m 2488.8611,1384.0746 c 0,1.9493 -1.4914,3.5296 -3.3313,3.5296 -1.8398,0 -3.3313,-1.5803 -3.3313,-3.5296 0,-1.9493 1.4915,-3.5295 3.3313,-3.5295 1.8399,0 3.3313,1.5802 3.3313,3.5295 z"
         style="fill:#ffff00;fill-opacity:1;stroke:#000000;stroke-width:0;stroke-miterlimit:4;stroke-opacity:1" />
      <path
         style="fill:#ffff00;fill-opacity:1;stroke:#000000;stroke-width:0;stroke-miterlimit:4;stroke-opacity:1"
         d="m 2484.8611,1408.0746 c 0,1.9493 -1.4914,3.5296 -3.3313,3.5296 -1.8398,0 -3.3313,-1.5803 -3.3313,-3.5296 0,-1.9493 1.4915,-3.5295 3.3313,-3.5295 1.8399,0 3.3313,1.5802 3.3313,3.5295 z"
         id="path9188"
         inkscape:connector-curvature="0" />
      <path
         inkscape:connector-curvature="0"
         id="path9190"
         d="m 2472.8611,1404.0746 c 0,1.9493 -1.4914,3.5296 -3.3313,3.5296 -1.8398,0 -3.3313,-1.5803 -3.3313,-3.5296 0,-1.9493 1.4915,-3.5295 3.3313,-3.5295 1.8399,0 3.3313,1.5802 3.3313,3.5295 z"
         style="fill:#ffff00;fill-opacity:1;stroke:#000000;stroke-width:0;stroke-miterlimit:4;stroke-opacity:1" />
      <path
         style="fill:#ffff00;fill-opacity:1;stroke:#000000;stroke-width:0;stroke-miterlimit:4;stroke-opacity:1"
         d="m 2474.8611,1426.0746 c 0,1.9493 -1.4914,3.5296 -3.3313,3.5296 -1.8398,0 -3.3313,-1.5803 -3.3313,-3.5296 0,-1.9493 1.4915,-3.5295 3.3313,-3.5295 1.8399,0 3.3313,1.5802 3.3313,3.5295 z"
         id="path9192"
         inkscape:connector-curvature="0" />
      <path
         inkscape:connector-curvature="0"
         id="path9194"
         d="m 2464.8611,1420.0746 c 0,1.9493 -1.4914,3.5296 -3.3313,3.5296 -1.8398,0 -3.3313,-1.5803 -3.3313,-3.5296 0,-1.9493 1.4915,-3.5295 3.3313,-3.5295 1.8399,0 3.3313,1.5802 3.3313,3.5295 z"
         style="fill:#ffff00;fill-opacity:1;stroke:#000000;stroke-width:0;stroke-miterlimit:4;stroke-opacity:1" />
      <path
         style="fill:#ffff00;fill-opacity:1;stroke:#000000;stroke-width:0;stroke-miterlimit:4;stroke-opacity:1"
         d="m 2460.8611,1444.0746 c 0,1.9493 -1.4914,3.5296 -3.3313,3.5296 -1.8398,0 -3.3313,-1.5803 -3.3313,-3.5296 0,-1.9493 1.4915,-3.5295 3.3313,-3.5295 1.8399,0 3.3313,1.5802 3.3313,3.5295 z"
         id="path9196"
         inkscape:connector-curvature="0" />
      <path
         inkscape:connector-curvature="0"
         id="path9198"
         d="m 2452.8611,1436.0746 c 0,1.9493 -1.4914,3.5296 -3.3313,3.5296 -1.8398,0 -3.3313,-1.5803 -3.3313,-3.5296 0,-1.9493 1.4915,-3.5295 3.3313,-3.5295 1.8399,0 3.3313,1.5802 3.3313,3.5295 z"
         style="fill:#ffff00;fill-opacity:1;stroke:#000000;stroke-width:0;stroke-miterlimit:4;stroke-opacity:1" />
      <path
         style="fill:#ffff00;fill-opacity:1;stroke:#000000;stroke-width:0;stroke-miterlimit:4;stroke-opacity:1"
         d="m 2438.8611,1448.0746 c 0,1.9493 -1.4914,3.5296 -3.3313,3.5296 -1.8398,0 -3.3313,-1.5803 -3.3313,-3.5296 0,-1.9493 1.4915,-3.5295 3.3313,-3.5295 1.8399,0 3.3313,1.5802 3.3313,3.5295 z"
         id="path9200"
         inkscape:connector-curvature="0" />
      <path
         inkscape:connector-curvature="0"
         id="path9202"
         d="m 2444.8611,1456.0746 c 0,1.9493 -1.4914,3.5296 -3.3313,3.5296 -1.8398,0 -3.3313,-1.5803 -3.3313,-3.5296 0,-1.9493 1.4915,-3.5295 3.3313,-3.5295 1.8399,0 3.3313,1.5802 3.3313,3.5295 z"
         style="fill:#ffff00;fill-opacity:1;stroke:#000000;stroke-width:0;stroke-miterlimit:4;stroke-opacity:1" />
      <path
         style="fill:#ffff00;fill-opacity:1;stroke:#000000;stroke-width:0;stroke-miterlimit:4;stroke-opacity:1"
         d="m 2424.8611,1452.0746 c 0,1.9493 -1.4914,3.5296 -3.3313,3.5296 -1.8398,0 -3.3313,-1.5803 -3.3313,-3.5296 0,-1.9493 1.4915,-3.5295 3.3313,-3.5295 1.8399,0 3.3313,1.5802 3.3313,3.5295 z"
         id="path9204"
         inkscape:connector-curvature="0" />
      <path
         inkscape:connector-curvature="0"
         id="path9206"
         d="m 2424.8611,1464.0746 c 0,1.9493 -1.4914,3.5296 -3.3313,3.5296 -1.8398,0 -3.3313,-1.5803 -3.3313,-3.5296 0,-1.9493 1.4915,-3.5295 3.3313,-3.5295 1.8399,0 3.3313,1.5802 3.3313,3.5295 z"
         style="fill:#ffff00;fill-opacity:1;stroke:#000000;stroke-width:0;stroke-miterlimit:4;stroke-opacity:1" />
      <path
         style="fill:#ffff00;fill-opacity:1;stroke:#000000;stroke-width:0;stroke-miterlimit:4;stroke-opacity:1"
         d="m 2406.8611,1456.0746 c 0,1.9493 -1.4914,3.5296 -3.3313,3.5296 -1.8398,0 -3.3313,-1.5803 -3.3313,-3.5296 0,-1.9493 1.4915,-3.5295 3.3313,-3.5295 1.8399,0 3.3313,1.5802 3.3313,3.5295 z"
         id="path9208"
         inkscape:connector-curvature="0" />
      <path
         inkscape:connector-curvature="0"
         id="path9210"
         d="m 2406.8611,1468.0746 c 0,1.9493 -1.4914,3.5296 -3.3313,3.5296 -1.8398,0 -3.3313,-1.5803 -3.3313,-3.5296 0,-1.9493 1.4915,-3.5295 3.3313,-3.5295 1.8399,0 3.3313,1.5802 3.3313,3.5295 z"
         style="fill:#ffff00;fill-opacity:1;stroke:#000000;stroke-width:0;stroke-miterlimit:4;stroke-opacity:1" />
      <path
         style="fill:#ffff00;fill-opacity:1;stroke:#000000;stroke-width:0;stroke-miterlimit:4;stroke-opacity:1"
         d="m 2390.8611,1456.0746 c 0,1.9493 -1.4914,3.5296 -3.3313,3.5296 -1.8398,0 -3.3313,-1.5803 -3.3313,-3.5296 0,-1.9493 1.4915,-3.5295 3.3313,-3.5295 1.8399,0 3.3313,1.5802 3.3313,3.5295 z"
         id="path9212"
         inkscape:connector-curvature="0" />
      <path
         inkscape:connector-curvature="0"
         id="path9214"
         d="m 2390.8611,1468.0746 c 0,1.9493 -1.4914,3.5296 -3.3313,3.5296 -1.8398,0 -3.3313,-1.5803 -3.3313,-3.5296 0,-1.9493 1.4915,-3.5295 3.3313,-3.5295 1.8399,0 3.3313,1.5802 3.3313,3.5295 z"
         style="fill:#ffff00;fill-opacity:1;stroke:#000000;stroke-width:0;stroke-miterlimit:4;stroke-opacity:1" />
      <path
         style="fill:#ffff00;fill-opacity:1;stroke:#000000;stroke-width:0;stroke-miterlimit:4;stroke-opacity:1"
         d="m 2368.8611,1462.0746 c 0,1.9493 -1.4914,3.5296 -3.3313,3.5296 -1.8398,0 -3.3313,-1.5803 -3.3313,-3.5296 0,-1.9493 1.4915,-3.5295 3.3313,-3.5295 1.8399,0 3.3313,1.5802 3.3313,3.5295 z"
         id="path9216"
         inkscape:connector-curvature="0" />
      <path
         inkscape:connector-curvature="0"
         id="path9218"
         d="m 2372.8611,1452.0746 c 0,1.9493 -1.4914,3.5296 -3.3313,3.5296 -1.8398,0 -3.3313,-1.5803 -3.3313,-3.5296 0,-1.9493 1.4915,-3.5295 3.3313,-3.5295 1.8399,0 3.3313,1.5802 3.3313,3.5295 z"
         style="fill:#ffff00;fill-opacity:1;stroke:#000000;stroke-width:0;stroke-miterlimit:4;stroke-opacity:1" />
      <path
         style="fill:#ffff00;fill-opacity:1;stroke:#000000;stroke-width:0;stroke-miterlimit:4;stroke-opacity:1"
         d="m 2356.8611,1444.0746 c 0,1.9493 -1.4914,3.5296 -3.3313,3.5296 -1.8398,0 -3.3313,-1.5803 -3.3313,-3.5296 0,-1.9493 1.4915,-3.5295 3.3313,-3.5295 1.8399,0 3.3313,1.5802 3.3313,3.5295 z"
         id="path9220"
         inkscape:connector-curvature="0" />
      <path
         inkscape:connector-curvature="0"
         id="path9222"
         d="m 2348.8611,1454.0746 c 0,1.9493 -1.4914,3.5296 -3.3313,3.5296 -1.8398,0 -3.3313,-1.5803 -3.3313,-3.5296 0,-1.9493 1.4915,-3.5295 3.3313,-3.5295 1.8399,0 3.3313,1.5802 3.3313,3.5295 z"
         style="fill:#ffff00;fill-opacity:1;stroke:#000000;stroke-width:0;stroke-miterlimit:4;stroke-opacity:1" />
      <path
         style="fill:#ffff00;fill-opacity:1;stroke:#000000;stroke-width:0;stroke-miterlimit:4;stroke-opacity:1"
         d="m 2342.8611,1432.0746 c 0,1.9493 -1.4914,3.5296 -3.3313,3.5296 -1.8398,0 -3.3313,-1.5803 -3.3313,-3.5296 0,-1.9493 1.4915,-3.5295 3.3313,-3.5295 1.8399,0 3.3313,1.5802 3.3313,3.5295 z"
         id="path9224"
         inkscape:connector-curvature="0" />
      <path
         inkscape:connector-curvature="0"
         id="path9226"
         d="m 2332.8611,1440.0746 c 0,1.9493 -1.4914,3.5296 -3.3313,3.5296 -1.8398,0 -3.3313,-1.5803 -3.3313,-3.5296 0,-1.9493 1.4915,-3.5295 3.3313,-3.5295 1.8399,0 3.3313,1.5802 3.3313,3.5295 z"
         style="fill:#ffff00;fill-opacity:1;stroke:#000000;stroke-width:0;stroke-miterlimit:4;stroke-opacity:1" />
      <path
         style="fill:#ffff00;fill-opacity:1;stroke:#000000;stroke-width:0;stroke-miterlimit:4;stroke-opacity:1"
         d="m 2332.8611,1418.0746 c 0,1.9493 -1.4914,3.5296 -3.3313,3.5296 -1.8398,0 -3.3313,-1.5803 -3.3313,-3.5296 0,-1.9493 1.4915,-3.5295 3.3313,-3.5295 1.8399,0 3.3313,1.5802 3.3313,3.5295 z"
         id="path9228"
         inkscape:connector-curvature="0" />
      <path
         inkscape:connector-curvature="0"
         id="path9230"
         d="m 2322.8611,1422.0746 c 0,1.9493 -1.4914,3.5296 -3.3313,3.5296 -1.8398,0 -3.3313,-1.5803 -3.3313,-3.5296 0,-1.9493 1.4915,-3.5295 3.3313,-3.5295 1.8399,0 3.3313,1.5802 3.3313,3.5295 z"
         style="fill:#ffff00;fill-opacity:1;stroke:#000000;stroke-width:0;stroke-miterlimit:4;stroke-opacity:1" />
    </g>
  </g>
</svg>
