<?xml version="1.0" encoding="UTF-8" standalone="no"?>
<svg
   xmlns:dc="http://purl.org/dc/elements/1.1/"
   xmlns:cc="http://creativecommons.org/ns#"
   xmlns:rdf="http://www.w3.org/1999/02/22-rdf-syntax-ns#"
   xmlns:svg="http://www.w3.org/2000/svg"
   xmlns="http://www.w3.org/2000/svg"
   version="1.1"
   id="svg3894"
   height="195.97978"
   width="226.80804">
  <defs
     id="defs3896" />
  <metadata
     id="metadata3899">
    <rdf:RDF>
      <cc:Work
         rdf:about="">
        <dc:format>image/svg+xml</dc:format>
        <dc:type
           rdf:resource="http://purl.org/dc/dcmitype/StillImage" />
        <dc:title></dc:title>
      </cc:Work>
    </rdf:RDF>
  </metadata>
  <g
     transform="translate(30.181797,-878.73469)"
     id="layer1">
    <path
       id="path3925"
       d="m -19.777776,884.73469 103,178.00001 102.999996,-178.00001 z"
       style="fill:#000000;fill-opacity:1;stroke:#ffff00;stroke-width:12;stroke-linecap:butt;stroke-linejoin:miter;stroke-miterlimit:4;stroke-dasharray:none;stroke-opacity:1" />
    <g
       transform="translate(-3.6732026,0)"
       id="text4437"
       style="font-style:normal;font-variant:normal;font-weight:normal;font-stretch:normal;font-size:144px;line-height:125%;font-family:'Swis721 BT';-inkscape-font-specification:'Swis721 BT';text-align:start;writing-mode:lr-tb;text-anchor:start;fill:#ffff00;fill-opacity:1;stroke:none">
      <path
         id="path3091"
         style="font-weight:bold;font-size:120px;font-family:OSP-DIN;-inkscape-font-specification:'OSP-DIN Bold';fill:#ffff00;fill-opacity:1"
         d="m 56.298393,896.71783 12.011719,0 0,84.02344 -12.011719,0 0,-72.01172 -11.953125,12.01172 0,-12.01172 11.953125,-12.01172" />
      <path
         id="path3093"
         style="font-weight:bold;font-size:120px;font-family:OSP-DIN;-inkscape-font-specification:'OSP-DIN Bold';fill:#ffff00;fill-opacity:1"
         d="m 91.396049,902.04987 c 3.515613,-3.55461 7.75389,-5.33195 12.714841,-5.33204 4.96091,9e-5 9.19919,1.77743 12.71485,5.33204 3.51558,3.5157 5.27339,7.75397 5.27343,12.71484 -4e-5,2.65631 -0.52738,5.13678 -1.58203,7.44141 l -20.976559,46.52343 22.558589,0 0,12.01172 -35.976558,0 0,-12.01172 22.558598,-49.33593 c 0.97653,-2.30463 1.44528,-3.8476 1.40625,-4.62891 -3e-5,-1.67962 -0.58597,-3.1054 -1.75782,-4.27734 -1.13283,-1.17181 -2.53908,-1.75774 -4.21875,-1.75782 -1.6797,8e-5 -3.10548,0.58601 -4.277341,1.75782 -1.171891,1.17194 -1.757828,2.59772 -1.757812,4.27734 l -11.953125,0 c -4e-6,-4.96087 1.757807,-9.19914 5.273437,-12.71484" />
    </g>
  </g>
</svg>
