<?xml version="1.0" encoding="UTF-8" standalone="no"?>
<!-- Created with Inkscape (http://www.inkscape.org/) -->

<svg
   xmlns:dc="http://purl.org/dc/elements/1.1/"
   xmlns:cc="http://creativecommons.org/ns#"
   xmlns:rdf="http://www.w3.org/1999/02/22-rdf-syntax-ns#"
   xmlns:svg="http://www.w3.org/2000/svg"
   xmlns="http://www.w3.org/2000/svg"
   xmlns:sodipodi="http://sodipodi.sourceforge.net/DTD/sodipodi-0.dtd"
   xmlns:inkscape="http://www.inkscape.org/namespaces/inkscape"
   width="482.8898"
   height="472.48288"
   id="svg4927"
   version="1.1"
   inkscape:version="0.91 r13725"
   sodipodi:docname="geschwindigkeitsvoranzeiger-80-light.svg">
  <defs
     id="defs4929" />
  <sodipodi:namedview
     id="base"
     pagecolor="#ffffff"
     bordercolor="#666666"
     borderopacity="1.0"
     inkscape:pageopacity="0.0"
     inkscape:pageshadow="2"
     inkscape:zoom="0.38304225"
     inkscape:cx="333.77667"
     inkscape:cy="232.81797"
     inkscape:document-units="px"
     inkscape:current-layer="layer1"
     showgrid="false"
     inkscape:window-width="1920"
     inkscape:window-height="1003"
     inkscape:window-x="-9"
     inkscape:window-y="-9"
     inkscape:window-maximized="1"
     showguides="true"
     inkscape:guide-bbox="true"
     fit-margin-top="0"
     fit-margin-left="0"
     fit-margin-right="0"
     fit-margin-bottom="0" />
  <metadata
     id="metadata4932">
    <rdf:RDF>
      <cc:Work
         rdf:about="">
        <dc:format>image/svg+xml</dc:format>
        <dc:type
           rdf:resource="http://purl.org/dc/dcmitype/StillImage" />
        <dc:title></dc:title>
      </cc:Work>
    </rdf:RDF>
  </metadata>
  <g
     inkscape:label="Ebene 1"
     inkscape:groupmode="layer"
     id="layer1"
     transform="translate(-11.12562,-566.15793)">
    <g
       id="g13172">
      <g
         transform="matrix(1.3895759,0,0,1.3895759,-1892.0479,-1616.0605)"
         id="g12426">
        <path
           style="fill:#000000;fill-opacity:1;stroke:#000000;stroke-width:1.01147771px;stroke-linecap:butt;stroke-linejoin:miter;stroke-opacity:1"
           d="m 1716.6083,1909.9342 -346.4951,0 0,-339.008 345.0331,0 z"
           id="path3847"
           inkscape:connector-curvature="0" />
      </g>
      <path
         inkscape:connector-curvature="0"
         id="path11610"
         d="m 185.64098,593.47343 c 0,-2.7087 2.07242,-4.90465 4.6291,-4.90465 2.55654,0 4.62909,2.19595 4.62909,4.90465 0,2.7087 -2.07255,4.90451 -4.62909,4.90451 -2.55668,0 -4.6291,-2.19581 -4.6291,-4.90451 z"
         style="fill:#ffff00;fill-opacity:1;stroke:#000000;stroke-width:0;stroke-miterlimit:4;stroke-opacity:1" />
      <path
         style="fill:#ffff00;fill-opacity:1;stroke:#000000;stroke-width:0;stroke-miterlimit:4;stroke-opacity:1"
         d="m 213.4325,582.35682 c 0,-2.7087 2.07241,-4.90465 4.6291,-4.90465 2.55654,0 4.62909,2.19595 4.62909,4.90465 0,2.7087 -2.07255,4.90451 -4.62909,4.90451 -2.55669,0 -4.6291,-2.19581 -4.6291,-4.90451 z"
         id="path12135"
         inkscape:connector-curvature="0" />
      <path
         inkscape:connector-curvature="0"
         id="path12137"
         d="m 241.22402,574.01937 c 0,-2.7087 2.07241,-4.90465 4.62909,-4.90465 2.55655,0 4.6291,2.19595 4.6291,4.90465 0,2.7087 -2.07255,4.9045 -4.6291,4.9045 -2.55668,0 -4.62909,-2.1958 -4.62909,-4.9045 z"
         style="fill:#ffff00;fill-opacity:1;stroke:#000000;stroke-width:0;stroke-miterlimit:4;stroke-opacity:1" />
      <path
         style="fill:#ffff00;fill-opacity:1;stroke:#000000;stroke-width:0;stroke-miterlimit:4;stroke-opacity:1"
         d="m 266.23639,574.01937 c 0,-2.7087 2.07241,-4.90465 4.62909,-4.90465 2.55654,0 4.62909,2.19595 4.62909,4.90465 0,2.7087 -2.07255,4.9045 -4.62909,4.9045 -2.55668,0 -4.62909,-2.1958 -4.62909,-4.9045 z"
         id="path12139"
         inkscape:connector-curvature="0" />
      <path
         inkscape:connector-curvature="0"
         id="path12141"
         d="m 291.24875,582.35682 c 0,-2.7087 2.07242,-4.90465 4.6291,-4.90465 2.55654,0 4.62909,2.19595 4.62909,4.90465 0,2.7087 -2.07255,4.90451 -4.62909,4.90451 -2.55668,0 -4.6291,-2.19581 -4.6291,-4.90451 z"
         style="fill:#ffff00;fill-opacity:1;stroke:#000000;stroke-width:0;stroke-miterlimit:4;stroke-opacity:1" />
      <path
         style="fill:#ffff00;fill-opacity:1;stroke:#000000;stroke-width:0;stroke-miterlimit:4;stroke-opacity:1"
         d="m 319.04027,596.25258 c 0,-2.7087 2.07241,-4.90465 4.62909,-4.90465 2.55655,0 4.6291,2.19595 4.6291,4.90465 0,2.7087 -2.07255,4.90451 -4.6291,4.90451 -2.55668,0 -4.62909,-2.19581 -4.62909,-4.90451 z"
         id="path12143"
         inkscape:connector-curvature="0" />
      <path
         inkscape:connector-curvature="0"
         id="path12145"
         d="m 338.49433,615.70664 c 0,-2.7087 2.07242,-4.90464 4.6291,-4.90464 2.55654,0 4.62909,2.19594 4.62909,4.90464 0,2.7087 -2.07255,4.90451 -4.62909,4.90451 -2.55668,0 -4.6291,-2.19581 -4.6291,-4.90451 z"
         style="fill:#ffff00;fill-opacity:1;stroke:#000000;stroke-width:0;stroke-miterlimit:4;stroke-opacity:1" />
      <path
         style="fill:#ffff00;fill-opacity:1;stroke:#000000;stroke-width:0;stroke-miterlimit:4;stroke-opacity:1"
         d="m 349.61094,640.71901 c 0,-2.7087 2.07241,-4.90465 4.62909,-4.90465 2.55655,0 4.6291,2.19595 4.6291,4.90465 0,2.7087 -2.07255,4.90451 -4.6291,4.90451 -2.55668,0 -4.62909,-2.19581 -4.62909,-4.90451 z"
         id="path12147"
         inkscape:connector-curvature="0" />
      <path
         inkscape:connector-curvature="0"
         id="path12149"
         d="m 357.94839,665.73138 c 0,-2.7087 2.07242,-4.90465 4.6291,-4.90465 2.55654,0 4.62909,2.19595 4.62909,4.90465 0,2.7087 -2.07255,4.9045 -4.62909,4.9045 -2.55668,0 -4.6291,-2.1958 -4.6291,-4.9045 z"
         style="fill:#ffff00;fill-opacity:1;stroke:#000000;stroke-width:0;stroke-miterlimit:4;stroke-opacity:1" />
      <path
         style="fill:#ffff00;fill-opacity:1;stroke:#000000;stroke-width:0;stroke-miterlimit:4;stroke-opacity:1"
         d="m 357.94839,696.30205 c 0,-2.7087 2.07242,-4.90465 4.6291,-4.90465 2.55654,0 4.62909,2.19595 4.62909,4.90465 0,2.7087 -2.07255,4.9045 -4.62909,4.9045 -2.55668,0 -4.6291,-2.1958 -4.6291,-4.9045 z"
         id="path12151"
         inkscape:connector-curvature="0" />
      <path
         inkscape:connector-curvature="0"
         id="path12153"
         d="m 352.39009,721.31441 c 0,-2.7087 2.07241,-4.90465 4.6291,-4.90465 2.55654,0 4.62909,2.19595 4.62909,4.90465 0,2.7087 -2.07255,4.90451 -4.62909,4.90451 -2.55669,0 -4.6291,-2.19581 -4.6291,-4.90451 z"
         style="fill:#ffff00;fill-opacity:1;stroke:#000000;stroke-width:0;stroke-miterlimit:4;stroke-opacity:1" />
      <path
         style="fill:#ffff00;fill-opacity:1;stroke:#000000;stroke-width:0;stroke-miterlimit:4;stroke-opacity:1"
         d="m 335.71518,746.32678 c 0,-2.7087 2.07241,-4.90465 4.62909,-4.90465 2.55655,0 4.6291,2.19595 4.6291,4.90465 0,2.7087 -2.07255,4.90451 -4.6291,4.90451 -2.55668,0 -4.62909,-2.19581 -4.62909,-4.90451 z"
         id="path12155"
         inkscape:connector-curvature="0" />
      <path
         inkscape:connector-curvature="0"
         id="path12157"
         d="m 335.71518,715.75611 c 0,-2.7087 2.07241,-4.90465 4.62909,-4.90465 2.55655,0 4.6291,2.19595 4.6291,4.90465 0,2.7087 -2.07255,4.90451 -4.6291,4.90451 -2.55668,0 -4.62909,-2.19581 -4.62909,-4.90451 z"
         style="fill:#ffff00;fill-opacity:1;stroke:#000000;stroke-width:0;stroke-miterlimit:4;stroke-opacity:1" />
      <path
         style="fill:#ffff00;fill-opacity:1;stroke:#000000;stroke-width:0;stroke-miterlimit:4;stroke-opacity:1"
         d="m 341.27348,693.52289 c 0,-2.7087 2.07242,-4.90464 4.6291,-4.90464 2.55654,0 4.62909,2.19594 4.62909,4.90464 0,2.7087 -2.07255,4.90451 -4.62909,4.90451 -2.55668,0 -4.6291,-2.19581 -4.6291,-4.90451 z"
         id="path12159"
         inkscape:connector-curvature="0" />
      <path
         inkscape:connector-curvature="0"
         id="path12161"
         d="m 341.27348,668.51053 c 0,-2.7087 2.07242,-4.90465 4.6291,-4.90465 2.55654,0 4.62909,2.19595 4.62909,4.90465 0,2.7087 -2.07255,4.90451 -4.62909,4.90451 -2.55668,0 -4.6291,-2.19581 -4.6291,-4.90451 z"
         style="fill:#ffff00;fill-opacity:1;stroke:#000000;stroke-width:0;stroke-miterlimit:4;stroke-opacity:1" />
      <path
         style="fill:#ffff00;fill-opacity:1;stroke:#000000;stroke-width:0;stroke-miterlimit:4;stroke-opacity:1"
         d="m 335.71518,646.27731 c 0,-2.7087 2.07241,-4.90464 4.62909,-4.90464 2.55655,0 4.6291,2.19594 4.6291,4.90464 0,2.7087 -2.07255,4.90451 -4.6291,4.90451 -2.55668,0 -4.62909,-2.19581 -4.62909,-4.90451 z"
         id="path12163"
         inkscape:connector-curvature="0" />
      <path
         inkscape:connector-curvature="0"
         id="path12165"
         d="m 324.59857,626.82325 c 0,-2.7087 2.07242,-4.90465 4.6291,-4.90465 2.55654,0 4.62909,2.19595 4.62909,4.90465 0,2.7087 -2.07255,4.90451 -4.62909,4.90451 -2.55668,0 -4.6291,-2.19581 -4.6291,-4.90451 z"
         style="fill:#ffff00;fill-opacity:1;stroke:#000000;stroke-width:0;stroke-miterlimit:4;stroke-opacity:1" />
      <path
         style="fill:#ffff00;fill-opacity:1;stroke:#000000;stroke-width:0;stroke-miterlimit:4;stroke-opacity:1"
         d="m 307.92366,607.36919 c 0,-2.7087 2.07242,-4.90465 4.6291,-4.90465 2.55654,0 4.62909,2.19595 4.62909,4.90465 0,2.7087 -2.07255,4.90451 -4.62909,4.90451 -2.55668,0 -4.6291,-2.19581 -4.6291,-4.90451 z"
         id="path12167"
         inkscape:connector-curvature="0" />
      <path
         inkscape:connector-curvature="0"
         id="path12169"
         d="m 285.69045,593.47343 c 0,-2.7087 2.07241,-4.90465 4.62909,-4.90465 2.55654,0 4.6291,2.19595 4.6291,4.90465 0,2.7087 -2.07256,4.90451 -4.6291,4.90451 -2.55668,0 -4.62909,-2.19581 -4.62909,-4.90451 z"
         style="fill:#ffff00;fill-opacity:1;stroke:#000000;stroke-width:0;stroke-miterlimit:4;stroke-opacity:1" />
      <path
         style="fill:#ffff00;fill-opacity:1;stroke:#000000;stroke-width:0;stroke-miterlimit:4;stroke-opacity:1"
         d="m 263.45723,587.91513 c 0,-2.7087 2.07242,-4.90465 4.6291,-4.90465 2.55654,0 4.62909,2.19595 4.62909,4.90465 0,2.7087 -2.07255,4.9045 -4.62909,4.9045 -2.55668,0 -4.6291,-2.1958 -4.6291,-4.9045 z"
         id="path12171"
         inkscape:connector-curvature="0" />
      <path
         inkscape:connector-curvature="0"
         id="path12173"
         d="m 244.00317,587.91513 c 0,-2.7087 2.07241,-4.90465 4.6291,-4.90465 2.55654,0 4.62909,2.19595 4.62909,4.90465 0,2.7087 -2.07255,4.9045 -4.62909,4.9045 -2.55669,0 -4.6291,-2.1958 -4.6291,-4.9045 z"
         style="fill:#ffff00;fill-opacity:1;stroke:#000000;stroke-width:0;stroke-miterlimit:4;stroke-opacity:1" />
      <path
         style="fill:#ffff00;fill-opacity:1;stroke:#000000;stroke-width:0;stroke-miterlimit:4;stroke-opacity:1"
         d="m 218.9908,593.47343 c 0,-2.7087 2.07242,-4.90465 4.6291,-4.90465 2.55654,0 4.62909,2.19595 4.62909,4.90465 0,2.7087 -2.07255,4.90451 -4.62909,4.90451 -2.55668,0 -4.6291,-2.19581 -4.6291,-4.90451 z"
         id="path12175"
         inkscape:connector-curvature="0" />
      <path
         inkscape:connector-curvature="0"
         id="path12177"
         d="m 193.97844,604.59004 c 0,-2.7087 2.07241,-4.90465 4.62909,-4.90465 2.55654,0 4.6291,2.19595 4.6291,4.90465 0,2.7087 -2.07256,4.9045 -4.6291,4.9045 -2.55668,0 -4.62909,-2.1958 -4.62909,-4.9045 z"
         style="fill:#ffff00;fill-opacity:1;stroke:#000000;stroke-width:0;stroke-miterlimit:4;stroke-opacity:1" />
      <path
         style="fill:#ffff00;fill-opacity:1;stroke:#000000;stroke-width:0;stroke-miterlimit:4;stroke-opacity:1"
         d="m 166.18692,612.92749 c 0,-2.7087 2.07241,-4.90465 4.62909,-4.90465 2.55655,0 4.6291,2.19595 4.6291,4.90465 0,2.7087 -2.07255,4.90451 -4.6291,4.90451 -2.55668,0 -4.62909,-2.19581 -4.62909,-4.90451 z"
         id="path12179"
         inkscape:connector-curvature="0" />
      <path
         inkscape:connector-curvature="0"
         id="path12181"
         d="m 177.30353,624.0441 c 0,-2.7087 2.07241,-4.90465 4.62909,-4.90465 2.55654,0 4.6291,2.19595 4.6291,4.90465 0,2.7087 -2.07256,4.90451 -4.6291,4.90451 -2.55668,0 -4.62909,-2.19581 -4.62909,-4.90451 z"
         style="fill:#ffff00;fill-opacity:1;stroke:#000000;stroke-width:0;stroke-miterlimit:4;stroke-opacity:1" />
      <path
         style="fill:#ffff00;fill-opacity:1;stroke:#000000;stroke-width:0;stroke-miterlimit:4;stroke-opacity:1"
         d="m 163.40777,643.49816 c 0,-2.7087 2.07241,-4.90465 4.62909,-4.90465 2.55654,0 4.6291,2.19595 4.6291,4.90465 0,2.7087 -2.07256,4.90451 -4.6291,4.90451 -2.55668,0 -4.62909,-2.19581 -4.62909,-4.90451 z"
         id="path12183"
         inkscape:connector-curvature="0" />
      <path
         inkscape:connector-curvature="0"
         id="path12185"
         d="m 149.51201,637.93986 c 0,-2.7087 2.07241,-4.90465 4.62909,-4.90465 2.55655,0 4.6291,2.19595 4.6291,4.90465 0,2.7087 -2.07255,4.90451 -4.6291,4.90451 -2.55668,0 -4.62909,-2.19581 -4.62909,-4.90451 z"
         style="fill:#ffff00;fill-opacity:1;stroke:#000000;stroke-width:0;stroke-miterlimit:4;stroke-opacity:1" />
      <path
         style="fill:#ffff00;fill-opacity:1;stroke:#000000;stroke-width:0;stroke-miterlimit:4;stroke-opacity:1"
         d="m 141.17455,668.51053 c 0,-2.7087 2.07242,-4.90465 4.6291,-4.90465 2.55654,0 4.62909,2.19595 4.62909,4.90465 0,2.7087 -2.07255,4.90451 -4.62909,4.90451 -2.55668,0 -4.6291,-2.19581 -4.6291,-4.90451 z"
         id="path12187"
         inkscape:connector-curvature="0" />
      <path
         inkscape:connector-curvature="0"
         id="path12189"
         d="m 157.84947,668.51053 c 0,-2.7087 2.07241,-4.90465 4.62909,-4.90465 2.55654,0 4.62909,2.19595 4.62909,4.90465 0,2.7087 -2.07255,4.90451 -4.62909,4.90451 -2.55668,0 -4.62909,-2.19581 -4.62909,-4.90451 z"
         style="fill:#ffff00;fill-opacity:1;stroke:#000000;stroke-width:0;stroke-miterlimit:4;stroke-opacity:1" />
      <path
         style="fill:#ffff00;fill-opacity:1;stroke:#000000;stroke-width:0;stroke-miterlimit:4;stroke-opacity:1"
         d="m 157.84947,693.52289 c 0,-2.7087 2.07241,-4.90464 4.62909,-4.90464 2.55654,0 4.62909,2.19594 4.62909,4.90464 0,2.7087 -2.07255,4.90451 -4.62909,4.90451 -2.55668,0 -4.62909,-2.19581 -4.62909,-4.90451 z"
         id="path12191"
         inkscape:connector-curvature="0" />
      <path
         inkscape:connector-curvature="0"
         id="path12193"
         d="m 141.17455,696.30205 c 0,-2.7087 2.07242,-4.90465 4.6291,-4.90465 2.55654,0 4.62909,2.19595 4.62909,4.90465 0,2.7087 -2.07255,4.9045 -4.62909,4.9045 -2.55668,0 -4.6291,-2.1958 -4.6291,-4.9045 z"
         style="fill:#ffff00;fill-opacity:1;stroke:#000000;stroke-width:0;stroke-miterlimit:4;stroke-opacity:1" />
      <path
         style="fill:#ffff00;fill-opacity:1;stroke:#000000;stroke-width:0;stroke-miterlimit:4;stroke-opacity:1"
         d="m 152.29116,726.87272 c 0,-2.7087 2.07242,-4.90465 4.6291,-4.90465 2.55654,0 4.62909,2.19595 4.62909,4.90465 0,2.7087 -2.07255,4.9045 -4.62909,4.9045 -2.55668,0 -4.6291,-2.1958 -4.6291,-4.9045 z"
         id="path12195"
         inkscape:connector-curvature="0" />
      <path
         inkscape:connector-curvature="0"
         id="path12197"
         d="m 166.18692,721.31441 c 0,-2.7087 2.07241,-4.90465 4.62909,-4.90465 2.55655,0 4.6291,2.19595 4.6291,4.90465 0,2.7087 -2.07255,4.90451 -4.6291,4.90451 -2.55668,0 -4.62909,-2.19581 -4.62909,-4.90451 z"
         style="fill:#ffff00;fill-opacity:1;stroke:#000000;stroke-width:0;stroke-miterlimit:4;stroke-opacity:1" />
      <path
         style="fill:#ffff00;fill-opacity:1;stroke:#000000;stroke-width:0;stroke-miterlimit:4;stroke-opacity:1"
         d="m 168.96607,751.88508 c 0,-2.7087 2.07242,-4.90465 4.6291,-4.90465 2.55654,0 4.62909,2.19595 4.62909,4.90465 0,2.7087 -2.07255,4.90451 -4.62909,4.90451 -2.55668,0 -4.6291,-2.19581 -4.6291,-4.90451 z"
         id="path12199"
         inkscape:connector-curvature="0" />
      <path
         inkscape:connector-curvature="0"
         id="path12201"
         d="m 180.08268,740.76847 c 0,-2.7087 2.07241,-4.90464 4.62909,-4.90464 2.55655,0 4.6291,2.19594 4.6291,4.90464 0,2.7087 -2.07255,4.90451 -4.6291,4.90451 -2.55668,0 -4.62909,-2.19581 -4.62909,-4.90451 z"
         style="fill:#ffff00;fill-opacity:1;stroke:#000000;stroke-width:0;stroke-miterlimit:4;stroke-opacity:1" />
      <path
         style="fill:#ffff00;fill-opacity:1;stroke:#000000;stroke-width:0;stroke-miterlimit:4;stroke-opacity:1"
         d="m 191.19929,774.1183 c 0,-2.7087 2.07241,-4.90465 4.62909,-4.90465 2.55654,0 4.6291,2.19595 4.6291,4.90465 0,2.7087 -2.07256,4.9045 -4.6291,4.9045 -2.55668,0 -4.62909,-2.1958 -4.62909,-4.9045 z"
         id="path12203"
         inkscape:connector-curvature="0" />
      <path
         inkscape:connector-curvature="0"
         id="path12205"
         d="m 199.53674,757.44339 c 0,-2.70871 2.07242,-4.90465 4.6291,-4.90465 2.55654,0 4.62909,2.19594 4.62909,4.90465 0,2.7087 -2.07255,4.9045 -4.62909,4.9045 -2.55668,0 -4.6291,-2.1958 -4.6291,-4.9045 z"
         style="fill:#ffff00;fill-opacity:1;stroke:#000000;stroke-width:0;stroke-miterlimit:4;stroke-opacity:1" />
      <path
         style="fill:#ffff00;fill-opacity:1;stroke:#000000;stroke-width:0;stroke-miterlimit:4;stroke-opacity:1"
         d="m 221.76996,768.55999 c 0,-2.7087 2.07241,-4.90464 4.62909,-4.90464 2.55654,0 4.62909,2.19594 4.62909,4.90464 0,2.7087 -2.07255,4.90451 -4.62909,4.90451 -2.55668,0 -4.62909,-2.19581 -4.62909,-4.90451 z"
         id="path12207"
         inkscape:connector-curvature="0" />
      <path
         inkscape:connector-curvature="0"
         id="path12209"
         d="m 316.26112,765.78084 c 0,-2.7087 2.07241,-4.90465 4.62909,-4.90465 2.55654,0 4.6291,2.19595 4.6291,4.90465 0,2.7087 -2.07256,4.90451 -4.6291,4.90451 -2.55668,0 -4.62909,-2.19581 -4.62909,-4.90451 z"
         style="fill:#ffff00;fill-opacity:1;stroke:#000000;stroke-width:0;stroke-miterlimit:4;stroke-opacity:1" />
      <path
         style="fill:#ffff00;fill-opacity:1;stroke:#000000;stroke-width:0;stroke-miterlimit:4;stroke-opacity:1"
         d="m 324.59857,737.98932 c 0,-2.7087 2.07242,-4.90464 4.6291,-4.90464 2.55654,0 4.62909,2.19594 4.62909,4.90464 0,2.7087 -2.07255,4.90451 -4.62909,4.90451 -2.55668,0 -4.6291,-2.19581 -4.6291,-4.90451 z"
         id="path12211"
         inkscape:connector-curvature="0" />
      <path
         inkscape:connector-curvature="0"
         id="path12213"
         d="m 307.92366,754.66423 c 0,-2.7087 2.07242,-4.90464 4.6291,-4.90464 2.55654,0 4.62909,2.19594 4.62909,4.90464 0,2.7087 -2.07255,4.90451 -4.62909,4.90451 -2.55668,0 -4.6291,-2.19581 -4.6291,-4.90451 z"
         style="fill:#ffff00;fill-opacity:1;stroke:#000000;stroke-width:0;stroke-miterlimit:4;stroke-opacity:1" />
      <path
         style="fill:#ffff00;fill-opacity:1;stroke:#000000;stroke-width:0;stroke-miterlimit:4;stroke-opacity:1"
         d="m 202.08786,788.67355 c 0,-2.7087 2.07242,-4.90465 4.6291,-4.90465 2.55654,0 4.62909,2.19595 4.62909,4.90465 0,2.7087 -2.07255,4.90451 -4.62909,4.90451 -2.55668,0 -4.6291,-2.19581 -4.6291,-4.90451 z"
         id="path12135-4"
         inkscape:connector-curvature="0" />
      <path
         inkscape:connector-curvature="0"
         id="path12137-1"
         d="m 244.25427,778.28258 c 0,-2.7087 2.07241,-4.90465 4.62909,-4.90465 2.55654,0 4.6291,2.19595 4.6291,4.90465 0,2.7087 -2.07256,4.90451 -4.6291,4.90451 -2.55668,0 -4.62909,-2.19581 -4.62909,-4.90451 z"
         style="fill:#ffff00;fill-opacity:1;stroke:#000000;stroke-width:0;stroke-miterlimit:4;stroke-opacity:1" />
      <path
         style="fill:#ffff00;fill-opacity:1;stroke:#000000;stroke-width:0;stroke-miterlimit:4;stroke-opacity:1"
         d="m 266.00836,777.55694 c 0,-2.7087 2.07241,-4.90465 4.62909,-4.90465 2.55654,0 4.62909,2.19595 4.62909,4.90465 0,2.7087 -2.07255,4.90451 -4.62909,4.90451 -2.55668,0 -4.62909,-2.19581 -4.62909,-4.90451 z"
         id="path12139-0"
         inkscape:connector-curvature="0" />
      <path
         inkscape:connector-curvature="0"
         id="path12141-5"
         d="m 288.24157,769.21949 c 0,-2.70871 2.07241,-4.90465 4.62909,-4.90465 2.55655,0 4.6291,2.19594 4.6291,4.90465 0,2.7087 -2.07255,4.9045 -4.6291,4.9045 -2.55668,0 -4.62909,-2.1958 -4.62909,-4.9045 z"
         style="fill:#ffff00;fill-opacity:1;stroke:#000000;stroke-width:0;stroke-miterlimit:4;stroke-opacity:1" />
      <path
         style="fill:#ffff00;fill-opacity:1;stroke:#000000;stroke-width:0;stroke-miterlimit:4;stroke-opacity:1"
         d="m 296.05877,788.19442 c 0,-2.7087 2.07241,-4.90465 4.62909,-4.90465 2.55654,0 4.6291,2.19595 4.6291,4.90465 0,2.7087 -2.07256,4.90451 -4.6291,4.90451 -2.55668,0 -4.62909,-2.19581 -4.62909,-4.90451 z"
         id="path12143-7"
         inkscape:connector-curvature="0" />
      <path
         inkscape:connector-curvature="0"
         id="path12145-2"
         d="m 320.30451,802.1723 c 0,-2.7087 2.07241,-4.90464 4.62909,-4.90464 2.55654,0 4.62909,2.19594 4.62909,4.90464 0,2.70871 -2.07255,4.90451 -4.62909,4.90451 -2.55668,0 -4.62909,-2.1958 -4.62909,-4.90451 z"
         style="fill:#ffff00;fill-opacity:1;stroke:#000000;stroke-width:0;stroke-miterlimit:4;stroke-opacity:1" />
      <path
         style="fill:#ffff00;fill-opacity:1;stroke:#000000;stroke-width:0;stroke-miterlimit:4;stroke-opacity:1"
         d="m 341.68897,821.02399 c 0,-2.7087 2.07241,-4.90465 4.62909,-4.90465 2.55654,0 4.6291,2.19595 4.6291,4.90465 0,2.7087 -2.07256,4.9045 -4.6291,4.9045 -2.55668,0 -4.62909,-2.1958 -4.62909,-4.9045 z"
         id="path12147-1"
         inkscape:connector-curvature="0" />
      <path
         inkscape:connector-curvature="0"
         id="path12149-5"
         d="m 355.51136,841.76243 c 0,-2.7087 2.07241,-4.90464 4.62909,-4.90464 2.55654,0 4.62909,2.19594 4.62909,4.90464 0,2.7087 -2.07255,4.90451 -4.62909,4.90451 -2.55668,0 -4.62909,-2.19581 -4.62909,-4.90451 z"
         style="fill:#ffff00;fill-opacity:1;stroke:#000000;stroke-width:0;stroke-miterlimit:4;stroke-opacity:1" />
      <path
         style="fill:#ffff00;fill-opacity:1;stroke:#000000;stroke-width:0;stroke-miterlimit:4;stroke-opacity:1"
         d="m 341.04545,849.81489 c 0,-2.7087 2.07242,-4.90465 4.6291,-4.90465 2.55654,0 4.62909,2.19595 4.62909,4.90465 0,2.7087 -2.07255,4.90451 -4.62909,4.90451 -2.55668,0 -4.6291,-2.19581 -4.6291,-4.90451 z"
         id="path12151-8"
         inkscape:connector-curvature="0" />
      <path
         inkscape:connector-curvature="0"
         id="path12153-1"
         d="m 368.83697,866.4898 c 0,-2.7087 2.07242,-4.90465 4.6291,-4.90465 2.55654,0 4.62909,2.19595 4.62909,4.90465 0,2.7087 -2.07255,4.90451 -4.62909,4.90451 -2.55668,0 -4.6291,-2.19581 -4.6291,-4.90451 z"
         style="fill:#ffff00;fill-opacity:1;stroke:#000000;stroke-width:0;stroke-miterlimit:4;stroke-opacity:1" />
      <path
         style="fill:#ffff00;fill-opacity:1;stroke:#000000;stroke-width:0;stroke-miterlimit:4;stroke-opacity:1"
         d="m 369.50202,922.35784 c 0,-2.7087 2.07242,-4.90465 4.6291,-4.90465 2.55654,0 4.62909,2.19595 4.62909,4.90465 0,2.7087 -2.07255,4.9045 -4.62909,4.9045 -2.55668,0 -4.6291,-2.1958 -4.6291,-4.9045 z"
         id="path12155-5"
         inkscape:connector-curvature="0" />
      <path
         inkscape:connector-curvature="0"
         id="path12157-7"
         d="m 370.09593,893.56874 c 0,-2.7087 2.07241,-4.90465 4.62909,-4.90465 2.55654,0 4.6291,2.19595 4.6291,4.90465 0,2.7087 -2.07256,4.90451 -4.6291,4.90451 -2.55668,0 -4.62909,-2.19581 -4.62909,-4.90451 z"
         style="fill:#ffff00;fill-opacity:1;stroke:#000000;stroke-width:0;stroke-miterlimit:4;stroke-opacity:1" />
      <path
         style="fill:#ffff00;fill-opacity:1;stroke:#000000;stroke-width:0;stroke-miterlimit:4;stroke-opacity:1"
         d="m 356.0576,892.7136 c 0,-2.7087 2.07241,-4.90465 4.62909,-4.90465 2.55654,0 4.6291,2.19595 4.6291,4.90465 0,2.7087 -2.07256,4.9045 -4.6291,4.9045 -2.55668,0 -4.62909,-2.1958 -4.62909,-4.9045 z"
         id="path12159-9"
         inkscape:connector-curvature="0" />
      <path
         inkscape:connector-curvature="0"
         id="path12161-4"
         d="m 350.11925,870.67034 c 0,-2.7087 2.07241,-4.90465 4.62909,-4.90465 2.55654,0 4.62909,2.19595 4.62909,4.90465 0,2.7087 -2.07255,4.90451 -4.62909,4.90451 -2.55668,0 -4.62909,-2.19581 -4.62909,-4.90451 z"
         style="fill:#ffff00;fill-opacity:1;stroke:#000000;stroke-width:0;stroke-miterlimit:4;stroke-opacity:1" />
      <path
         style="fill:#ffff00;fill-opacity:1;stroke:#000000;stroke-width:0;stroke-miterlimit:4;stroke-opacity:1"
         d="m 326.74588,831.80974 c 0,-2.7087 2.07242,-4.90465 4.6291,-4.90465 2.55654,0 4.62909,2.19595 4.62909,4.90465 0,2.7087 -2.07255,4.9045 -4.62909,4.9045 -2.55668,0 -4.6291,-2.1958 -4.6291,-4.9045 z"
         id="path12163-7"
         inkscape:connector-curvature="0" />
      <path
         inkscape:connector-curvature="0"
         id="path12165-4"
         d="m 311.88493,814.65792 c 0,-2.7087 2.07241,-4.90464 4.62909,-4.90464 2.55654,0 4.62909,2.19594 4.62909,4.90464 0,2.7087 -2.07255,4.90451 -4.62909,4.90451 -2.55668,0 -4.62909,-2.19581 -4.62909,-4.90451 z"
         style="fill:#ffff00;fill-opacity:1;stroke:#000000;stroke-width:0;stroke-miterlimit:4;stroke-opacity:1" />
      <path
         style="fill:#ffff00;fill-opacity:1;stroke:#000000;stroke-width:0;stroke-miterlimit:4;stroke-opacity:1"
         d="m 291.78735,802.04905 c 0,-2.7087 2.07241,-4.90465 4.6291,-4.90465 2.55654,0 4.62909,2.19595 4.62909,4.90465 0,2.7087 -2.07255,4.90451 -4.62909,4.90451 -2.55669,0 -4.6291,-2.19581 -4.6291,-4.90451 z"
         id="path12167-2"
         inkscape:connector-curvature="0" />
      <path
         inkscape:connector-curvature="0"
         id="path12169-0"
         d="m 217.53064,788.8378 c 0,-2.7087 2.07241,-4.90465 4.62909,-4.90465 2.55654,0 4.6291,2.19595 4.6291,4.90465 0,2.7087 -2.07256,4.9045 -4.6291,4.9045 -2.55668,0 -4.62909,-2.1958 -4.62909,-4.9045 z"
         style="fill:#ffff00;fill-opacity:1;stroke:#000000;stroke-width:0;stroke-miterlimit:4;stroke-opacity:1" />
      <path
         inkscape:connector-curvature="0"
         id="path12209-2"
         d="m 362.51857,947.75025 c 0,-2.7087 2.07241,-4.90465 4.6291,-4.90465 2.55654,0 4.62909,2.19595 4.62909,4.90465 0,2.7087 -2.07255,4.90451 -4.62909,4.90451 -2.55669,0 -4.6291,-2.19581 -4.6291,-4.90451 z"
         style="fill:#ffff00;fill-opacity:1;stroke:#000000;stroke-width:0;stroke-miterlimit:4;stroke-opacity:1" />
      <path
         style="fill:#ffff00;fill-opacity:1;stroke:#000000;stroke-width:0;stroke-miterlimit:4;stroke-opacity:1"
         d="m 354.8224,918.77106 c 0,-2.7087 2.07242,-4.90464 4.6291,-4.90464 2.55654,0 4.62909,2.19594 4.62909,4.90464 0,2.7087 -2.07255,4.90451 -4.62909,4.90451 -2.55668,0 -4.6291,-2.19581 -4.6291,-4.90451 z"
         id="path12211-8"
         inkscape:connector-curvature="0" />
      <path
         inkscape:connector-curvature="0"
         id="path12213-5"
         d="m 348.24276,940.79056 c 0,-2.7087 2.07242,-4.90465 4.6291,-4.90465 2.55654,0 4.62909,2.19595 4.62909,4.90465 0,2.7087 -2.07255,4.90451 -4.62909,4.90451 -2.55668,0 -4.6291,-2.19581 -4.6291,-4.90451 z"
         style="fill:#ffff00;fill-opacity:1;stroke:#000000;stroke-width:0;stroke-miterlimit:4;stroke-opacity:1" />
      <path
         style="fill:#ffff00;fill-opacity:1;stroke:#000000;stroke-width:0;stroke-miterlimit:4;stroke-opacity:1"
         d="m 240.3547,796.53591 c 0,-2.7087 2.07241,-4.90465 4.62909,-4.90465 2.55655,0 4.6291,2.19595 4.6291,4.90465 0,2.7087 -2.07255,4.90451 -4.6291,4.90451 -2.55668,0 -4.62909,-2.19581 -4.62909,-4.90451 z"
         id="path12215-8"
         inkscape:connector-curvature="0" />
      <path
         inkscape:connector-curvature="0"
         id="path12358"
         d="m 265.36707,796.53591 c 0,-2.7087 2.07241,-4.90465 4.62909,-4.90465 2.55654,0 4.6291,2.19595 4.6291,4.90465 0,2.7087 -2.07256,4.90451 -4.6291,4.90451 -2.55668,0 -4.62909,-2.19581 -4.62909,-4.90451 z"
         style="fill:#ffff00;fill-opacity:1;stroke:#000000;stroke-width:0;stroke-miterlimit:4;stroke-opacity:1" />
      <path
         style="fill:#ffff00;fill-opacity:1;stroke:#000000;stroke-width:0;stroke-miterlimit:4;stroke-opacity:1"
         d="m 218.12149,802.09421 c 0,-2.7087 2.07241,-4.90465 4.62909,-4.90465 2.55654,0 4.62909,2.19595 4.62909,4.90465 0,2.7087 -2.07255,4.90451 -4.62909,4.90451 -2.55668,0 -4.62909,-2.19581 -4.62909,-4.90451 z"
         id="path12360"
         inkscape:connector-curvature="0" />
      <path
         inkscape:connector-curvature="0"
         id="path12362"
         d="m 190.32997,799.31506 c 0,-2.7087 2.07241,-4.90465 4.62909,-4.90465 2.55654,0 4.6291,2.19595 4.6291,4.90465 0,2.7087 -2.07256,4.90451 -4.6291,4.90451 -2.55668,0 -4.62909,-2.19581 -4.62909,-4.90451 z"
         style="fill:#ffff00;fill-opacity:1;stroke:#000000;stroke-width:0;stroke-miterlimit:4;stroke-opacity:1" />
      <path
         style="fill:#ffff00;fill-opacity:1;stroke:#000000;stroke-width:0;stroke-miterlimit:4;stroke-opacity:1"
         d="m 198.66742,810.43167 c 0,-2.7087 2.07242,-4.90465 4.6291,-4.90465 2.55654,0 4.62909,2.19595 4.62909,4.90465 0,2.7087 -2.07255,4.9045 -4.62909,4.9045 -2.55668,0 -4.6291,-2.1958 -4.6291,-4.9045 z"
         id="path12364"
         inkscape:connector-curvature="0" />
      <path
         inkscape:connector-curvature="0"
         id="path12366"
         d="m 168.09675,815.98997 c 0,-2.7087 2.07242,-4.90465 4.6291,-4.90465 2.55654,0 4.62909,2.19595 4.62909,4.90465 0,2.7087 -2.07255,4.90451 -4.62909,4.90451 -2.55668,0 -4.6291,-2.19581 -4.6291,-4.90451 z"
         style="fill:#ffff00;fill-opacity:1;stroke:#000000;stroke-width:0;stroke-miterlimit:4;stroke-opacity:1" />
      <path
         style="fill:#ffff00;fill-opacity:1;stroke:#000000;stroke-width:0;stroke-miterlimit:4;stroke-opacity:1"
         d="m 179.21336,827.10658 c 0,-2.7087 2.07241,-4.90465 4.6291,-4.90465 2.55654,0 4.62909,2.19595 4.62909,4.90465 0,2.7087 -2.07255,4.90451 -4.62909,4.90451 -2.55669,0 -4.6291,-2.19581 -4.6291,-4.90451 z"
         id="path12368"
         inkscape:connector-curvature="0" />
      <path
         inkscape:connector-curvature="0"
         id="path12370"
         d="m 148.64269,838.22318 c 0,-2.7087 2.07241,-4.90464 4.6291,-4.90464 2.55654,0 4.62909,2.19594 4.62909,4.90464 0,2.7087 -2.07255,4.90451 -4.62909,4.90451 -2.55669,0 -4.6291,-2.19581 -4.6291,-4.90451 z"
         style="fill:#ffff00;fill-opacity:1;stroke:#000000;stroke-width:0;stroke-miterlimit:4;stroke-opacity:1" />
      <path
         style="fill:#ffff00;fill-opacity:1;stroke:#000000;stroke-width:0;stroke-miterlimit:4;stroke-opacity:1"
         d="m 162.53845,846.56064 c 0,-2.7087 2.07241,-4.90465 4.62909,-4.90465 2.55655,0 4.6291,2.19595 4.6291,4.90465 0,2.7087 -2.07255,4.90451 -4.6291,4.90451 -2.55668,0 -4.62909,-2.19581 -4.62909,-4.90451 z"
         id="path12372"
         inkscape:connector-curvature="0" />
      <path
         inkscape:connector-curvature="0"
         id="path12374"
         d="m 137.52608,863.23555 c 0,-2.7087 2.07242,-4.90465 4.6291,-4.90465 2.55654,0 4.62909,2.19595 4.62909,4.90465 0,2.7087 -2.07255,4.90451 -4.62909,4.90451 -2.55668,0 -4.6291,-2.19581 -4.6291,-4.90451 z"
         style="fill:#ffff00;fill-opacity:1;stroke:#000000;stroke-width:0;stroke-miterlimit:4;stroke-opacity:1" />
      <path
         style="fill:#ffff00;fill-opacity:1;stroke:#000000;stroke-width:0;stroke-miterlimit:4;stroke-opacity:1"
         d="m 151.42184,868.79385 c 0,-2.7087 2.07242,-4.90464 4.6291,-4.90464 2.55654,0 4.62909,2.19594 4.62909,4.90464 0,2.7087 -2.07255,4.90451 -4.62909,4.90451 -2.55668,0 -4.6291,-2.19581 -4.6291,-4.90451 z"
         id="path12376"
         inkscape:connector-curvature="0" />
      <path
         style="fill:#ffff00;fill-opacity:1;stroke:#000000;stroke-width:0;stroke-miterlimit:4;stroke-opacity:1"
         d="m 129.18863,891.02707 c 0,-2.7087 2.07241,-4.90465 4.62909,-4.90465 2.55654,0 4.6291,2.19595 4.6291,4.90465 0,2.7087 -2.07256,4.90451 -4.6291,4.90451 -2.55668,0 -4.62909,-2.19581 -4.62909,-4.90451 z"
         id="path12378"
         inkscape:connector-curvature="0" />
      <path
         inkscape:connector-curvature="0"
         id="path12380"
         d="m 145.86354,891.02707 c 0,-2.7087 2.07241,-4.90465 4.62909,-4.90465 2.55655,0 4.6291,2.19595 4.6291,4.90465 0,2.7087 -2.07255,4.90451 -4.6291,4.90451 -2.55668,0 -4.62909,-2.19581 -4.62909,-4.90451 z"
         style="fill:#ffff00;fill-opacity:1;stroke:#000000;stroke-width:0;stroke-miterlimit:4;stroke-opacity:1" />
      <path
         style="fill:#ffff00;fill-opacity:1;stroke:#000000;stroke-width:0;stroke-miterlimit:4;stroke-opacity:1"
         d="m 145.86354,918.81859 c 0,-2.7087 2.07241,-4.90465 4.62909,-4.90465 2.55655,0 4.6291,2.19595 4.6291,4.90465 0,2.7087 -2.07255,4.9045 -4.6291,4.9045 -2.55668,0 -4.62909,-2.1958 -4.62909,-4.9045 z"
         id="path12382"
         inkscape:connector-curvature="0" />
      <path
         inkscape:connector-curvature="0"
         id="path12384"
         d="m 129.18863,918.81859 c 0,-2.7087 2.07241,-4.90465 4.62909,-4.90465 2.55654,0 4.6291,2.19595 4.6291,4.90465 0,2.7087 -2.07256,4.9045 -4.6291,4.9045 -2.55668,0 -4.62909,-2.1958 -4.62909,-4.9045 z"
         style="fill:#ffff00;fill-opacity:1;stroke:#000000;stroke-width:0;stroke-miterlimit:4;stroke-opacity:1" />
      <path
         style="fill:#ffff00;fill-opacity:1;stroke:#000000;stroke-width:0;stroke-miterlimit:4;stroke-opacity:1"
         d="m 140.30524,946.6101 c 0,-2.7087 2.07241,-4.90464 4.62909,-4.90464 2.55654,0 4.62909,2.19594 4.62909,4.90464 0,2.7087 -2.07255,4.90451 -4.62909,4.90451 -2.55668,0 -4.62909,-2.19581 -4.62909,-4.90451 z"
         id="path12386"
         inkscape:connector-curvature="0" />
      <path
         inkscape:connector-curvature="0"
         id="path12388"
         d="m 154.20099,941.0518 c 0,-2.7087 2.07242,-4.90465 4.6291,-4.90465 2.55654,0 4.62909,2.19595 4.62909,4.90465 0,2.7087 -2.07255,4.90451 -4.62909,4.90451 -2.55668,0 -4.6291,-2.19581 -4.6291,-4.90451 z"
         style="fill:#ffff00;fill-opacity:1;stroke:#000000;stroke-width:0;stroke-miterlimit:4;stroke-opacity:1" />
      <path
         style="fill:#ffff00;fill-opacity:1;stroke:#000000;stroke-width:0;stroke-miterlimit:4;stroke-opacity:1"
         d="m 154.20099,974.40162 c 0,-2.7087 2.07242,-4.90464 4.6291,-4.90464 2.55654,0 4.62909,2.19594 4.62909,4.90464 0,2.7087 -2.07255,4.90451 -4.62909,4.90451 -2.55668,0 -4.6291,-2.19581 -4.6291,-4.90451 z"
         id="path12390"
         inkscape:connector-curvature="0" />
      <path
         inkscape:connector-curvature="0"
         id="path12392"
         d="m 168.09675,963.28502 c 0,-2.70871 2.07242,-4.90465 4.6291,-4.90465 2.55654,0 4.62909,2.19594 4.62909,4.90465 0,2.7087 -2.07255,4.9045 -4.62909,4.9045 -2.55668,0 -4.6291,-2.1958 -4.6291,-4.9045 z"
         style="fill:#ffff00;fill-opacity:1;stroke:#000000;stroke-width:0;stroke-miterlimit:4;stroke-opacity:1" />
      <path
         style="fill:#ffff00;fill-opacity:1;stroke:#000000;stroke-width:0;stroke-miterlimit:4;stroke-opacity:1"
         d="m 173.65506,993.85568 c 0,-2.7087 2.07241,-4.90464 4.62909,-4.90464 2.55654,0 4.6291,2.19594 4.6291,4.90464 0,2.70871 -2.07256,4.90451 -4.6291,4.90451 -2.55668,0 -4.62909,-2.1958 -4.62909,-4.90451 z"
         id="path12394"
         inkscape:connector-curvature="0" />
      <path
         inkscape:connector-curvature="0"
         id="path12396"
         d="m 184.77166,982.73908 c 0,-2.7087 2.07242,-4.90465 4.6291,-4.90465 2.55654,0 4.62909,2.19595 4.62909,4.90465 0,2.7087 -2.07255,4.90451 -4.62909,4.90451 -2.55668,0 -4.6291,-2.19581 -4.6291,-4.90451 z"
         style="fill:#ffff00;fill-opacity:1;stroke:#000000;stroke-width:0;stroke-miterlimit:4;stroke-opacity:1" />
      <path
         style="fill:#ffff00;fill-opacity:1;stroke:#000000;stroke-width:0;stroke-miterlimit:4;stroke-opacity:1"
         d="m 198.66742,1007.7514 c 0,-2.7087 2.07242,-4.9046 4.6291,-4.9046 2.55654,0 4.62909,2.1959 4.62909,4.9046 0,2.7087 -2.07255,4.9046 -4.62909,4.9046 -2.55668,0 -4.6291,-2.1959 -4.6291,-4.9046 z"
         id="path12398"
         inkscape:connector-curvature="0" />
      <path
         inkscape:connector-curvature="0"
         id="path12400"
         d="m 204.22573,993.85568 c 0,-2.7087 2.07241,-4.90464 4.62909,-4.90464 2.55654,0 4.6291,2.19594 4.6291,4.90464 0,2.70871 -2.07256,4.90451 -4.6291,4.90451 -2.55668,0 -4.62909,-2.1958 -4.62909,-4.90451 z"
         style="fill:#ffff00;fill-opacity:1;stroke:#000000;stroke-width:0;stroke-miterlimit:4;stroke-opacity:1" />
      <path
         style="fill:#ffff00;fill-opacity:1;stroke:#000000;stroke-width:0;stroke-miterlimit:4;stroke-opacity:1"
         d="m 229.23809,1002.1931 c 0,-2.70866 2.07242,-4.90461 4.6291,-4.90461 2.55654,0 4.62909,2.19595 4.62909,4.90461 0,2.7087 -2.07255,4.9045 -4.62909,4.9045 -2.55668,0 -4.6291,-2.1958 -4.6291,-4.9045 z"
         id="path12402"
         inkscape:connector-curvature="0" />
      <path
         inkscape:connector-curvature="0"
         id="path12404"
         d="m 223.67979,1018.8681 c 0,-2.7087 2.07241,-4.9047 4.62909,-4.9047 2.55655,0 4.6291,2.196 4.6291,4.9047 0,2.7087 -2.07255,4.9045 -4.6291,4.9045 -2.55668,0 -4.62909,-2.1958 -4.62909,-4.9045 z"
         style="fill:#ffff00;fill-opacity:1;stroke:#000000;stroke-width:0;stroke-miterlimit:4;stroke-opacity:1" />
      <path
         style="fill:#ffff00;fill-opacity:1;stroke:#000000;stroke-width:0;stroke-miterlimit:4;stroke-opacity:1"
         d="m 251.47131,1021.6472 c 0,-2.7087 2.07241,-4.9046 4.62909,-4.9046 2.55654,0 4.6291,2.1959 4.6291,4.9046 0,2.7087 -2.07256,4.9045 -4.6291,4.9045 -2.55668,0 -4.62909,-2.1958 -4.62909,-4.9045 z"
         id="path12406"
         inkscape:connector-curvature="0" />
      <path
         inkscape:connector-curvature="0"
         id="path12408"
         d="m 251.47131,1004.9723 c 0,-2.7087 2.07241,-4.9047 4.62909,-4.9047 2.55654,0 4.6291,2.196 4.6291,4.9047 0,2.7087 -2.07256,4.9045 -4.6291,4.9045 -2.55668,0 -4.62909,-2.1958 -4.62909,-4.9045 z"
         style="fill:#ffff00;fill-opacity:1;stroke:#000000;stroke-width:0;stroke-miterlimit:4;stroke-opacity:1" />
      <path
         style="fill:#ffff00;fill-opacity:1;stroke:#000000;stroke-width:0;stroke-miterlimit:4;stroke-opacity:1"
         d="m 279.26283,1002.1931 c 0,-2.70866 2.07241,-4.90461 4.62909,-4.90461 2.55654,0 4.62909,2.19595 4.62909,4.90461 0,2.7087 -2.07255,4.9045 -4.62909,4.9045 -2.55668,0 -4.62909,-2.1958 -4.62909,-4.9045 z"
         id="path12410"
         inkscape:connector-curvature="0" />
      <path
         inkscape:connector-curvature="0"
         id="path12412"
         d="m 279.26283,1018.8681 c 0,-2.7087 2.07241,-4.9047 4.62909,-4.9047 2.55654,0 4.62909,2.196 4.62909,4.9047 0,2.7087 -2.07255,4.9045 -4.62909,4.9045 -2.55668,0 -4.62909,-2.1958 -4.62909,-4.9045 z"
         style="fill:#ffff00;fill-opacity:1;stroke:#000000;stroke-width:0;stroke-miterlimit:4;stroke-opacity:1" />
      <path
         style="fill:#ffff00;fill-opacity:1;stroke:#000000;stroke-width:0;stroke-miterlimit:4;stroke-opacity:1"
         d="m 304.27519,1007.7514 c 0,-2.7087 2.07242,-4.9046 4.6291,-4.9046 2.55654,0 4.62909,2.1959 4.62909,4.9046 0,2.7087 -2.07255,4.9046 -4.62909,4.9046 -2.55668,0 -4.6291,-2.1959 -4.6291,-4.9046 z"
         id="path12414"
         inkscape:connector-curvature="0" />
      <path
         inkscape:connector-curvature="0"
         id="path12416"
         d="m 298.71689,991.07653 c 0,-2.7087 2.07241,-4.90464 4.62909,-4.90464 2.55654,0 4.6291,2.19594 4.6291,4.90464 0,2.7087 -2.07256,4.90451 -4.6291,4.90451 -2.55668,0 -4.62909,-2.19581 -4.62909,-4.90451 z"
         style="fill:#ffff00;fill-opacity:1;stroke:#000000;stroke-width:0;stroke-miterlimit:4;stroke-opacity:1" />
      <path
         style="fill:#ffff00;fill-opacity:1;stroke:#000000;stroke-width:0;stroke-miterlimit:4;stroke-opacity:1"
         d="m 329.28756,993.85568 c 0,-2.7087 2.07241,-4.90464 4.62909,-4.90464 2.55654,0 4.6291,2.19594 4.6291,4.90464 0,2.70871 -2.07256,4.90451 -4.6291,4.90451 -2.55668,0 -4.62909,-2.1958 -4.62909,-4.90451 z"
         id="path12418"
         inkscape:connector-curvature="0" />
      <path
         inkscape:connector-curvature="0"
         id="path12420"
         d="m 348.74162,971.62247 c 0,-2.7087 2.07241,-4.90465 4.62909,-4.90465 2.55655,0 4.6291,2.19595 4.6291,4.90465 0,2.7087 -2.07255,4.90451 -4.6291,4.90451 -2.55668,0 -4.62909,-2.19581 -4.62909,-4.90451 z"
         style="fill:#ffff00;fill-opacity:1;stroke:#000000;stroke-width:0;stroke-miterlimit:4;stroke-opacity:1" />
      <path
         style="fill:#ffff00;fill-opacity:1;stroke:#000000;stroke-width:0;stroke-miterlimit:4;stroke-opacity:1"
         d="m 334.84586,963.28502 c 0,-2.70871 2.07242,-4.90465 4.6291,-4.90465 2.55654,0 4.62909,2.19594 4.62909,4.90465 0,2.7087 -2.07255,4.9045 -4.62909,4.9045 -2.55668,0 -4.6291,-2.1958 -4.6291,-4.9045 z"
         id="path12422"
         inkscape:connector-curvature="0" />
      <path
         inkscape:connector-curvature="0"
         id="path12424"
         d="m 318.17095,979.95993 c 0,-2.7087 2.07241,-4.90465 4.6291,-4.90465 2.55654,0 4.62909,2.19595 4.62909,4.90465 0,2.7087 -2.07255,4.9045 -4.62909,4.9045 -2.55669,0 -4.6291,-2.1958 -4.6291,-4.9045 z"
         style="fill:#ffff00;fill-opacity:1;stroke:#000000;stroke-width:0;stroke-miterlimit:4;stroke-opacity:1" />
    </g>
  </g>
</svg>
