<?xml version="1.0" encoding="UTF-8" standalone="no"?>
<!-- Created with Inkscape (http://www.inkscape.org/) -->

<svg
   xmlns:dc="http://purl.org/dc/elements/1.1/"
   xmlns:cc="http://creativecommons.org/ns#"
   xmlns:rdf="http://www.w3.org/1999/02/22-rdf-syntax-ns#"
   xmlns:svg="http://www.w3.org/2000/svg"
   xmlns="http://www.w3.org/2000/svg"
   xmlns:sodipodi="http://sodipodi.sourceforge.net/DTD/sodipodi-0.dtd"
   xmlns:inkscape="http://www.inkscape.org/namespaces/inkscape"
   width="484.009"
   height="473.57779"
   id="svg4927"
   version="1.1"
   inkscape:version="0.91 r13725"
   sodipodi:docname="geschwindigkeitsvoranzeiger-90-light.svg">
  <defs
     id="defs4929" />
  <sodipodi:namedview
     id="base"
     pagecolor="#ffffff"
     bordercolor="#666666"
     borderopacity="1.0"
     inkscape:pageopacity="0.0"
     inkscape:pageshadow="2"
     inkscape:zoom="0.57875767"
     inkscape:cx="-541.20532"
     inkscape:cy="412.73131"
     inkscape:document-units="px"
     inkscape:current-layer="layer1"
     showgrid="false"
     inkscape:window-width="1920"
     inkscape:window-height="1003"
     inkscape:window-x="-9"
     inkscape:window-y="-9"
     inkscape:window-maximized="1"
     fit-margin-top="0"
     fit-margin-left="0"
     fit-margin-right="0"
     fit-margin-bottom="0" />
  <metadata
     id="metadata4932">
    <rdf:RDF>
      <cc:Work
         rdf:about="">
        <dc:format>image/svg+xml</dc:format>
        <dc:type
           rdf:resource="http://purl.org/dc/dcmitype/StillImage" />
        <dc:title></dc:title>
      </cc:Work>
    </rdf:RDF>
  </metadata>
  <g
     inkscape:label="Ebene 1"
     inkscape:groupmode="layer"
     id="layer1"
     transform="translate(-9.3976419,-564.43009)">
    <g
       id="g11366">
      <path
         inkscape:connector-curvature="0"
         id="path3847"
         d="m 492.6992,1037.3035 -482.597167,0 0,-472.16902 480.560897,0 z"
         style="fill:#000000;fill-opacity:1;stroke:#000000;stroke-width:1.40878224px;stroke-linecap:butt;stroke-linejoin:miter;stroke-opacity:1" />
      <path
         inkscape:connector-curvature="0"
         id="path7209"
         d="m 140.01634,969.70692 c 0,-2.71497 2.07722,-4.91601 4.63982,-4.91601 2.56247,0 4.63983,2.20104 4.63983,4.91601 0,2.71498 -2.07736,4.91588 -4.63983,4.91588 -2.5626,0 -4.63982,-2.2009 -4.63982,-4.91588 z"
         style="fill:#ffff00;fill-opacity:1;stroke:#000000;stroke-width:0;stroke-miterlimit:4;stroke-opacity:1" />
      <path
         style="fill:#ffff00;fill-opacity:1;stroke:#000000;stroke-width:0;stroke-miterlimit:4;stroke-opacity:1"
         d="m 151.15871,961.35015 c 0,-2.71498 2.07722,-4.91602 4.63982,-4.91602 2.56247,0 4.63982,2.20104 4.63982,4.91602 0,2.71497 -2.07735,4.91587 -4.63982,4.91587 -2.5626,0 -4.63982,-2.2009 -4.63982,-4.91587 z"
         id="path9039"
         inkscape:connector-curvature="0" />
      <path
         inkscape:connector-curvature="0"
         id="path9041"
         d="m 173.44345,980.84929 c 0,-2.71498 2.07721,-4.91601 4.63982,-4.91601 2.56247,0 4.63982,2.20103 4.63982,4.91601 0,2.71498 -2.07735,4.91588 -4.63982,4.91588 -2.56261,0 -4.63982,-2.2009 -4.63982,-4.91588 z"
         style="fill:#ffff00;fill-opacity:1;stroke:#000000;stroke-width:0;stroke-miterlimit:4;stroke-opacity:1" />
      <path
         style="fill:#ffff00;fill-opacity:1;stroke:#000000;stroke-width:0;stroke-miterlimit:4;stroke-opacity:1"
         d="m 165.08667,991.99166 c 0,-2.71498 2.07722,-4.91601 4.63982,-4.91601 2.56247,0 4.63983,2.20103 4.63983,4.91601 0,2.71498 -2.07736,4.91587 -4.63983,4.91587 -2.5626,0 -4.63982,-2.20089 -4.63982,-4.91587 z"
         id="path9043"
         inkscape:connector-curvature="0" />
      <path
         inkscape:connector-curvature="0"
         id="path9045"
         d="m 195.72819,1011.4908 c 0,-2.715 2.07721,-4.916 4.63982,-4.916 2.56246,0 4.63982,2.201 4.63982,4.916 0,2.715 -2.07736,4.9159 -4.63982,4.9159 -2.56261,0 -4.63982,-2.2009 -4.63982,-4.9159 z"
         style="fill:#ffff00;fill-opacity:1;stroke:#000000;stroke-width:0;stroke-miterlimit:4;stroke-opacity:1" />
      <path
         style="fill:#ffff00;fill-opacity:1;stroke:#000000;stroke-width:0;stroke-miterlimit:4;stroke-opacity:1"
         d="m 201.29937,997.56284 c 0,-2.71497 2.07722,-4.91601 4.63982,-4.91601 2.56247,0 4.63982,2.20104 4.63982,4.91601 0,2.71496 -2.07735,4.91586 -4.63982,4.91586 -2.5626,0 -4.63982,-2.2009 -4.63982,-4.91586 z"
         id="path9047"
         inkscape:connector-curvature="0" />
      <path
         inkscape:connector-curvature="0"
         id="path9049"
         d="m 226.3697,1005.9196 c 0,-2.715 2.07722,-4.916 4.63982,-4.916 2.56247,0 4.63982,2.201 4.63982,4.916 0,2.715 -2.07735,4.9159 -4.63982,4.9159 -2.5626,0 -4.63982,-2.2009 -4.63982,-4.9159 z"
         style="fill:#ffff00;fill-opacity:1;stroke:#000000;stroke-width:0;stroke-miterlimit:4;stroke-opacity:1" />
      <path
         style="fill:#ffff00;fill-opacity:1;stroke:#000000;stroke-width:0;stroke-miterlimit:4;stroke-opacity:1"
         d="m 223.58411,1019.8476 c 0,-2.715 2.07721,-4.916 4.63982,-4.916 2.56247,0 4.63982,2.201 4.63982,4.916 0,2.715 -2.07735,4.9159 -4.63982,4.9159 -2.56261,0 -4.63982,-2.2009 -4.63982,-4.9159 z"
         id="path9051"
         inkscape:connector-curvature="0" />
      <path
         inkscape:connector-curvature="0"
         id="path9053"
         d="m 251.44003,1022.6332 c 0,-2.715 2.07722,-4.916 4.63982,-4.916 2.56247,0 4.63982,2.201 4.63982,4.916 0,2.715 -2.07735,4.9158 -4.63982,4.9158 -2.5626,0 -4.63982,-2.2008 -4.63982,-4.9158 z"
         style="fill:#ffff00;fill-opacity:1;stroke:#000000;stroke-width:0;stroke-miterlimit:4;stroke-opacity:1" />
      <path
         style="fill:#ffff00;fill-opacity:1;stroke:#000000;stroke-width:0;stroke-miterlimit:4;stroke-opacity:1"
         d="m 251.44003,1008.7052 c 0,-2.715 2.07722,-4.916 4.63982,-4.916 2.56247,0 4.63982,2.201 4.63982,4.916 0,2.715 -2.07735,4.9159 -4.63982,4.9159 -2.5626,0 -4.63982,-2.2009 -4.63982,-4.9159 z"
         id="path9055"
         inkscape:connector-curvature="0" />
      <path
         inkscape:connector-curvature="0"
         id="path9068"
         d="m 279.29595,1005.9196 c 0,-2.715 2.07722,-4.916 4.63982,-4.916 2.56247,0 4.63983,2.201 4.63983,4.916 0,2.715 -2.07736,4.9159 -4.63983,4.9159 -2.5626,0 -4.63982,-2.2009 -4.63982,-4.9159 z"
         style="fill:#ffff00;fill-opacity:1;stroke:#000000;stroke-width:0;stroke-miterlimit:4;stroke-opacity:1" />
      <path
         style="fill:#ffff00;fill-opacity:1;stroke:#000000;stroke-width:0;stroke-miterlimit:4;stroke-opacity:1"
         d="m 282.08154,1019.8476 c 0,-2.715 2.07722,-4.916 4.63983,-4.916 2.56246,0 4.63982,2.201 4.63982,4.916 0,2.715 -2.07736,4.9159 -4.63982,4.9159 -2.56261,0 -4.63983,-2.2009 -4.63983,-4.9159 z"
         id="path9070"
         inkscape:connector-curvature="0" />
      <path
         inkscape:connector-curvature="0"
         id="path9072"
         d="m 312.72306,1008.7052 c 0,-2.715 2.07721,-4.916 4.63982,-4.916 2.56247,0 4.63982,2.201 4.63982,4.916 0,2.715 -2.07735,4.9159 -4.63982,4.9159 -2.56261,0 -4.63982,-2.2009 -4.63982,-4.9159 z"
         style="fill:#ffff00;fill-opacity:1;stroke:#000000;stroke-width:0;stroke-miterlimit:4;stroke-opacity:1" />
      <path
         style="fill:#ffff00;fill-opacity:1;stroke:#000000;stroke-width:0;stroke-miterlimit:4;stroke-opacity:1"
         d="m 312.72306,1008.7052 c 0,-2.715 2.07721,-4.916 4.63982,-4.916 2.56247,0 4.63982,2.201 4.63982,4.916 0,2.715 -2.07735,4.9159 -4.63982,4.9159 -2.56261,0 -4.63982,-2.2009 -4.63982,-4.9159 z"
         id="path9074"
         inkscape:connector-curvature="0" />
      <path
         inkscape:connector-curvature="0"
         id="path9076"
         d="m 304.36628,997.56284 c 0,-2.71497 2.07722,-4.91601 4.63982,-4.91601 2.56247,0 4.63983,2.20104 4.63983,4.91601 0,2.71496 -2.07736,4.91586 -4.63983,4.91586 -2.5626,0 -4.63982,-2.2009 -4.63982,-4.91586 z"
         style="fill:#ffff00;fill-opacity:1;stroke:#000000;stroke-width:0;stroke-miterlimit:4;stroke-opacity:1" />
      <path
         style="fill:#ffff00;fill-opacity:1;stroke:#000000;stroke-width:0;stroke-miterlimit:4;stroke-opacity:1"
         d="m 335.0078,991.99166 c 0,-2.71498 2.07721,-4.91601 4.63982,-4.91601 2.56246,0 4.63982,2.20103 4.63982,4.91601 0,2.71498 -2.07736,4.91587 -4.63982,4.91587 -2.56261,0 -4.63982,-2.20089 -4.63982,-4.91587 z"
         id="path9078"
         inkscape:connector-curvature="0" />
      <path
         inkscape:connector-curvature="0"
         id="path9080"
         d="m 323.86543,980.84929 c 0,-2.71498 2.07721,-4.91601 4.63982,-4.91601 2.56247,0 4.63982,2.20103 4.63982,4.91601 0,2.71498 -2.07735,4.91588 -4.63982,4.91588 -2.56261,0 -4.63982,-2.2009 -4.63982,-4.91588 z"
         style="fill:#ffff00;fill-opacity:1;stroke:#000000;stroke-width:0;stroke-miterlimit:4;stroke-opacity:1" />
      <path
         style="fill:#ffff00;fill-opacity:1;stroke:#000000;stroke-width:0;stroke-miterlimit:4;stroke-opacity:1"
         d="m 357.29253,969.70692 c 0,-2.71497 2.07722,-4.91601 4.63983,-4.91601 2.56246,0 4.63982,2.20104 4.63982,4.91601 0,2.71498 -2.07736,4.91588 -4.63982,4.91588 -2.56261,0 -4.63983,-2.2009 -4.63983,-4.91588 z"
         id="path9082"
         inkscape:connector-curvature="0" />
      <path
         inkscape:connector-curvature="0"
         id="path9084"
         d="m 340.57898,961.35015 c 0,-2.71498 2.07722,-4.91602 4.63982,-4.91602 2.56247,0 4.63982,2.20104 4.63982,4.91602 0,2.71497 -2.07735,4.91587 -4.63982,4.91587 -2.5626,0 -4.63982,-2.2009 -4.63982,-4.91587 z"
         style="fill:#ffff00;fill-opacity:1;stroke:#000000;stroke-width:0;stroke-miterlimit:4;stroke-opacity:1" />
      <path
         style="fill:#ffff00;fill-opacity:1;stroke:#000000;stroke-width:0;stroke-miterlimit:4;stroke-opacity:1"
         d="m 368.4349,947.42219 c 0,-2.71498 2.07722,-4.91602 4.63982,-4.91602 2.56247,0 4.63983,2.20104 4.63983,4.91602 0,2.71497 -2.07736,4.91587 -4.63983,4.91587 -2.5626,0 -4.63982,-2.2009 -4.63982,-4.91587 z"
         id="path9086"
         inkscape:connector-curvature="0" />
      <path
         inkscape:connector-curvature="0"
         id="path9088"
         d="m 351.72135,941.851 c 0,-2.71498 2.07722,-4.91601 4.63982,-4.91601 2.56247,0 4.63982,2.20103 4.63982,4.91601 0,2.71498 -2.07735,4.91587 -4.63982,4.91587 -2.5626,0 -4.63982,-2.20089 -4.63982,-4.91587 z"
         style="fill:#ffff00;fill-opacity:1;stroke:#000000;stroke-width:0;stroke-miterlimit:4;stroke-opacity:1" />
      <path
         style="fill:#ffff00;fill-opacity:1;stroke:#000000;stroke-width:0;stroke-miterlimit:4;stroke-opacity:1"
         d="m 374.00609,916.78067 c 0,-2.71498 2.07721,-4.91601 4.63982,-4.91601 2.56247,0 4.63982,2.20103 4.63982,4.91601 0,2.71498 -2.07735,4.91587 -4.63982,4.91587 -2.56261,0 -4.63982,-2.20089 -4.63982,-4.91587 z"
         id="path9090"
         inkscape:connector-curvature="0" />
      <path
         inkscape:connector-curvature="0"
         id="path9092"
         d="m 374.00609,888.92475 c 0,-2.71498 2.07721,-4.91601 4.63982,-4.91601 2.56247,0 4.63982,2.20103 4.63982,4.91601 0,2.71498 -2.07735,4.91587 -4.63982,4.91587 -2.56261,0 -4.63982,-2.20089 -4.63982,-4.91587 z"
         style="fill:#ffff00;fill-opacity:1;stroke:#000000;stroke-width:0;stroke-miterlimit:4;stroke-opacity:1" />
      <path
         style="fill:#ffff00;fill-opacity:1;stroke:#000000;stroke-width:0;stroke-miterlimit:4;stroke-opacity:1"
         d="m 374.00609,863.85442 c 0,-2.71498 2.07721,-4.91601 4.63982,-4.91601 2.56247,0 4.63982,2.20103 4.63982,4.91601 0,2.71498 -2.07735,4.91587 -4.63982,4.91587 -2.56261,0 -4.63982,-2.20089 -4.63982,-4.91587 z"
         id="path9094"
         inkscape:connector-curvature="0" />
      <path
         inkscape:connector-curvature="0"
         id="path9096"
         d="m 374.00609,841.56968 c 0,-2.71498 2.07721,-4.91601 4.63982,-4.91601 2.56247,0 4.63982,2.20103 4.63982,4.91601 0,2.71498 -2.07735,4.91588 -4.63982,4.91588 -2.56261,0 -4.63982,-2.2009 -4.63982,-4.91588 z"
         style="fill:#ffff00;fill-opacity:1;stroke:#000000;stroke-width:0;stroke-miterlimit:4;stroke-opacity:1" />
      <path
         style="fill:#ffff00;fill-opacity:1;stroke:#000000;stroke-width:0;stroke-miterlimit:4;stroke-opacity:1"
         d="m 374.00609,816.49935 c 0,-2.71498 2.07721,-4.91601 4.63982,-4.91601 2.56247,0 4.63982,2.20103 4.63982,4.91601 0,2.71498 -2.07735,4.91588 -4.63982,4.91588 -2.56261,0 -4.63982,-2.2009 -4.63982,-4.91588 z"
         id="path9098"
         inkscape:connector-curvature="0" />
      <path
         inkscape:connector-curvature="0"
         id="path9100"
         d="m 374.00609,794.21461 c 0,-2.71497 2.07721,-4.91601 4.63982,-4.91601 2.56247,0 4.63982,2.20104 4.63982,4.91601 0,2.71498 -2.07735,4.91588 -4.63982,4.91588 -2.56261,0 -4.63982,-2.2009 -4.63982,-4.91588 z"
         style="fill:#ffff00;fill-opacity:1;stroke:#000000;stroke-width:0;stroke-miterlimit:4;stroke-opacity:1" />
      <path
         style="fill:#ffff00;fill-opacity:1;stroke:#000000;stroke-width:0;stroke-miterlimit:4;stroke-opacity:1"
         d="m 374.00609,771.92988 c 0,-2.71498 2.07721,-4.91602 4.63982,-4.91602 2.56247,0 4.63982,2.20104 4.63982,4.91602 0,2.71497 -2.07735,4.91587 -4.63982,4.91587 -2.56261,0 -4.63982,-2.2009 -4.63982,-4.91587 z"
         id="path9102"
         inkscape:connector-curvature="0" />
      <path
         inkscape:connector-curvature="0"
         id="path9104"
         d="m 374.00609,746.85955 c 0,-2.71498 2.07721,-4.91602 4.63982,-4.91602 2.56247,0 4.63982,2.20104 4.63982,4.91602 0,2.71497 -2.07735,4.91587 -4.63982,4.91587 -2.56261,0 -4.63982,-2.2009 -4.63982,-4.91587 z"
         style="fill:#ffff00;fill-opacity:1;stroke:#000000;stroke-width:0;stroke-miterlimit:4;stroke-opacity:1" />
      <path
         style="fill:#ffff00;fill-opacity:1;stroke:#000000;stroke-width:0;stroke-miterlimit:4;stroke-opacity:1"
         d="m 374.00609,727.3604 c 0,-2.71498 2.07721,-4.91601 4.63982,-4.91601 2.56247,0 4.63982,2.20103 4.63982,4.91601 0,2.71498 -2.07735,4.91588 -4.63982,4.91588 -2.56261,0 -4.63982,-2.2009 -4.63982,-4.91588 z"
         id="path9106"
         inkscape:connector-curvature="0" />
      <path
         inkscape:connector-curvature="0"
         id="path9108"
         d="m 374.00609,699.50448 c 0,-2.71498 2.07721,-4.91601 4.63982,-4.91601 2.56247,0 4.63982,2.20103 4.63982,4.91601 0,2.71498 -2.07735,4.91587 -4.63982,4.91587 -2.56261,0 -4.63982,-2.20089 -4.63982,-4.91587 z"
         style="fill:#ffff00;fill-opacity:1;stroke:#000000;stroke-width:0;stroke-miterlimit:4;stroke-opacity:1" />
      <path
         style="fill:#ffff00;fill-opacity:1;stroke:#000000;stroke-width:0;stroke-miterlimit:4;stroke-opacity:1"
         d="m 368.4349,668.86297 c 0,-2.71498 2.07722,-4.91602 4.63982,-4.91602 2.56247,0 4.63983,2.20104 4.63983,4.91602 0,2.71497 -2.07736,4.91587 -4.63983,4.91587 -2.5626,0 -4.63982,-2.2009 -4.63982,-4.91587 z"
         id="path9110"
         inkscape:connector-curvature="0" />
      <path
         inkscape:connector-curvature="0"
         id="path9112"
         d="m 351.72135,671.64856 c 0,-2.71498 2.07722,-4.91602 4.63982,-4.91602 2.56247,0 4.63982,2.20104 4.63982,4.91602 0,2.71497 -2.07735,4.91587 -4.63982,4.91587 -2.5626,0 -4.63982,-2.2009 -4.63982,-4.91587 z"
         style="fill:#ffff00;fill-opacity:1;stroke:#000000;stroke-width:0;stroke-miterlimit:4;stroke-opacity:1" />
      <path
         style="fill:#ffff00;fill-opacity:1;stroke:#000000;stroke-width:0;stroke-miterlimit:4;stroke-opacity:1"
         d="m 357.29253,699.50448 c 0,-2.71498 2.07722,-4.91601 4.63983,-4.91601 2.56246,0 4.63982,2.20103 4.63982,4.91601 0,2.71498 -2.07736,4.91587 -4.63982,4.91587 -2.56261,0 -4.63983,-2.20089 -4.63983,-4.91587 z"
         id="path9114"
         inkscape:connector-curvature="0" />
      <path
         inkscape:connector-curvature="0"
         id="path9116"
         d="m 357.29253,727.3604 c 0,-2.71498 2.07722,-4.91601 4.63983,-4.91601 2.56246,0 4.63982,2.20103 4.63982,4.91601 0,2.71498 -2.07736,4.91588 -4.63982,4.91588 -2.56261,0 -4.63983,-2.2009 -4.63983,-4.91588 z"
         style="fill:#ffff00;fill-opacity:1;stroke:#000000;stroke-width:0;stroke-miterlimit:4;stroke-opacity:1" />
      <path
         style="fill:#ffff00;fill-opacity:1;stroke:#000000;stroke-width:0;stroke-miterlimit:4;stroke-opacity:1"
         d="m 357.29253,746.85955 c 0,-2.71498 2.07722,-4.91602 4.63983,-4.91602 2.56246,0 4.63982,2.20104 4.63982,4.91602 0,2.71497 -2.07736,4.91587 -4.63982,4.91587 -2.56261,0 -4.63983,-2.2009 -4.63983,-4.91587 z"
         id="path9118"
         inkscape:connector-curvature="0" />
      <path
         inkscape:connector-curvature="0"
         id="path9120"
         d="m 357.29253,771.92988 c 0,-2.71498 2.07722,-4.91602 4.63983,-4.91602 2.56246,0 4.63982,2.20104 4.63982,4.91602 0,2.71497 -2.07736,4.91587 -4.63982,4.91587 -2.56261,0 -4.63983,-2.2009 -4.63983,-4.91587 z"
         style="fill:#ffff00;fill-opacity:1;stroke:#000000;stroke-width:0;stroke-miterlimit:4;stroke-opacity:1" />
      <path
         style="fill:#ffff00;fill-opacity:1;stroke:#000000;stroke-width:0;stroke-miterlimit:4;stroke-opacity:1"
         d="m 357.29253,794.21461 c 0,-2.71497 2.07722,-4.91601 4.63983,-4.91601 2.56246,0 4.63982,2.20104 4.63982,4.91601 0,2.71498 -2.07736,4.91588 -4.63982,4.91588 -2.56261,0 -4.63983,-2.2009 -4.63983,-4.91588 z"
         id="path9122"
         inkscape:connector-curvature="0" />
      <path
         inkscape:connector-curvature="0"
         id="path9124"
         d="m 357.29253,816.49935 c 0,-2.71498 2.07722,-4.91601 4.63983,-4.91601 2.56246,0 4.63982,2.20103 4.63982,4.91601 0,2.71498 -2.07736,4.91588 -4.63982,4.91588 -2.56261,0 -4.63983,-2.2009 -4.63983,-4.91588 z"
         style="fill:#ffff00;fill-opacity:1;stroke:#000000;stroke-width:0;stroke-miterlimit:4;stroke-opacity:1" />
      <path
         style="fill:#ffff00;fill-opacity:1;stroke:#000000;stroke-width:0;stroke-miterlimit:4;stroke-opacity:1"
         d="m 357.29253,841.56968 c 0,-2.71498 2.07722,-4.91601 4.63983,-4.91601 2.56246,0 4.63982,2.20103 4.63982,4.91601 0,2.71498 -2.07736,4.91588 -4.63982,4.91588 -2.56261,0 -4.63983,-2.2009 -4.63983,-4.91588 z"
         id="path9126"
         inkscape:connector-curvature="0" />
      <path
         inkscape:connector-curvature="0"
         id="path9128"
         d="m 357.29253,863.85442 c 0,-2.71498 2.07722,-4.91601 4.63983,-4.91601 2.56246,0 4.63982,2.20103 4.63982,4.91601 0,2.71498 -2.07736,4.91587 -4.63982,4.91587 -2.56261,0 -4.63983,-2.20089 -4.63983,-4.91587 z"
         style="fill:#ffff00;fill-opacity:1;stroke:#000000;stroke-width:0;stroke-miterlimit:4;stroke-opacity:1" />
      <path
         style="fill:#ffff00;fill-opacity:1;stroke:#000000;stroke-width:0;stroke-miterlimit:4;stroke-opacity:1"
         d="m 357.29253,888.92475 c 0,-2.71498 2.07722,-4.91601 4.63983,-4.91601 2.56246,0 4.63982,2.20103 4.63982,4.91601 0,2.71498 -2.07736,4.91587 -4.63982,4.91587 -2.56261,0 -4.63983,-2.20089 -4.63983,-4.91587 z"
         id="path9130"
         inkscape:connector-curvature="0" />
      <path
         inkscape:connector-curvature="0"
         id="path9132"
         d="m 357.29253,916.78067 c 0,-2.71498 2.07722,-4.91601 4.63983,-4.91601 2.56246,0 4.63982,2.20103 4.63982,4.91601 0,2.71498 -2.07736,4.91587 -4.63982,4.91587 -2.56261,0 -4.63983,-2.20089 -4.63983,-4.91587 z"
         style="fill:#ffff00;fill-opacity:1;stroke:#000000;stroke-width:0;stroke-miterlimit:4;stroke-opacity:1" />
      <path
         style="fill:#ffff00;fill-opacity:1;stroke:#000000;stroke-width:0;stroke-miterlimit:4;stroke-opacity:1"
         d="m 336.79475,826.38027 c 0,-2.71498 2.07722,-4.91602 4.63983,-4.91602 2.56246,0 4.63982,2.20104 4.63982,4.91602 0,2.71497 -2.07736,4.91587 -4.63982,4.91587 -2.56261,0 -4.63983,-2.2009 -4.63983,-4.91587 z"
         id="path9134"
         inkscape:connector-curvature="0" />
      <path
         inkscape:connector-curvature="0"
         id="path9138"
         d="m 331.22357,809.66671 c 0,-2.71498 2.07722,-4.91601 4.63982,-4.91601 2.56247,0 4.63982,2.20103 4.63982,4.91601 0,2.71498 -2.07735,4.91588 -4.63982,4.91588 -2.5626,0 -4.63982,-2.2009 -4.63982,-4.91588 z"
         style="fill:#ffff00;fill-opacity:1;stroke:#000000;stroke-width:0;stroke-miterlimit:4;stroke-opacity:1" />
      <path
         style="fill:#ffff00;fill-opacity:1;stroke:#000000;stroke-width:0;stroke-miterlimit:4;stroke-opacity:1"
         d="m 317.29561,837.52263 c 0,-2.71497 2.07721,-4.91601 4.63982,-4.91601 2.56247,0 4.63982,2.20104 4.63982,4.91601 0,2.71498 -2.07735,4.91588 -4.63982,4.91588 -2.56261,0 -4.63982,-2.2009 -4.63982,-4.91588 z"
         id="path9140"
         inkscape:connector-curvature="0" />
      <path
         inkscape:connector-curvature="0"
         id="path9142"
         d="m 311.72442,820.80908 c 0,-2.71498 2.07722,-4.91601 4.63983,-4.91601 2.56246,0 4.63982,2.20103 4.63982,4.91601 0,2.71498 -2.07736,4.91587 -4.63982,4.91587 -2.56261,0 -4.63983,-2.20089 -4.63983,-4.91587 z"
         style="fill:#ffff00;fill-opacity:1;stroke:#000000;stroke-width:0;stroke-miterlimit:4;stroke-opacity:1" />
      <path
         style="fill:#ffff00;fill-opacity:1;stroke:#000000;stroke-width:0;stroke-miterlimit:4;stroke-opacity:1"
         d="m 292.22528,831.95145 c 0,-2.71498 2.07721,-4.91601 4.63982,-4.91601 2.56247,0 4.63982,2.20103 4.63982,4.91601 0,2.71498 -2.07735,4.91587 -4.63982,4.91587 -2.56261,0 -4.63982,-2.20089 -4.63982,-4.91587 z"
         id="path9144"
         inkscape:connector-curvature="0" />
      <path
         inkscape:connector-curvature="0"
         id="path9146"
         d="m 297.79646,845.87941 c 0,-2.71498 2.07722,-4.91601 4.63982,-4.91601 2.56247,0 4.63983,2.20103 4.63983,4.91601 0,2.71498 -2.07736,4.91587 -4.63983,4.91587 -2.5626,0 -4.63982,-2.20089 -4.63982,-4.91587 z"
         style="fill:#ffff00;fill-opacity:1;stroke:#000000;stroke-width:0;stroke-miterlimit:4;stroke-opacity:1" />
      <path
         style="fill:#ffff00;fill-opacity:1;stroke:#000000;stroke-width:0;stroke-miterlimit:4;stroke-opacity:1"
         d="m 267.15495,854.23619 c 0,-2.71498 2.07721,-4.91602 4.63982,-4.91602 2.56247,0 4.63982,2.20104 4.63982,4.91602 0,2.71497 -2.07735,4.91587 -4.63982,4.91587 -2.56261,0 -4.63982,-2.2009 -4.63982,-4.91587 z"
         id="path9148"
         inkscape:connector-curvature="0" />
      <path
         inkscape:connector-curvature="0"
         id="path9150"
         d="m 267.15495,837.52263 c 0,-2.71497 2.07721,-4.91601 4.63982,-4.91601 2.56247,0 4.63982,2.20104 4.63982,4.91601 0,2.71498 -2.07735,4.91588 -4.63982,4.91588 -2.56261,0 -4.63982,-2.2009 -4.63982,-4.91588 z"
         style="fill:#ffff00;fill-opacity:1;stroke:#000000;stroke-width:0;stroke-miterlimit:4;stroke-opacity:1" />
      <path
         style="fill:#ffff00;fill-opacity:1;stroke:#000000;stroke-width:0;stroke-miterlimit:4;stroke-opacity:1"
         d="m 242.08462,840.30823 c 0,-2.71498 2.07722,-4.91602 4.63982,-4.91602 2.56247,0 4.63982,2.20104 4.63982,4.91602 0,2.71497 -2.07735,4.91587 -4.63982,4.91587 -2.5626,0 -4.63982,-2.2009 -4.63982,-4.91587 z"
         id="path9152"
         inkscape:connector-curvature="0" />
      <path
         inkscape:connector-curvature="0"
         id="path9154"
         d="m 239.29903,857.02178 c 0,-2.71498 2.07721,-4.91601 4.63982,-4.91601 2.56246,0 4.63982,2.20103 4.63982,4.91601 0,2.71498 -2.07736,4.91587 -4.63982,4.91587 -2.56261,0 -4.63982,-2.20089 -4.63982,-4.91587 z"
         style="fill:#ffff00;fill-opacity:1;stroke:#000000;stroke-width:0;stroke-miterlimit:4;stroke-opacity:1" />
      <path
         style="fill:#ffff00;fill-opacity:1;stroke:#000000;stroke-width:0;stroke-miterlimit:4;stroke-opacity:1"
         d="m 217.01429,834.73704 c 0,-2.71498 2.07722,-4.91601 4.63982,-4.91601 2.56247,0 4.63982,2.20103 4.63982,4.91601 0,2.71498 -2.07735,4.91588 -4.63982,4.91588 -2.5626,0 -4.63982,-2.2009 -4.63982,-4.91588 z"
         id="path9156"
         inkscape:connector-curvature="0" />
      <path
         inkscape:connector-curvature="0"
         id="path9158"
         d="m 211.4431,851.45059 c 0,-2.71497 2.07722,-4.91601 4.63983,-4.91601 2.56246,0 4.63982,2.20104 4.63982,4.91601 0,2.71498 -2.07736,4.91588 -4.63982,4.91588 -2.56261,0 -4.63983,-2.2009 -4.63983,-4.91588 z"
         style="fill:#ffff00;fill-opacity:1;stroke:#000000;stroke-width:0;stroke-miterlimit:4;stroke-opacity:1" />
      <path
         style="fill:#ffff00;fill-opacity:1;stroke:#000000;stroke-width:0;stroke-miterlimit:4;stroke-opacity:1"
         d="m 186.37278,840.30823 c 0,-2.71498 2.07721,-4.91602 4.63982,-4.91602 2.56246,0 4.63982,2.20104 4.63982,4.91602 0,2.71497 -2.07736,4.91587 -4.63982,4.91587 -2.56261,0 -4.63982,-2.2009 -4.63982,-4.91587 z"
         id="path9160"
         inkscape:connector-curvature="0" />
      <path
         inkscape:connector-curvature="0"
         id="path9162"
         d="m 197.51514,826.38027 c 0,-2.71498 2.07722,-4.91602 4.63983,-4.91602 2.56246,0 4.63982,2.20104 4.63982,4.91602 0,2.71497 -2.07736,4.91587 -4.63982,4.91587 -2.56261,0 -4.63983,-2.2009 -4.63983,-4.91587 z"
         style="fill:#ffff00;fill-opacity:1;stroke:#000000;stroke-width:0;stroke-miterlimit:4;stroke-opacity:1" />
      <path
         style="fill:#ffff00;fill-opacity:1;stroke:#000000;stroke-width:0;stroke-miterlimit:4;stroke-opacity:1"
         d="m 161.30245,823.59467 c 0,-2.71497 2.07721,-4.91601 4.63982,-4.91601 2.56246,0 4.63982,2.20104 4.63982,4.91601 0,2.71498 -2.07736,4.91588 -4.63982,4.91588 -2.56261,0 -4.63982,-2.2009 -4.63982,-4.91588 z"
         id="path9164"
         inkscape:connector-curvature="0" />
      <path
         inkscape:connector-curvature="0"
         id="path9166"
         d="m 172.44481,812.4523 c 0,-2.71497 2.07722,-4.91601 4.63983,-4.91601 2.56246,0 4.63982,2.20104 4.63982,4.91601 0,2.71498 -2.07736,4.91588 -4.63982,4.91588 -2.56261,0 -4.63983,-2.2009 -4.63983,-4.91588 z"
         style="fill:#ffff00;fill-opacity:1;stroke:#000000;stroke-width:0;stroke-miterlimit:4;stroke-opacity:1" />
      <path
         style="fill:#ffff00;fill-opacity:1;stroke:#000000;stroke-width:0;stroke-miterlimit:4;stroke-opacity:1"
         d="m 158.51685,795.73875 c 0,-2.71498 2.07722,-4.91601 4.63982,-4.91601 2.56247,0 4.63983,2.20103 4.63983,4.91601 0,2.71498 -2.07736,4.91587 -4.63983,4.91587 -2.5626,0 -4.63982,-2.20089 -4.63982,-4.91587 z"
         id="path9168"
         inkscape:connector-curvature="0" />
      <path
         inkscape:connector-curvature="0"
         id="path9170"
         d="m 141.8033,804.09553 c 0,-2.71498 2.07722,-4.91602 4.63982,-4.91602 2.56247,0 4.63982,2.20104 4.63982,4.91602 0,2.71497 -2.07735,4.91587 -4.63982,4.91587 -2.5626,0 -4.63982,-2.2009 -4.63982,-4.91587 z"
         style="fill:#ffff00;fill-opacity:1;stroke:#000000;stroke-width:0;stroke-miterlimit:4;stroke-opacity:1" />
      <path
         style="fill:#ffff00;fill-opacity:1;stroke:#000000;stroke-width:0;stroke-miterlimit:4;stroke-opacity:1"
         d="m 127.87534,773.45401 c 0,-2.71497 2.07721,-4.91601 4.63982,-4.91601 2.56247,0 4.63982,2.20104 4.63982,4.91601 0,2.71498 -2.07735,4.91588 -4.63982,4.91588 -2.56261,0 -4.63982,-2.2009 -4.63982,-4.91588 z"
         id="path9172"
         inkscape:connector-curvature="0" />
      <path
         inkscape:connector-curvature="0"
         id="path9174"
         d="m 147.37448,767.88283 c 0,-2.71498 2.07722,-4.91601 4.63983,-4.91601 2.56246,0 4.63982,2.20103 4.63982,4.91601 0,2.71498 -2.07736,4.91587 -4.63982,4.91587 -2.56261,0 -4.63983,-2.20089 -4.63983,-4.91587 z"
         style="fill:#ffff00;fill-opacity:1;stroke:#000000;stroke-width:0;stroke-miterlimit:4;stroke-opacity:1" />
      <path
         style="fill:#ffff00;fill-opacity:1;stroke:#000000;stroke-width:0;stroke-miterlimit:4;stroke-opacity:1"
         d="m 141.8033,745.59809 c 0,-2.71498 2.07722,-4.91601 4.63982,-4.91601 2.56247,0 4.63982,2.20103 4.63982,4.91601 0,2.71498 -2.07735,4.91588 -4.63982,4.91588 -2.5626,0 -4.63982,-2.2009 -4.63982,-4.91588 z"
         id="path9176"
         inkscape:connector-curvature="0" />
      <path
         inkscape:connector-curvature="0"
         id="path9178"
         d="m 125.08975,745.59809 c 0,-2.71498 2.07721,-4.91601 4.63982,-4.91601 2.56246,0 4.63982,2.20103 4.63982,4.91601 0,2.71498 -2.07736,4.91588 -4.63982,4.91588 -2.56261,0 -4.63982,-2.2009 -4.63982,-4.91588 z"
         style="fill:#ffff00;fill-opacity:1;stroke:#000000;stroke-width:0;stroke-miterlimit:4;stroke-opacity:1" />
      <path
         style="fill:#ffff00;fill-opacity:1;stroke:#000000;stroke-width:0;stroke-miterlimit:4;stroke-opacity:1"
         d="m 125.08975,723.31335 c 0,-2.71497 2.07721,-4.91601 4.63982,-4.91601 2.56246,0 4.63982,2.20104 4.63982,4.91601 0,2.71498 -2.07736,4.91588 -4.63982,4.91588 -2.56261,0 -4.63982,-2.2009 -4.63982,-4.91588 z"
         id="path9180"
         inkscape:connector-curvature="0" />
      <path
         inkscape:connector-curvature="0"
         id="path9182"
         d="m 141.8033,723.31335 c 0,-2.71497 2.07722,-4.91601 4.63982,-4.91601 2.56247,0 4.63982,2.20104 4.63982,4.91601 0,2.71498 -2.07735,4.91588 -4.63982,4.91588 -2.5626,0 -4.63982,-2.2009 -4.63982,-4.91588 z"
         style="fill:#ffff00;fill-opacity:1;stroke:#000000;stroke-width:0;stroke-miterlimit:4;stroke-opacity:1" />
      <path
         style="fill:#ffff00;fill-opacity:1;stroke:#000000;stroke-width:0;stroke-miterlimit:4;stroke-opacity:1"
         d="m 141.8033,698.24302 c 0,-2.71497 2.07722,-4.91601 4.63982,-4.91601 2.56247,0 4.63982,2.20104 4.63982,4.91601 0,2.71498 -2.07735,4.91588 -4.63982,4.91588 -2.5626,0 -4.63982,-2.2009 -4.63982,-4.91588 z"
         id="path9184"
         inkscape:connector-curvature="0" />
      <path
         inkscape:connector-curvature="0"
         id="path9186"
         d="m 125.08975,698.24302 c 0,-2.71497 2.07721,-4.91601 4.63982,-4.91601 2.56246,0 4.63982,2.20104 4.63982,4.91601 0,2.71498 -2.07736,4.91588 -4.63982,4.91588 -2.56261,0 -4.63982,-2.2009 -4.63982,-4.91588 z"
         style="fill:#ffff00;fill-opacity:1;stroke:#000000;stroke-width:0;stroke-miterlimit:4;stroke-opacity:1" />
      <path
         style="fill:#ffff00;fill-opacity:1;stroke:#000000;stroke-width:0;stroke-miterlimit:4;stroke-opacity:1"
         d="m 130.66093,664.81592 c 0,-2.71498 2.07722,-4.91602 4.63982,-4.91602 2.56247,0 4.63982,2.20104 4.63982,4.91602 0,2.71497 -2.07735,4.91587 -4.63982,4.91587 -2.5626,0 -4.63982,-2.2009 -4.63982,-4.91587 z"
         id="path9188"
         inkscape:connector-curvature="0" />
      <path
         inkscape:connector-curvature="0"
         id="path9190"
         d="m 147.37448,670.3871 c 0,-2.71498 2.07722,-4.91601 4.63983,-4.91601 2.56246,0 4.63982,2.20103 4.63982,4.91601 0,2.71498 -2.07736,4.91588 -4.63982,4.91588 -2.56261,0 -4.63983,-2.2009 -4.63983,-4.91588 z"
         style="fill:#ffff00;fill-opacity:1;stroke:#000000;stroke-width:0;stroke-miterlimit:4;stroke-opacity:1" />
      <path
         style="fill:#ffff00;fill-opacity:1;stroke:#000000;stroke-width:0;stroke-miterlimit:4;stroke-opacity:1"
         d="m 144.58889,639.74559 c 0,-2.71498 2.07722,-4.91602 4.63982,-4.91602 2.56247,0 4.63983,2.20104 4.63983,4.91602 0,2.71498 -2.07736,4.91587 -4.63983,4.91587 -2.5626,0 -4.63982,-2.20089 -4.63982,-4.91587 z"
         id="path9192"
         inkscape:connector-curvature="0" />
      <path
         inkscape:connector-curvature="0"
         id="path9194"
         d="m 158.51685,648.10236 c 0,-2.71497 2.07722,-4.91601 4.63982,-4.91601 2.56247,0 4.63983,2.20104 4.63983,4.91601 0,2.71498 -2.07736,4.91588 -4.63983,4.91588 -2.5626,0 -4.63982,-2.2009 -4.63982,-4.91588 z"
         style="fill:#ffff00;fill-opacity:1;stroke:#000000;stroke-width:0;stroke-miterlimit:4;stroke-opacity:1" />
      <path
         style="fill:#ffff00;fill-opacity:1;stroke:#000000;stroke-width:0;stroke-miterlimit:4;stroke-opacity:1"
         d="m 164.08804,614.67526 c 0,-2.71498 2.07721,-4.91602 4.63982,-4.91602 2.56247,0 4.63982,2.20104 4.63982,4.91602 0,2.71498 -2.07735,4.91587 -4.63982,4.91587 -2.56261,0 -4.63982,-2.20089 -4.63982,-4.91587 z"
         id="path9196"
         inkscape:connector-curvature="0" />
      <path
         inkscape:connector-curvature="0"
         id="path9198"
         d="m 175.23041,625.81763 c 0,-2.71498 2.07721,-4.91602 4.63982,-4.91602 2.56246,0 4.63982,2.20104 4.63982,4.91602 0,2.71497 -2.07736,4.91587 -4.63982,4.91587 -2.56261,0 -4.63982,-2.2009 -4.63982,-4.91587 z"
         style="fill:#ffff00;fill-opacity:1;stroke:#000000;stroke-width:0;stroke-miterlimit:4;stroke-opacity:1" />
      <path
         style="fill:#ffff00;fill-opacity:1;stroke:#000000;stroke-width:0;stroke-miterlimit:4;stroke-opacity:1"
         d="m 194.72955,609.10407 c 0,-2.71497 2.07722,-4.91601 4.63982,-4.91601 2.56247,0 4.63982,2.20104 4.63982,4.91601 0,2.71498 -2.07735,4.91588 -4.63982,4.91588 -2.5626,0 -4.63982,-2.2009 -4.63982,-4.91588 z"
         id="path9200"
         inkscape:connector-curvature="0" />
      <path
         inkscape:connector-curvature="0"
         id="path9202"
         d="m 186.37278,597.9617 c 0,-2.71497 2.07721,-4.91601 4.63982,-4.91601 2.56246,0 4.63982,2.20104 4.63982,4.91601 0,2.71498 -2.07736,4.91588 -4.63982,4.91588 -2.56261,0 -4.63982,-2.2009 -4.63982,-4.91588 z"
         style="fill:#ffff00;fill-opacity:1;stroke:#000000;stroke-width:0;stroke-miterlimit:4;stroke-opacity:1" />
      <path
         style="fill:#ffff00;fill-opacity:1;stroke:#000000;stroke-width:0;stroke-miterlimit:4;stroke-opacity:1"
         d="m 214.2287,603.53289 c 0,-2.71498 2.07721,-4.91601 4.63982,-4.91601 2.56246,0 4.63982,2.20103 4.63982,4.91601 0,2.71498 -2.07736,4.91587 -4.63982,4.91587 -2.56261,0 -4.63982,-2.20089 -4.63982,-4.91587 z"
         id="path9204"
         inkscape:connector-curvature="0" />
      <path
         inkscape:connector-curvature="0"
         id="path9206"
         d="m 214.2287,586.81934 c 0,-2.71498 2.07721,-4.91602 4.63982,-4.91602 2.56246,0 4.63982,2.20104 4.63982,4.91602 0,2.71497 -2.07736,4.91587 -4.63982,4.91587 -2.56261,0 -4.63982,-2.2009 -4.63982,-4.91587 z"
         style="fill:#ffff00;fill-opacity:1;stroke:#000000;stroke-width:0;stroke-miterlimit:4;stroke-opacity:1" />
      <path
         style="fill:#ffff00;fill-opacity:1;stroke:#000000;stroke-width:0;stroke-miterlimit:4;stroke-opacity:1"
         d="m 239.29903,597.9617 c 0,-2.71497 2.07721,-4.91601 4.63982,-4.91601 2.56246,0 4.63982,2.20104 4.63982,4.91601 0,2.71498 -2.07736,4.91588 -4.63982,4.91588 -2.56261,0 -4.63982,-2.2009 -4.63982,-4.91588 z"
         id="path9208"
         inkscape:connector-curvature="0" />
      <path
         inkscape:connector-curvature="0"
         id="path9210"
         d="m 239.29903,581.24815 c 0,-2.71498 2.07721,-4.91601 4.63982,-4.91601 2.56246,0 4.63982,2.20103 4.63982,4.91601 0,2.71498 -2.07736,4.91588 -4.63982,4.91588 -2.56261,0 -4.63982,-2.2009 -4.63982,-4.91588 z"
         style="fill:#ffff00;fill-opacity:1;stroke:#000000;stroke-width:0;stroke-miterlimit:4;stroke-opacity:1" />
      <path
         style="fill:#ffff00;fill-opacity:1;stroke:#000000;stroke-width:0;stroke-miterlimit:4;stroke-opacity:1"
         d="m 261.58376,597.9617 c 0,-2.71497 2.07722,-4.91601 4.63983,-4.91601 2.56246,0 4.63982,2.20104 4.63982,4.91601 0,2.71498 -2.07736,4.91588 -4.63982,4.91588 -2.56261,0 -4.63983,-2.2009 -4.63983,-4.91588 z"
         id="path9212"
         inkscape:connector-curvature="0" />
      <path
         inkscape:connector-curvature="0"
         id="path9214"
         d="m 261.58376,581.24815 c 0,-2.71498 2.07722,-4.91601 4.63983,-4.91601 2.56246,0 4.63982,2.20103 4.63982,4.91601 0,2.71498 -2.07736,4.91588 -4.63982,4.91588 -2.56261,0 -4.63983,-2.2009 -4.63983,-4.91588 z"
         style="fill:#ffff00;fill-opacity:1;stroke:#000000;stroke-width:0;stroke-miterlimit:4;stroke-opacity:1" />
      <path
         style="fill:#ffff00;fill-opacity:1;stroke:#000000;stroke-width:0;stroke-miterlimit:4;stroke-opacity:1"
         d="m 292.22528,589.60493 c 0,-2.71498 2.07721,-4.91602 4.63982,-4.91602 2.56247,0 4.63982,2.20104 4.63982,4.91602 0,2.71498 -2.07735,4.91587 -4.63982,4.91587 -2.56261,0 -4.63982,-2.20089 -4.63982,-4.91587 z"
         id="path9216"
         inkscape:connector-curvature="0" />
      <path
         inkscape:connector-curvature="0"
         id="path9218"
         d="m 286.65409,603.53289 c 0,-2.71498 2.07722,-4.91601 4.63983,-4.91601 2.56246,0 4.63982,2.20103 4.63982,4.91601 0,2.71498 -2.07736,4.91587 -4.63982,4.91587 -2.56261,0 -4.63983,-2.20089 -4.63983,-4.91587 z"
         style="fill:#ffff00;fill-opacity:1;stroke:#000000;stroke-width:0;stroke-miterlimit:4;stroke-opacity:1" />
      <path
         style="fill:#ffff00;fill-opacity:1;stroke:#000000;stroke-width:0;stroke-miterlimit:4;stroke-opacity:1"
         d="m 308.93883,614.67526 c 0,-2.71498 2.07722,-4.91602 4.63982,-4.91602 2.56247,0 4.63983,2.20104 4.63983,4.91602 0,2.71498 -2.07736,4.91587 -4.63983,4.91587 -2.5626,0 -4.63982,-2.20089 -4.63982,-4.91587 z"
         id="path9220"
         inkscape:connector-curvature="0" />
      <path
         inkscape:connector-curvature="0"
         id="path9222"
         d="m 320.0812,600.7473 c 0,-2.71498 2.07722,-4.91602 4.63982,-4.91602 2.56247,0 4.63982,2.20104 4.63982,4.91602 0,2.71497 -2.07735,4.91587 -4.63982,4.91587 -2.5626,0 -4.63982,-2.2009 -4.63982,-4.91587 z"
         style="fill:#ffff00;fill-opacity:1;stroke:#000000;stroke-width:0;stroke-miterlimit:4;stroke-opacity:1" />
      <path
         style="fill:#ffff00;fill-opacity:1;stroke:#000000;stroke-width:0;stroke-miterlimit:4;stroke-opacity:1"
         d="m 328.43798,631.38881 c 0,-2.71498 2.07721,-4.91601 4.63982,-4.91601 2.56247,0 4.63982,2.20103 4.63982,4.91601 0,2.71498 -2.07735,4.91587 -4.63982,4.91587 -2.56261,0 -4.63982,-2.20089 -4.63982,-4.91587 z"
         id="path9224"
         inkscape:connector-curvature="0" />
      <path
         inkscape:connector-curvature="0"
         id="path9226"
         d="m 342.36594,620.24644 c 0,-2.71498 2.07721,-4.91601 4.63982,-4.91601 2.56247,0 4.63982,2.20103 4.63982,4.91601 0,2.71498 -2.07735,4.91588 -4.63982,4.91588 -2.56261,0 -4.63982,-2.2009 -4.63982,-4.91588 z"
         style="fill:#ffff00;fill-opacity:1;stroke:#000000;stroke-width:0;stroke-miterlimit:4;stroke-opacity:1" />
      <path
         style="fill:#ffff00;fill-opacity:1;stroke:#000000;stroke-width:0;stroke-miterlimit:4;stroke-opacity:1"
         d="m 342.36594,650.88796 c 0,-2.71498 2.07721,-4.91602 4.63982,-4.91602 2.56247,0 4.63982,2.20104 4.63982,4.91602 0,2.71497 -2.07735,4.91587 -4.63982,4.91587 -2.56261,0 -4.63982,-2.2009 -4.63982,-4.91587 z"
         id="path9228"
         inkscape:connector-curvature="0" />
      <path
         inkscape:connector-curvature="0"
         id="path9230"
         d="m 356.2939,645.31677 c 0,-2.71498 2.07722,-4.91601 4.63982,-4.91601 2.56247,0 4.63982,2.20103 4.63982,4.91601 0,2.71498 -2.07735,4.91588 -4.63982,4.91588 -2.5626,0 -4.63982,-2.2009 -4.63982,-4.91588 z"
         style="fill:#ffff00;fill-opacity:1;stroke:#000000;stroke-width:0;stroke-miterlimit:4;stroke-opacity:1" />
    </g>
  </g>
</svg>
