<?xml version="1.0" encoding="UTF-8" standalone="no"?>
<!-- Created with Inkscape (http://www.inkscape.org/) -->

<svg
   xmlns:dc="http://purl.org/dc/elements/1.1/"
   xmlns:cc="http://creativecommons.org/ns#"
   xmlns:rdf="http://www.w3.org/1999/02/22-rdf-syntax-ns#"
   xmlns:svg="http://www.w3.org/2000/svg"
   xmlns="http://www.w3.org/2000/svg"
   xmlns:sodipodi="http://sodipodi.sourceforge.net/DTD/sodipodi-0.dtd"
   xmlns:inkscape="http://www.inkscape.org/namespaces/inkscape"
   width="485.01547"
   height="482.17749"
   id="svg4927"
   version="1.1"
   inkscape:version="0.91 r13725"
   sodipodi:docname="geschwindigkeitsvoranzeiger-40-light.svg">
  <defs
     id="defs4929" />
  <sodipodi:namedview
     id="base"
     pagecolor="#ffffff"
     bordercolor="#666666"
     borderopacity="1.0"
     inkscape:pageopacity="0.0"
     inkscape:pageshadow="2"
     inkscape:zoom="0.19"
     inkscape:cx="-1113.9702"
     inkscape:cy="268.10031"
     inkscape:document-units="px"
     inkscape:current-layer="layer1"
     showgrid="false"
     inkscape:window-width="1175"
     inkscape:window-height="811"
     inkscape:window-x="548"
     inkscape:window-y="183"
     inkscape:window-maximized="0"
     fit-margin-top="0"
     fit-margin-left="0"
     fit-margin-right="0"
     fit-margin-bottom="0" />
  <metadata
     id="metadata4932">
    <rdf:RDF>
      <cc:Work
         rdf:about="">
        <dc:format>image/svg+xml</dc:format>
        <dc:type
           rdf:resource="http://purl.org/dc/dcmitype/StillImage" />
        <dc:title></dc:title>
      </cc:Work>
    </rdf:RDF>
  </metadata>
  <g
     inkscape:label="Ebene 1"
     inkscape:groupmode="layer"
     id="layer1"
     transform="translate(-6.6481018,-562.86846)">
    <g
       transform="matrix(1.4181214,0,0,1.4181214,-1717.2375,-346.50073)"
       id="g6841">
      <path
         inkscape:connector-curvature="0"
         id="path3847"
         d="m 1216.116,641.7509 341.0071,0 0,339.00799 -339.5683,0 z"
         style="fill:#000000;fill-opacity:1;stroke:#000000;stroke-width:1.00343537px;stroke-linecap:butt;stroke-linejoin:miter;stroke-opacity:1" />
      <path
         style="fill:#fdf900;fill-opacity:1;stroke:#000000;stroke-width:0;stroke-miterlimit:4;stroke-opacity:1"
         d="m 1350.3673,864.85421 c 0,1.94929 -1.4914,3.52953 -3.3313,3.52953 -1.8398,0 -3.3313,-1.58024 -3.3313,-3.52953 0,-1.94932 1.4915,-3.52955 3.3313,-3.52955 1.8399,0 3.3313,1.58023 3.3313,3.52955 z"
         id="path5865"
         inkscape:connector-curvature="0" />
      <path
         inkscape:connector-curvature="0"
         id="path5867"
         d="m 1333.3563,878.13299 c 0,1.94929 -1.4914,3.52953 -3.3313,3.52953 -1.8398,0 -3.3313,-1.58024 -3.3313,-3.52953 0,-1.94932 1.4915,-3.52955 3.3313,-3.52955 1.8399,0 3.3313,1.58023 3.3313,3.52955 z"
         style="fill:#fdf900;fill-opacity:1;stroke:#000000;stroke-width:0;stroke-miterlimit:4;stroke-opacity:1" />
      <path
         style="fill:#fdf900;fill-opacity:1;stroke:#000000;stroke-width:0;stroke-miterlimit:4;stroke-opacity:1"
         d="m 1333.8098,863.88518 c 0,1.9493 -1.4914,3.52954 -3.3313,3.52954 -1.8398,0 -3.3313,-1.58024 -3.3313,-3.52954 0,-1.94932 1.4915,-3.52955 3.3313,-3.52955 1.8399,0 3.3313,1.58023 3.3313,3.52955 z"
         id="path5869"
         inkscape:connector-curvature="0" />
      <path
         inkscape:connector-curvature="0"
         id="path5871"
         d="m 1315.2522,877.16396 c 0,1.9493 -1.4914,3.52954 -3.3313,3.52954 -1.8398,0 -3.3313,-1.58024 -3.3313,-3.52954 0,-1.94932 1.4915,-3.52955 3.3313,-3.52955 1.8399,0 3.3313,1.58023 3.3313,3.52955 z"
         style="fill:#fdf900;fill-opacity:1;stroke:#000000;stroke-width:0;stroke-miterlimit:4;stroke-opacity:1" />
      <path
         style="fill:#fdf900;fill-opacity:1;stroke:#000000;stroke-width:0;stroke-miterlimit:4;stroke-opacity:1"
         d="m 1315.3142,863.3697 c 0,1.94929 -1.4914,3.52953 -3.3313,3.52953 -1.8398,0 -3.3313,-1.58024 -3.3313,-3.52953 0,-1.94932 1.4915,-3.52955 3.3313,-3.52955 1.8399,0 3.3313,1.58023 3.3313,3.52955 z"
         id="path5873"
         inkscape:connector-curvature="0" />
      <path
         inkscape:connector-curvature="0"
         id="path5875"
         d="m 1297.2721,875.67945 c 0,1.9493 -1.4914,3.52954 -3.3313,3.52954 -1.8398,0 -3.3313,-1.58024 -3.3313,-3.52954 0,-1.94932 1.4915,-3.52955 3.3313,-3.52955 1.8399,0 3.3313,1.58023 3.3313,3.52955 z"
         style="fill:#fdf900;fill-opacity:1;stroke:#000000;stroke-width:0;stroke-miterlimit:4;stroke-opacity:1" />
      <path
         style="fill:#fdf900;fill-opacity:1;stroke:#000000;stroke-width:0;stroke-miterlimit:4;stroke-opacity:1"
         d="m 1303.458,857.63738 c 0,1.94929 -1.4914,3.52953 -3.3313,3.52953 -1.8398,0 -3.3313,-1.58024 -3.3313,-3.52953 0,-1.94932 1.4915,-3.52955 3.3313,-3.52955 1.8399,0 3.3313,1.58023 3.3313,3.52955 z"
         id="path5877"
         inkscape:connector-curvature="0" />
      <path
         inkscape:connector-curvature="0"
         id="path5879"
         d="m 1321.5,846.81213 c 0,1.9493 -1.4914,3.52954 -3.3313,3.52954 -1.8398,0 -3.3313,-1.58024 -3.3313,-3.52954 0,-1.94932 1.4915,-3.52955 3.3313,-3.52955 1.8399,0 3.3313,1.58023 3.3313,3.52955 z"
         style="fill:#fdf900;fill-opacity:1;stroke:#000000;stroke-width:0;stroke-miterlimit:4;stroke-opacity:1" />
      <path
         style="fill:#fdf900;fill-opacity:1;stroke:#000000;stroke-width:0;stroke-miterlimit:4;stroke-opacity:1"
         d="m 1310.1593,842.17274 c 0,1.9493 -1.4914,3.52954 -3.3313,3.52954 -1.8398,0 -3.3313,-1.58024 -3.3313,-3.52954 0,-1.94932 1.4915,-3.52955 3.3313,-3.52955 1.8399,0 3.3313,1.58023 3.3313,3.52955 z"
         id="path5881"
         inkscape:connector-curvature="0" />
      <path
         inkscape:connector-curvature="0"
         id="path5883"
         d="m 1328.2014,826.70811 c 0,1.94929 -1.4914,3.52953 -3.3313,3.52953 -1.8398,0 -3.3313,-1.58024 -3.3313,-3.52953 0,-1.94932 1.4915,-3.52955 3.3313,-3.52955 1.8399,0 3.3313,1.58023 3.3313,3.52955 z"
         style="fill:#fdf900;fill-opacity:1;stroke:#000000;stroke-width:0;stroke-miterlimit:4;stroke-opacity:1" />
      <path
         style="fill:#fdf900;fill-opacity:1;stroke:#000000;stroke-width:0;stroke-miterlimit:4;stroke-opacity:1"
         d="m 1316.8606,824.13067 c 0,1.94929 -1.4914,3.52953 -3.3313,3.52953 -1.8398,0 -3.3313,-1.58024 -3.3313,-3.52953 0,-1.94932 1.4915,-3.52955 3.3313,-3.52955 1.8399,0 3.3313,1.58023 3.3313,3.52955 z"
         id="path5885"
         inkscape:connector-curvature="0" />
      <path
         inkscape:connector-curvature="0"
         id="path5887"
         d="m 1331.8098,814.85189 c 0,1.94929 -1.4914,3.52953 -3.3313,3.52953 -1.8398,0 -3.3313,-1.58024 -3.3313,-3.52953 0,-1.94932 1.4915,-3.52955 3.3313,-3.52955 1.8399,0 3.3313,1.58023 3.3313,3.52955 z"
         style="fill:#fdf900;fill-opacity:1;stroke:#000000;stroke-width:0;stroke-miterlimit:4;stroke-opacity:1" />
      <path
         style="fill:#fdf900;fill-opacity:1;stroke:#000000;stroke-width:0;stroke-miterlimit:4;stroke-opacity:1"
         d="m 1320.9845,811.24347 c 0,1.9493 -1.4914,3.52954 -3.3313,3.52954 -1.8398,0 -3.3313,-1.58024 -3.3313,-3.52954 0,-1.94932 1.4915,-3.52955 3.3313,-3.52955 1.8399,0 3.3313,1.58023 3.3313,3.52955 z"
         id="path5889"
         inkscape:connector-curvature="0" />
      <path
         inkscape:connector-curvature="0"
         id="path5891"
         d="m 1338.5111,795.77884 c 0,1.94929 -1.4914,3.52953 -3.3313,3.52953 -1.8398,0 -3.3313,-1.58024 -3.3313,-3.52953 0,-1.94932 1.4915,-3.52955 3.3313,-3.52955 1.8399,0 3.3313,1.58023 3.3313,3.52955 z"
         style="fill:#fdf900;fill-opacity:1;stroke:#000000;stroke-width:0;stroke-miterlimit:4;stroke-opacity:1" />
      <path
         style="fill:#fdf900;fill-opacity:1;stroke:#000000;stroke-width:0;stroke-miterlimit:4;stroke-opacity:1"
         d="m 1327.6859,790.62396 c 0,1.94929 -1.4914,3.52953 -3.3313,3.52953 -1.8398,0 -3.3313,-1.58024 -3.3313,-3.52953 0,-1.94932 1.4915,-3.52955 3.3313,-3.52955 1.8399,0 3.3313,1.58023 3.3313,3.52955 z"
         id="path5893"
         inkscape:connector-curvature="0" />
      <path
         inkscape:connector-curvature="0"
         id="path5895"
         d="m 1345.728,778.76774 c 0,1.94929 -1.4914,3.52953 -3.3313,3.52953 -1.8398,0 -3.3313,-1.58024 -3.3313,-3.52953 0,-1.94932 1.4915,-3.52955 3.3313,-3.52955 1.8399,0 3.3313,1.58023 3.3313,3.52955 z"
         style="fill:#fdf900;fill-opacity:1;stroke:#000000;stroke-width:0;stroke-miterlimit:4;stroke-opacity:1" />
      <path
         style="fill:#fdf900;fill-opacity:1;stroke:#000000;stroke-width:0;stroke-miterlimit:4;stroke-opacity:1"
         d="m 1335.4182,775.67481 c 0,1.9493 -1.4914,3.52954 -3.3313,3.52954 -1.8398,0 -3.3313,-1.58024 -3.3313,-3.52954 0,-1.94932 1.4915,-3.52955 3.3313,-3.52955 1.8399,0 3.3313,1.58023 3.3313,3.52955 z"
         id="path5897"
         inkscape:connector-curvature="0" />
      <path
         inkscape:connector-curvature="0"
         id="path5899"
         d="m 1351.9139,763.3031 c 0,1.9493 -1.4914,3.52954 -3.3313,3.52954 -1.8398,0 -3.3313,-1.58024 -3.3313,-3.52954 0,-1.94932 1.4915,-3.52955 3.3313,-3.52955 1.8399,0 3.3313,1.58023 3.3313,3.52955 z"
         style="fill:#fdf900;fill-opacity:1;stroke:#000000;stroke-width:0;stroke-miterlimit:4;stroke-opacity:1" />
      <path
         style="fill:#fdf900;fill-opacity:1;stroke:#000000;stroke-width:0;stroke-miterlimit:4;stroke-opacity:1"
         d="m 1343.1505,759.1792 c 0,1.94929 -1.4914,3.52953 -3.3313,3.52953 -1.8398,0 -3.3313,-1.58024 -3.3313,-3.52953 0,-1.94932 1.4915,-3.52955 3.3313,-3.52955 1.8399,0 3.3313,1.58023 3.3313,3.52955 z"
         id="path5901"
         inkscape:connector-curvature="0" />
      <path
         inkscape:connector-curvature="0"
         id="path5903"
         d="m 1359.1306,746.292 c 0,1.9493 -1.4914,3.52954 -3.3313,3.52954 -1.8398,0 -3.3313,-1.58024 -3.3313,-3.52954 0,-1.94932 1.4915,-3.52955 3.3313,-3.52955 1.8399,0 3.3313,1.58023 3.3313,3.52955 z"
         style="fill:#fdf900;fill-opacity:1;stroke:#000000;stroke-width:0;stroke-miterlimit:4;stroke-opacity:1" />
      <path
         style="fill:#fdf900;fill-opacity:1;stroke:#000000;stroke-width:0;stroke-miterlimit:4;stroke-opacity:1"
         d="m 1348.3054,742.1681 c 0,1.9493 -1.4914,3.52954 -3.3313,3.52954 -1.8398,0 -3.3313,-1.58024 -3.3313,-3.52954 0,-1.94932 1.4915,-3.52955 3.3313,-3.52955 1.8399,0 3.3313,1.58023 3.3313,3.52955 z"
         id="path5907"
         inkscape:connector-curvature="0" />
      <path
         inkscape:connector-curvature="0"
         id="path5909"
         d="m 1365.832,729.28091 c 0,1.94929 -1.4914,3.52953 -3.3313,3.52953 -1.8398,0 -3.3313,-1.58024 -3.3313,-3.52953 0,-1.94932 1.4915,-3.52955 3.3313,-3.52955 1.8399,0 3.3313,1.58023 3.3313,3.52955 z"
         style="fill:#fdf900;fill-opacity:1;stroke:#000000;stroke-width:0;stroke-miterlimit:4;stroke-opacity:1" />
      <path
         style="fill:#fdf900;fill-opacity:1;stroke:#000000;stroke-width:0;stroke-miterlimit:4;stroke-opacity:1"
         d="m 1355.0067,725.157 c 0,1.9493 -1.4914,3.52954 -3.3313,3.52954 -1.8398,0 -3.3313,-1.58024 -3.3313,-3.52954 0,-1.94932 1.4915,-3.52955 3.3313,-3.52955 1.8399,0 3.3313,1.58023 3.3313,3.52955 z"
         id="path5911"
         inkscape:connector-curvature="0" />
      <path
         inkscape:connector-curvature="0"
         id="path5913"
         d="m 1373.5643,712.78529 c 0,1.9493 -1.4914,3.52954 -3.3313,3.52954 -1.8398,0 -3.3313,-1.58024 -3.3313,-3.52954 0,-1.94932 1.4915,-3.52955 3.3313,-3.52955 1.8399,0 3.3313,1.58023 3.3313,3.52955 z"
         style="fill:#fdf900;fill-opacity:1;stroke:#000000;stroke-width:0;stroke-miterlimit:4;stroke-opacity:1" />
      <path
         style="fill:#fdf900;fill-opacity:1;stroke:#000000;stroke-width:0;stroke-miterlimit:4;stroke-opacity:1"
         d="m 1362.2236,707.56846 c 0,1.9493 -1.4914,3.52954 -3.3313,3.52954 -1.8398,0 -3.3313,-1.58024 -3.3313,-3.52954 0,-1.94932 1.4915,-3.52955 3.3313,-3.52955 1.8399,0 3.3313,1.58023 3.3313,3.52955 z"
         id="path5915"
         inkscape:connector-curvature="0" />
      <path
         inkscape:connector-curvature="0"
         id="path5917"
         d="m 1379.7502,693.19676 c 0,1.94929 -1.4914,3.52953 -3.3313,3.52953 -1.8398,0 -3.3313,-1.58024 -3.3313,-3.52953 0,-1.94932 1.4915,-3.52955 3.3313,-3.52955 1.8399,0 3.3313,1.58023 3.3313,3.52955 z"
         style="fill:#fdf900;fill-opacity:1;stroke:#000000;stroke-width:0;stroke-miterlimit:4;stroke-opacity:1" />
      <path
         style="fill:#fdf900;fill-opacity:1;stroke:#000000;stroke-width:0;stroke-miterlimit:4;stroke-opacity:1"
         d="m 1368.9249,689.58834 c 0,1.9493 -1.4914,3.52954 -3.3313,3.52954 -1.8398,0 -3.3313,-1.58024 -3.3313,-3.52954 0,-1.94932 1.4915,-3.52955 3.3313,-3.52955 1.8399,0 3.3313,1.58023 3.3313,3.52955 z"
         id="path5919"
         inkscape:connector-curvature="0" />
      <path
         inkscape:connector-curvature="0"
         id="path5921"
         d="m 1385.0128,678.51545 c 0,1.9493 -1.4914,3.52954 -3.3313,3.52954 -1.8398,0 -3.3313,-1.58024 -3.3313,-3.52954 0,-1.94932 1.4915,-3.52955 3.3313,-3.52955 1.8399,0 3.3313,1.58023 3.3313,3.52955 z"
         style="fill:#fdf900;fill-opacity:1;stroke:#000000;stroke-width:0;stroke-miterlimit:4;stroke-opacity:1" />
      <path
         style="fill:#fdf900;fill-opacity:1;stroke:#000000;stroke-width:0;stroke-miterlimit:4;stroke-opacity:1"
         d="m 1374.362,673.19001 c 0,1.9493 -1.4914,3.52954 -3.3313,3.52954 -1.8398,0 -3.3313,-1.58024 -3.3313,-3.52954 0,-1.94932 1.4915,-3.52955 3.3313,-3.52955 1.8399,0 3.3313,1.58023 3.3313,3.52955 z"
         id="path5923"
         inkscape:connector-curvature="0" />
      <path
         inkscape:connector-curvature="0"
         id="path5925"
         d="m 1392.7051,656.03025 c 0,1.94929 -1.4914,3.52953 -3.3313,3.52953 -1.8398,0 -3.3313,-1.58024 -3.3313,-3.52953 0,-1.94932 1.4915,-3.52955 3.3313,-3.52955 1.8399,0 3.3313,1.58023 3.3313,3.52955 z"
         style="fill:#fdf900;fill-opacity:1;stroke:#000000;stroke-width:0;stroke-miterlimit:4;stroke-opacity:1" />
      <path
         style="fill:#fdf900;fill-opacity:1;stroke:#000000;stroke-width:0;stroke-miterlimit:4;stroke-opacity:1"
         d="m 1381.4625,653.66338 c 0,1.9493 -1.4914,3.52954 -3.3313,3.52954 -1.8398,0 -3.3313,-1.58024 -3.3313,-3.52954 0,-1.94932 1.4915,-3.52955 3.3313,-3.52955 1.8399,0 3.3313,1.58023 3.3313,3.52955 z"
         id="path5927"
         inkscape:connector-curvature="0" />
      <path
         inkscape:connector-curvature="0"
         id="path5929"
         d="m 1368.3673,864.85421 c 0,1.94929 -1.4914,3.52953 -3.3313,3.52953 -1.8398,0 -3.3313,-1.58024 -3.3313,-3.52953 0,-1.94932 1.4915,-3.52955 3.3313,-3.52955 1.8399,0 3.3313,1.58023 3.3313,3.52955 z"
         style="fill:#fdf900;fill-opacity:1;stroke:#000000;stroke-width:0;stroke-miterlimit:4;stroke-opacity:1" />
      <path
         style="fill:#fdf900;fill-opacity:1;stroke:#000000;stroke-width:0;stroke-miterlimit:4;stroke-opacity:1"
         d="m 1386.3673,864.85421 c 0,1.94929 -1.4914,3.52953 -3.3313,3.52953 -1.8398,0 -3.3313,-1.58024 -3.3313,-3.52953 0,-1.94932 1.4915,-3.52955 3.3313,-3.52955 1.8399,0 3.3313,1.58023 3.3313,3.52955 z"
         id="path5931"
         inkscape:connector-curvature="0" />
      <path
         inkscape:connector-curvature="0"
         id="path5933"
         d="m 1404.3673,864.85421 c 0,1.94929 -1.4914,3.52953 -3.3313,3.52953 -1.8398,0 -3.3313,-1.58024 -3.3313,-3.52953 0,-1.94932 1.4915,-3.52955 3.3313,-3.52955 1.8399,0 3.3313,1.58023 3.3313,3.52955 z"
         style="fill:#fdf900;fill-opacity:1;stroke:#000000;stroke-width:0;stroke-miterlimit:4;stroke-opacity:1" />
      <path
         style="fill:#fdf900;fill-opacity:1;stroke:#000000;stroke-width:0;stroke-miterlimit:4;stroke-opacity:1"
         d="m 1424.3673,864.85421 c 0,1.94929 -1.4914,3.52953 -3.3313,3.52953 -1.8398,0 -3.3313,-1.58024 -3.3313,-3.52953 0,-1.94932 1.4915,-3.52955 3.3313,-3.52955 1.8399,0 3.3313,1.58023 3.3313,3.52955 z"
         id="path5935"
         inkscape:connector-curvature="0" />
      <path
         inkscape:connector-curvature="0"
         id="path5937"
         d="m 1440.3673,864.85421 c 0,1.94929 -1.4914,3.52953 -3.3313,3.52953 -1.8398,0 -3.3313,-1.58024 -3.3313,-3.52953 0,-1.94932 1.4915,-3.52955 3.3313,-3.52955 1.8399,0 3.3313,1.58023 3.3313,3.52955 z"
         style="fill:#fdf900;fill-opacity:1;stroke:#000000;stroke-width:0;stroke-miterlimit:4;stroke-opacity:1" />
      <path
         style="fill:#fdf900;fill-opacity:1;stroke:#000000;stroke-width:0;stroke-miterlimit:4;stroke-opacity:1"
         d="m 1452.3673,864.85421 c 0,1.94929 -1.4914,3.52953 -3.3313,3.52953 -1.8398,0 -3.3313,-1.58024 -3.3313,-3.52953 0,-1.94932 1.4915,-3.52955 3.3313,-3.52955 1.8399,0 3.3313,1.58023 3.3313,3.52955 z"
         id="path5939"
         inkscape:connector-curvature="0" />
      <path
         inkscape:connector-curvature="0"
         id="path5941"
         d="m 1470.3673,864.85421 c 0,1.94929 -1.4914,3.52953 -3.3313,3.52953 -1.8398,0 -3.3313,-1.58024 -3.3313,-3.52953 0,-1.94932 1.4915,-3.52955 3.3313,-3.52955 1.8399,0 3.3313,1.58023 3.3313,3.52955 z"
         style="fill:#fdf900;fill-opacity:1;stroke:#000000;stroke-width:0;stroke-miterlimit:4;stroke-opacity:1" />
      <path
         style="fill:#fdf900;fill-opacity:1;stroke:#000000;stroke-width:0;stroke-miterlimit:4;stroke-opacity:1"
         d="m 1440.3673,826.85421 c 0,1.94929 -1.4914,3.52953 -3.3313,3.52953 -1.8398,0 -3.3313,-1.58024 -3.3313,-3.52953 0,-1.94932 1.4915,-3.52955 3.3313,-3.52955 1.8399,0 3.3313,1.58023 3.3313,3.52955 z"
         id="path5943"
         inkscape:connector-curvature="0" />
      <path
         inkscape:connector-curvature="0"
         id="path5945"
         d="m 1454.3673,826.85421 c 0,1.94929 -1.4914,3.52953 -3.3313,3.52953 -1.8398,0 -3.3313,-1.58024 -3.3313,-3.52953 0,-1.94932 1.4915,-3.52955 3.3313,-3.52955 1.8399,0 3.3313,1.58023 3.3313,3.52955 z"
         style="fill:#fdf900;fill-opacity:1;stroke:#000000;stroke-width:0;stroke-miterlimit:4;stroke-opacity:1" />
      <path
         style="fill:#fdf900;fill-opacity:1;stroke:#000000;stroke-width:0;stroke-miterlimit:4;stroke-opacity:1"
         d="m 1452.3673,848.85421 c 0,1.94929 -1.4914,3.52953 -3.3313,3.52953 -1.8398,0 -3.3313,-1.58024 -3.3313,-3.52953 0,-1.94932 1.4915,-3.52955 3.3313,-3.52955 1.8399,0 3.3313,1.58023 3.3313,3.52955 z"
         id="path5947"
         inkscape:connector-curvature="0" />
      <path
         inkscape:connector-curvature="0"
         id="path5949"
         d="m 1440.3673,848.85421 c 0,1.94929 -1.4914,3.52953 -3.3313,3.52953 -1.8398,0 -3.3313,-1.58024 -3.3313,-3.52953 0,-1.94932 1.4915,-3.52955 3.3313,-3.52955 1.8399,0 3.3313,1.58023 3.3313,3.52955 z"
         style="fill:#fdf900;fill-opacity:1;stroke:#000000;stroke-width:0;stroke-miterlimit:4;stroke-opacity:1" />
      <path
         style="fill:#fdf900;fill-opacity:1;stroke:#000000;stroke-width:0;stroke-miterlimit:4;stroke-opacity:1"
         d="m 1350.3673,876.85421 c 0,1.94929 -1.4914,3.52953 -3.3313,3.52953 -1.8398,0 -3.3313,-1.58024 -3.3313,-3.52953 0,-1.94932 1.4915,-3.52955 3.3313,-3.52955 1.8399,0 3.3313,1.58023 3.3313,3.52955 z"
         id="path5951"
         inkscape:connector-curvature="0" />
      <path
         inkscape:connector-curvature="0"
         id="path5953"
         d="m 1368.3673,876.85421 c 0,1.94929 -1.4914,3.52953 -3.3313,3.52953 -1.8398,0 -3.3313,-1.58024 -3.3313,-3.52953 0,-1.94932 1.4915,-3.52955 3.3313,-3.52955 1.8399,0 3.3313,1.58023 3.3313,3.52955 z"
         style="fill:#fdf900;fill-opacity:1;stroke:#000000;stroke-width:0;stroke-miterlimit:4;stroke-opacity:1" />
      <path
         style="fill:#fdf900;fill-opacity:1;stroke:#000000;stroke-width:0;stroke-miterlimit:4;stroke-opacity:1"
         d="m 1386.3673,876.85421 c 0,1.94929 -1.4914,3.52953 -3.3313,3.52953 -1.8398,0 -3.3313,-1.58024 -3.3313,-3.52953 0,-1.94932 1.4915,-3.52955 3.3313,-3.52955 1.8399,0 3.3313,1.58023 3.3313,3.52955 z"
         id="path5955"
         inkscape:connector-curvature="0" />
      <path
         inkscape:connector-curvature="0"
         id="path5957"
         d="m 1404.3673,876.85421 c 0,1.94929 -1.4914,3.52953 -3.3313,3.52953 -1.8398,0 -3.3313,-1.58024 -3.3313,-3.52953 0,-1.94932 1.4915,-3.52955 3.3313,-3.52955 1.8399,0 3.3313,1.58023 3.3313,3.52955 z"
         style="fill:#fdf900;fill-opacity:1;stroke:#000000;stroke-width:0;stroke-miterlimit:4;stroke-opacity:1" />
      <path
         style="fill:#fdf900;fill-opacity:1;stroke:#000000;stroke-width:0;stroke-miterlimit:4;stroke-opacity:1"
         d="m 1424.3673,876.85421 c 0,1.94929 -1.4914,3.52953 -3.3313,3.52953 -1.8398,0 -3.3313,-1.58024 -3.3313,-3.52953 0,-1.94932 1.4915,-3.52955 3.3313,-3.52955 1.8399,0 3.3313,1.58023 3.3313,3.52955 z"
         id="path5959"
         inkscape:connector-curvature="0" />
      <path
         inkscape:connector-curvature="0"
         id="path5961"
         d="m 1440.3673,876.85421 c 0,1.94929 -1.4914,3.52953 -3.3313,3.52953 -1.8398,0 -3.3313,-1.58024 -3.3313,-3.52953 0,-1.94932 1.4915,-3.52955 3.3313,-3.52955 1.8399,0 3.3313,1.58023 3.3313,3.52955 z"
         style="fill:#fdf900;fill-opacity:1;stroke:#000000;stroke-width:0;stroke-miterlimit:4;stroke-opacity:1" />
      <path
         style="fill:#fdf900;fill-opacity:1;stroke:#000000;stroke-width:0;stroke-miterlimit:4;stroke-opacity:1"
         d="m 1452.3673,876.85421 c 0,1.94929 -1.4914,3.52953 -3.3313,3.52953 -1.8398,0 -3.3313,-1.58024 -3.3313,-3.52953 0,-1.94932 1.4915,-3.52955 3.3313,-3.52955 1.8399,0 3.3313,1.58023 3.3313,3.52955 z"
         id="path5963"
         inkscape:connector-curvature="0" />
      <path
         inkscape:connector-curvature="0"
         id="path5965"
         d="m 1452.3673,894.85421 c 0,1.94929 -1.4914,3.52953 -3.3313,3.52953 -1.8398,0 -3.3313,-1.58024 -3.3313,-3.52953 0,-1.94932 1.4915,-3.52955 3.3313,-3.52955 1.8399,0 3.3313,1.58023 3.3313,3.52955 z"
         style="fill:#fdf900;fill-opacity:1;stroke:#000000;stroke-width:0;stroke-miterlimit:4;stroke-opacity:1" />
      <path
         style="fill:#fdf900;fill-opacity:1;stroke:#000000;stroke-width:0;stroke-miterlimit:4;stroke-opacity:1"
         d="m 1452.3673,912.85421 c 0,1.94929 -1.4914,3.52953 -3.3313,3.52953 -1.8398,0 -3.3313,-1.58024 -3.3313,-3.52953 0,-1.94932 1.4915,-3.52955 3.3313,-3.52955 1.8399,0 3.3313,1.58023 3.3313,3.52955 z"
         id="path5967"
         inkscape:connector-curvature="0" />
      <path
         inkscape:connector-curvature="0"
         id="path5969"
         d="m 1452.3673,930.85421 c 0,1.94929 -1.4914,3.52953 -3.3313,3.52953 -1.8398,0 -3.3313,-1.58024 -3.3313,-3.52953 0,-1.94932 1.4915,-3.52955 3.3313,-3.52955 1.8399,0 3.3313,1.58023 3.3313,3.52955 z"
         style="fill:#fdf900;fill-opacity:1;stroke:#000000;stroke-width:0;stroke-miterlimit:4;stroke-opacity:1" />
      <path
         style="fill:#fdf900;fill-opacity:1;stroke:#000000;stroke-width:0;stroke-miterlimit:4;stroke-opacity:1"
         d="m 1452.3673,946.85421 c 0,1.94929 -1.4914,3.52953 -3.3313,3.52953 -1.8398,0 -3.3313,-1.58024 -3.3313,-3.52953 0,-1.94932 1.4915,-3.52955 3.3313,-3.52955 1.8399,0 3.3313,1.58023 3.3313,3.52955 z"
         id="path5971"
         inkscape:connector-curvature="0" />
      <path
         inkscape:connector-curvature="0"
         id="path5973"
         d="m 1452.3673,964.85421 c 0,1.94929 -1.4914,3.52953 -3.3313,3.52953 -1.8398,0 -3.3313,-1.58024 -3.3313,-3.52953 0,-1.94932 1.4915,-3.52955 3.3313,-3.52955 1.8399,0 3.3313,1.58023 3.3313,3.52955 z"
         style="fill:#fdf900;fill-opacity:1;stroke:#000000;stroke-width:0;stroke-miterlimit:4;stroke-opacity:1" />
      <path
         style="fill:#fdf900;fill-opacity:1;stroke:#000000;stroke-width:0;stroke-miterlimit:4;stroke-opacity:1"
         d="m 1440.3673,964.85421 c 0,1.94929 -1.4914,3.52953 -3.3313,3.52953 -1.8398,0 -3.3313,-1.58024 -3.3313,-3.52953 0,-1.94932 1.4915,-3.52955 3.3313,-3.52955 1.8399,0 3.3313,1.58023 3.3313,3.52955 z"
         id="path5975"
         inkscape:connector-curvature="0" />
      <path
         inkscape:connector-curvature="0"
         id="path5977"
         d="m 1440.3673,948.85421 c 0,1.94929 -1.4914,3.52953 -3.3313,3.52953 -1.8398,0 -3.3313,-1.58024 -3.3313,-3.52953 0,-1.94932 1.4915,-3.52955 3.3313,-3.52955 1.8399,0 3.3313,1.58023 3.3313,3.52955 z"
         style="fill:#fdf900;fill-opacity:1;stroke:#000000;stroke-width:0;stroke-miterlimit:4;stroke-opacity:1" />
      <path
         style="fill:#fdf900;fill-opacity:1;stroke:#000000;stroke-width:0;stroke-miterlimit:4;stroke-opacity:1"
         d="m 1440.3673,930.85421 c 0,1.94929 -1.4914,3.52953 -3.3313,3.52953 -1.8398,0 -3.3313,-1.58024 -3.3313,-3.52953 0,-1.94932 1.4915,-3.52955 3.3313,-3.52955 1.8399,0 3.3313,1.58023 3.3313,3.52955 z"
         id="path5979"
         inkscape:connector-curvature="0" />
      <path
         inkscape:connector-curvature="0"
         id="path5981"
         d="m 1440.3673,912.85421 c 0,1.94929 -1.4914,3.52953 -3.3313,3.52953 -1.8398,0 -3.3313,-1.58024 -3.3313,-3.52953 0,-1.94932 1.4915,-3.52955 3.3313,-3.52955 1.8399,0 3.3313,1.58023 3.3313,3.52955 z"
         style="fill:#fdf900;fill-opacity:1;stroke:#000000;stroke-width:0;stroke-miterlimit:4;stroke-opacity:1" />
      <path
         style="fill:#fdf900;fill-opacity:1;stroke:#000000;stroke-width:0;stroke-miterlimit:4;stroke-opacity:1"
         d="m 1440.3673,894.85421 c 0,1.94929 -1.4914,3.52953 -3.3313,3.52953 -1.8398,0 -3.3313,-1.58024 -3.3313,-3.52953 0,-1.94932 1.4915,-3.52955 3.3313,-3.52955 1.8399,0 3.3313,1.58023 3.3313,3.52955 z"
         id="path5983"
         inkscape:connector-curvature="0" />
      <path
         inkscape:connector-curvature="0"
         id="path5985"
         d="m 1469.7501,876.62628 c 0,1.94929 -1.4914,3.52953 -3.3313,3.52953 -1.8398,0 -3.3313,-1.58024 -3.3313,-3.52953 0,-1.94932 1.4915,-3.52955 3.3313,-3.52955 1.8399,0 3.3313,1.58023 3.3313,3.52955 z"
         style="fill:#fdf900;fill-opacity:1;stroke:#000000;stroke-width:0;stroke-miterlimit:4;stroke-opacity:1" />
    </g>
  </g>
</svg>
