<?xml version="1.0" encoding="UTF-8" standalone="no"?>
<!-- Created with Inkscape (http://www.inkscape.org/) -->

<svg
   xmlns:dc="http://purl.org/dc/elements/1.1/"
   xmlns:cc="http://creativecommons.org/ns#"
   xmlns:rdf="http://www.w3.org/1999/02/22-rdf-syntax-ns#"
   xmlns:svg="http://www.w3.org/2000/svg"
   xmlns="http://www.w3.org/2000/svg"
   xmlns:sodipodi="http://sodipodi.sourceforge.net/DTD/sodipodi-0.dtd"
   xmlns:inkscape="http://www.inkscape.org/namespaces/inkscape"
   width="487.0304"
   height="476.53418"
   id="svg4927"
   version="1.1"
   inkscape:version="0.91 r13725"
   sodipodi:docname="geschwindigkeitsanzeiger-70-light.svg">
  <defs
     id="defs4929" />
  <sodipodi:namedview
     id="base"
     pagecolor="#ffffff"
     bordercolor="#666666"
     borderopacity="1.0"
     inkscape:pageopacity="0.0"
     inkscape:pageshadow="2"
     inkscape:zoom="0.57875767"
     inkscape:cx="-539.47745"
     inkscape:cy="79.384055"
     inkscape:document-units="px"
     inkscape:current-layer="layer1"
     showgrid="false"
     inkscape:window-width="1920"
     inkscape:window-height="1003"
     inkscape:window-x="-9"
     inkscape:window-y="-9"
     inkscape:window-maximized="1"
     showguides="true"
     inkscape:guide-bbox="true"
     fit-margin-top="0"
     fit-margin-left="0"
     fit-margin-right="0"
     fit-margin-bottom="0" />
  <metadata
     id="metadata4932">
    <rdf:RDF>
      <cc:Work
         rdf:about="">
        <dc:format>image/svg+xml</dc:format>
        <dc:type
           rdf:resource="http://purl.org/dc/dcmitype/StillImage" />
        <dc:title></dc:title>
      </cc:Work>
    </rdf:RDF>
  </metadata>
  <g
     inkscape:label="Ebene 1"
     inkscape:groupmode="layer"
     id="layer1"
     transform="translate(-7.6697691,-566.15798)">
    <g
       transform="matrix(1.4014908,0,0,1.4014908,-1321.6346,-1636.4413)"
       id="g11672">
      <path
         inkscape:connector-curvature="0"
         id="path3847"
         d="m 1295.494,1911.1254 -346.49515,0 0,-339.008 345.03315,0 z"
         style="fill:#000000;fill-opacity:1;stroke:#000000;stroke-width:1.01147771px;stroke-linecap:butt;stroke-linejoin:miter;stroke-opacity:1" />
      <path
         inkscape:connector-curvature="0"
         id="path9049"
         d="m 1047.1319,1625.0456 c 0,-1.9493 1.4914,-3.5296 3.3313,-3.5296 1.8398,0 3.3313,1.5803 3.3313,3.5296 0,1.9493 -1.4915,3.5295 -3.3313,3.5295 -1.8399,0 -3.3313,-1.5802 -3.3313,-3.5295 z"
         style="fill:#ffffff;fill-opacity:1;stroke:#000000;stroke-width:0;stroke-miterlimit:4;stroke-opacity:1" />
      <path
         style="fill:#ffffff;fill-opacity:1;stroke:#000000;stroke-width:0;stroke-miterlimit:4;stroke-opacity:1"
         d="m 1205.2305,1629.1343 c 0,-1.9493 1.4914,-3.5296 3.3313,-3.5296 1.8398,0 3.3313,1.5803 3.3313,3.5296 0,1.9493 -1.4915,3.5295 -3.3313,3.5295 -1.8399,0 -3.3313,-1.5802 -3.3313,-3.5295 z"
         id="path9051"
         inkscape:connector-curvature="0" />
      <path
         style="fill:#ffffff;fill-opacity:1;stroke:#000000;stroke-width:0;stroke-miterlimit:4;stroke-opacity:1"
         d="m 1047.1319,1609.0456 c 0,-1.9493 1.4914,-3.5296 3.3313,-3.5296 1.8398,0 3.3313,1.5803 3.3313,3.5296 0,1.9493 -1.4915,3.5295 -3.3313,3.5295 -1.8399,0 -3.3313,-1.5802 -3.3313,-3.5295 z"
         id="path11552"
         inkscape:connector-curvature="0" />
      <path
         inkscape:connector-curvature="0"
         id="path11554"
         d="m 1047.1319,1591.0456 c 0,-1.9493 1.4914,-3.5296 3.3313,-3.5296 1.8398,0 3.3313,1.5803 3.3313,3.5296 0,1.9493 -1.4915,3.5295 -3.3313,3.5295 -1.8399,0 -3.3313,-1.5802 -3.3313,-3.5295 z"
         style="fill:#ffffff;fill-opacity:1;stroke:#000000;stroke-width:0;stroke-miterlimit:4;stroke-opacity:1" />
      <path
         style="fill:#ffffff;fill-opacity:1;stroke:#000000;stroke-width:0;stroke-miterlimit:4;stroke-opacity:1"
         d="m 1047.1319,1581.0456 c 0,-1.9493 1.4914,-3.5296 3.3313,-3.5296 1.8398,0 3.3313,1.5803 3.3313,3.5296 0,1.9493 -1.4915,3.5295 -3.3313,3.5295 -1.8399,0 -3.3313,-1.5802 -3.3313,-3.5295 z"
         id="path11556"
         inkscape:connector-curvature="0" />
      <path
         inkscape:connector-curvature="0"
         id="path11558"
         d="m 1061.1319,1581.0456 c 0,-1.9493 1.4914,-3.5296 3.3313,-3.5296 1.8398,0 3.3313,1.5803 3.3313,3.5296 0,1.9493 -1.4915,3.5295 -3.3313,3.5295 -1.8399,0 -3.3313,-1.5802 -3.3313,-3.5295 z"
         style="fill:#ffffff;fill-opacity:1;stroke:#000000;stroke-width:0;stroke-miterlimit:4;stroke-opacity:1" />
      <path
         style="fill:#ffffff;fill-opacity:1;stroke:#000000;stroke-width:0;stroke-miterlimit:4;stroke-opacity:1"
         d="m 1079.1319,1581.0456 c 0,-1.9493 1.4914,-3.5296 3.3313,-3.5296 1.8398,0 3.3313,1.5803 3.3313,3.5296 0,1.9493 -1.4915,3.5295 -3.3313,3.5295 -1.8399,0 -3.3313,-1.5802 -3.3313,-3.5295 z"
         id="path11560"
         inkscape:connector-curvature="0" />
      <path
         inkscape:connector-curvature="0"
         id="path11562"
         d="m 1099.1319,1581.0456 c 0,-1.9493 1.4914,-3.5296 3.3313,-3.5296 1.8398,0 3.3313,1.5803 3.3313,3.5296 0,1.9493 -1.4915,3.5295 -3.3313,3.5295 -1.8399,0 -3.3313,-1.5802 -3.3313,-3.5295 z"
         style="fill:#ffffff;fill-opacity:1;stroke:#000000;stroke-width:0;stroke-miterlimit:4;stroke-opacity:1" />
      <path
         style="fill:#ffffff;fill-opacity:1;stroke:#000000;stroke-width:0;stroke-miterlimit:4;stroke-opacity:1"
         d="m 1119.1319,1581.0456 c 0,-1.9493 1.4914,-3.5296 3.3313,-3.5296 1.8398,0 3.3313,1.5803 3.3313,3.5296 0,1.9493 -1.4915,3.5295 -3.3313,3.5295 -1.8399,0 -3.3313,-1.5802 -3.3313,-3.5295 z"
         id="path11564"
         inkscape:connector-curvature="0" />
      <path
         inkscape:connector-curvature="0"
         id="path11566"
         d="m 1137.1319,1581.0456 c 0,-1.9493 1.4914,-3.5296 3.3313,-3.5296 1.8398,0 3.3313,1.5803 3.3313,3.5296 0,1.9493 -1.4915,3.5295 -3.3313,3.5295 -1.8399,0 -3.3313,-1.5802 -3.3313,-3.5295 z"
         style="fill:#ffffff;fill-opacity:1;stroke:#000000;stroke-width:0;stroke-miterlimit:4;stroke-opacity:1" />
      <path
         style="fill:#ffffff;fill-opacity:1;stroke:#000000;stroke-width:0;stroke-miterlimit:4;stroke-opacity:1"
         d="m 1157.1319,1581.0456 c 0,-1.9493 1.4914,-3.5296 3.3313,-3.5296 1.8398,0 3.3313,1.5803 3.3313,3.5296 0,1.9493 -1.4915,3.5295 -3.3313,3.5295 -1.8399,0 -3.3313,-1.5802 -3.3313,-3.5295 z"
         id="path11568"
         inkscape:connector-curvature="0" />
      <path
         inkscape:connector-curvature="0"
         id="path11570"
         d="m 1177.1319,1581.0456 c 0,-1.9493 1.4914,-3.5296 3.3313,-3.5296 1.8398,0 3.3313,1.5803 3.3313,3.5296 0,1.9493 -1.4915,3.5295 -3.3313,3.5295 -1.8399,0 -3.3313,-1.5802 -3.3313,-3.5295 z"
         style="fill:#ffffff;fill-opacity:1;stroke:#000000;stroke-width:0;stroke-miterlimit:4;stroke-opacity:1" />
      <path
         style="fill:#ffffff;fill-opacity:1;stroke:#000000;stroke-width:0;stroke-miterlimit:4;stroke-opacity:1"
         d="m 1195.1319,1581.0456 c 0,-1.9493 1.4914,-3.5296 3.3313,-3.5296 1.8398,0 3.3313,1.5803 3.3313,3.5296 0,1.9493 -1.4915,3.5295 -3.3313,3.5295 -1.8399,0 -3.3313,-1.5802 -3.3313,-3.5295 z"
         id="path11572"
         inkscape:connector-curvature="0" />
      <path
         inkscape:connector-curvature="0"
         id="path11574"
         d="m 1207.1319,1581.0456 c 0,-1.9493 1.4914,-3.5296 3.3313,-3.5296 1.8398,0 3.3313,1.5803 3.3313,3.5296 0,1.9493 -1.4915,3.5295 -3.3313,3.5295 -1.8399,0 -3.3313,-1.5802 -3.3313,-3.5295 z"
         style="fill:#ffffff;fill-opacity:1;stroke:#000000;stroke-width:0;stroke-miterlimit:4;stroke-opacity:1" />
      <path
         style="fill:#ffffff;fill-opacity:1;stroke:#000000;stroke-width:0;stroke-miterlimit:4;stroke-opacity:1"
         d="m 1207.1319,1591.0456 c 0,-1.9493 1.4914,-3.5296 3.3313,-3.5296 1.8398,0 3.3313,1.5803 3.3313,3.5296 0,1.9493 -1.4915,3.5295 -3.3313,3.5295 -1.8399,0 -3.3313,-1.5802 -3.3313,-3.5295 z"
         id="path11576"
         inkscape:connector-curvature="0" />
      <path
         inkscape:connector-curvature="0"
         id="path11578"
         d="m 1195.1319,1591.0456 c 0,-1.9493 1.4914,-3.5296 3.3313,-3.5296 1.8398,0 3.3313,1.5803 3.3313,3.5296 0,1.9493 -1.4915,3.5295 -3.3313,3.5295 -1.8399,0 -3.3313,-1.5802 -3.3313,-3.5295 z"
         style="fill:#ffffff;fill-opacity:1;stroke:#000000;stroke-width:0;stroke-miterlimit:4;stroke-opacity:1" />
      <path
         style="fill:#ffffff;fill-opacity:1;stroke:#000000;stroke-width:0;stroke-miterlimit:4;stroke-opacity:1"
         d="m 1177.1319,1591.0456 c 0,-1.9493 1.4914,-3.5296 3.3313,-3.5296 1.8398,0 3.3313,1.5803 3.3313,3.5296 0,1.9493 -1.4915,3.5295 -3.3313,3.5295 -1.8399,0 -3.3313,-1.5802 -3.3313,-3.5295 z"
         id="path11580"
         inkscape:connector-curvature="0" />
      <path
         inkscape:connector-curvature="0"
         id="path11582"
         d="m 1157.1319,1591.0456 c 0,-1.9493 1.4914,-3.5296 3.3313,-3.5296 1.8398,0 3.3313,1.5803 3.3313,3.5296 0,1.9493 -1.4915,3.5295 -3.3313,3.5295 -1.8399,0 -3.3313,-1.5802 -3.3313,-3.5295 z"
         style="fill:#ffffff;fill-opacity:1;stroke:#000000;stroke-width:0;stroke-miterlimit:4;stroke-opacity:1" />
      <path
         style="fill:#ffffff;fill-opacity:1;stroke:#000000;stroke-width:0;stroke-miterlimit:4;stroke-opacity:1"
         d="m 1137.1319,1591.0456 c 0,-1.9493 1.4914,-3.5296 3.3313,-3.5296 1.8398,0 3.3313,1.5803 3.3313,3.5296 0,1.9493 -1.4915,3.5295 -3.3313,3.5295 -1.8399,0 -3.3313,-1.5802 -3.3313,-3.5295 z"
         id="path11584"
         inkscape:connector-curvature="0" />
      <path
         inkscape:connector-curvature="0"
         id="path11586"
         d="m 1119.1319,1591.0456 c 0,-1.9493 1.4914,-3.5296 3.3313,-3.5296 1.8398,0 3.3313,1.5803 3.3313,3.5296 0,1.9493 -1.4915,3.5295 -3.3313,3.5295 -1.8399,0 -3.3313,-1.5802 -3.3313,-3.5295 z"
         style="fill:#ffffff;fill-opacity:1;stroke:#000000;stroke-width:0;stroke-miterlimit:4;stroke-opacity:1" />
      <path
         style="fill:#ffffff;fill-opacity:1;stroke:#000000;stroke-width:0;stroke-miterlimit:4;stroke-opacity:1"
         d="m 1099.1319,1591.0456 c 0,-1.9493 1.4914,-3.5296 3.3313,-3.5296 1.8398,0 3.3313,1.5803 3.3313,3.5296 0,1.9493 -1.4915,3.5295 -3.3313,3.5295 -1.8399,0 -3.3313,-1.5802 -3.3313,-3.5295 z"
         id="path11588"
         inkscape:connector-curvature="0" />
      <path
         inkscape:connector-curvature="0"
         id="path11590"
         d="m 1079.1319,1591.0456 c 0,-1.9493 1.4914,-3.5296 3.3313,-3.5296 1.8398,0 3.3313,1.5803 3.3313,3.5296 0,1.9493 -1.4915,3.5295 -3.3313,3.5295 -1.8399,0 -3.3313,-1.5802 -3.3313,-3.5295 z"
         style="fill:#ffffff;fill-opacity:1;stroke:#000000;stroke-width:0;stroke-miterlimit:4;stroke-opacity:1" />
      <path
         style="fill:#ffffff;fill-opacity:1;stroke:#000000;stroke-width:0;stroke-miterlimit:4;stroke-opacity:1"
         d="m 1061.1319,1591.0456 c 0,-1.9493 1.4914,-3.5296 3.3313,-3.5296 1.8398,0 3.3313,1.5803 3.3313,3.5296 0,1.9493 -1.4915,3.5295 -3.3313,3.5295 -1.8399,0 -3.3313,-1.5802 -3.3313,-3.5295 z"
         id="path11592"
         inkscape:connector-curvature="0" />
      <path
         inkscape:connector-curvature="0"
         id="path11594"
         d="m 1061.1319,1609.0456 c 0,-1.9493 1.4914,-3.5296 3.3313,-3.5296 1.8398,0 3.3313,1.5803 3.3313,3.5296 0,1.9493 -1.4915,3.5295 -3.3313,3.5295 -1.8399,0 -3.3313,-1.5802 -3.3313,-3.5295 z"
         style="fill:#ffffff;fill-opacity:1;stroke:#000000;stroke-width:0;stroke-miterlimit:4;stroke-opacity:1" />
      <path
         style="fill:#ffffff;fill-opacity:1;stroke:#000000;stroke-width:0;stroke-miterlimit:4;stroke-opacity:1"
         d="m 1061.1319,1625.0456 c 0,-1.9493 1.4914,-3.5296 3.3313,-3.5296 1.8398,0 3.3313,1.5803 3.3313,3.5296 0,1.9493 -1.4915,3.5295 -3.3313,3.5295 -1.8399,0 -3.3313,-1.5802 -3.3313,-3.5295 z"
         id="path11596"
         inkscape:connector-curvature="0" />
      <path
         inkscape:connector-curvature="0"
         id="path11598"
         d="m 1207.1319,1607.0456 c 0,-1.9493 1.4914,-3.5296 3.3313,-3.5296 1.8398,0 3.3313,1.5803 3.3313,3.5296 0,1.9493 -1.4915,3.5295 -3.3313,3.5295 -1.8399,0 -3.3313,-1.5802 -3.3313,-3.5295 z"
         style="fill:#ffffff;fill-opacity:1;stroke:#000000;stroke-width:0;stroke-miterlimit:4;stroke-opacity:1" />
      <path
         style="fill:#ffffff;fill-opacity:1;stroke:#000000;stroke-width:0;stroke-miterlimit:4;stroke-opacity:1"
         d="m 1195.1319,1607.0456 c 0,-1.9493 1.4914,-3.5296 3.3313,-3.5296 1.8398,0 3.3313,1.5803 3.3313,3.5296 0,1.9493 -1.4915,3.5295 -3.3313,3.5295 -1.8399,0 -3.3313,-1.5802 -3.3313,-3.5295 z"
         id="path11600"
         inkscape:connector-curvature="0" />
      <path
         inkscape:connector-curvature="0"
         id="path11602"
         d="m 1195.1319,1627.0456 c 0,-1.9493 1.4914,-3.5296 3.3313,-3.5296 1.8398,0 3.3313,1.5803 3.3313,3.5296 0,1.9493 -1.4915,3.5295 -3.3313,3.5295 -1.8399,0 -3.3313,-1.5802 -3.3313,-3.5295 z"
         style="fill:#ffffff;fill-opacity:1;stroke:#000000;stroke-width:0;stroke-miterlimit:4;stroke-opacity:1" />
      <path
         style="fill:#ffffff;fill-opacity:1;stroke:#000000;stroke-width:0;stroke-miterlimit:4;stroke-opacity:1"
         d="m 1195.1319,1645.0456 c 0,-1.9493 1.4914,-3.5296 3.3313,-3.5296 1.8398,0 3.3313,1.5803 3.3313,3.5296 0,1.9493 -1.4915,3.5295 -3.3313,3.5295 -1.8399,0 -3.3313,-1.5802 -3.3313,-3.5295 z"
         id="path11604"
         inkscape:connector-curvature="0" />
      <path
         inkscape:connector-curvature="0"
         id="path11606"
         d="m 1185.1319,1639.0456 c 0,-1.9493 1.4914,-3.5296 3.3313,-3.5296 1.8398,0 3.3313,1.5803 3.3313,3.5296 0,1.9493 -1.4915,3.5295 -3.3313,3.5295 -1.8399,0 -3.3313,-1.5802 -3.3313,-3.5295 z"
         style="fill:#ffffff;fill-opacity:1;stroke:#000000;stroke-width:0;stroke-miterlimit:4;stroke-opacity:1" />
      <path
         style="fill:#ffffff;fill-opacity:1;stroke:#000000;stroke-width:0;stroke-miterlimit:4;stroke-opacity:1"
         d="m 1177.1319,1655.0456 c 0,-1.9493 1.4914,-3.5296 3.3313,-3.5296 1.8398,0 3.3313,1.5803 3.3313,3.5296 0,1.9493 -1.4915,3.5295 -3.3313,3.5295 -1.8399,0 -3.3313,-1.5802 -3.3313,-3.5295 z"
         id="path11608"
         inkscape:connector-curvature="0" />
      <path
         inkscape:connector-curvature="0"
         id="path11610"
         d="m 1187.1319,1661.0456 c 0,-1.9493 1.4914,-3.5296 3.3313,-3.5296 1.8398,0 3.3313,1.5803 3.3313,3.5296 0,1.9493 -1.4915,3.5295 -3.3313,3.5295 -1.8399,0 -3.3313,-1.5802 -3.3313,-3.5295 z"
         style="fill:#ffffff;fill-opacity:1;stroke:#000000;stroke-width:0;stroke-miterlimit:4;stroke-opacity:1" />
      <path
         style="fill:#ffffff;fill-opacity:1;stroke:#000000;stroke-width:0;stroke-miterlimit:4;stroke-opacity:1"
         d="m 1177.1319,1677.0456 c 0,-1.9493 1.4914,-3.5296 3.3313,-3.5296 1.8398,0 3.3313,1.5803 3.3313,3.5296 0,1.9493 -1.4915,3.5295 -3.3313,3.5295 -1.8399,0 -3.3313,-1.5802 -3.3313,-3.5295 z"
         id="path11612"
         inkscape:connector-curvature="0" />
      <path
         inkscape:connector-curvature="0"
         id="path11614"
         d="m 1167.1319,1671.0456 c 0,-1.9493 1.4914,-3.5296 3.3313,-3.5296 1.8398,0 3.3313,1.5803 3.3313,3.5296 0,1.9493 -1.4915,3.5295 -3.3313,3.5295 -1.8399,0 -3.3313,-1.5802 -3.3313,-3.5295 z"
         style="fill:#ffffff;fill-opacity:1;stroke:#000000;stroke-width:0;stroke-miterlimit:4;stroke-opacity:1" />
      <path
         style="fill:#ffffff;fill-opacity:1;stroke:#000000;stroke-width:0;stroke-miterlimit:4;stroke-opacity:1"
         d="m 1167.1319,1693.0456 c 0,-1.9493 1.4914,-3.5296 3.3313,-3.5296 1.8398,0 3.3313,1.5803 3.3313,3.5296 0,1.9493 -1.4915,3.5295 -3.3313,3.5295 -1.8399,0 -3.3313,-1.5802 -3.3313,-3.5295 z"
         id="path11616"
         inkscape:connector-curvature="0" />
      <path
         inkscape:connector-curvature="0"
         id="path11618"
         d="m 1157.1319,1685.0456 c 0,-1.9493 1.4914,-3.5296 3.3313,-3.5296 1.8398,0 3.3313,1.5803 3.3313,3.5296 0,1.9493 -1.4915,3.5295 -3.3313,3.5295 -1.8399,0 -3.3313,-1.5802 -3.3313,-3.5295 z"
         style="fill:#ffffff;fill-opacity:1;stroke:#000000;stroke-width:0;stroke-miterlimit:4;stroke-opacity:1" />
      <path
         style="fill:#ffffff;fill-opacity:1;stroke:#000000;stroke-width:0;stroke-miterlimit:4;stroke-opacity:1"
         d="m 1157.1319,1709.0456 c 0,-1.9493 1.4914,-3.5296 3.3313,-3.5296 1.8398,0 3.3313,1.5803 3.3313,3.5296 0,1.9493 -1.4915,3.5295 -3.3313,3.5295 -1.8399,0 -3.3313,-1.5802 -3.3313,-3.5295 z"
         id="path11620"
         inkscape:connector-curvature="0" />
      <path
         inkscape:connector-curvature="0"
         id="path11622"
         d="m 1147.1319,1701.0456 c 0,-1.9493 1.4914,-3.5296 3.3313,-3.5296 1.8398,0 3.3313,1.5803 3.3313,3.5296 0,1.9493 -1.4915,3.5295 -3.3313,3.5295 -1.8399,0 -3.3313,-1.5802 -3.3313,-3.5295 z"
         style="fill:#ffffff;fill-opacity:1;stroke:#000000;stroke-width:0;stroke-miterlimit:4;stroke-opacity:1" />
      <path
         style="fill:#ffffff;fill-opacity:1;stroke:#000000;stroke-width:0;stroke-miterlimit:4;stroke-opacity:1"
         d="m 1149.1319,1723.0456 c 0,-1.9493 1.4914,-3.5296 3.3313,-3.5296 1.8398,0 3.3313,1.5803 3.3313,3.5296 0,1.9493 -1.4915,3.5295 -3.3313,3.5295 -1.8399,0 -3.3313,-1.5802 -3.3313,-3.5295 z"
         id="path11624"
         inkscape:connector-curvature="0" />
      <path
         inkscape:connector-curvature="0"
         id="path11626"
         d="m 1139.1319,1717.0456 c 0,-1.9493 1.4914,-3.5296 3.3313,-3.5296 1.8398,0 3.3313,1.5803 3.3313,3.5296 0,1.9493 -1.4915,3.5295 -3.3313,3.5295 -1.8399,0 -3.3313,-1.5802 -3.3313,-3.5295 z"
         style="fill:#ffffff;fill-opacity:1;stroke:#000000;stroke-width:0;stroke-miterlimit:4;stroke-opacity:1" />
      <path
         style="fill:#ffffff;fill-opacity:1;stroke:#000000;stroke-width:0;stroke-miterlimit:4;stroke-opacity:1"
         d="m 1141.1319,1737.0456 c 0,-1.9493 1.4914,-3.5296 3.3313,-3.5296 1.8398,0 3.3313,1.5803 3.3313,3.5296 0,1.9493 -1.4915,3.5295 -3.3313,3.5295 -1.8399,0 -3.3313,-1.5802 -3.3313,-3.5295 z"
         id="path11628"
         inkscape:connector-curvature="0" />
      <path
         inkscape:connector-curvature="0"
         id="path11630"
         d="m 1131.1319,1731.0456 c 0,-1.9493 1.4914,-3.5296 3.3313,-3.5296 1.8398,0 3.3313,1.5803 3.3313,3.5296 0,1.9493 -1.4915,3.5295 -3.3313,3.5295 -1.8399,0 -3.3313,-1.5802 -3.3313,-3.5295 z"
         style="fill:#ffffff;fill-opacity:1;stroke:#000000;stroke-width:0;stroke-miterlimit:4;stroke-opacity:1" />
      <path
         style="fill:#ffffff;fill-opacity:1;stroke:#000000;stroke-width:0;stroke-miterlimit:4;stroke-opacity:1"
         d="m 1131.1319,1753.0456 c 0,-1.9493 1.4914,-3.5296 3.3313,-3.5296 1.8398,0 3.3313,1.5803 3.3313,3.5296 0,1.9493 -1.4915,3.5295 -3.3313,3.5295 -1.8399,0 -3.3313,-1.5802 -3.3313,-3.5295 z"
         id="path11632"
         inkscape:connector-curvature="0" />
      <path
         inkscape:connector-curvature="0"
         id="path11634"
         d="m 1121.1319,1747.0456 c 0,-1.9493 1.4914,-3.5296 3.3313,-3.5296 1.8398,0 3.3313,1.5803 3.3313,3.5296 0,1.9493 -1.4915,3.5295 -3.3313,3.5295 -1.8399,0 -3.3313,-1.5802 -3.3313,-3.5295 z"
         style="fill:#ffffff;fill-opacity:1;stroke:#000000;stroke-width:0;stroke-miterlimit:4;stroke-opacity:1" />
      <path
         style="fill:#ffffff;fill-opacity:1;stroke:#000000;stroke-width:0;stroke-miterlimit:4;stroke-opacity:1"
         d="m 1121.1319,1767.0456 c 0,-1.9493 1.4914,-3.5296 3.3313,-3.5296 1.8398,0 3.3313,1.5803 3.3313,3.5296 0,1.9493 -1.4915,3.5295 -3.3313,3.5295 -1.8399,0 -3.3313,-1.5802 -3.3313,-3.5295 z"
         id="path11636"
         inkscape:connector-curvature="0" />
      <path
         inkscape:connector-curvature="0"
         id="path11638"
         d="m 1111.1319,1763.0456 c 0,-1.9493 1.4914,-3.5296 3.3313,-3.5296 1.8398,0 3.3313,1.5803 3.3313,3.5296 0,1.9493 -1.4915,3.5295 -3.3313,3.5295 -1.8399,0 -3.3313,-1.5802 -3.3313,-3.5295 z"
         style="fill:#ffffff;fill-opacity:1;stroke:#000000;stroke-width:0;stroke-miterlimit:4;stroke-opacity:1" />
      <path
         style="fill:#ffffff;fill-opacity:1;stroke:#000000;stroke-width:0;stroke-miterlimit:4;stroke-opacity:1"
         d="m 1113.1319,1783.0456 c 0,-1.9493 1.4914,-3.5296 3.3313,-3.5296 1.8398,0 3.3313,1.5803 3.3313,3.5296 0,1.9493 -1.4915,3.5295 -3.3313,3.5295 -1.8399,0 -3.3313,-1.5802 -3.3313,-3.5295 z"
         id="path11640"
         inkscape:connector-curvature="0" />
      <path
         inkscape:connector-curvature="0"
         id="path11642"
         d="m 1101.1319,1779.0456 c 0,-1.9493 1.4914,-3.5296 3.3313,-3.5296 1.8398,0 3.3313,1.5803 3.3313,3.5296 0,1.9493 -1.4915,3.5295 -3.3313,3.5295 -1.8399,0 -3.3313,-1.5802 -3.3313,-3.5295 z"
         style="fill:#ffffff;fill-opacity:1;stroke:#000000;stroke-width:0;stroke-miterlimit:4;stroke-opacity:1" />
      <path
         style="fill:#ffffff;fill-opacity:1;stroke:#000000;stroke-width:0;stroke-miterlimit:4;stroke-opacity:1"
         d="m 1101.1319,1799.0456 c 0,-1.9493 1.4914,-3.5296 3.3313,-3.5296 1.8398,0 3.3313,1.5803 3.3313,3.5296 0,1.9493 -1.4915,3.5295 -3.3313,3.5295 -1.8399,0 -3.3313,-1.5802 -3.3313,-3.5295 z"
         id="path11644"
         inkscape:connector-curvature="0" />
      <path
         inkscape:connector-curvature="0"
         id="path11646"
         d="m 1091.1319,1793.0456 c 0,-1.9493 1.4914,-3.5296 3.3313,-3.5296 1.8398,0 3.3313,1.5803 3.3313,3.5296 0,1.9493 -1.4915,3.5295 -3.3313,3.5295 -1.8399,0 -3.3313,-1.5802 -3.3313,-3.5295 z"
         style="fill:#ffffff;fill-opacity:1;stroke:#000000;stroke-width:0;stroke-miterlimit:4;stroke-opacity:1" />
      <path
         style="fill:#ffffff;fill-opacity:1;stroke:#000000;stroke-width:0;stroke-miterlimit:4;stroke-opacity:1"
         d="m 1093.1319,1815.0456 c 0,-1.9493 1.4914,-3.5296 3.3313,-3.5296 1.8398,0 3.3313,1.5803 3.3313,3.5296 0,1.9493 -1.4915,3.5295 -3.3313,3.5295 -1.8399,0 -3.3313,-1.5802 -3.3313,-3.5295 z"
         id="path11648"
         inkscape:connector-curvature="0" />
      <path
         inkscape:connector-curvature="0"
         id="path11650"
         d="m 1083.1319,1809.0456 c 0,-1.9493 1.4914,-3.5296 3.3313,-3.5296 1.8398,0 3.3313,1.5803 3.3313,3.5296 0,1.9493 -1.4915,3.5295 -3.3313,3.5295 -1.8399,0 -3.3313,-1.5802 -3.3313,-3.5295 z"
         style="fill:#ffffff;fill-opacity:1;stroke:#000000;stroke-width:0;stroke-miterlimit:4;stroke-opacity:1" />
      <path
         style="fill:#ffffff;fill-opacity:1;stroke:#000000;stroke-width:0;stroke-miterlimit:4;stroke-opacity:1"
         d="m 1083.1319,1829.0456 c 0,-1.9493 1.4914,-3.5296 3.3313,-3.5296 1.8398,0 3.3313,1.5803 3.3313,3.5296 0,1.9493 -1.4915,3.5295 -3.3313,3.5295 -1.8399,0 -3.3313,-1.5802 -3.3313,-3.5295 z"
         id="path11652"
         inkscape:connector-curvature="0" />
      <path
         inkscape:connector-curvature="0"
         id="path11654"
         d="m 1073.1319,1825.0456 c 0,-1.9493 1.4914,-3.5296 3.3313,-3.5296 1.8398,0 3.3313,1.5803 3.3313,3.5296 0,1.9493 -1.4915,3.5295 -3.3313,3.5295 -1.8399,0 -3.3313,-1.5802 -3.3313,-3.5295 z"
         style="fill:#ffffff;fill-opacity:1;stroke:#000000;stroke-width:0;stroke-miterlimit:4;stroke-opacity:1" />
      <path
         style="fill:#ffffff;fill-opacity:1;stroke:#000000;stroke-width:0;stroke-miterlimit:4;stroke-opacity:1"
         d="m 1073.1319,1845.0456 c 0,-1.9493 1.4914,-3.5296 3.3313,-3.5296 1.8398,0 3.3313,1.5803 3.3313,3.5296 0,1.9493 -1.4915,3.5295 -3.3313,3.5295 -1.8399,0 -3.3313,-1.5802 -3.3313,-3.5295 z"
         id="path11656"
         inkscape:connector-curvature="0" />
      <path
         inkscape:connector-curvature="0"
         id="path11658"
         d="m 1065.1319,1839.0456 c 0,-1.9493 1.4914,-3.5296 3.3313,-3.5296 1.8398,0 3.3313,1.5803 3.3313,3.5296 0,1.9493 -1.4915,3.5295 -3.3313,3.5295 -1.8399,0 -3.3313,-1.5802 -3.3313,-3.5295 z"
         style="fill:#ffffff;fill-opacity:1;stroke:#000000;stroke-width:0;stroke-miterlimit:4;stroke-opacity:1" />
      <path
         style="fill:#ffffff;fill-opacity:1;stroke:#000000;stroke-width:0;stroke-miterlimit:4;stroke-opacity:1"
         d="m 1065.1319,1861.0456 c 0,-1.9493 1.4914,-3.5296 3.3313,-3.5296 1.8398,0 3.3313,1.5803 3.3313,3.5296 0,1.9493 -1.4915,3.5295 -3.3313,3.5295 -1.8399,0 -3.3313,-1.5802 -3.3313,-3.5295 z"
         id="path11660"
         inkscape:connector-curvature="0" />
      <path
         inkscape:connector-curvature="0"
         id="path11662"
         d="m 1055.1319,1853.0456 c 0,-1.9493 1.4914,-3.5296 3.3313,-3.5296 1.8398,0 3.3313,1.5803 3.3313,3.5296 0,1.9493 -1.4915,3.5295 -3.3313,3.5295 -1.8399,0 -3.3313,-1.5802 -3.3313,-3.5295 z"
         style="fill:#ffffff;fill-opacity:1;stroke:#000000;stroke-width:0;stroke-miterlimit:4;stroke-opacity:1" />
      <path
         style="fill:#ffffff;fill-opacity:1;stroke:#000000;stroke-width:0;stroke-miterlimit:4;stroke-opacity:1"
         d="m 1055.1319,1875.0456 c 0,-1.9493 1.4914,-3.5296 3.3313,-3.5296 1.8398,0 3.3313,1.5803 3.3313,3.5296 0,1.9493 -1.4915,3.5295 -3.3313,3.5295 -1.8399,0 -3.3313,-1.5802 -3.3313,-3.5295 z"
         id="path11664"
         inkscape:connector-curvature="0" />
      <path
         inkscape:connector-curvature="0"
         id="path11666"
         d="m 1045.1319,1869.0456 c 0,-1.9493 1.4914,-3.5296 3.3313,-3.5296 1.8398,0 3.3313,1.5803 3.3313,3.5296 0,1.9493 -1.4915,3.5295 -3.3313,3.5295 -1.8399,0 -3.3313,-1.5802 -3.3313,-3.5295 z"
         style="fill:#ffffff;fill-opacity:1;stroke:#000000;stroke-width:0;stroke-miterlimit:4;stroke-opacity:1" />
      <path
         style="fill:#ffffff;fill-opacity:1;stroke:#000000;stroke-width:0;stroke-miterlimit:4;stroke-opacity:1"
         d="m 1047.1319,1891.0456 c 0,-1.9493 1.4914,-3.5296 3.3313,-3.5296 1.8398,0 3.3313,1.5803 3.3313,3.5296 0,1.9493 -1.4915,3.5295 -3.3313,3.5295 -1.8399,0 -3.3313,-1.5802 -3.3313,-3.5295 z"
         id="path11668"
         inkscape:connector-curvature="0" />
      <path
         inkscape:connector-curvature="0"
         id="path11670"
         d="m 1037.1319,1887.0456 c 0,-1.9493 1.4914,-3.5296 3.3313,-3.5296 1.8398,0 3.3313,1.5803 3.3313,3.5296 0,1.9493 -1.4915,3.5295 -3.3313,3.5295 -1.8399,0 -3.3313,-1.5802 -3.3313,-3.5295 z"
         style="fill:#ffffff;fill-opacity:1;stroke:#000000;stroke-width:0;stroke-miterlimit:4;stroke-opacity:1" />
    </g>
  </g>
</svg>
