<?xml version="1.0" encoding="UTF-8" standalone="no"?>
<!-- Created with Inkscape (http://www.inkscape.org/) -->

<svg
   xmlns:dc="http://purl.org/dc/elements/1.1/"
   xmlns:cc="http://creativecommons.org/ns#"
   xmlns:rdf="http://www.w3.org/1999/02/22-rdf-syntax-ns#"
   xmlns:svg="http://www.w3.org/2000/svg"
   xmlns="http://www.w3.org/2000/svg"
   xmlns:sodipodi="http://sodipodi.sourceforge.net/DTD/sodipodi-0.dtd"
   xmlns:inkscape="http://www.inkscape.org/namespaces/inkscape"
   width="470.00562"
   height="467.25543"
   id="svg4927"
   version="1.1"
   inkscape:version="0.91 r13725"
   sodipodi:docname="geschwindigkeitsanzeiger-50-light.svg">
  <defs
     id="defs4929" />
  <sodipodi:namedview
     id="base"
     pagecolor="#ffffff"
     bordercolor="#666666"
     borderopacity="1.0"
     inkscape:pageopacity="0.0"
     inkscape:pageshadow="2"
     inkscape:zoom="0.57875767"
     inkscape:cx="-159.50628"
     inkscape:cy="418.50784"
     inkscape:document-units="px"
     inkscape:current-layer="layer1"
     showgrid="false"
     inkscape:window-width="1920"
     inkscape:window-height="1003"
     inkscape:window-x="-9"
     inkscape:window-y="-9"
     inkscape:window-maximized="1"
     fit-margin-top="0"
     fit-margin-left="0"
     fit-margin-right="0"
     fit-margin-bottom="0" />
  <metadata
     id="metadata4932">
    <rdf:RDF>
      <cc:Work
         rdf:about="">
        <dc:format>image/svg+xml</dc:format>
        <dc:type
           rdf:resource="http://purl.org/dc/dcmitype/StillImage" />
        <dc:title></dc:title>
      </cc:Work>
    </rdf:RDF>
  </metadata>
  <g
     inkscape:label="Ebene 1"
     inkscape:groupmode="layer"
     id="layer1"
     transform="translate(-17.326268,-576.52897)">
    <g
       transform="matrix(1.3742345,0,0,1.3742345,-2426.6729,-990.28276)"
       id="g8109">
      <path
         inkscape:connector-curvature="0"
         id="path3847"
         d="m 1778.9479,1140.6359 341.0071,0 0,339.008 -339.5683,0 z"
         style="fill:#000000;fill-opacity:1;stroke:#000000;stroke-width:1.00343537px;stroke-linecap:butt;stroke-linejoin:miter;stroke-opacity:1" />
      <path
         style="fill:#ffffff;fill-opacity:1;stroke:#000000;stroke-width:0;stroke-miterlimit:4;stroke-opacity:1"
         d="m 2023.6726,1152.7787 c 0,1.9493 -1.4914,3.5296 -3.3313,3.5296 -1.8398,0 -3.3313,-1.5803 -3.3313,-3.5296 0,-1.9493 1.4915,-3.5295 3.3313,-3.5295 1.8399,0 3.3313,1.5802 3.3313,3.5295 z"
         id="path5919"
         inkscape:connector-curvature="0" />
      <path
         inkscape:connector-curvature="0"
         id="path7173"
         d="m 2003.6726,1152.7787 c 0,1.9493 -1.4914,3.5296 -3.3313,3.5296 -1.8398,0 -3.3313,-1.5803 -3.3313,-3.5296 0,-1.9493 1.4915,-3.5295 3.3313,-3.5295 1.8399,0 3.3313,1.5802 3.3313,3.5295 z"
         style="fill:#ffffff;fill-opacity:1;stroke:#000000;stroke-width:0;stroke-miterlimit:4;stroke-opacity:1" />
      <path
         style="fill:#ffffff;fill-opacity:1;stroke:#000000;stroke-width:0;stroke-miterlimit:4;stroke-opacity:1"
         d="m 1981.6726,1152.7787 c 0,1.9493 -1.4914,3.5296 -3.3313,3.5296 -1.8398,0 -3.3313,-1.5803 -3.3313,-3.5296 0,-1.9493 1.4915,-3.5295 3.3313,-3.5295 1.8399,0 3.3313,1.5802 3.3313,3.5295 z"
         id="path7175"
         inkscape:connector-curvature="0" />
      <path
         inkscape:connector-curvature="0"
         id="path7177"
         d="m 1959.6726,1152.7787 c 0,1.9493 -1.4914,3.5296 -3.3313,3.5296 -1.8398,0 -3.3313,-1.5803 -3.3313,-3.5296 0,-1.9493 1.4915,-3.5295 3.3313,-3.5295 1.8399,0 3.3313,1.5802 3.3313,3.5295 z"
         style="fill:#ffffff;fill-opacity:1;stroke:#000000;stroke-width:0;stroke-miterlimit:4;stroke-opacity:1" />
      <path
         style="fill:#ffffff;fill-opacity:1;stroke:#000000;stroke-width:0;stroke-miterlimit:4;stroke-opacity:1"
         d="m 1937.6726,1152.7787 c 0,1.9493 -1.4914,3.5296 -3.3313,3.5296 -1.8398,0 -3.3313,-1.5803 -3.3313,-3.5296 0,-1.9493 1.4915,-3.5295 3.3313,-3.5295 1.8399,0 3.3313,1.5802 3.3313,3.5295 z"
         id="path7179"
         inkscape:connector-curvature="0" />
      <path
         inkscape:connector-curvature="0"
         id="path7181"
         d="m 1915.6726,1152.7787 c 0,1.9493 -1.4914,3.5296 -3.3313,3.5296 -1.8398,0 -3.3313,-1.5803 -3.3313,-3.5296 0,-1.9493 1.4915,-3.5295 3.3313,-3.5295 1.8399,0 3.3313,1.5802 3.3313,3.5295 z"
         style="fill:#ffffff;fill-opacity:1;stroke:#000000;stroke-width:0;stroke-miterlimit:4;stroke-opacity:1" />
      <path
         style="fill:#ffffff;fill-opacity:1;stroke:#000000;stroke-width:0;stroke-miterlimit:4;stroke-opacity:1"
         d="m 1895.6726,1152.7787 c 0,1.9493 -1.4914,3.5296 -3.3313,3.5296 -1.8398,0 -3.3313,-1.5803 -3.3313,-3.5296 0,-1.9493 1.4915,-3.5295 3.3313,-3.5295 1.8399,0 3.3313,1.5802 3.3313,3.5295 z"
         id="path7183"
         inkscape:connector-curvature="0" />
      <path
         inkscape:connector-curvature="0"
         id="path7185"
         d="m 1877.6726,1152.7787 c 0,1.9493 -1.4914,3.5296 -3.3313,3.5296 -1.8398,0 -3.3313,-1.5803 -3.3313,-3.5296 0,-1.9493 1.4915,-3.5295 3.3313,-3.5295 1.8399,0 3.3313,1.5802 3.3313,3.5295 z"
         style="fill:#ffffff;fill-opacity:1;stroke:#000000;stroke-width:0;stroke-miterlimit:4;stroke-opacity:1" />
      <path
         style="fill:#ffffff;fill-opacity:1;stroke:#000000;stroke-width:0;stroke-miterlimit:4;stroke-opacity:1"
         d="m 1863.6726,1152.7787 c 0,1.9493 -1.4914,3.5296 -3.3313,3.5296 -1.8398,0 -3.3313,-1.5803 -3.3313,-3.5296 0,-1.9493 1.4915,-3.5295 3.3313,-3.5295 1.8399,0 3.3313,1.5802 3.3313,3.5295 z"
         id="path7187"
         inkscape:connector-curvature="0" />
      <path
         inkscape:connector-curvature="0"
         id="path7189"
         d="m 1863.6726,1164.7787 c 0,1.9493 -1.4914,3.5296 -3.3313,3.5296 -1.8398,0 -3.3313,-1.5803 -3.3313,-3.5296 0,-1.9493 1.4915,-3.5295 3.3313,-3.5295 1.8399,0 3.3313,1.5802 3.3313,3.5295 z"
         style="fill:#ffffff;fill-opacity:1;stroke:#000000;stroke-width:0;stroke-miterlimit:4;stroke-opacity:1" />
      <path
         style="fill:#ffffff;fill-opacity:1;stroke:#000000;stroke-width:0;stroke-miterlimit:4;stroke-opacity:1"
         d="m 1863.6726,1180.7787 c 0,1.9493 -1.4914,3.5296 -3.3313,3.5296 -1.8398,0 -3.3313,-1.5803 -3.3313,-3.5296 0,-1.9493 1.4915,-3.5295 3.3313,-3.5295 1.8399,0 3.3313,1.5802 3.3313,3.5295 z"
         id="path7191"
         inkscape:connector-curvature="0" />
      <path
         inkscape:connector-curvature="0"
         id="path7193"
         d="m 1863.6726,1194.7787 c 0,1.9493 -1.4914,3.5296 -3.3313,3.5296 -1.8398,0 -3.3313,-1.5803 -3.3313,-3.5296 0,-1.9493 1.4915,-3.5295 3.3313,-3.5295 1.8399,0 3.3313,1.5802 3.3313,3.5295 z"
         style="fill:#ffffff;fill-opacity:1;stroke:#000000;stroke-width:0;stroke-miterlimit:4;stroke-opacity:1" />
      <path
         style="fill:#ffffff;fill-opacity:1;stroke:#000000;stroke-width:0;stroke-miterlimit:4;stroke-opacity:1"
         d="m 1863.6726,1210.7787 c 0,1.9493 -1.4914,3.5296 -3.3313,3.5296 -1.8398,0 -3.3313,-1.5803 -3.3313,-3.5296 0,-1.9493 1.4915,-3.5295 3.3313,-3.5295 1.8399,0 3.3313,1.5802 3.3313,3.5295 z"
         id="path7195"
         inkscape:connector-curvature="0" />
      <path
         inkscape:connector-curvature="0"
         id="path7197"
         d="m 1863.6726,1228.7787 c 0,1.9493 -1.4914,3.5296 -3.3313,3.5296 -1.8398,0 -3.3313,-1.5803 -3.3313,-3.5296 0,-1.9493 1.4915,-3.5295 3.3313,-3.5295 1.8399,0 3.3313,1.5802 3.3313,3.5295 z"
         style="fill:#ffffff;fill-opacity:1;stroke:#000000;stroke-width:0;stroke-miterlimit:4;stroke-opacity:1" />
      <path
         style="fill:#ffffff;fill-opacity:1;stroke:#000000;stroke-width:0;stroke-miterlimit:4;stroke-opacity:1"
         d="m 1863.6726,1244.7787 c 0,1.9493 -1.4914,3.5296 -3.3313,3.5296 -1.8398,0 -3.3313,-1.5803 -3.3313,-3.5296 0,-1.9493 1.4915,-3.5295 3.3313,-3.5295 1.8399,0 3.3313,1.5802 3.3313,3.5295 z"
         id="path7199"
         inkscape:connector-curvature="0" />
      <path
         inkscape:connector-curvature="0"
         id="path7201"
         d="m 1863.6726,1260.7787 c 0,1.9493 -1.4914,3.5296 -3.3313,3.5296 -1.8398,0 -3.3313,-1.5803 -3.3313,-3.5296 0,-1.9493 1.4915,-3.5295 3.3313,-3.5295 1.8399,0 3.3313,1.5802 3.3313,3.5295 z"
         style="fill:#ffffff;fill-opacity:1;stroke:#000000;stroke-width:0;stroke-miterlimit:4;stroke-opacity:1" />
      <path
         style="fill:#ffffff;fill-opacity:1;stroke:#000000;stroke-width:0;stroke-miterlimit:4;stroke-opacity:1"
         d="m 1863.6726,1276.7787 c 0,1.9493 -1.4914,3.5296 -3.3313,3.5296 -1.8398,0 -3.3313,-1.5803 -3.3313,-3.5296 0,-1.9493 1.4915,-3.5295 3.3313,-3.5295 1.8399,0 3.3313,1.5802 3.3313,3.5295 z"
         id="path7203"
         inkscape:connector-curvature="0" />
      <path
         inkscape:connector-curvature="0"
         id="path7205"
         d="m 1863.6726,1292.7787 c 0,1.9493 -1.4914,3.5296 -3.3313,3.5296 -1.8398,0 -3.3313,-1.5803 -3.3313,-3.5296 0,-1.9493 1.4915,-3.5295 3.3313,-3.5295 1.8399,0 3.3313,1.5802 3.3313,3.5295 z"
         style="fill:#ffffff;fill-opacity:1;stroke:#000000;stroke-width:0;stroke-miterlimit:4;stroke-opacity:1" />
      <path
         style="fill:#ffffff;fill-opacity:1;stroke:#000000;stroke-width:0;stroke-miterlimit:4;stroke-opacity:1"
         d="m 1863.6726,1314.7787 c 0,1.9493 -1.4914,3.5296 -3.3313,3.5296 -1.8398,0 -3.3313,-1.5803 -3.3313,-3.5296 0,-1.9493 1.4915,-3.5295 3.3313,-3.5295 1.8399,0 3.3313,1.5802 3.3313,3.5295 z"
         id="path7207"
         inkscape:connector-curvature="0" />
      <path
         inkscape:connector-curvature="0"
         id="path7209"
         d="m 2023.6726,1164.7787 c 0,1.9493 -1.4914,3.5296 -3.3313,3.5296 -1.8398,0 -3.3313,-1.5803 -3.3313,-3.5296 0,-1.9493 1.4915,-3.5295 3.3313,-3.5295 1.8399,0 3.3313,1.5802 3.3313,3.5295 z"
         style="fill:#ffffff;fill-opacity:1;stroke:#000000;stroke-width:0;stroke-miterlimit:4;stroke-opacity:1" />
      <path
         style="fill:#ffffff;fill-opacity:1;stroke:#000000;stroke-width:0;stroke-miterlimit:4;stroke-opacity:1"
         d="m 2003.6726,1164.7787 c 0,1.9493 -1.4914,3.5296 -3.3313,3.5296 -1.8398,0 -3.3313,-1.5803 -3.3313,-3.5296 0,-1.9493 1.4915,-3.5295 3.3313,-3.5295 1.8399,0 3.3313,1.5802 3.3313,3.5295 z"
         id="path7211"
         inkscape:connector-curvature="0" />
      <path
         inkscape:connector-curvature="0"
         id="path7213"
         d="m 1981.6726,1164.7787 c 0,1.9493 -1.4914,3.5296 -3.3313,3.5296 -1.8398,0 -3.3313,-1.5803 -3.3313,-3.5296 0,-1.9493 1.4915,-3.5295 3.3313,-3.5295 1.8399,0 3.3313,1.5802 3.3313,3.5295 z"
         style="fill:#ffffff;fill-opacity:1;stroke:#000000;stroke-width:0;stroke-miterlimit:4;stroke-opacity:1" />
      <path
         style="fill:#ffffff;fill-opacity:1;stroke:#000000;stroke-width:0;stroke-miterlimit:4;stroke-opacity:1"
         d="m 1959.6726,1164.7787 c 0,1.9493 -1.4914,3.5296 -3.3313,3.5296 -1.8398,0 -3.3313,-1.5803 -3.3313,-3.5296 0,-1.9493 1.4915,-3.5295 3.3313,-3.5295 1.8399,0 3.3313,1.5802 3.3313,3.5295 z"
         id="path7215"
         inkscape:connector-curvature="0" />
      <path
         inkscape:connector-curvature="0"
         id="path7217"
         d="m 1937.6726,1164.7787 c 0,1.9493 -1.4914,3.5296 -3.3313,3.5296 -1.8398,0 -3.3313,-1.5803 -3.3313,-3.5296 0,-1.9493 1.4915,-3.5295 3.3313,-3.5295 1.8399,0 3.3313,1.5802 3.3313,3.5295 z"
         style="fill:#ffffff;fill-opacity:1;stroke:#000000;stroke-width:0;stroke-miterlimit:4;stroke-opacity:1" />
      <path
         style="fill:#ffffff;fill-opacity:1;stroke:#000000;stroke-width:0;stroke-miterlimit:4;stroke-opacity:1"
         d="m 1915.6726,1164.7787 c 0,1.9493 -1.4914,3.5296 -3.3313,3.5296 -1.8398,0 -3.3313,-1.5803 -3.3313,-3.5296 0,-1.9493 1.4915,-3.5295 3.3313,-3.5295 1.8399,0 3.3313,1.5802 3.3313,3.5295 z"
         id="path7219"
         inkscape:connector-curvature="0" />
      <path
         inkscape:connector-curvature="0"
         id="path7221"
         d="m 1895.6726,1164.7787 c 0,1.9493 -1.4914,3.5296 -3.3313,3.5296 -1.8398,0 -3.3313,-1.5803 -3.3313,-3.5296 0,-1.9493 1.4915,-3.5295 3.3313,-3.5295 1.8399,0 3.3313,1.5802 3.3313,3.5295 z"
         style="fill:#ffffff;fill-opacity:1;stroke:#000000;stroke-width:0;stroke-miterlimit:4;stroke-opacity:1" />
      <path
         style="fill:#ffffff;fill-opacity:1;stroke:#000000;stroke-width:0;stroke-miterlimit:4;stroke-opacity:1"
         d="m 1877.6726,1164.7787 c 0,1.9493 -1.4914,3.5296 -3.3313,3.5296 -1.8398,0 -3.3313,-1.5803 -3.3313,-3.5296 0,-1.9493 1.4915,-3.5295 3.3313,-3.5295 1.8399,0 3.3313,1.5802 3.3313,3.5295 z"
         id="path7223"
         inkscape:connector-curvature="0" />
      <path
         inkscape:connector-curvature="0"
         id="path7225"
         d="m 1877.6726,1180.7787 c 0,1.9493 -1.4914,3.5296 -3.3313,3.5296 -1.8398,0 -3.3313,-1.5803 -3.3313,-3.5296 0,-1.9493 1.4915,-3.5295 3.3313,-3.5295 1.8399,0 3.3313,1.5802 3.3313,3.5295 z"
         style="fill:#ffffff;fill-opacity:1;stroke:#000000;stroke-width:0;stroke-miterlimit:4;stroke-opacity:1" />
      <path
         style="fill:#ffffff;fill-opacity:1;stroke:#000000;stroke-width:0;stroke-miterlimit:4;stroke-opacity:1"
         d="m 1877.6726,1194.7787 c 0,1.9493 -1.4914,3.5296 -3.3313,3.5296 -1.8398,0 -3.3313,-1.5803 -3.3313,-3.5296 0,-1.9493 1.4915,-3.5295 3.3313,-3.5295 1.8399,0 3.3313,1.5802 3.3313,3.5295 z"
         id="path7227"
         inkscape:connector-curvature="0" />
      <path
         inkscape:connector-curvature="0"
         id="path7229"
         d="m 1877.6726,1210.7787 c 0,1.9493 -1.4914,3.5296 -3.3313,3.5296 -1.8398,0 -3.3313,-1.5803 -3.3313,-3.5296 0,-1.9493 1.4915,-3.5295 3.3313,-3.5295 1.8399,0 3.3313,1.5802 3.3313,3.5295 z"
         style="fill:#ffffff;fill-opacity:1;stroke:#000000;stroke-width:0;stroke-miterlimit:4;stroke-opacity:1" />
      <path
         style="fill:#ffffff;fill-opacity:1;stroke:#000000;stroke-width:0;stroke-miterlimit:4;stroke-opacity:1"
         d="m 1877.6726,1228.7787 c 0,1.9493 -1.4914,3.5296 -3.3313,3.5296 -1.8398,0 -3.3313,-1.5803 -3.3313,-3.5296 0,-1.9493 1.4915,-3.5295 3.3313,-3.5295 1.8399,0 3.3313,1.5802 3.3313,3.5295 z"
         id="path7231"
         inkscape:connector-curvature="0" />
      <path
         inkscape:connector-curvature="0"
         id="path7233"
         d="m 1877.6726,1244.7787 c 0,1.9493 -1.4914,3.5296 -3.3313,3.5296 -1.8398,0 -3.3313,-1.5803 -3.3313,-3.5296 0,-1.9493 1.4915,-3.5295 3.3313,-3.5295 1.8399,0 3.3313,1.5802 3.3313,3.5295 z"
         style="fill:#ffffff;fill-opacity:1;stroke:#000000;stroke-width:0;stroke-miterlimit:4;stroke-opacity:1" />
      <path
         style="fill:#ffffff;fill-opacity:1;stroke:#000000;stroke-width:0;stroke-miterlimit:4;stroke-opacity:1"
         d="m 1877.6726,1260.7787 c 0,1.9493 -1.4914,3.5296 -3.3313,3.5296 -1.8398,0 -3.3313,-1.5803 -3.3313,-3.5296 0,-1.9493 1.4915,-3.5295 3.3313,-3.5295 1.8399,0 3.3313,1.5802 3.3313,3.5295 z"
         id="path7235"
         inkscape:connector-curvature="0" />
      <path
         inkscape:connector-curvature="0"
         id="path7237"
         d="m 1877.6726,1276.7787 c 0,1.9493 -1.4914,3.5296 -3.3313,3.5296 -1.8398,0 -3.3313,-1.5803 -3.3313,-3.5296 0,-1.9493 1.4915,-3.5295 3.3313,-3.5295 1.8399,0 3.3313,1.5802 3.3313,3.5295 z"
         style="fill:#ffffff;fill-opacity:1;stroke:#000000;stroke-width:0;stroke-miterlimit:4;stroke-opacity:1" />
      <path
         style="fill:#ffffff;fill-opacity:1;stroke:#000000;stroke-width:0;stroke-miterlimit:4;stroke-opacity:1"
         d="m 1877.6726,1292.7787 c 0,1.9493 -1.4914,3.5296 -3.3313,3.5296 -1.8398,0 -3.3313,-1.5803 -3.3313,-3.5296 0,-1.9493 1.4915,-3.5295 3.3313,-3.5295 1.8399,0 3.3313,1.5802 3.3313,3.5295 z"
         id="path7239"
         inkscape:connector-curvature="0" />
      <path
         inkscape:connector-curvature="0"
         id="path7241"
         d="m 1881.6726,1304.7787 c 0,1.9493 -1.4914,3.5296 -3.3313,3.5296 -1.8398,0 -3.3313,-1.5803 -3.3313,-3.5296 0,-1.9493 1.4915,-3.5295 3.3313,-3.5295 1.8399,0 3.3313,1.5802 3.3313,3.5295 z"
         style="fill:#ffffff;fill-opacity:1;stroke:#000000;stroke-width:0;stroke-miterlimit:4;stroke-opacity:1" />
      <path
         style="fill:#ffffff;fill-opacity:1;stroke:#000000;stroke-width:0;stroke-miterlimit:4;stroke-opacity:1"
         d="m 1895.6726,1298.7787 c 0,1.9493 -1.4914,3.5296 -3.3313,3.5296 -1.8398,0 -3.3313,-1.5803 -3.3313,-3.5296 0,-1.9493 1.4915,-3.5295 3.3313,-3.5295 1.8399,0 3.3313,1.5802 3.3313,3.5295 z"
         id="path7243"
         inkscape:connector-curvature="0" />
      <path
         inkscape:connector-curvature="0"
         id="path7245"
         d="m 1893.6726,1288.7787 c 0,1.9493 -1.4914,3.5296 -3.3313,3.5296 -1.8398,0 -3.3313,-1.5803 -3.3313,-3.5296 0,-1.9493 1.4915,-3.5295 3.3313,-3.5295 1.8399,0 3.3313,1.5802 3.3313,3.5295 z"
         style="fill:#ffffff;fill-opacity:1;stroke:#000000;stroke-width:0;stroke-miterlimit:4;stroke-opacity:1" />
      <path
         style="fill:#ffffff;fill-opacity:1;stroke:#000000;stroke-width:0;stroke-miterlimit:4;stroke-opacity:1"
         d="m 1911.6726,1280.7787 c 0,1.9493 -1.4914,3.5296 -3.3313,3.5296 -1.8398,0 -3.3313,-1.5803 -3.3313,-3.5296 0,-1.9493 1.4915,-3.5295 3.3313,-3.5295 1.8399,0 3.3313,1.5802 3.3313,3.5295 z"
         id="path7247"
         inkscape:connector-curvature="0" />
      <path
         inkscape:connector-curvature="0"
         id="path7249"
         d="m 1913.6726,1292.7787 c 0,1.9493 -1.4914,3.5296 -3.3313,3.5296 -1.8398,0 -3.3313,-1.5803 -3.3313,-3.5296 0,-1.9493 1.4915,-3.5295 3.3313,-3.5295 1.8399,0 3.3313,1.5802 3.3313,3.5295 z"
         style="fill:#ffffff;fill-opacity:1;stroke:#000000;stroke-width:0;stroke-miterlimit:4;stroke-opacity:1" />
      <path
         style="fill:#ffffff;fill-opacity:1;stroke:#000000;stroke-width:0;stroke-miterlimit:4;stroke-opacity:1"
         d="m 1929.6726,1276.7787 c 0,1.9493 -1.4914,3.5296 -3.3313,3.5296 -1.8398,0 -3.3313,-1.5803 -3.3313,-3.5296 0,-1.9493 1.4915,-3.5295 3.3313,-3.5295 1.8399,0 3.3313,1.5802 3.3313,3.5295 z"
         id="path7251"
         inkscape:connector-curvature="0" />
      <path
         inkscape:connector-curvature="0"
         id="path7253"
         d="m 1931.6726,1288.7787 c 0,1.9493 -1.4914,3.5296 -3.3313,3.5296 -1.8398,0 -3.3313,-1.5803 -3.3313,-3.5296 0,-1.9493 1.4915,-3.5295 3.3313,-3.5295 1.8399,0 3.3313,1.5802 3.3313,3.5295 z"
         style="fill:#ffffff;fill-opacity:1;stroke:#000000;stroke-width:0;stroke-miterlimit:4;stroke-opacity:1" />
      <path
         style="fill:#ffffff;fill-opacity:1;stroke:#000000;stroke-width:0;stroke-miterlimit:4;stroke-opacity:1"
         d="m 1949.6726,1274.7787 c 0,1.9493 -1.4914,3.5296 -3.3313,3.5296 -1.8398,0 -3.3313,-1.5803 -3.3313,-3.5296 0,-1.9493 1.4915,-3.5295 3.3313,-3.5295 1.8399,0 3.3313,1.5802 3.3313,3.5295 z"
         id="path7255"
         inkscape:connector-curvature="0" />
      <path
         inkscape:connector-curvature="0"
         id="path7257"
         d="m 1949.6726,1284.7787 c 0,1.9493 -1.4914,3.5296 -3.3313,3.5296 -1.8398,0 -3.3313,-1.5803 -3.3313,-3.5296 0,-1.9493 1.4915,-3.5295 3.3313,-3.5295 1.8399,0 3.3313,1.5802 3.3313,3.5295 z"
         style="fill:#ffffff;fill-opacity:1;stroke:#000000;stroke-width:0;stroke-miterlimit:4;stroke-opacity:1" />
      <path
         style="fill:#ffffff;fill-opacity:1;stroke:#000000;stroke-width:0;stroke-miterlimit:4;stroke-opacity:1"
         d="m 1965.6726,1286.7787 c 0,1.9493 -1.4914,3.5296 -3.3313,3.5296 -1.8398,0 -3.3313,-1.5803 -3.3313,-3.5296 0,-1.9493 1.4915,-3.5295 3.3313,-3.5295 1.8399,0 3.3313,1.5802 3.3313,3.5295 z"
         id="path7259"
         inkscape:connector-curvature="0" />
      <path
         inkscape:connector-curvature="0"
         id="path7261"
         d="m 1967.6726,1274.7787 c 0,1.9493 -1.4914,3.5296 -3.3313,3.5296 -1.8398,0 -3.3313,-1.5803 -3.3313,-3.5296 0,-1.9493 1.4915,-3.5295 3.3313,-3.5295 1.8399,0 3.3313,1.5802 3.3313,3.5295 z"
         style="fill:#ffffff;fill-opacity:1;stroke:#000000;stroke-width:0;stroke-miterlimit:4;stroke-opacity:1" />
      <path
         style="fill:#ffffff;fill-opacity:1;stroke:#000000;stroke-width:0;stroke-miterlimit:4;stroke-opacity:1"
         d="m 1985.6726,1278.7787 c 0,1.9493 -1.4914,3.5296 -3.3313,3.5296 -1.8398,0 -3.3313,-1.5803 -3.3313,-3.5296 0,-1.9493 1.4915,-3.5295 3.3313,-3.5295 1.8399,0 3.3313,1.5802 3.3313,3.5295 z"
         id="path7263"
         inkscape:connector-curvature="0" />
      <path
         inkscape:connector-curvature="0"
         id="path7265"
         d="m 1981.6726,1290.7787 c 0,1.9493 -1.4914,3.5296 -3.3313,3.5296 -1.8398,0 -3.3313,-1.5803 -3.3313,-3.5296 0,-1.9493 1.4915,-3.5295 3.3313,-3.5295 1.8399,0 3.3313,1.5802 3.3313,3.5295 z"
         style="fill:#ffffff;fill-opacity:1;stroke:#000000;stroke-width:0;stroke-miterlimit:4;stroke-opacity:1" />
      <path
         style="fill:#ffffff;fill-opacity:1;stroke:#000000;stroke-width:0;stroke-miterlimit:4;stroke-opacity:1"
         d="m 2003.6726,1288.7787 c 0,1.9493 -1.4914,3.5296 -3.3313,3.5296 -1.8398,0 -3.3313,-1.5803 -3.3313,-3.5296 0,-1.9493 1.4915,-3.5295 3.3313,-3.5295 1.8399,0 3.3313,1.5802 3.3313,3.5295 z"
         id="path7267"
         inkscape:connector-curvature="0" />
      <path
         inkscape:connector-curvature="0"
         id="path7269"
         d="m 1997.6726,1298.7787 c 0,1.9493 -1.4914,3.5296 -3.3313,3.5296 -1.8398,0 -3.3313,-1.5803 -3.3313,-3.5296 0,-1.9493 1.4915,-3.5295 3.3313,-3.5295 1.8399,0 3.3313,1.5802 3.3313,3.5295 z"
         style="fill:#ffffff;fill-opacity:1;stroke:#000000;stroke-width:0;stroke-miterlimit:4;stroke-opacity:1" />
      <path
         style="fill:#ffffff;fill-opacity:1;stroke:#000000;stroke-width:0;stroke-miterlimit:4;stroke-opacity:1"
         d="m 2021.6726,1300.7787 c 0,1.9493 -1.4914,3.5296 -3.3313,3.5296 -1.8398,0 -3.3313,-1.5803 -3.3313,-3.5296 0,-1.9493 1.4915,-3.5295 3.3313,-3.5295 1.8399,0 3.3313,1.5802 3.3313,3.5295 z"
         id="path7271"
         inkscape:connector-curvature="0" />
      <path
         inkscape:connector-curvature="0"
         id="path7273"
         d="m 2013.6726,1308.7787 c 0,1.9493 -1.4914,3.5296 -3.3313,3.5296 -1.8398,0 -3.3313,-1.5803 -3.3313,-3.5296 0,-1.9493 1.4915,-3.5295 3.3313,-3.5295 1.8399,0 3.3313,1.5802 3.3313,3.5295 z"
         style="fill:#ffffff;fill-opacity:1;stroke:#000000;stroke-width:0;stroke-miterlimit:4;stroke-opacity:1" />
      <path
         style="fill:#ffffff;fill-opacity:1;stroke:#000000;stroke-width:0;stroke-miterlimit:4;stroke-opacity:1"
         d="m 2031.6726,1314.7787 c 0,1.9493 -1.4914,3.5296 -3.3313,3.5296 -1.8398,0 -3.3313,-1.5803 -3.3313,-3.5296 0,-1.9493 1.4915,-3.5295 3.3313,-3.5295 1.8399,0 3.3313,1.5802 3.3313,3.5295 z"
         id="path7275"
         inkscape:connector-curvature="0" />
      <path
         inkscape:connector-curvature="0"
         id="path7277"
         d="m 2023.6726,1320.7787 c 0,1.9493 -1.4914,3.5296 -3.3313,3.5296 -1.8398,0 -3.3313,-1.5803 -3.3313,-3.5296 0,-1.9493 1.4915,-3.5295 3.3313,-3.5295 1.8399,0 3.3313,1.5802 3.3313,3.5295 z"
         style="fill:#ffffff;fill-opacity:1;stroke:#000000;stroke-width:0;stroke-miterlimit:4;stroke-opacity:1" />
      <path
         style="fill:#ffffff;fill-opacity:1;stroke:#000000;stroke-width:0;stroke-miterlimit:4;stroke-opacity:1"
         d="m 2031.6726,1334.7787 c 0,1.9493 -1.4914,3.5296 -3.3313,3.5296 -1.8398,0 -3.3313,-1.5803 -3.3313,-3.5296 0,-1.9493 1.4915,-3.5295 3.3313,-3.5295 1.8399,0 3.3313,1.5802 3.3313,3.5295 z"
         id="path7279"
         inkscape:connector-curvature="0" />
      <path
         inkscape:connector-curvature="0"
         id="path7281"
         d="m 2041.6726,1330.7787 c 0,1.9493 -1.4914,3.5296 -3.3313,3.5296 -1.8398,0 -3.3313,-1.5803 -3.3313,-3.5296 0,-1.9493 1.4915,-3.5295 3.3313,-3.5295 1.8399,0 3.3313,1.5802 3.3313,3.5295 z"
         style="fill:#ffffff;fill-opacity:1;stroke:#000000;stroke-width:0;stroke-miterlimit:4;stroke-opacity:1" />
      <path
         style="fill:#ffffff;fill-opacity:1;stroke:#000000;stroke-width:0;stroke-miterlimit:4;stroke-opacity:1"
         d="m 2045.6726,1348.7787 c 0,1.9493 -1.4914,3.5296 -3.3313,3.5296 -1.8398,0 -3.3313,-1.5803 -3.3313,-3.5296 0,-1.9493 1.4915,-3.5295 3.3313,-3.5295 1.8399,0 3.3313,1.5802 3.3313,3.5295 z"
         id="path7283"
         inkscape:connector-curvature="0" />
      <path
         inkscape:connector-curvature="0"
         id="path7285"
         d="m 2035.6726,1350.7787 c 0,1.9493 -1.4914,3.5296 -3.3313,3.5296 -1.8398,0 -3.3313,-1.5803 -3.3313,-3.5296 0,-1.9493 1.4915,-3.5295 3.3313,-3.5295 1.8399,0 3.3313,1.5802 3.3313,3.5295 z"
         style="fill:#ffffff;fill-opacity:1;stroke:#000000;stroke-width:0;stroke-miterlimit:4;stroke-opacity:1" />
      <path
         style="fill:#ffffff;fill-opacity:1;stroke:#000000;stroke-width:0;stroke-miterlimit:4;stroke-opacity:1"
         d="m 2035.6726,1368.7787 c 0,1.9493 -1.4914,3.5296 -3.3313,3.5296 -1.8398,0 -3.3313,-1.5803 -3.3313,-3.5296 0,-1.9493 1.4915,-3.5295 3.3313,-3.5295 1.8399,0 3.3313,1.5802 3.3313,3.5295 z"
         id="path7287"
         inkscape:connector-curvature="0" />
      <path
         inkscape:connector-curvature="0"
         id="path7289"
         d="m 2047.6726,1366.7787 c 0,1.9493 -1.4914,3.5296 -3.3313,3.5296 -1.8398,0 -3.3313,-1.5803 -3.3313,-3.5296 0,-1.9493 1.4915,-3.5295 3.3313,-3.5295 1.8399,0 3.3313,1.5802 3.3313,3.5295 z"
         style="fill:#ffffff;fill-opacity:1;stroke:#000000;stroke-width:0;stroke-miterlimit:4;stroke-opacity:1" />
      <path
         style="fill:#ffffff;fill-opacity:1;stroke:#000000;stroke-width:0;stroke-miterlimit:4;stroke-opacity:1"
         d="m 2045.6726,1386.7787 c 0,1.9493 -1.4914,3.5296 -3.3313,3.5296 -1.8398,0 -3.3313,-1.5803 -3.3313,-3.5296 0,-1.9493 1.4915,-3.5295 3.3313,-3.5295 1.8399,0 3.3313,1.5802 3.3313,3.5295 z"
         id="path7291"
         inkscape:connector-curvature="0" />
      <path
         inkscape:connector-curvature="0"
         id="path7293"
         d="m 2035.6726,1386.7787 c 0,1.9493 -1.4914,3.5296 -3.3313,3.5296 -1.8398,0 -3.3313,-1.5803 -3.3313,-3.5296 0,-1.9493 1.4915,-3.5295 3.3313,-3.5295 1.8399,0 3.3313,1.5802 3.3313,3.5295 z"
         style="fill:#ffffff;fill-opacity:1;stroke:#000000;stroke-width:0;stroke-miterlimit:4;stroke-opacity:1" />
      <path
         style="fill:#ffffff;fill-opacity:1;stroke:#000000;stroke-width:0;stroke-miterlimit:4;stroke-opacity:1"
         d="m 2041.6726,1406.7787 c 0,1.9493 -1.4914,3.5296 -3.3313,3.5296 -1.8398,0 -3.3313,-1.5803 -3.3313,-3.5296 0,-1.9493 1.4915,-3.5295 3.3313,-3.5295 1.8399,0 3.3313,1.5802 3.3313,3.5295 z"
         id="path7295"
         inkscape:connector-curvature="0" />
      <path
         inkscape:connector-curvature="0"
         id="path7297"
         d="m 2029.6726,1402.7787 c 0,1.9493 -1.4914,3.5296 -3.3313,3.5296 -1.8398,0 -3.3313,-1.5803 -3.3313,-3.5296 0,-1.9493 1.4915,-3.5295 3.3313,-3.5295 1.8399,0 3.3313,1.5802 3.3313,3.5295 z"
         style="fill:#ffffff;fill-opacity:1;stroke:#000000;stroke-width:0;stroke-miterlimit:4;stroke-opacity:1" />
      <path
         style="fill:#ffffff;fill-opacity:1;stroke:#000000;stroke-width:0;stroke-miterlimit:4;stroke-opacity:1"
         d="m 2023.6726,1418.7787 c 0,1.9493 -1.4914,3.5296 -3.3313,3.5296 -1.8398,0 -3.3313,-1.5803 -3.3313,-3.5296 0,-1.9493 1.4915,-3.5295 3.3313,-3.5295 1.8399,0 3.3313,1.5802 3.3313,3.5295 z"
         id="path7301"
         inkscape:connector-curvature="0" />
      <path
         inkscape:connector-curvature="0"
         id="path7303"
         d="m 2035.6726,1422.7787 c 0,1.9493 -1.4914,3.5296 -3.3313,3.5296 -1.8398,0 -3.3313,-1.5803 -3.3313,-3.5296 0,-1.9493 1.4915,-3.5295 3.3313,-3.5295 1.8399,0 3.3313,1.5802 3.3313,3.5295 z"
         style="fill:#ffffff;fill-opacity:1;stroke:#000000;stroke-width:0;stroke-miterlimit:4;stroke-opacity:1" />
      <path
         style="fill:#ffffff;fill-opacity:1;stroke:#000000;stroke-width:0;stroke-miterlimit:4;stroke-opacity:1"
         d="m 2013.6726,1432.7787 c 0,1.9493 -1.4914,3.5296 -3.3313,3.5296 -1.8398,0 -3.3313,-1.5803 -3.3313,-3.5296 0,-1.9493 1.4915,-3.5295 3.3313,-3.5295 1.8399,0 3.3313,1.5802 3.3313,3.5295 z"
         id="path7305"
         inkscape:connector-curvature="0" />
      <path
         inkscape:connector-curvature="0"
         id="path7307"
         d="m 2023.6726,1438.7787 c 0,1.9493 -1.4914,3.5296 -3.3313,3.5296 -1.8398,0 -3.3313,-1.5803 -3.3313,-3.5296 0,-1.9493 1.4915,-3.5295 3.3313,-3.5295 1.8399,0 3.3313,1.5802 3.3313,3.5295 z"
         style="fill:#ffffff;fill-opacity:1;stroke:#000000;stroke-width:0;stroke-miterlimit:4;stroke-opacity:1" />
      <path
         style="fill:#ffffff;fill-opacity:1;stroke:#000000;stroke-width:0;stroke-miterlimit:4;stroke-opacity:1"
         d="m 1999.6726,1442.7787 c 0,1.9493 -1.4914,3.5296 -3.3313,3.5296 -1.8398,0 -3.3313,-1.5803 -3.3313,-3.5296 0,-1.9493 1.4915,-3.5295 3.3313,-3.5295 1.8399,0 3.3313,1.5802 3.3313,3.5295 z"
         id="path7309"
         inkscape:connector-curvature="0" />
      <path
         inkscape:connector-curvature="0"
         id="path7311"
         d="m 2007.6726,1452.7787 c 0,1.9493 -1.4914,3.5296 -3.3313,3.5296 -1.8398,0 -3.3313,-1.5803 -3.3313,-3.5296 0,-1.9493 1.4915,-3.5295 3.3313,-3.5295 1.8399,0 3.3313,1.5802 3.3313,3.5295 z"
         style="fill:#ffffff;fill-opacity:1;stroke:#000000;stroke-width:0;stroke-miterlimit:4;stroke-opacity:1" />
      <path
         style="fill:#ffffff;fill-opacity:1;stroke:#000000;stroke-width:0;stroke-miterlimit:4;stroke-opacity:1"
         d="m 1981.6726,1450.7787 c 0,1.9493 -1.4914,3.5296 -3.3313,3.5296 -1.8398,0 -3.3313,-1.5803 -3.3313,-3.5296 0,-1.9493 1.4915,-3.5295 3.3313,-3.5295 1.8399,0 3.3313,1.5802 3.3313,3.5295 z"
         id="path7313"
         inkscape:connector-curvature="0" />
      <path
         inkscape:connector-curvature="0"
         id="path7315"
         d="m 1985.6726,1460.7787 c 0,1.9493 -1.4914,3.5296 -3.3313,3.5296 -1.8398,0 -3.3313,-1.5803 -3.3313,-3.5296 0,-1.9493 1.4915,-3.5295 3.3313,-3.5295 1.8399,0 3.3313,1.5802 3.3313,3.5295 z"
         style="fill:#ffffff;fill-opacity:1;stroke:#000000;stroke-width:0;stroke-miterlimit:4;stroke-opacity:1" />
      <path
         style="fill:#ffffff;fill-opacity:1;stroke:#000000;stroke-width:0;stroke-miterlimit:4;stroke-opacity:1"
         d="m 1965.6726,1454.7787 c 0,1.9493 -1.4914,3.5296 -3.3313,3.5296 -1.8398,0 -3.3313,-1.5803 -3.3313,-3.5296 0,-1.9493 1.4915,-3.5295 3.3313,-3.5295 1.8399,0 3.3313,1.5802 3.3313,3.5295 z"
         id="path7317"
         inkscape:connector-curvature="0" />
      <path
         inkscape:connector-curvature="0"
         id="path7319"
         d="m 1965.6726,1464.7787 c 0,1.9493 -1.4914,3.5296 -3.3313,3.5296 -1.8398,0 -3.3313,-1.5803 -3.3313,-3.5296 0,-1.9493 1.4915,-3.5295 3.3313,-3.5295 1.8399,0 3.3313,1.5802 3.3313,3.5295 z"
         style="fill:#ffffff;fill-opacity:1;stroke:#000000;stroke-width:0;stroke-miterlimit:4;stroke-opacity:1" />
      <path
         style="fill:#ffffff;fill-opacity:1;stroke:#000000;stroke-width:0;stroke-miterlimit:4;stroke-opacity:1"
         d="m 1945.6726,1464.7787 c 0,1.9493 -1.4914,3.5296 -3.3313,3.5296 -1.8398,0 -3.3313,-1.5803 -3.3313,-3.5296 0,-1.9493 1.4915,-3.5295 3.3313,-3.5295 1.8399,0 3.3313,1.5802 3.3313,3.5295 z"
         id="path7321"
         inkscape:connector-curvature="0" />
      <path
         inkscape:connector-curvature="0"
         id="path7323"
         d="m 1945.6726,1454.7787 c 0,1.9493 -1.4914,3.5296 -3.3313,3.5296 -1.8398,0 -3.3313,-1.5803 -3.3313,-3.5296 0,-1.9493 1.4915,-3.5295 3.3313,-3.5295 1.8399,0 3.3313,1.5802 3.3313,3.5295 z"
         style="fill:#ffffff;fill-opacity:1;stroke:#000000;stroke-width:0;stroke-miterlimit:4;stroke-opacity:1" />
      <path
         style="fill:#ffffff;fill-opacity:1;stroke:#000000;stroke-width:0;stroke-miterlimit:4;stroke-opacity:1"
         d="m 1927.6726,1452.7787 c 0,1.9493 -1.4914,3.5296 -3.3313,3.5296 -1.8398,0 -3.3313,-1.5803 -3.3313,-3.5296 0,-1.9493 1.4915,-3.5295 3.3313,-3.5295 1.8399,0 3.3313,1.5802 3.3313,3.5295 z"
         id="path7325"
         inkscape:connector-curvature="0" />
      <path
         inkscape:connector-curvature="0"
         id="path7327"
         d="m 1925.6726,1464.7787 c 0,1.9493 -1.4914,3.5296 -3.3313,3.5296 -1.8398,0 -3.3313,-1.5803 -3.3313,-3.5296 0,-1.9493 1.4915,-3.5295 3.3313,-3.5295 1.8399,0 3.3313,1.5802 3.3313,3.5295 z"
         style="fill:#ffffff;fill-opacity:1;stroke:#000000;stroke-width:0;stroke-miterlimit:4;stroke-opacity:1" />
      <path
         style="fill:#ffffff;fill-opacity:1;stroke:#000000;stroke-width:0;stroke-miterlimit:4;stroke-opacity:1"
         d="m 1907.6726,1458.7787 c 0,1.9493 -1.4914,3.5296 -3.3313,3.5296 -1.8398,0 -3.3313,-1.5803 -3.3313,-3.5296 0,-1.9493 1.4915,-3.5295 3.3313,-3.5295 1.8399,0 3.3313,1.5802 3.3313,3.5295 z"
         id="path7329"
         inkscape:connector-curvature="0" />
      <path
         inkscape:connector-curvature="0"
         id="path7331"
         d="m 1911.6726,1446.7787 c 0,1.9493 -1.4914,3.5296 -3.3313,3.5296 -1.8398,0 -3.3313,-1.5803 -3.3313,-3.5296 0,-1.9493 1.4915,-3.5295 3.3313,-3.5295 1.8399,0 3.3313,1.5802 3.3313,3.5295 z"
         style="fill:#ffffff;fill-opacity:1;stroke:#000000;stroke-width:0;stroke-miterlimit:4;stroke-opacity:1" />
      <path
         style="fill:#ffffff;fill-opacity:1;stroke:#000000;stroke-width:0;stroke-miterlimit:4;stroke-opacity:1"
         d="m 1893.6726,1440.7787 c 0,1.9493 -1.4914,3.5296 -3.3313,3.5296 -1.8398,0 -3.3313,-1.5803 -3.3313,-3.5296 0,-1.9493 1.4915,-3.5295 3.3313,-3.5295 1.8399,0 3.3313,1.5802 3.3313,3.5295 z"
         id="path7333"
         inkscape:connector-curvature="0" />
      <path
         inkscape:connector-curvature="0"
         id="path7335"
         d="m 1893.6726,1440.7787 c 0,1.9493 -1.4914,3.5296 -3.3313,3.5296 -1.8398,0 -3.3313,-1.5803 -3.3313,-3.5296 0,-1.9493 1.4915,-3.5295 3.3313,-3.5295 1.8399,0 3.3313,1.5802 3.3313,3.5295 z"
         style="fill:#ffffff;fill-opacity:1;stroke:#000000;stroke-width:0;stroke-miterlimit:4;stroke-opacity:1" />
      <path
         style="fill:#ffffff;fill-opacity:1;stroke:#000000;stroke-width:0;stroke-miterlimit:4;stroke-opacity:1"
         d="m 1889.6726,1450.7787 c 0,1.9493 -1.4914,3.5296 -3.3313,3.5296 -1.8398,0 -3.3313,-1.5803 -3.3313,-3.5296 0,-1.9493 1.4915,-3.5295 3.3313,-3.5295 1.8399,0 3.3313,1.5802 3.3313,3.5295 z"
         id="path7337"
         inkscape:connector-curvature="0" />
      <path
         inkscape:connector-curvature="0"
         id="path7339"
         d="m 1871.6726,1442.7787 c 0,1.9493 -1.4914,3.5296 -3.3313,3.5296 -1.8398,0 -3.3313,-1.5803 -3.3313,-3.5296 0,-1.9493 1.4915,-3.5295 3.3313,-3.5295 1.8399,0 3.3313,1.5802 3.3313,3.5295 z"
         style="fill:#ffffff;fill-opacity:1;stroke:#000000;stroke-width:0;stroke-miterlimit:4;stroke-opacity:1" />
      <path
         style="fill:#ffffff;fill-opacity:1;stroke:#000000;stroke-width:0;stroke-miterlimit:4;stroke-opacity:1"
         d="m 1879.6726,1432.7787 c 0,1.9493 -1.4914,3.5296 -3.3313,3.5296 -1.8398,0 -3.3313,-1.5803 -3.3313,-3.5296 0,-1.9493 1.4915,-3.5295 3.3313,-3.5295 1.8399,0 3.3313,1.5802 3.3313,3.5295 z"
         id="path7341"
         inkscape:connector-curvature="0" />
      <path
         inkscape:connector-curvature="0"
         id="path7343"
         d="m 1879.6726,1432.7787 c 0,1.9493 -1.4914,3.5296 -3.3313,3.5296 -1.8398,0 -3.3313,-1.5803 -3.3313,-3.5296 0,-1.9493 1.4915,-3.5295 3.3313,-3.5295 1.8399,0 3.3313,1.5802 3.3313,3.5295 z"
         style="fill:#ffffff;fill-opacity:1;stroke:#000000;stroke-width:0;stroke-miterlimit:4;stroke-opacity:1" />
    </g>
  </g>
</svg>
