<?xml version="1.0" encoding="UTF-8" standalone="no"?>
<svg
   xmlns:dc="http://purl.org/dc/elements/1.1/"
   xmlns:cc="http://creativecommons.org/ns#"
   xmlns:rdf="http://www.w3.org/1999/02/22-rdf-syntax-ns#"
   xmlns:svg="http://www.w3.org/2000/svg"
   xmlns="http://www.w3.org/2000/svg"
   width="124"
   height="124.4"
   id="svg2990"
   version="1.1">
  <defs
     id="defs2992" />
  <metadata
     id="metadata2995">
    <rdf:RDF>
      <cc:Work
         rdf:about="">
        <dc:format>image/svg+xml</dc:format>
        <dc:type
           rdf:resource="http://purl.org/dc/dcmitype/StillImage" />
        <dc:title></dc:title>
      </cc:Work>
    </rdf:RDF>
  </metadata>
  <path
     id="path3759-8"
     d="M 54,76.084853 54,124 l 16,0 0,-47.915147"
     style="fill:#ffffff;fill-opacity:1;stroke:none;stroke-width:0.80000001;stroke-linecap:butt;stroke-linejoin:miter;stroke-miterlimit:4;stroke-dasharray:none;stroke-opacity:1" />
  <path
     id="path3092"
     d="M 124,38.000005 100,4.9999999e-6 l -76,0 L 0,38.000005 l 24,38 76,0 z"
     style="fill:#ffffff;fill-opacity:1;stroke:none;stroke-width:0.80000001;stroke-linecap:butt;stroke-linejoin:miter;stroke-miterlimit:4;stroke-dasharray:none;stroke-opacity:1" />
  <path
     id="path3092-78"
     d="M 36.75,4.9999999e-6 36.75,24.000005 l 52.625,0 0,-24.0000000000001 -52.625,0 z"
     style="fill:#ff0000;fill-opacity:1;stroke:#000000;stroke-width:0;stroke-linecap:butt;stroke-linejoin:miter;stroke-miterlimit:4;stroke-dasharray:none;stroke-opacity:1" />
  <path
     id="path3092-7"
     d="M 24,4.9999999e-6 18,9.500005 l 28.5,28.5 -28.5,28.5 6,9.5 15.5,0 22.5,-22.5 22.5,22.5 15.5,0 6,-9.5 -28.5,-28.5 28.5,-28.5 -6,-9.5000000000001 -15.5,0 L 62,22.500005 39.5,4.9999999e-6 l -15.5,0 z"
     style="fill:#000000;fill-opacity:1;stroke:#000000;stroke-width:0;stroke-linecap:butt;stroke-linejoin:miter;stroke-miterlimit:4;stroke-dasharray:none;stroke-opacity:1" />
  <path
     id="rect4005"
     d="m 54,92.000005 16.000011,-15.999989 0,15.999988 L 53.999999,108 Z"
     style="fill:#000000;fill-opacity:1;stroke:none" />
  <path
     id="rect4005-2"
     d="m 70,108.025 -16,16 0,0.375 15.625,0 0.375,-0.375 0,-16 z"
     style="fill:#000000;fill-opacity:1;stroke:none" />
</svg>
