<?xml version="1.0" encoding="UTF-8" standalone="no"?>
<svg
   xmlns:dc="http://purl.org/dc/elements/1.1/"
   xmlns:cc="http://creativecommons.org/ns#"
   xmlns:rdf="http://www.w3.org/1999/02/22-rdf-syntax-ns#"
   xmlns:svg="http://www.w3.org/2000/svg"
   xmlns="http://www.w3.org/2000/svg"
   version="1.1"
   id="svg2"
   height="220.00002"
   width="114.00011">
  <defs
     id="defs4" />
  <metadata
     id="metadata7">
    <rdf:RDF>
      <cc:Work
         rdf:about="">
        <dc:format>image/svg+xml</dc:format>
        <dc:type
           rdf:resource="http://purl.org/dc/dcmitype/StillImage" />
        <dc:title></dc:title>
      </cc:Work>
    </rdf:RDF>
  </metadata>
  <path
     style="fill:#ff8000;fill-opacity:1;stroke:none"
     d="m 65,20 -15.999889,-10e-6 0,200.00003 16.000111,0 z"
     id="rect4014-8-6" />
  <path
     style="fill:#ff8000;fill-opacity:1;stroke:none;stroke-width:2;stroke-miterlimit:4;stroke-opacity:1"
     d="m 1.11e-4,0 113.999999,0 0,20 L 1.11e-4,20 Z"
     id="rect3239" />
  <path
     style="fill:#000000;fill-opacity:1;stroke:none;stroke-width:2;stroke-miterlimit:4;stroke-opacity:1"
     d="m 0,0 20.000111,0 0,20 -19.999889,0 z"
     id="rect4014" />
  <path
     style="fill:#000000;fill-opacity:1;stroke:none;stroke-width:2;stroke-miterlimit:4;stroke-opacity:1"
     d="m 91.999996,0 22.000114,0 0,20 -21.999884,0 z"
     id="rect4014-1" />
  <path
     style="fill:none;stroke:none;stroke-width:2;stroke-linecap:butt;stroke-linejoin:miter;stroke-miterlimit:4;stroke-dasharray:none;stroke-opacity:1"
     d="m 49.000111,20 0,200"
     id="path4041" />
  <path
     style="fill:none;stroke:none;stroke-width:2;stroke-linecap:butt;stroke-linejoin:miter;stroke-miterlimit:4;stroke-dasharray:none;stroke-opacity:1"
     d="m 65.000111,20 0,200"
     id="path4043" />
  <path
     style="fill:#000000;fill-opacity:1;stroke:none"
     d="m 49.000111,19.99997 16,6e-5 0,34.99997 -16,0 z"
     id="rect4014-9" />
  <path
     style="fill:#000000;fill-opacity:1;stroke:none"
     d="m 49,90 16.000111,0 0,35 -15.999889,0 z"
     id="rect4014-5" />
  <path
     style="fill:#000000;fill-opacity:1;stroke:none"
     d="m 49,160 16.000111,0 0,35 -15.999889,0 z"
     id="rect4014-8" />
</svg>
