<?xml version="1.0" encoding="UTF-8" standalone="no"?>
<svg
   xmlns:dc="http://purl.org/dc/elements/1.1/"
   xmlns:cc="http://creativecommons.org/ns#"
   xmlns:rdf="http://www.w3.org/1999/02/22-rdf-syntax-ns#"
   xmlns:svg="http://www.w3.org/2000/svg"
   xmlns="http://www.w3.org/2000/svg"
   width="160"
   height="160.00003"
   id="svg2"
   version="1.1">
  <defs
     id="defs3" />
  <metadata
     id="metadata4">
    <rdf:RDF>
      <cc:Work
         rdf:about="">
        <dc:format>image/svg+xml</dc:format>
        <dc:type
           rdf:resource="http://purl.org/dc/dcmitype/StillImage" />
        <dc:title></dc:title>
      </cc:Work>
    </rdf:RDF>
  </metadata>
  <g
     id="layer2"
     style="display:none"
     transform="translate(-1.25,-0.74998)">
    <path
       id="aussenSchwarz"
       d="M 81.250001,8.7499768 153.25,80.749977 81.250001,152.75 9.25,80.749977 81.250001,8.7499768 Z"
       style="display:inline;fill:#000000;fill-opacity:1;fill-rule:nonzero;stroke:none" />
  </g>
  <path
     style="fill:#ffffff;fill-opacity:1;stroke:none;stroke-width:0.5;stroke-linecap:butt;stroke-linejoin:miter;stroke-miterlimit:4;stroke-dasharray:none;stroke-dashoffset:0;stroke-opacity:1"
     d="M 80,0 160,80 80,160.00004 0,80 80,0 Z"
     id="aussenWeiss" />
  <path
     style="fill:#198fd4;fill-opacity:1;fill-rule:nonzero;stroke:none"
     d="m 80,18.00002 62,62 -62,62.00002 -62,-62.00002 62,-62 z"
     id="blauGross" />
  <path
     style="display:inline;fill:#ffffff;fill-opacity:1;fill-rule:nonzero;stroke:none"
     d="m 142,67.00002 0,26 -124,0 0,-26 124,0 z"
     id="weissGross-4-3" />
  <path
     id="aussenSchwarz-3"
     d="m 80,8.00002 -72,72 72,72 72,-72 -72,-72 z m 0,10 62,62 -62,62 -62,-62 62,-62 z"
     style="display:inline;fill:#000000;fill-opacity:1;fill-rule:nonzero;stroke:none" />
</svg>
