<?xml version="1.0" encoding="UTF-8" standalone="no"?>
<svg
   xmlns:dc="http://purl.org/dc/elements/1.1/"
   xmlns:cc="http://creativecommons.org/ns#"
   xmlns:rdf="http://www.w3.org/1999/02/22-rdf-syntax-ns#"
   xmlns:svg="http://www.w3.org/2000/svg"
   xmlns="http://www.w3.org/2000/svg"
   version="1.1"
   id="svg3820"
   height="128"
   width="128">
  <defs
     id="defs3822" />
  <metadata
     id="metadata3825">
    <rdf:RDF>
      <cc:Work
         rdf:about="">
        <dc:format>image/svg+xml</dc:format>
        <dc:type
           rdf:resource="http://purl.org/dc/dcmitype/StillImage" />
        <dc:title></dc:title>
      </cc:Work>
    </rdf:RDF>
  </metadata>
  <rect
     y="62"
     x="2"
     height="28"
     width="124"
     id="rect4358"
     style="fill:#ffffff;fill-opacity:1;stroke:#000000;stroke-width:4;stroke-linejoin:round;stroke-miterlimit:4;stroke-opacity:1;stroke-dasharray:none" />
  <g
     transform="translate(0,64)"
     id="layer1" />
  <path
     d="M 2,63.999997 A 62,62 0 0 1 126,64"
     id="path3832"
     style="fill:#ffffff;fill-opacity:1;stroke:#000000;stroke-width:4;stroke-linejoin:round;stroke-miterlimit:4;stroke-opacity:1;stroke-dasharray:none" />
  <path
     id="path4360"
     d="m 64,92 0,36"
     style="fill:none;stroke:#000000;stroke-width:8;stroke-linecap:butt;stroke-linejoin:miter;stroke-miterlimit:4;stroke-opacity:1;stroke-dasharray:none" />
  <g
     id="text4362"
     style="font-size:80px;font-style:normal;font-weight:normal;line-height:125%;letter-spacing:0px;word-spacing:0px;fill:#000000;fill-opacity:1;stroke:none;font-family:Sans">
    <path
       id="path3010"
       style="font-size:32px;font-variant:normal;font-stretch:normal;font-family:Alte DIN 1451 Mittelschrift;-inkscape-font-specification:Alte DIN 1451 Mittelschrift"
       d="m 51.523437,40.379257 0,-9.9375 -9.03125,0 0,9.9375 -3.453125,0 0,-22.765625 3.453125,0 0,9.75 9.03125,0 0,-9.75 3.453125,0 0,22.765625 -3.453125,0" />
    <path
       id="path3012"
       style="font-size:32px;font-variant:normal;font-stretch:normal;font-family:Alte DIN 1451 Mittelschrift;-inkscape-font-specification:Alte DIN 1451 Mittelschrift"
       d="m 68.101562,40.441757 0,-1.4375 -0.0625,0 c -0.302093,0.562501 -0.755218,0.968751 -1.359375,1.21875 -0.645842,0.270833 -1.489591,0.40625 -2.53125,0.40625 -1.791671,-0.04167 -3.145836,-0.520833 -4.0625,-1.4375 -1.000001,-0.916664 -1.500001,-2.088538 -1.5,-3.515625 -1e-6,-1.35416 0.432291,-2.489576 1.296875,-3.40625 0.86458,-0.916657 2.140621,-1.385407 3.828125,-1.40625 l 4.390625,0 0,-1.71875 c 0.01041,-1.437487 -1.067718,-2.135403 -3.234375,-2.09375 -0.750006,1.4e-5 -1.375006,0.08335 -1.875,0.25 -0.489588,0.218763 -0.859379,0.557304 -1.109375,1.015625 l -2.5,-1.96875 c 1.208331,-1.614568 2.98437,-2.401025 5.328125,-2.359375 1.968741,-0.02082 3.552073,0.3646 4.75,1.15625 1.177071,0.822931 1.776028,2.218763 1.796875,4.1875 l 0,11.109375 -3.15625,0 m 0,-5.703125 0,-1.1875 -3.796875,0 c -1.854171,0.05209 -2.770837,0.70834 -2.75,1.96875 -4e-6,0.541671 0.239579,1.010421 0.71875,1.40625 0.458328,0.427087 1.213536,0.640628 2.265625,0.640625 1.333325,0.02084 2.270824,-0.140622 2.8125,-0.484375 0.49999,-0.343746 0.74999,-1.124995 0.75,-2.34375" />
    <path
       id="path3014"
       style="font-size:32px;font-variant:normal;font-stretch:normal;font-family:Alte DIN 1451 Mittelschrift;-inkscape-font-specification:Alte DIN 1451 Mittelschrift"
       d="m 74.882812,36.457382 0,-18.84375 3.265625,0 0,18.578125 c -5e-6,0.750004 0.406245,1.125003 1.21875,1.125 l 1.109375,0 0,3.0625 -1.4375,0 c -1.187505,0 -2.177087,-0.286458 -2.96875,-0.859375 -0.791669,-0.583332 -1.187502,-1.604164 -1.1875,-3.0625" />
    <path
       id="path3016"
       style="font-size:32px;font-variant:normal;font-stretch:normal;font-family:Alte DIN 1451 Mittelschrift;-inkscape-font-specification:Alte DIN 1451 Mittelschrift"
       d="m 83.320312,40.394882 0,-13.734375 -1.625,0 0,-2.5 1.625,0 0,-2.546875 3.265625,-3.484375 0,6.03125 2.375,0 0,2.5 -2.375,0 0,13.734375 -3.265625,0" />
  </g>
  <g
     id="text4366"
     style="font-size:10px;font-style:normal;font-weight:normal;line-height:114.99999762%;letter-spacing:0px;word-spacing:0px;fill:#000000;fill-opacity:1;stroke:none;font-family:Sans">
    <path
       id="path3019"
       style="font-size:16px;font-variant:normal;font-stretch:normal;text-align:center;text-anchor:middle;font-family:Alte DIN 1451 Mittelschrift;-inkscape-font-specification:Alte DIN 1451 Mittelschrift"
       d="m 56.210937,59.280544 0,-6.859375 -0.820312,0 0,-1.25 0.820312,0 0,-1.070312 c -1e-6,-0.755199 0.208332,-1.309886 0.625,-1.664063 0.416665,-0.359364 0.942706,-0.539051 1.578125,-0.539062 l 1.054688,0 0,1.53125 -0.921875,0 c -0.473962,1e-5 -0.71094,0.223968 -0.710938,0.671875 l 0,1.070312 1.632813,0 0,1.25 -1.632813,0 0,6.859375 -1.625,0" />
    <path
       id="path3021"
       style="font-size:16px;font-variant:normal;font-stretch:normal;text-align:center;text-anchor:middle;font-family:Alte DIN 1451 Mittelschrift;-inkscape-font-specification:Alte DIN 1451 Mittelschrift"
       d="m 60.390625,56.561794 0,-5.390625 1.632812,0 0,4.835938 c -2e-6,0.552086 0.151039,0.981773 0.453125,1.289062 0.307289,0.302085 0.695309,0.453127 1.164063,0.453125 0.45312,2e-6 0.830724,-0.15104 1.132812,-0.453125 0.307286,-0.307289 0.460932,-0.736976 0.460938,-1.289062 l 0,-4.835938 1.632812,0 0,8.109375 -1.632812,0 0,-0.859375 -0.03125,0 c -0.505214,0.635417 -1.20313,0.953125 -2.09375,0.953125 -0.640628,0 -1.255211,-0.236979 -1.84375,-0.710937 -0.583335,-0.479166 -0.875001,-1.179686 -0.875,-2.101563 m 3.695312,-6.648437 0,-1.726563 1.726563,0 0,1.726563 -1.726563,0 m -2.820312,0 0,-1.726563 1.734375,0 0,1.726563 -1.734375,0" />
    <path
       id="path3023"
       style="font-size:16px;font-variant:normal;font-stretch:normal;text-align:center;text-anchor:middle;font-family:Alte DIN 1451 Mittelschrift;-inkscape-font-specification:Alte DIN 1451 Mittelschrift"
       d="m 68.984375,59.280544 0,-8.109375 1.632812,0 0,0.867188 0.03125,0 c 0.505206,-0.640617 1.20833,-0.96093 2.109375,-0.960938 0.593745,8e-6 1.158849,0.208342 1.695313,0.625 l -1.179688,1.40625 c -0.354171,-0.265618 -0.713546,-0.398431 -1.078125,-0.398437 -0.401045,6e-6 -0.765628,0.135423 -1.09375,0.40625 -0.322919,0.265631 -0.484377,0.695318 -0.484375,1.289062 l 0,4.875 -1.632812,0" />
    <path
       id="path3025"
       style="font-size:16px;font-variant:normal;font-stretch:normal;text-align:center;text-anchor:middle;font-family:Alte DIN 1451 Mittelschrift;-inkscape-font-specification:Alte DIN 1451 Mittelschrift"
       d="m 12.640625,77.680544 -3.7578125,-11.382813 1.8203125,0 2.59375,8.664063 0.03125,0 2.59375,-8.664063 1.820312,0 -3.757812,11.382813 -1.34375,0" />
    <path
       id="path3027"
       style="font-size:16px;font-variant:normal;font-stretch:normal;text-align:center;text-anchor:middle;font-family:Alte DIN 1451 Mittelschrift;-inkscape-font-specification:Alte DIN 1451 Mittelschrift"
       d="m 25.070312,74.243044 -5.046875,0 c -2e-6,0.666669 0.179686,1.166669 0.539063,1.5 0.36458,0.333335 0.828121,0.500001 1.390625,0.5 0.67187,10e-7 1.26562,-0.260415 1.78125,-0.78125 l 1.179687,1.007812 c -0.401048,0.468751 -0.854172,0.804688 -1.359375,1.007813 -0.500005,0.197917 -1.023442,0.296875 -1.570312,0.296875 -0.833337,0 -1.640628,-0.268229 -2.421875,-0.804688 -0.781251,-0.541665 -1.171876,-1.645831 -1.171875,-3.3125 -1e-6,-1.578119 0.359374,-2.669264 1.078125,-3.273437 0.723956,-0.604159 1.479163,-0.906242 2.265625,-0.90625 0.89062,8e-6 1.669265,0.309904 2.335937,0.929687 0.66666,0.61459 0.999993,1.445319 1,2.492188 l 0,1.34375 m -5.046875,-1.34375 3.421875,0 c -0.02605,-0.60937 -0.197922,-1.075515 -0.515625,-1.398438 -0.317713,-0.32291 -0.71615,-0.484368 -1.195312,-0.484375 -0.484378,7e-6 -0.888024,0.161465 -1.210938,0.484375 -0.31771,0.322923 -0.484377,0.789068 -0.5,1.398438" />
    <path
       id="path3029"
       style="font-size:16px;font-variant:normal;font-stretch:normal;text-align:center;text-anchor:middle;font-family:Alte DIN 1451 Mittelschrift;-inkscape-font-specification:Alte DIN 1451 Mittelschrift"
       d="m 26.796875,77.680544 0,-8.109375 1.632812,0 0,0.867187 0.03125,0 c 0.505206,-0.640617 1.20833,-0.960929 2.109375,-0.960937 0.593745,8e-6 1.158849,0.208341 1.695313,0.625 l -1.179688,1.40625 c -0.354171,-0.265619 -0.713546,-0.398431 -1.078125,-0.398438 -0.401045,7e-6 -0.765628,0.135423 -1.09375,0.40625 -0.322919,0.265631 -0.484377,0.695318 -0.484375,1.289063 l 0,4.875 -1.632812,0" />
    <path
       id="path3031"
       style="font-size:16px;font-variant:normal;font-stretch:normal;text-align:center;text-anchor:middle;font-family:Alte DIN 1451 Mittelschrift;-inkscape-font-specification:Alte DIN 1451 Mittelschrift"
       d="m 32.117187,76.328981 1.140625,-1.125 c 0.708332,0.692711 1.559893,1.039064 2.554688,1.039063 0.463537,10e-7 0.846349,-0.08594 1.148437,-0.257813 0.302079,-0.177081 0.45312,-0.437497 0.453125,-0.78125 -5e-6,-0.473955 -0.330734,-0.73958 -0.992187,-0.796875 l -1.4375,-0.132812 c -0.671877,-0.05208 -1.229168,-0.273434 -1.671875,-0.664063 -0.442709,-0.39062 -0.664063,-0.93489 -0.664063,-1.632812 0,-0.82291 0.289062,-1.445305 0.867188,-1.867188 0.578123,-0.421867 1.296872,-0.632804 2.15625,-0.632812 0.708329,8e-6 1.315099,0.10157 1.820312,0.304687 0.505203,0.197925 0.958327,0.463549 1.359375,0.796875 l -1.007812,1.1875 c -0.322922,-0.218743 -0.656255,-0.398431 -1,-0.539062 -0.343755,-0.140619 -0.734379,-0.210931 -1.171875,-0.210938 -0.520837,7e-6 -0.882815,0.09376 -1.085938,0.28125 -0.203127,0.182298 -0.304689,0.414069 -0.304687,0.695313 -2e-6,0.177089 0.07552,0.341151 0.226562,0.492187 0.151039,0.151047 0.432289,0.242193 0.84375,0.273438 l 1.34375,0.09375 c 0.838537,0.0573 1.440098,0.317713 1.804688,0.78125 0.364576,0.458337 0.546868,1.007815 0.546875,1.648437 -7e-6,0.796877 -0.325528,1.41146 -0.976563,1.84375 -0.651047,0.432292 -1.445317,0.648438 -2.382812,0.648438 -1.348961,0 -2.539064,-0.481771 -3.570313,-1.445313" />
    <path
       id="path3033"
       style="font-size:16px;font-variant:normal;font-stretch:normal;text-align:center;text-anchor:middle;font-family:Alte DIN 1451 Mittelschrift;-inkscape-font-specification:Alte DIN 1451 Mittelschrift"
       d="m 45.46875,75.297731 1.203125,1.078125 c -0.354173,0.406251 -0.776048,0.742188 -1.265625,1.007813 -0.48438,0.260417 -1.033859,0.390625 -1.648438,0.390625 -0.937503,0 -1.78646,-0.317708 -2.546875,-0.953125 -0.755209,-0.640624 -1.132812,-1.703123 -1.132812,-3.1875 0,-1.48437 0.377603,-2.546869 1.132812,-3.1875 0.760415,-0.645826 1.609372,-0.968742 2.546875,-0.96875 0.614579,8e-6 1.164058,0.13282 1.648438,0.398437 0.489577,0.265633 0.911452,0.60157 1.265625,1.007813 l -1.203125,1.070312 c -0.458339,-0.562493 -1.007817,-0.843743 -1.648438,-0.84375 -1.406252,7e-6 -2.109377,0.841152 -2.109375,2.523438 -2e-6,1.677086 0.703123,2.515626 2.109375,2.515625 0.645829,10e-7 1.195308,-0.283852 1.648438,-0.851563" />
    <path
       id="path3035"
       style="font-size:16px;font-variant:normal;font-stretch:normal;text-align:center;text-anchor:middle;font-family:Alte DIN 1451 Mittelschrift;-inkscape-font-specification:Alte DIN 1451 Mittelschrift"
       d="m 47.796875,77.680544 0,-11.382813 1.632812,0 0,4.140625 0.03125,0 c 0.505206,-0.640617 1.20833,-0.960929 2.109375,-0.960937 0.630203,8e-6 1.236974,0.239591 1.820313,0.71875 0.588534,0.479174 0.882805,1.17709 0.882812,2.09375 l 0,5.390625 -1.632812,0 0,-4.828125 c -6e-6,-0.54687 -0.153652,-0.973953 -0.460938,-1.28125 -0.302088,-0.307285 -0.679692,-0.460931 -1.132812,-0.460938 -0.468754,7e-6 -0.856774,0.153653 -1.164063,0.460938 -0.302086,0.307297 -0.453127,0.73438 -0.453125,1.28125 l 0,4.828125 -1.632812,0" />
    <path
       id="path3037"
       style="font-size:16px;font-variant:normal;font-stretch:normal;text-align:center;text-anchor:middle;font-family:Alte DIN 1451 Mittelschrift;-inkscape-font-specification:Alte DIN 1451 Mittelschrift"
       d="m 56.390625,74.961794 0,-5.390625 1.632812,0 0,4.835937 c -2e-6,0.552086 0.151039,0.981774 0.453125,1.289063 0.307289,0.302085 0.695309,0.453126 1.164063,0.453125 0.45312,10e-7 0.830724,-0.15104 1.132812,-0.453125 0.307286,-0.307289 0.460932,-0.736977 0.460938,-1.289063 l 0,-4.835937 1.632812,0 0,8.109375 -1.632812,0 0,-0.859375 -0.03125,0 c -0.505214,0.635417 -1.20313,0.953125 -2.09375,0.953125 -0.640628,0 -1.255211,-0.236979 -1.84375,-0.710938 -0.583335,-0.479165 -0.875001,-1.179685 -0.875,-2.101562" />
    <path
       id="path3039"
       style="font-size:16px;font-variant:normal;font-stretch:normal;text-align:center;text-anchor:middle;font-family:Alte DIN 1451 Mittelschrift;-inkscape-font-specification:Alte DIN 1451 Mittelschrift"
       d="m 64.984375,77.680544 0,-11.382813 1.632812,0 0,4.140625 c 0.302081,-0.28645 0.619789,-0.518221 0.953125,-0.695312 0.338538,-0.177075 0.718746,-0.265617 1.140625,-0.265625 0.494787,8e-6 0.92187,0.10157 1.28125,0.304687 0.359369,0.197925 0.656244,0.447925 0.890625,0.75 0.223952,0.291674 0.374993,0.632819 0.453125,1.023438 0.08333,0.385422 0.124993,1.072922 0.125,2.0625 -7e-6,1.000003 -0.04167,1.697919 -0.125,2.09375 -0.07813,0.390626 -0.229173,0.729168 -0.453125,1.015625 -0.234381,0.307292 -0.531256,0.559896 -0.890625,0.757812 -0.35938,0.192709 -0.786463,0.289063 -1.28125,0.289063 -0.833337,0 -1.531253,-0.3125 -2.09375,-0.9375 l 0,0.84375 -1.632812,0 m 3.234375,-6.570313 c -0.765629,7e-6 -1.223961,0.273444 -1.375,0.820313 -0.151044,0.54688 -0.226565,1.10938 -0.226563,1.6875 -2e-6,0.593753 0.07552,1.164065 0.226563,1.710937 0.151039,0.546877 0.609371,0.820314 1.375,0.820313 0.76562,10e-7 1.223953,-0.263019 1.375,-0.789063 0.156244,-0.526038 0.234369,-1.106767 0.234375,-1.742187 -6e-6,-0.619787 -0.07813,-1.192703 -0.234375,-1.71875 -0.151047,-0.526035 -0.60938,-0.789056 -1.375,-0.789063" />
    <path
       id="path3041"
       style="font-size:16px;font-variant:normal;font-stretch:normal;text-align:center;text-anchor:middle;font-family:Alte DIN 1451 Mittelschrift;-inkscape-font-specification:Alte DIN 1451 Mittelschrift"
       d="m 73.554687,77.680544 0,-6.859375 -0.820312,0 0,-1.25 0.820312,0 0,-1.070313 c -10e-7,-0.755198 0.208332,-1.309885 0.625,-1.664062 0.416665,-0.359364 0.942706,-0.539051 1.578125,-0.539063 l 1.054688,0 0,1.53125 -0.921875,0 c -0.473962,1e-5 -0.71094,0.223968 -0.710938,0.671875 l 0,1.070313 1.632813,0 0,1.25 -1.632813,0 0,6.859375 -1.625,0" />
    <path
       id="path3043"
       style="font-size:16px;font-variant:normal;font-stretch:normal;text-align:center;text-anchor:middle;font-family:Alte DIN 1451 Mittelschrift;-inkscape-font-specification:Alte DIN 1451 Mittelschrift"
       d="m 82.03125,77.711794 0,-0.71875 -0.03125,0 c -0.151047,0.28125 -0.377609,0.484375 -0.679688,0.609375 -0.32292,0.135417 -0.744795,0.203125 -1.265625,0.203125 -0.895835,-0.02083 -1.572918,-0.260417 -2.03125,-0.71875 -0.5,-0.458332 -0.75,-1.044269 -0.75,-1.757813 0,-0.67708 0.216146,-1.244788 0.648438,-1.703125 0.43229,-0.458328 1.07031,-0.692703 1.914062,-0.703125 l 2.195313,0 0,-0.859375 c 0.0052,-0.718743 -0.533859,-1.067701 -1.617188,-1.046875 -0.375003,7e-6 -0.687503,0.04167 -0.9375,0.125 -0.244794,0.109382 -0.429689,0.278652 -0.554687,0.507813 l -1.25,-0.984375 c 0.604165,-0.807284 1.492185,-1.200513 2.664062,-1.179688 0.984371,-0.01041 1.776037,0.1823 2.375,0.578125 0.588536,0.411466 0.888014,1.109382 0.898438,2.09375 l 0,5.554688 -1.578125,0 m 0,-2.851563 0,-0.59375 -1.898438,0 c -0.927085,0.02604 -1.385418,0.35417 -1.375,0.984375 -2e-6,0.270836 0.11979,0.505211 0.359375,0.703125 0.229164,0.213544 0.606768,0.320314 1.132813,0.320313 0.666662,0.01042 1.135412,-0.07031 1.40625,-0.242188 0.249995,-0.171873 0.374995,-0.562497 0.375,-1.171875" />
    <path
       id="path3045"
       style="font-size:16px;font-variant:normal;font-stretch:normal;text-align:center;text-anchor:middle;font-family:Alte DIN 1451 Mittelschrift;-inkscape-font-specification:Alte DIN 1451 Mittelschrift"
       d="m 85.421875,77.680544 0,-11.382813 1.632812,0 0,4.140625 0.03125,0 c 0.505206,-0.640617 1.20833,-0.960929 2.109375,-0.960937 0.630203,8e-6 1.236974,0.239591 1.820313,0.71875 0.588534,0.479174 0.882805,1.17709 0.882812,2.09375 l 0,5.390625 -1.632812,0 0,-4.828125 c -6e-6,-0.54687 -0.153652,-0.973953 -0.460938,-1.28125 -0.302088,-0.307285 -0.679692,-0.460931 -1.132812,-0.460938 -0.468754,7e-6 -0.856774,0.153653 -1.164063,0.460938 -0.302086,0.307297 -0.453127,0.73438 -0.453125,1.28125 l 0,4.828125 -1.632812,0" />
    <path
       id="path3047"
       style="font-size:16px;font-variant:normal;font-stretch:normal;text-align:center;text-anchor:middle;font-family:Alte DIN 1451 Mittelschrift;-inkscape-font-specification:Alte DIN 1451 Mittelschrift"
       d="m 94.015625,77.680544 0,-8.109375 1.632812,0 0,0.867187 0.03125,0 c 0.505206,-0.640617 1.20833,-0.960929 2.109375,-0.960937 0.593745,8e-6 1.158849,0.208341 1.695313,0.625 l -1.179688,1.40625 c -0.354171,-0.265619 -0.713546,-0.398431 -1.078125,-0.398438 -0.401045,7e-6 -0.765628,0.135423 -1.09375,0.40625 -0.322919,0.265631 -0.484377,0.695318 -0.484375,1.289063 l 0,4.875 -1.632812,0" />
    <path
       id="path3049"
       style="font-size:16px;font-variant:normal;font-stretch:normal;text-align:center;text-anchor:middle;font-family:Alte DIN 1451 Mittelschrift;-inkscape-font-specification:Alte DIN 1451 Mittelschrift"
       d="m 100.32813,77.688356 0,-6.867187 -0.812505,0 0,-1.25 0.812505,0 0,-1.273438 1.63281,-1.742187 0,3.015625 1.1875,0 0,1.25 -1.1875,0 0,6.867187 -1.63281,0" />
    <path
       id="path3051"
       style="font-size:16px;font-variant:normal;font-stretch:normal;text-align:center;text-anchor:middle;font-family:Alte DIN 1451 Mittelschrift;-inkscape-font-specification:Alte DIN 1451 Mittelschrift"
       d="m 110.91406,74.243044 -5.04687,0 c 0,0.666669 0.17968,1.166669 0.53906,1.5 0.36458,0.333335 0.82812,0.500001 1.39063,0.5 0.67187,10e-7 1.26561,-0.260415 1.78125,-0.78125 l 1.17968,1.007812 c -0.40105,0.468751 -0.85417,0.804688 -1.35937,1.007813 -0.50001,0.197917 -1.02344,0.296875 -1.57031,0.296875 -0.83334,0 -1.64063,-0.268229 -2.42188,-0.804688 -0.78125,-0.541665 -1.17188,-1.645831 -1.17187,-3.3125 -1e-5,-1.578119 0.35937,-2.669264 1.07812,-3.273437 0.72396,-0.604159 1.47916,-0.906242 2.26563,-0.90625 0.89062,8e-6 1.66926,0.309904 2.33593,0.929687 0.66666,0.61459 1,1.445319 1,2.492188 l 0,1.34375 m -5.04687,-1.34375 3.42187,0 c -0.026,-0.60937 -0.19792,-1.075515 -0.51562,-1.398438 -0.31772,-0.32291 -0.71615,-0.484368 -1.19531,-0.484375 -0.48438,7e-6 -0.88803,0.161465 -1.21094,0.484375 -0.31771,0.322923 -0.48438,0.789068 -0.5,1.398438" />
    <path
       id="path3053"
       style="font-size:16px;font-variant:normal;font-stretch:normal;text-align:center;text-anchor:middle;font-family:Alte DIN 1451 Mittelschrift;-inkscape-font-specification:Alte DIN 1451 Mittelschrift"
       d="m 112.64063,77.680544 0,-8.109375 1.63281,0 0,0.867187 0.0312,0 c 0.5052,-0.640617 1.20833,-0.960929 2.10937,-0.960937 0.63021,8e-6 1.23698,0.239591 1.82032,0.71875 0.58853,0.479174 0.8828,1.17709 0.88281,2.09375 l 0,5.390625 -1.63281,0 0,-4.828125 c -1e-5,-0.54687 -0.15366,-0.973953 -0.46094,-1.28125 -0.30209,-0.307285 -0.67969,-0.460931 -1.13281,-0.460938 -0.46876,7e-6 -0.85678,0.153653 -1.16407,0.460938 -0.30208,0.307297 -0.45313,0.73438 -0.45312,1.28125 l 0,4.828125 -1.63281,0" />
  </g>
</svg>
