<?xml version="1.0" encoding="UTF-8" standalone="no"?>
<!DOCTYPE svg PUBLIC "-//W3C//DTD SVG 1.0//EN" "http://www.w3.org/TR/2001/REC-SVG-20010904/DTD/svg10.dtd">
<!-- Created with Inkscape (http://www.inkscape.org/) -->

<svg
   xmlns:svg="http://www.w3.org/2000/svg"
   xmlns="http://www.w3.org/2000/svg"
   xmlns:xlink="http://www.w3.org/1999/xlink"
   version="1.0"
   width="69.150002"
   height="111.65"
   id="svg1901">
  <defs
     id="defs1903">
    <linearGradient
       id="linearGradient7192">
      <stop
         id="stop7194"
         style="stop-color:#ff0707;stop-opacity:0.47450981"
         offset="0" />
      <stop
         id="stop7196"
         style="stop-color:#ff0707;stop-opacity:0"
         offset="1" />
    </linearGradient>
    <radialGradient
       cx="556.8454"
       cy="555.15686"
       r="37.892914"
       fx="556.8454"
       fy="555.15686"
       id="radialGradient7316"
       xlink:href="#linearGradient7192"
       gradientUnits="userSpaceOnUse" />
    <radialGradient
       cx="118.92857"
       cy="53.75"
       r="10"
       fx="118.92857"
       fy="53.75"
       id="radialGradient3778"
       xlink:href="#linearGradient3510"
       gradientUnits="userSpaceOnUse" />
    <radialGradient
       cx="118.92857"
       cy="53.75"
       r="10"
       fx="118.92857"
       fy="53.75"
       id="radialGradient3788"
       xlink:href="#linearGradient3510"
       gradientUnits="userSpaceOnUse" />
    <radialGradient
       cx="237.32271"
       cy="104.57821"
       r="2.7141504"
       fx="237.32271"
       fy="104.57821"
       id="radialGradient3784"
       xlink:href="#linearGradient3566"
       gradientUnits="userSpaceOnUse" />
    <linearGradient
       id="linearGradient3798">
      <stop
         id="stop3800"
         style="stop-color:#ffd1d1;stop-opacity:1"
         offset="0" />
      <stop
         id="stop3802"
         style="stop-color:#fb0d0d;stop-opacity:0"
         offset="1" />
    </linearGradient>
    <radialGradient
       cx="237.32271"
       cy="104.57821"
       r="2.6516504"
       fx="237.32271"
       fy="104.57821"
       id="radialGradient3804"
       xlink:href="#linearGradient3798"
       gradientUnits="userSpaceOnUse" />
    <linearGradient
       id="linearGradient3510">
      <stop
         id="stop3512"
         style="stop-color:#434343;stop-opacity:1"
         offset="0" />
      <stop
         id="stop3518"
         style="stop-color:#242424;stop-opacity:1"
         offset="0.5" />
      <stop
         id="stop3514"
         style="stop-color:#313131;stop-opacity:1"
         offset="1" />
    </linearGradient>
    <linearGradient
       id="linearGradient3566">
      <stop
         id="stop3568"
         style="stop-color:#000000;stop-opacity:0"
         offset="0" />
      <stop
         id="stop3572"
         style="stop-color:#000000;stop-opacity:0"
         offset="0.63157892" />
      <stop
         id="stop3570"
         style="stop-color:#000000;stop-opacity:0.73728812"
         offset="1" />
    </linearGradient>
    <filter
       x="-0.066416569"
       y="-0.16082273"
       width="1.1328331"
       height="1.3216455"
       color-interpolation-filters="sRGB"
       id="filter3494">
      <feGaussianBlur
         stdDeviation="0.20238938"
         id="feGaussianBlur3496" />
    </filter>
    <radialGradient
       cx="556.8454"
       cy="555.15686"
       r="37.892914"
       fx="556.8454"
       fy="555.15686"
       id="radialGradient10505"
       xlink:href="#linearGradient7192"
       gradientUnits="userSpaceOnUse"
       gradientTransform="translate(-535.88473,-497.80256)" />
    <radialGradient
       cx="118.92857"
       cy="53.75"
       r="10"
       fx="118.92857"
       fy="53.75"
       id="radialGradient10531"
       xlink:href="#linearGradient3510"
       gradientUnits="userSpaceOnUse"
       gradientTransform="translate(-97.16792,-30.40223)" />
    <radialGradient
       cx="118.92857"
       cy="53.75"
       r="10"
       fx="118.92857"
       fy="53.75"
       id="radialGradient10534"
       xlink:href="#linearGradient3510"
       gradientUnits="userSpaceOnUse"
       gradientTransform="translate(-97.16792,39.09622)" />
  </defs>
  <path
     d="m 6.83686,109.16497 56.02679,0 4.0625,-4.0625 0,-98.52678 -4.06249,-4.0625 -56.02679,0 -4.0625,4.0625 0,98.52678 4.06249,4.0625 z"
     id="path3726"
     style="fill:#1b1b1b;fill-opacity:1;fill-rule:evenodd;stroke:#d7d7d7;stroke-width:2;stroke-linecap:butt;stroke-linejoin:miter;stroke-miterlimit:4;stroke-opacity:1;stroke-dasharray:none;stroke-dashoffset:0" />
  <path
     d="m 31.76065,92.84622 a 10,10 0 0 1 -20,0 10,10 0 1 1 20,0 z"
     id="path3728"
     style="fill:url(#radialGradient10534);fill-opacity:1;fill-rule:evenodd;stroke:#0e0e0e;stroke-width:0.5;stroke-linecap:butt;stroke-linejoin:miter;stroke-miterlimit:4;stroke-opacity:1;stroke-dasharray:none;stroke-dashoffset:0" />
  <path
     d="m 31.76065,23.34777 a 10,10 0 0 1 -20,0 10,10 0 1 1 20,0 z"
     id="path3786"
     style="fill:url(#radialGradient10531);fill-opacity:1;fill-rule:evenodd;stroke:#0e0e0e;stroke-width:0.5;stroke-linecap:butt;stroke-linejoin:miter;stroke-miterlimit:4;stroke-opacity:1;stroke-dasharray:none;stroke-dashoffset:0" />
  <path
     d="m 7.90798,19.73924 28.66071,7.52232 C 37.54711,2.39012 11.50904,1.70742 7.90798,19.73924 z"
     id="path3730"
     style="fill:#000000;fill-opacity:0.40384617;fill-rule:evenodd;stroke:none" />
  <path
     d="m 7.90798,88.98163 28.66071,7.52232 C 37.54711,71.63251 11.50904,70.94981 7.90798,88.98163 z"
     id="path3732"
     style="fill:#000000;fill-opacity:0.40384617;fill-rule:evenodd;stroke:none" />
  <rect
     width="23.392857"
     height="27.5"
     rx="1.1607141"
     ry="1.1607141"
     x="40.332062"
     y="73.776245"
     id="rect3734"
     style="fill:#d7d7d7;fill-opacity:1;fill-rule:evenodd;stroke:none" />
  <path
     d="m 7.90798,54.35663 4.10775,1.07812 c 0.53271,-1.51781 19.38046,3.03559 19.22719,5.04639 l 5.32577,1.39781 C 37.54711,37.00751 11.50904,36.32481 7.90798,54.35663 z"
     id="path3738"
     style="fill:#000000;fill-opacity:0.40384617;fill-rule:evenodd;stroke:none" />
  <path
     d="m 6.87779,96.96865 29.77652,0 c 0,-16.50076 -9.00772,-20.89675 -14.87677,-20.89675 -5.86905,0 -14.89975,4.44042 -14.89975,20.89675 z m 0.26786,0 29.33009,0 c 0,-16.50076 -8.85088,-19.82533 -14.6982,-19.82533 -5.89078,0 -14.63189,3.369 -14.63189,19.82533 z"
     id="path3740"
     style="fill:#8f8f8f;fill-opacity:1;fill-rule:evenodd;stroke:none" />
  <path
     d="m 6.87779,61.96865 29.77652,0 c 0,-16.50076 -9.00772,-20.89675 -14.87677,-20.89675 -5.86905,0 -14.89975,4.44042 -14.89975,20.89675 z m 0.26786,0 29.33009,0 c 0,-16.50076 -8.85088,-19.82533 -14.6982,-19.82533 -5.89078,0 -14.63189,3.369 -14.63189,19.82533 z"
     id="path3742"
     style="fill:#8f8f8f;fill-opacity:1;fill-rule:evenodd;stroke:none" />
  <path
     d="m 6.87779,27.32579 29.77652,0 c 0,-16.50076 -9.00772,-20.89675 -14.87677,-20.89675 -5.86905,0 -14.89975,4.44042 -14.89975,20.89675 z m 0.26786,0 29.33009,0 c 0,-16.50076 -8.85088,-19.82533 -14.6982,-19.82533 -5.89078,0 -14.63189,3.369 -14.63189,19.82533 z"
     id="path3744"
     style="fill:#8f8f8f;fill-opacity:1;fill-rule:evenodd;stroke:none" />
  <text
     x="51.792725"
     y="85.604401"
     id="text3746"
     xml:space="preserve"
     style="font-size:11px;font-style:normal;font-variant:normal;font-weight:normal;font-stretch:semi-condensed;text-align:center;line-height:100%;writing-mode:lr-tb;text-anchor:middle;fill:#000000;fill-opacity:1;stroke:none;font-family:DejaVu Sans;-inkscape-font-specification:DejaVu Sans Semi-Condensed"><tspan
       x="51.792725"
       y="85.604401"
       id="tspan3748">E</tspan><tspan
       x="51.792725"
       y="96.604401"
       id="tspan3750">703</tspan></text>
  <path
     d="m 42.216016,75.204846 a 0.4910715,0.4910715 0 1 1 -0.982143,0 0.4910715,0.4910715 0 1 1 0.982143,0 z"
     id="path3752"
     style="fill:#000000;fill-opacity:1;fill-rule:evenodd;stroke:none" />
  <path
     d="m 62.751726,75.204846 a 0.4910715,0.4910715 0 1 1 -0.982143,0 0.4910715,0.4910715 0 1 1 0.982143,0 z"
     id="path3754"
     style="fill:#000000;fill-opacity:1;fill-rule:evenodd;stroke:none" />
  <path
     d="m 42.216016,99.981626 a 0.4910715,0.4910715 0 1 1 -0.982143,0 0.4910715,0.4910715 0 1 1 0.982143,0 z"
     id="path3756"
     style="fill:#000000;fill-opacity:1;fill-rule:evenodd;stroke:none" />
  <path
     d="m 62.751726,99.981626 a 0.4910715,0.4910715 0 1 1 -0.982143,0 0.4910715,0.4910715 0 1 1 0.982143,0 z"
     id="path3758"
     style="fill:#000000;fill-opacity:1;fill-rule:evenodd;stroke:none" />
  <g
     transform="translate(-95.59649,-54.65733)"
     id="g3806">
    <path
       d="m 239.97436,104.57821 a 2.6516504,2.6516504 0 1 1 -5.3033,0 2.6516504,2.6516504 0 1 1 5.3033,0 z"
       transform="matrix(3.7666188,0,0,3.7666188,-776.52827,-282.10499)"
       id="path3762"
       style="fill:#d51212;fill-opacity:1;fill-rule:evenodd;stroke:#000000;stroke-width:0.03361619;stroke-linecap:butt;stroke-linejoin:miter;stroke-miterlimit:4;stroke-opacity:1;stroke-dasharray:none;stroke-dashoffset:0" />
    <path
       d="m 239.97436,104.57821 a 2.6516504,2.6516504 0 1 1 -5.3033,0 2.6516504,2.6516504 0 1 1 5.3033,0 z"
       transform="matrix(1.8618569,0,0,1.8618569,-324.48502,-82.908405)"
       id="path3764"
       style="opacity:0.66197181;fill:url(#radialGradient3804);fill-opacity:1;fill-rule:evenodd;stroke:none" />
    <path
       d="m 125.15839,114.39638 c -0.85591,2.56551 -2.94576,4.56832 -5.56417,5.30302"
       id="path3766"
       style="fill:none;stroke:#000000;stroke-width:0.12661938;stroke-linecap:butt;stroke-linejoin:miter;stroke-miterlimit:4;stroke-opacity:1;stroke-dashoffset:0" />
    <path
       d="m 123.98584,113.96003 c -0.7218,2.2093 -2.5211,3.93272 -4.77604,4.54852"
       id="path3768"
       style="fill:none;stroke:#000000;stroke-width:0.12661938;stroke-linecap:butt;stroke-linejoin:miter;stroke-miterlimit:4;stroke-opacity:1;stroke-dashoffset:0" />
    <path
       d="M 117.1875,111.72343 115,102.12521 c -1.42132,0.51984 -2.82009,0.90797 -4.51451,2.55023 l 6.70201,7.04799 z"
       id="path3770"
       style="opacity:0.21126763;fill:#a32424;fill-opacity:1;fill-rule:evenodd;stroke:none" />
    <path
       d="m 117.36607,111.85735 2.54465,9.55358 c 3.63017,-1.0452 5.83383,-3.38958 6.96428,-6.69644 l -9.50893,-2.85714 z"
       id="path3772"
       style="opacity:0.34272299;fill:#d46565;fill-opacity:1;fill-rule:evenodd;stroke:none" />
    <path
       d="m 119.35751,110.51566 6.53666,-2.42209"
       id="path3774"
       style="opacity:0.45539904;fill:none;stroke:#ffffff;stroke-width:1;stroke-linecap:round;stroke-linejoin:miter;stroke-miterlimit:4;stroke-opacity:1;stroke-dasharray:none;stroke-dashoffset:0;filter:url(#filter3494)" />
    <path
       d="m 239.97436,104.57821 a 2.6516504,2.6516504 0 1 1 -5.3033,0 2.6516504,2.6516504 0 1 1 5.3033,0 z"
       transform="matrix(3.7666188,0,0,3.7666188,-776.402,-282.10499)"
       id="path3776"
       style="fill:url(#radialGradient3784);fill-opacity:1;fill-rule:evenodd;stroke:#000000;stroke-width:0.03361619;stroke-linecap:butt;stroke-linejoin:miter;stroke-miterlimit:4;stroke-opacity:1;stroke-dasharray:none;stroke-dashoffset:0" />
  </g>
  <path
     d="m 58.85358,57.3543 a 37.892915,37.892915 0 0 1 -75.78583,0 37.892915,37.892915 0 1 1 75.78583,0 z"
     id="path7314"
     style="opacity:0.62441311;fill:url(#radialGradient10505);fill-opacity:1;fill-rule:evenodd;stroke:none" />
</svg>
