<?xml version="1.0" encoding="UTF-8" standalone="no"?>
<!-- Created with Inkscape (http://www.inkscape.org/) -->

<svg
   xmlns:dc="http://purl.org/dc/elements/1.1/"
   xmlns:cc="http://creativecommons.org/ns#"
   xmlns:rdf="http://www.w3.org/1999/02/22-rdf-syntax-ns#"
   xmlns:svg="http://www.w3.org/2000/svg"
   xmlns="http://www.w3.org/2000/svg"
   version="1.1"
   width="270.08646"
   height="1635.1589"
   id="svg3045">
  <metadata
     id="metadata3051">
    <rdf:RDF>
      <cc:Work
         rdf:about="">
        <dc:format>image/svg+xml</dc:format>
        <dc:type
           rdf:resource="http://purl.org/dc/dcmitype/StillImage" />
        <dc:title></dc:title>
      </cc:Work>
    </rdf:RDF>
  </metadata>
  <defs
     id="defs3049">
    <filter
       color-interpolation-filters="sRGB"
       id="filter3005">
      <feGaussianBlur
         id="feGaussianBlur3007"
         stdDeviation="3" />
    </filter>
  </defs>
  <g
     transform="matrix(0.18055707,0,0,1.7406189,105.04894,-2370.4917)"
     id="g4050"
     style="fill:#626262;fill-opacity:1">
    <path
       d="m 31.077636,1693.8467 270.086464,0 0,607.4328 -270.086464,0 z"
       id="path4052"
       style="fill:#626262;fill-opacity:1;stroke:none" />
  </g>
  <g
     transform="translate(-31.077636,-1693.8467)"
     id="layer1"
     style="fill:#000000;fill-opacity:1">
    <path
       d="m 31.077636,1693.8467 270.086464,0 0,607.4328 -270.086464,0 z"
       id="rect2982"
       style="fill:#000000;fill-opacity:1;stroke:none" />
  </g>
  <path
     d="m 196.22733,460.6362 a 61.1841,61.1841 0 0 1 -122.368198,0 61.1841,61.1841 0 1 1 122.368198,0 z"
     id="path3964"
     style="fill:#ffb500;fill-opacity:1;stroke:none" />
  <path
     d="m 35.242681,30.554192 199.601109,0 0,531.718938 -199.601108,0.48559 z"
     id="rect3966"
     style="fill:none;stroke:#ffb500;stroke-width:15;stroke-miterlimit:4;stroke-opacity:1" />
  <g
     transform="matrix(0.18055707,0,0,1.1679565,105.04894,-1300.4583)"
     id="g3969"
     style="fill:#ffffff;fill-opacity:1">
    <path
       d="m 31.077636,1693.8467 270.086464,0 0,607.4328 -270.086464,0 z"
       id="path3971"
       style="fill:#ffffff;fill-opacity:1;stroke:none" />
  </g>
  <path
     d="m 110.66024,1095.7862 48.766,51.283 0,177.2088 -48.766,-51.283 z"
     id="rect3973"
     style="fill:#000000;fill-opacity:1;stroke:none" />
  <path
     d="m 110.66024,742.80943 48.766,51.283 0,177.20877 -48.766,-51.28297 z"
     id="path3976"
     style="fill:#000000;fill-opacity:1;stroke:none" />
  <rect
     width="165.7272"
     height="165.7272"
     x="51.112122"
     y="1403.2601"
     id="rect3078"
     style="fill:#000000;fill-opacity:1;stroke:none" />
  <path
     d="m 232.32785,1610.032 a 56.533108,56.533108 0 1 1 -113.06622,0 56.533108,56.533108 0 1 1 113.06622,0 z"
     transform="translate(-41.819015,-123.90825)"
     id="path3848"
     style="fill:#ffffff;fill-opacity:1;stroke:none" />
</svg>
