<?xml version="1.0" encoding="UTF-8" standalone="no"?>
<!-- Created with Inkscape (http://www.inkscape.org/) -->

<svg
   xmlns:dc="http://purl.org/dc/elements/1.1/"
   xmlns:cc="http://creativecommons.org/ns#"
   xmlns:rdf="http://www.w3.org/1999/02/22-rdf-syntax-ns#"
   xmlns:svg="http://www.w3.org/2000/svg"
   xmlns="http://www.w3.org/2000/svg"
   version="1.1"
   width="270.08646"
   height="1462.1166"
   id="svg3045">
  <metadata
     id="metadata3051">
    <rdf:RDF>
      <cc:Work
         rdf:about="">
        <dc:format>image/svg+xml</dc:format>
        <dc:type
           rdf:resource="http://purl.org/dc/dcmitype/StillImage" />
        <dc:title></dc:title>
      </cc:Work>
    </rdf:RDF>
  </metadata>
  <defs
     id="defs3049">
    <filter
       color-interpolation-filters="sRGB"
       id="filter3005">
      <feGaussianBlur
         id="feGaussianBlur3007"
         stdDeviation="3" />
    </filter>
    <filter
       color-interpolation-filters="sRGB"
       id="filter3082">
      <feGaussianBlur
         result="fbSourceGraphic"
         id="feGaussianBlur3084"
         stdDeviation="3" />
      <feColorMatrix
         id="feColorMatrix3086"
         values="0 0 0 -1 0 0 0 0 -1 0 0 0 0 -1 0 0 0 0 1 0"
         in="fbSourceGraphic"
         result="fbSourceGraphicAlpha" />
      <feGaussianBlur
         result="fbSourceGraphic"
         in="fbSourceGraphic"
         stdDeviation="3"
         id="feGaussianBlur3088" />
      <feColorMatrix
         id="feColorMatrix3090"
         values="0 0 0 -1 0 0 0 0 -1 0 0 0 0 -1 0 0 0 0 1 0"
         in="fbSourceGraphic"
         result="fbSourceGraphicAlpha" />
      <feGaussianBlur
         in="fbSourceGraphic"
         stdDeviation="3"
         id="feGaussianBlur3092" />
    </filter>
  </defs>
  <g
     transform="matrix(0.18055707,0,0,1.4557442,105.04894,-1887.9577)"
     id="g4050"
     style="fill:#626262;fill-opacity:1">
    <path
       d="m 31.077636,1693.8467 270.086464,0 0,607.4328 -270.086464,0 z"
       id="path4052"
       style="fill:#626262;fill-opacity:1;stroke:none" />
  </g>
  <g
     transform="translate(-31.077636,-1693.8467)"
     id="layer1"
     style="fill:#000000;fill-opacity:1">
    <path
       d="m 31.077636,1693.8467 270.086464,0 0,607.4328 -270.086464,0 z"
       id="rect2982"
       style="fill:#000000;fill-opacity:1;stroke:none" />
  </g>
  <path
     d="m 235.02463,491.90927 a 61.1841,61.1841 0 1 1 -122.3682,0 61.1841,61.1841 0 1 1 122.3682,0 z"
     transform="translate(-38.797298,-31.273073)"
     id="path3964"
     style="fill:#ffb500;fill-opacity:1;stroke:none" />
  <path
     d="m 35.242681,30.554192 199.601109,0 0,531.718938 -199.601108,0.48559 z"
     id="rect3966"
     style="fill:none;stroke:#ffb500;stroke-width:15;stroke-miterlimit:4;stroke-opacity:1" />
  <g
     transform="matrix(0.18055707,0,0,1.1679565,105.04894,-1300.4583)"
     id="g3969"
     style="fill:#ffffff;fill-opacity:1">
    <path
       d="m 31.077636,1693.8467 270.086464,0 0,607.4328 -270.086464,0 z"
       id="path3971"
       style="fill:#ffffff;fill-opacity:1;stroke:none" />
  </g>
  <path
     d="m 110.66024,1095.7862 48.766,51.283 0,177.2088 -48.766,-51.283 z"
     id="rect3973"
     style="fill:#000000;fill-opacity:1;stroke:none" />
  <path
     d="m 110.66024,742.80943 48.766,51.283 0,177.20877 -48.766,-51.28297 z"
     id="path3976"
     style="fill:#000000;fill-opacity:1;stroke:none" />
  <path
     d="m 196.22733,150.69347 a 61.1841,61.1841 0 0 1 -122.368198,0 61.1841,61.1841 0 1 1 122.368198,0 z"
     id="path4717"
     style="fill:#ffffff;fill-opacity:1;stroke:none">
        <animate attributeName="fill-opacity"
         dur="2s" repeatDur="indefinite" values="1;0.3;0;0.3;1" calcMode="paced"/>
  </path>
</svg>
