<?xml version="1.0" encoding="UTF-8" standalone="no"?>
<!-- Created with Inkscape (http://www.inkscape.org/) -->

<svg
   xmlns:dc="http://purl.org/dc/elements/1.1/"
   xmlns:cc="http://creativecommons.org/ns#"
   xmlns:rdf="http://www.w3.org/1999/02/22-rdf-syntax-ns#"
   xmlns:svg="http://www.w3.org/2000/svg"
   xmlns="http://www.w3.org/2000/svg"
   version="1.1"
   width="301.38589"
   height="1082.989"
   id="svg3045">
  <metadata
     id="metadata3051">
    <rdf:RDF>
      <cc:Work
         rdf:about="">
        <dc:format>image/svg+xml</dc:format>
        <dc:type
           rdf:resource="http://purl.org/dc/dcmitype/StillImage" />
        <dc:title></dc:title>
      </cc:Work>
    </rdf:RDF>
  </metadata>
  <defs
     id="defs3049" />
  <path
     d="M 0,40.8358 40.8358,0 l 223.9589,0.638 36.3694,40.1978 0,735.0447 -301.1641,0 z"
     id="rect2982"
     style="fill:#000000;fill-opacity:1;stroke:none" />
  <rect
     width="301.3858"
     height="263.487"
     x="9.8046876e-05"
     y="819.50201"
     id="rect3768"
     style="fill:#000000;fill-opacity:1;stroke:none" />
  <path
     d="m 117.68554,114.4363 a 32.510273,32.510273 0 0 1 -65.020537,0 32.510273,32.510273 0 1 1 65.020537,0 z"
     id="path3016"
     style="fill:#fff03c;fill-opacity:1;stroke:none">
        <animate attributeName="fill-opacity"
         dur="2s" repeatDur="indefinite" values="1;0.3;0;0.3;1" calcMode="paced"/>
  </path>
  <path
     d="m 117.68553,560.19851 a 32.510273,32.510273 0 0 1 -65.020544,0 32.510273,32.510273 0 1 1 65.020544,0 z"
     id="path3018"
     style="fill:#fff03c;fill-opacity:1;stroke:none" />
  <path
     d="m 54.248246,996.83621 a 23.736949,23.736949 0 0 1 -47.4738977,0 23.736949,23.736949 0 1 1 47.4738977,0 z"
     id="path3802"
     style="fill:#fff03c;fill-opacity:1;stroke:none" />
  <path
     d="m 135.91985,996.83621 a 23.736951,23.736951 0 0 1 -47.473902,0 23.736951,23.736951 0 1 1 47.473902,0 z"
     id="path3804"
     style="fill:#fff03c;fill-opacity:1;stroke:none" />
  <path
     d="m 213.76315,996.83621 a 23.73695,23.73695 0 0 1 -47.4739,0 23.73695,23.73695 0 1 1 47.4739,0 z"
     id="path3806"
     style="fill:#fff03c;fill-opacity:1;stroke:none" />
  <path
     d="m 287.77805,996.83621 a 23.73695,23.73695 0 0 1 -47.4739,0 23.73695,23.73695 0 1 1 47.4739,0 z"
     id="path3808"
     style="fill:#fff03c;fill-opacity:1;stroke:none" />
</svg>
