<?xml version="1.0" encoding="UTF-8" standalone="no"?>
<!-- Created with Inkscape (http://www.inkscape.org/) -->

<svg
   xmlns:dc="http://purl.org/dc/elements/1.1/"
   xmlns:cc="http://creativecommons.org/ns#"
   xmlns:rdf="http://www.w3.org/1999/02/22-rdf-syntax-ns#"
   xmlns:svg="http://www.w3.org/2000/svg"
   xmlns="http://www.w3.org/2000/svg"
   version="1.1"
   width="301.38589"
   height="1082.989"
   id="svg3045">
  <metadata
     id="metadata3051">
    <rdf:RDF>
      <cc:Work
         rdf:about="">
        <dc:format>image/svg+xml</dc:format>
        <dc:type
           rdf:resource="http://purl.org/dc/dcmitype/StillImage" />
        <dc:title></dc:title>
      </cc:Work>
    </rdf:RDF>
  </metadata>
  <defs
     id="defs3049" />
  <g
     transform="translate(0,-1653.0109)"
     id="layer1">
    <path
       d="m 0,1693.8467 40.8358,-40.8358 223.9589,0.638 36.3694,40.1978 0,735.0447 -301.1641,0 z"
       id="rect2982"
       style="fill:#000000;fill-opacity:1;stroke:none" />
    <rect
       width="301.3858"
       height="263.487"
       x="9.8046876e-05"
       y="2472.5129"
       id="rect3768"
       style="fill:#000000;fill-opacity:1;stroke:none" />
  </g>
  <g
     id="layer8"
     style="display:inline">
    <path
       d="m 2705.0531,894.29816 a 34.991589,34.991589 0 1 1 -69.9832,0 34.991589,34.991589 0 1 1 69.9832,0 z"
       transform="matrix(0.67836134,0,0,0.67836134,-1780.7552,285.5334)"
       id="path3008"
       style="fill:#69ee71;fill-opacity:1;stroke:none;display:inline" />
    <path
       d="m 2705.0531,894.29816 a 34.991589,34.991589 0 1 1 -69.9832,0 34.991589,34.991589 0 1 1 69.9832,0 z"
       transform="matrix(0.67836134,0,0,0.67836134,-1699.0836,285.5334)"
       id="path3010"
       style="fill:#69ee71;fill-opacity:1;stroke:none;display:inline" />
    <path
       d="m 2705.0531,894.29816 a 34.991589,34.991589 0 1 1 -69.9832,0 34.991589,34.991589 0 1 1 69.9832,0 z"
       transform="matrix(0.67836134,0,0,0.67836134,-1621.2403,285.5334)"
       id="path3012"
       style="fill:#69ee71;fill-opacity:1;stroke:none;display:inline" />
    <path
       d="m 2705.0531,894.29816 a 34.991589,34.991589 0 1 1 -69.9832,0 34.991589,34.991589 0 1 1 69.9832,0 z"
       transform="matrix(0.67836134,0,0,0.67836134,-1547.2254,285.5334)"
       id="path3014"
       style="fill:#69ee71;fill-opacity:1;stroke:none;display:inline" />
    <path
       d="m 2705.0531,894.29816 a 34.991589,34.991589 0 1 1 -69.9832,0 34.991589,34.991589 0 1 1 69.9832,0 z"
       transform="matrix(0.92908791,0,0,0.92908791,-2271.0219,-716.44531)"
       id="path3016"
       style="fill:#69ee71;fill-opacity:1;stroke:none">
         <animate attributeName="fill-opacity"
         dur="2s" repeatDur="indefinite" values="1;0.3;0;0.3;1" calcMode="paced"/>
    </path>
    <path
       d="m 2705.0531,894.29816 a 34.991589,34.991589 0 1 1 -69.9832,0 34.991589,34.991589 0 1 1 69.9832,0 z"
       transform="matrix(0.92908791,0,0,0.92908791,-2395.5466,-270.6831)"
       id="path3018"
       style="fill:#fff03c;fill-opacity:1;stroke:none" />
  </g>
</svg>
