<?xml version="1.0" encoding="UTF-8" standalone="no"?>
<!-- Created with Inkscape (http://www.inkscape.org/) -->

<svg
   xmlns:dc="http://purl.org/dc/elements/1.1/"
   xmlns:cc="http://creativecommons.org/ns#"
   xmlns:rdf="http://www.w3.org/1999/02/22-rdf-syntax-ns#"
   xmlns:svg="http://www.w3.org/2000/svg"
   xmlns="http://www.w3.org/2000/svg"
   version="1.1"
   width="301.38589"
   height="1082.989"
   id="svg3045">
  <metadata
     id="metadata3051">
    <rdf:RDF>
      <cc:Work
         rdf:about="">
        <dc:format>image/svg+xml</dc:format>
        <dc:type
           rdf:resource="http://purl.org/dc/dcmitype/StillImage" />
        <dc:title></dc:title>
      </cc:Work>
    </rdf:RDF>
  </metadata>
  <defs
     id="defs3049" />
  <g
     transform="translate(-2519.2076,-555.14215)"
     id="layer1">
    <path
       d="m 2519.2076,595.97789 40.8358,-40.8358 223.9589,0.638 36.3694,40.1978 0,735.04471 -301.1641,0 z"
       id="rect2982"
       style="fill:#000000;fill-opacity:1;stroke:none" />
    <rect
       width="301.3858"
       height="263.487"
       x="2519.2078"
       y="1374.6442"
       id="rect3768"
       style="fill:#000000;fill-opacity:1;stroke:none" />
  </g>
  <g
     transform="translate(-2519.2076,1097.8687)"
     id="layer8"
     style="display:inline">
    <path
       d="m 2705.0531,894.29816 a 34.9916,34.9916 0 1 1 -69.9832,0 34.9916,34.9916 0 1 1 69.9832,0 z"
       transform="matrix(0.92908791,0,0,0.92908791,185.02106,-1595.9448)"
       id="path3759"
       style="fill:#ff0016;fill-opacity:1;stroke:none;display:inline" />
    <path
       d="m 2606.6345,-690.59531 a 23.73695,23.73695 0 0 1 -47.4739,0 23.73695,23.73695 0 1 1 47.4739,0 z"
       id="path3783"
       style="fill:#ffffff;fill-opacity:1;stroke:none;display:inline" />
    <path
       d="m 2770.1529,-833.12152 a 23.73695,23.73695 0 0 1 -47.4739,0 23.73695,23.73695 0 1 1 47.4739,0 z"
       id="path3787"
       style="fill:#ffffff;fill-opacity:1;stroke:none;display:inline" />
  </g>
</svg>
