<?xml version="1.0" encoding="UTF-8" standalone="no"?>
<!-- Created with Inkscape (http://www.inkscape.org/) -->

<svg
   xmlns:dc="http://purl.org/dc/elements/1.1/"
   xmlns:cc="http://creativecommons.org/ns#"
   xmlns:rdf="http://www.w3.org/1999/02/22-rdf-syntax-ns#"
   xmlns:svg="http://www.w3.org/2000/svg"
   xmlns="http://www.w3.org/2000/svg"
   version="1.1"
   width="301.16409"
   height="568.33942"
   id="svg3045">
  <metadata
     id="metadata3051">
    <rdf:RDF>
      <cc:Work
         rdf:about="">
        <dc:format>image/svg+xml</dc:format>
        <dc:type
           rdf:resource="http://purl.org/dc/dcmitype/StillImage" />
        <dc:title></dc:title>
      </cc:Work>
    </rdf:RDF>
  </metadata>
  <defs
     id="defs3049" />
  <g
     transform="translate(0,-1653.0109)"
     id="layer1">
    <path
       d="m 0,1693.8467 40.8358,-40.8358 223.9589,0.638 36.3694,40.1978 0,527.5036 -301.1641,0 z"
       id="rect2982"
       style="fill:#000000;fill-opacity:1;stroke:none" />
  </g>
  <g
     transform="translate(0,-1653.0109)"
     id="layer2"
     style="display:inline">
    <path
       d="m 2705.0531,894.29816 a 34.991589,34.991589 0 1 1 -69.9832,0 34.991589,34.991589 0 1 1 69.9832,0 z"
       transform="matrix(0.92908791,0,0,0.92908791,-2271.0219,936.56559)"
       id="path3756"
       style="fill:#69ee71;fill-opacity:1;stroke:none" />
  </g>
  <g
     transform="translate(0,-1653.0109)"
     id="layer6"
     style="display:inline">
    <path
       d="m 2705.0531,894.29816 a 34.991589,34.991589 0 1 1 -69.9832,0 34.991589,34.991589 0 1 1 69.9832,0 z"
       transform="matrix(0.92908791,0,0,0.92908791,-2271.0219,936.56559)"
       id="path3810"
       style="fill:#69ee71;fill-opacity:1;stroke:none" />
  </g>
</svg>
