<?xml version="1.0" encoding="UTF-8" standalone="no"?>
<!-- Created with Inkscape (http://www.inkscape.org/) -->

<svg
   xmlns:dc="http://purl.org/dc/elements/1.1/"
   xmlns:cc="http://creativecommons.org/ns#"
   xmlns:rdf="http://www.w3.org/1999/02/22-rdf-syntax-ns#"
   xmlns:svg="http://www.w3.org/2000/svg"
   xmlns="http://www.w3.org/2000/svg"
   version="1.1"
   width="869.78101"
   height="1574.2571"
   id="svg2">
  <defs
     id="defs4" />
  <metadata
     id="metadata7">
    <rdf:RDF>
      <cc:Work
         rdf:about="">
        <dc:format>image/svg+xml</dc:format>
        <dc:type
           rdf:resource="http://purl.org/dc/dcmitype/StillImage" />
        <dc:title></dc:title>
      </cc:Work>
    </rdf:RDF>
  </metadata>
  <g
     transform="translate(-235.8125,305.72232)"
     id="layer1"
     style="display:inline" />
  <g
     transform="translate(-235.8125,305.72232)"
     id="layer3"
     style="display:inline">
    <rect
       width="37.375641"
       height="1264.7109"
       x="389.91888"
       y="3.8238351"
       id="rect4911"
       style="fill:#000000;fill-opacity:1;stroke:none" />
  </g>
  <g
     transform="translate(-235.8125,305.72232)"
     id="layer4"
     style="display:inline">
    <g
       id="g3831">
      <path
         d="m 955.71431,192.36218 -707.14289,0 0,-70 707.14289,0"
         id="rect3058"
         style="fill:#ffffff;fill-opacity:1;stroke:#bf2234;stroke-width:25.5;stroke-miterlimit:4;stroke-opacity:1;stroke-dasharray:none" />
      <path
         d="m 1082.8571,138.79076 a 73.571426,73.571426 0 1 1 -147.14282,0 73.571426,73.571426 0 1 1 147.14282,0 z"
         transform="matrix(1.0165494,0,0,1.0165494,-8.1316865,19.131662)"
         id="path3829"
         style="fill:#ffffff;fill-opacity:1;stroke:#bf2234;stroke-width:25.5;stroke-linecap:round;stroke-linejoin:round;stroke-miterlimit:4;stroke-opacity:1;stroke-dasharray:none;stroke-dashoffset:0" />
    </g>
    <g
       id="g4368">
      <path
         d="m 590.99146,218.45711 c 26.33725,15.20583 35.36126,48.88389 20.15545,75.22115 -0.95037,1.64607 -1.99278,3.23674 -3.08118,4.74585 l -51.35404,88.9478 c -0.76275,1.69712 -1.60059,3.36322 -2.55096,5.00931 -15.20583,26.33725 -48.8839,35.36127 -75.22116,20.15545 -26.33726,-15.20583 -35.36127,-48.88389 -20.15545,-75.22116 0.21601,-0.37413 0.45493,-0.73384 0.67825,-1.10101 l -0.032,-0.0184 57.90948,-100.30215 0.096,0.0553 c 15.89014,-24.24012 48.13906,-32.16642 73.55558,-17.4922 z"
         id="path4069"
         style="fill:#000000;fill-opacity:1;stroke:none;display:inline" />
      <path
         d="m 523.07949,242.67149 a 47.156072,47.156072 0 0 0 81.67671,47.15607 47.156072,47.156072 0 1 0 -81.67671,-47.15607 z"
         id="path4071"
         style="fill:#bf2234;fill-opacity:1;stroke:none;display:inline" />
    </g>
  </g>
  <g
     transform="translate(-235.8125,305.72232)"
     id="layer5"
     style="display:inline">
    <g
       transform="matrix(0.77500628,-0.63195353,0.63195353,0.77500628,-6.9145195,301.0174)"
       id="g3835">
      <path
         d="m 955.71431,192.36218 -707.14289,0 0,-70 707.14289,0"
         id="path3837"
         style="fill:#ffffff;fill-opacity:1;stroke:#bf2234;stroke-width:25.5;stroke-miterlimit:4;stroke-opacity:1;stroke-dasharray:none" />
      <path
         d="m 1082.8571,138.79076 a 73.571426,73.571426 0 1 1 -147.14282,0 73.571426,73.571426 0 1 1 147.14282,0 z"
         transform="matrix(1.0165494,0,0,1.0165494,-8.1316865,19.131662)"
         id="path3839"
         style="fill:#ffffff;fill-opacity:1;stroke:#bf2234;stroke-width:25.5;stroke-linecap:round;stroke-linejoin:round;stroke-miterlimit:4;stroke-opacity:1;stroke-dasharray:none;stroke-dashoffset:0" />
    </g>
    <path
       d="m 503.4231,154.16916 c 27.2035,-13.59573 60.27827,-2.56427 73.8741,24.63922 0.84969,1.70021 1.60236,3.44657 2.26183,5.18659 l 45.91613,91.87287 c 0.99578,1.57187 1.92425,3.18925 2.77394,4.88945 13.59572,27.20349 2.56415,60.27837 -24.63913,73.87409 -27.2034,13.59573 -60.27848,2.56426 -73.8741,-24.63924 -0.19323,-0.38648 -0.36159,-0.78401 -0.54493,-1.1728 l -0.033,0.017 -51.77742,-103.60055 0.099,-0.0502 c -11.46869,-26.61876 -0.30888,-57.89615 25.94339,-71.01649 z"
       id="path4298"
       style="fill:#000000;fill-opacity:1;stroke:none;display:inline" />
    <path
       d="m 620.84185,284.62447 a 47.156074,47.156074 0 0 0 -84.36284,42.16269 47.156074,47.156074 0 1 0 84.36284,-42.16269 z"
       id="path4616"
       style="fill:#3de0b7;fill-opacity:1;stroke:none;display:inline" />
  </g>
  <g
     transform="translate(-235.8125,305.72232)"
     id="layer6"
     style="display:inline">
    <g
       transform="translate(24.243661,0)"
       id="g3864">
      <path
         d="m 418.5714,498.07638 0,601.42862 -70,0 0,-601.42862"
         id="path3858"
         style="fill:#ffffff;fill-opacity:1;stroke:#bf2234;stroke-width:25.5;stroke-miterlimit:4;stroke-opacity:1;stroke-dasharray:none" />
      <path
         d="m 1082.8571,138.79076 a 73.571426,73.571426 0 1 1 -147.14282,0 73.571426,73.571426 0 1 1 147.14282,0 z"
         transform="matrix(0,-1.0165494,1.0165494,0,245.34088,1464.7795)"
         id="path3860"
         style="fill:#ffffff;fill-opacity:1;stroke:#bf2234;stroke-width:25.5;stroke-linecap:round;stroke-linejoin:round;stroke-miterlimit:4;stroke-opacity:1;stroke-dasharray:none;stroke-dashoffset:0" />
    </g>
    <path
       d="m 478.93954,1195.4033 c -26.33725,-15.2058 -35.36126,-48.8839 -20.15545,-75.2212 0.95037,-1.646 1.99278,-3.2367 3.08118,-4.7458 l 51.35404,-88.9478 c 0.76275,-1.6971 1.60059,-3.3632 2.55096,-5.0093 15.20583,-26.33727 48.8839,-35.36129 75.22116,-20.1555 26.33726,15.2059 35.36127,48.8839 20.15545,75.2212 -0.21601,0.3741 -0.45493,0.7338 -0.67825,1.101 l 0.032,0.018 -57.90948,100.3021 -0.096,-0.055 c -15.89014,24.2401 -48.13906,32.1664 -73.55558,17.4921 z"
       id="path4888"
       style="fill:#000000;fill-opacity:1;stroke:none;display:inline" />
  </g>
  <g
     transform="translate(-235.8125,305.72232)"
     id="layer7"
     style="display:inline">
    <g
       transform="matrix(0.37267254,-0.92796292,0.92796292,0.37267254,-698.91724,1128.115)"
       id="g4903">
      <path
         d="m 478.93954,1195.4033 c -26.33725,-15.2058 -35.36126,-48.8839 -20.15545,-75.2212 0.95037,-1.646 1.99278,-3.2367 3.08118,-4.7458 l 51.35404,-88.9478 c 0.76275,-1.6971 1.60059,-3.3632 2.55096,-5.0093 15.20583,-26.33727 48.8839,-35.36129 75.22116,-20.1555 26.33726,15.2059 35.36127,48.8839 20.15545,75.2212 -0.21601,0.3741 -0.45493,0.7338 -0.67825,1.101 l 0.032,0.018 -57.90948,100.3021 -0.096,-0.055 c -15.89014,24.2401 -48.13906,32.1664 -73.55558,17.4921 z"
         id="path4374"
         style="fill:#000000;fill-opacity:1;stroke:none;display:inline" />
      <path
         d="m 546.85151,1171.1889 a 47.156078,47.156078 0 0 0 -81.67671,-47.1561 47.156078,47.156078 0 1 0 81.67671,47.1561 z"
         id="path4376"
         style="fill:#ffe200;fill-opacity:1;stroke:none;display:inline" />
    </g>
    <g
       transform="matrix(0.63023445,0.77640488,-0.77640488,0.63023445,926.118,15.848195)"
       id="g3871">
      <path
         d="m 418.5714,498.07638 0,601.42862 -70,0 0,-601.42862"
         id="path3873"
         style="fill:#ffffff;fill-opacity:1;stroke:#bf2234;stroke-width:25.5;stroke-miterlimit:4;stroke-opacity:1;stroke-dasharray:none" />
      <path
         d="m 1082.8571,138.79076 a 73.571426,73.571426 0 1 1 -147.14282,0 73.571426,73.571426 0 1 1 147.14282,0 z"
         transform="matrix(0,-1.0165494,1.0165494,0,245.34088,1464.7795)"
         id="path3875"
         style="fill:#ffffff;fill-opacity:1;stroke:#bf2234;stroke-width:25.5;stroke-linecap:round;stroke-linejoin:round;stroke-miterlimit:4;stroke-opacity:1;stroke-dasharray:none;stroke-dashoffset:0" />
    </g>
  </g>
</svg>
