<?xml version="1.0" encoding="UTF-8" standalone="no"?>
<!-- Created with Inkscape (http://www.inkscape.org/) -->

<svg
   xmlns:dc="http://purl.org/dc/elements/1.1/"
   xmlns:cc="http://creativecommons.org/ns#"
   xmlns:rdf="http://www.w3.org/1999/02/22-rdf-syntax-ns#"
   xmlns:svg="http://www.w3.org/2000/svg"
   xmlns="http://www.w3.org/2000/svg"
   xmlns:sodipodi="http://sodipodi.sourceforge.net/DTD/sodipodi-0.dtd"
   xmlns:inkscape="http://www.inkscape.org/namespaces/inkscape"
   width="55"
   height="55"
   id="svg2984"
   version="1.1"
   inkscape:version="0.48.4 r9939"
   sodipodi:docname="HV_Vr0.svg">
  <defs
     id="defs2986" />
  <sodipodi:namedview
     id="base"
     pagecolor="#ffffff"
     bordercolor="#666666"
     borderopacity="1.0"
     inkscape:pageopacity="0.0"
     inkscape:pageshadow="2"
     inkscape:zoom="0.7"
     inkscape:cx="1007.473"
     inkscape:cy="296.81886"
     inkscape:document-units="px"
     inkscape:current-layer="layer4"
     showgrid="false"
     inkscape:window-width="1309"
     inkscape:window-height="744"
     inkscape:window-x="57"
     inkscape:window-y="24"
     inkscape:window-maximized="1"
     fit-margin-top="0"
     fit-margin-left="0"
     fit-margin-right="0"
     fit-margin-bottom="0" />
  <metadata
     id="metadata2989">
    <rdf:RDF>
      <cc:Work
         rdf:about="">
        <dc:format>image/svg+xml</dc:format>
        <dc:type
           rdf:resource="http://purl.org/dc/dcmitype/StillImage" />
        <dc:title></dc:title>
      </cc:Work>
    </rdf:RDF>
  </metadata>
  <g
     inkscape:label="Ebene 1"
     inkscape:groupmode="layer"
     id="layer1"
     transform="translate(0,-997.36218)" />
  <g
     inkscape:groupmode="layer"
     id="layer2"
     inkscape:label="Schild+Rahmen"
     transform="translate(0,-997.36218)"
     style="display:inline">
    <path
       style="fill:#000000;fill-opacity:1;stroke:none"
       d="m -174.92334,1143.5836 387.99413,-11.4075 93.8724,93.7991 2.43872,92.9115 -95.38464,96.0511 -395.20199,9.0765 -80.71429,-80.1522 2.14286,-115.8666 z"
       id="rect5637"
       inkscape:connector-curvature="0"
       sodipodi:nodetypes="ccccccccc"
       transform="matrix(0.70710678,-0.70710678,0.70710678,0.70710678,0,0)" />
  </g>
  <g
     inkscape:groupmode="layer"
     id="layer4"
     inkscape:label="Vr0"
     style="display:none"
     transform="translate(0,-190.26001)">
    <path
       transform="matrix(5.4190263,0,0,5.4190263,1029.1015,-682.90417)"
       sodipodi:type="arc"
       style="fill:#fdca05;fill-opacity:1;stroke:none;display:inline"
       id="path4905"
       sodipodi:cx="-48.234783"
       sodipodi:cy="164.19525"
       sodipodi:rx="6.8185296"
       sodipodi:ry="6.8185296"
       d="m -41.416254,164.19525 a 6.8185296,6.8185296 0 1 1 -13.637059,0 6.8185296,6.8185296 0 1 1 13.637059,0 z" />
    <path
       transform="matrix(5.4190263,0,0,5.4190263,1246.2843,-929.3814)"
       sodipodi:type="arc"
       style="fill:#fdca05;fill-opacity:1;stroke:none;display:inline"
       id="path4905-3"
       sodipodi:cx="-48.234783"
       sodipodi:cy="164.19525"
       sodipodi:rx="6.8185296"
       sodipodi:ry="6.8185296"
       d="m -41.416254,164.19525 a 6.8185296,6.8185296 0 1 1 -13.637059,0 6.8185296,6.8185296 0 1 1 13.637059,0 z" />
  </g>
  <g
     inkscape:groupmode="layer"
     id="layer5"
     inkscape:label="Vr1"
     style="display:inline"
     transform="translate(0,-190.26001)">
    <path
       d="m -41.416254,164.19525 a 6.8185296,6.8185296 0 1 1 -13.637059,0 6.8185296,6.8185296 0 1 1 13.637059,0 z"
       sodipodi:ry="6.8185296"
       sodipodi:rx="6.8185296"
       sodipodi:cy="164.19525"
       sodipodi:cx="-48.234783"
       id="path5684"
       style="fill:#3de0b7;fill-opacity:1;stroke:none;display:inline"
       sodipodi:type="arc"
       transform="matrix(5.4190263,0,0,5.4190263,1128.0964,-682.90417)" />
    <path
       d="m -41.416254,164.19525 a 6.8185296,6.8185296 0 1 1 -13.637059,0 6.8185296,6.8185296 0 1 1 13.637059,0 z"
       sodipodi:ry="6.8185296"
       sodipodi:rx="6.8185296"
       sodipodi:cy="164.19525"
       sodipodi:cx="-48.234783"
       id="path5687"
       style="fill:#3de0b7;fill-opacity:1;stroke:none;display:inline"
       sodipodi:type="arc"
       transform="matrix(5.4190263,0,0,5.4190263,1343.2589,-929.38139)" />
  </g>
  <g
     inkscape:groupmode="layer"
     id="layer6"
     inkscape:label="Vr2"
     style="display:none"
     transform="translate(0,-190.26001)">
    <path
       transform="matrix(5.4190263,0,0,5.4190263,1034.1522,-682.90417)"
       sodipodi:type="arc"
       style="fill:#fdca05;fill-opacity:1;stroke:none;display:inline"
       id="path5690"
       sodipodi:cx="-48.234783"
       sodipodi:cy="164.19525"
       sodipodi:rx="6.8185296"
       sodipodi:ry="6.8185296"
       d="m -41.416254,164.19525 a 6.8185296,6.8185296 0 1 1 -13.637059,0 6.8185296,6.8185296 0 1 1 13.637059,0 z" />
    <path
       transform="matrix(5.4190263,0,0,5.4190263,1343.2589,-929.38139)"
       sodipodi:type="arc"
       style="fill:#3de0b7;fill-opacity:1;stroke:none;display:inline"
       id="path5693"
       sodipodi:cx="-48.234783"
       sodipodi:cy="164.19525"
       sodipodi:rx="6.8185296"
       sodipodi:ry="6.8185296"
       d="m -41.416254,164.19525 a 6.8185296,6.8185296 0 1 1 -13.637059,0 6.8185296,6.8185296 0 1 1 13.637059,0 z" />
  </g>
</svg>
