<?xml version="1.0" encoding="UTF-8" standalone="no"?>
<svg width="457px" height="390px" viewBox="0 0 457 390" version="1.1" xmlns="http://www.w3.org/2000/svg" xmlns:xlink="http://www.w3.org/1999/xlink" xmlns:sketch="http://www.bohemiancoding.com/sketch/ns">
    <title>Slice 1</title>
    <description>Created with Sketch (http://www.bohemiancoding.com/sketch)</description>
    <defs></defs>
    <g id="Page-1" stroke="none" stroke-width="1" fill="none" fill-rule="evenodd" sketch:type="MSPage">
        <g id="Lf6_150_Tafel_nu" sketch:type="MSLayerGroup" transform="translate(9.000000, 5.000000)">
            <g id="layer5" transform="translate(0.000000, 0.390010)" sketch:type="MSShapeGroup">
                <path d="M-0.5,-0.32 L219.5,375.17999 L439.5,-0.32 L-0.5,-0.32 Z" id="path4624" stroke="#000000" stroke-width="9" fill="#FFFFFF"></path>
                <path d="M32.201488,18.73635 L219.5,338.42084 L406.79851,18.73635 L32.201488,18.73635 Z" id="path3780" fill="#D97100"></path>
            </g>
            <g id="layer6" transform="translate(184.500000, 43.390010)" fill="#000000" sketch:type="MSShapeGroup">
                <g id="text4403" transform="translate(-0.363137, -0.144257)">
                    <path d="M71.4874419,99.6942229 L71.4874419,146.324254 C71.6998416,165.246597 55.8487599,181.938243 35.904982,181.938243 C15.0933952,181.938243 0.262440194,165.000188 0.262440194,146.324254 L0.262440194,135.655397 L22.6074434,135.655397 L22.6074434,146.324254 C22.6074434,153.92146 28.7271843,159.610605 35.7549391,159.600024 C43.3463377,159.588594 49.1645024,153.564622 49.1645024,146.324254 L49.1645024,100.465197 C49.1645024,92.7429406 42.7414201,87.2369917 35.8586973,87.2369917 C30.4499856,87.2369917 24.6874116,90.4111032 22.6074434,96.7199904 L0.351195049,96.7199904 L0.351195049,0.463008534 L71.4874419,0.463008534 L71.4874419,22.7594857 L22.6074434,22.7594857 L22.6074434,72.9261304 C28.6740746,67.5185491 35.0590602,65.8223999 43.2702523,65.8223999 C61.9789933,65.8223999 71.4874419,82.6212689 71.4874419,99.6942229 L71.4874419,99.6942229 Z" id="path4426"></path>
                </g>
            </g>
        </g>
    </g>
</svg>