<?xml version="1.0" encoding="UTF-8" standalone="no"?>
<svg width="457px" height="390px" viewBox="0 0 457 390" version="1.1" xmlns="http://www.w3.org/2000/svg" xmlns:xlink="http://www.w3.org/1999/xlink" xmlns:sketch="http://www.bohemiancoding.com/sketch/ns">
    <title>Slice 1</title>
    <description>Created with Sketch (http://www.bohemiancoding.com/sketch)</description>
    <defs></defs>
    <g id="Page-1" stroke="none" stroke-width="1" fill="none" fill-rule="evenodd" sketch:type="MSPage">
        <g id="Lf6_180_Tafel_nu" sketch:type="MSLayerGroup" transform="translate(9.000000, 5.000000)">
            <g id="layer5" transform="translate(0.000000, 0.390010)" sketch:type="MSShapeGroup">
                <path d="M-0.5,-0.32 L219.5,375.17999 L439.5,-0.32 L-0.5,-0.32 Z" id="path4624" stroke="#000000" stroke-width="9" fill="#FFFFFF"></path>
                <path d="M32.201488,18.73635 L219.5,338.42084 L406.79851,18.73635 L32.201488,18.73635 Z" id="path3780" fill="#D97100"></path>
            </g>
            <g id="layer6" transform="translate(181.500000, 42.390010)" fill="#000000" sketch:type="MSShapeGroup">
                <path d="M39.10534,-0.17227 C16.851,-0.17227 0.65136,14.78325 0.29284,38.64023 C0.28254,38.64123 0.26164,38.64023 0.26164,38.64023 L0.26164,59.01523 C0.26164,68.016989 4.18696,78.642259 11.66789,85.921479 C4.18691,93.263199 0.26159,103.450969 0.26159,112.452729 L0.29279,143.671479 C0.31659,167.524729 16.85443,182.483979 39.10529,182.483979 C59.88799,182.483979 77.16779,167.859519 77.16779,143.671479 L77.16779,112.452729 C77.16779,103.450969 72.37812,91.778059 65.74966,85.904169 C73.79233,78.085739 77.16779,67.799159 77.16779,58.7974 L77.16779,38.64023 C77.16779,14.45221 59.88799,-0.17227 39.10529,-0.17227 L39.10534,-0.17227 Z M38.32409,22.82773 C47.6169,22.70273 54.85534,28.58856 54.85534,38.14023 L54.85534,58.39023 C54.85534,66.529159 48.86357,74.669209 38.73034,74.671479 C28.58127,74.673479 22.54925,66.536729 22.57409,58.39023 L22.63659,37.89023 C22.66549,28.41716 30.87733,22.9279 38.32409,22.82773 L38.32409,22.82773 Z M38.73034,97.046479 C48.11345,97.046479 54.85534,104.632589 54.85534,113.390229 L54.85534,144.171479 C54.85534,153.723149 47.6169,159.577729 38.32409,159.452729 C30.87733,159.352559 22.65567,153.894569 22.63659,144.421479 L22.57409,113.390229 C22.55639,104.580449 29.55228,97.046479 38.73034,97.046479 L38.73034,97.046479 Z" id="path3830-7"></path>
            </g>
        </g>
    </g>
</svg>