<?xml version="1.0" encoding="UTF-8" standalone="no"?>
<svg width="218px" height="279px" viewBox="0 0 218 279" version="1.1" xmlns="http://www.w3.org/2000/svg" xmlns:xlink="http://www.w3.org/1999/xlink" xmlns:sketch="http://www.bohemiancoding.com/sketch/ns">
    <title>Slice 1</title>
    <description>Created with Sketch (http://www.bohemiancoding.com/sketch)</description>
    <defs></defs>
    <g id="Page-1" stroke="none" stroke-width="1" fill="none" fill-rule="evenodd" sketch:type="MSPage">
        <g id="Lf7_180_Tafel" sketch:type="MSLayerGroup" transform="translate(6.000000, 7.000000)">
            <g id="layer5" transform="translate(0.000000, -0.009990)" stroke="#000000" stroke-width="12" fill="#FFFFFF" sketch:type="MSShapeGroup">
                <rect id="rect4663" x="0" y="0" width="205.06096" height="265.6701"></rect>
            </g>
            <g id="layer6" transform="translate(64.000000, 41.490010)" fill="#000000" sketch:type="MSShapeGroup">
                <g id="g3839" transform="translate(-0.091624, -0.487861)">
                    <path d="M38.9353744,-0.0334 C16.6810344,-0.0334 0.48139436,14.922117 0.12287436,38.7791 C0.11257436,38.7806 0.09167436,38.7791 0.09167436,38.7791 L0.09167436,59.1541 C0.09167436,68.15586 4.01699436,78.78113 11.4979244,86.06035 C4.01694436,93.40207 0.09162436,103.58984 0.09162436,112.5916 L0.12282436,143.81035 C0.14662436,167.6636 16.6844644,182.62285 38.9353244,182.62285 C59.7180244,182.62285 76.9978244,167.99839 76.9978244,143.81035 L76.9978244,112.5916 C76.9978244,103.58984 72.2081544,91.91693 65.5796944,86.04304 C73.6223644,78.22461 76.9978244,67.93803 76.9978244,58.93627 L76.9978244,38.7791 C76.9978244,14.59108 59.7180244,-0.0334 38.9353244,-0.0334 L38.9353744,-0.0334 Z M38.1541244,22.9666 C47.4469344,22.8416 54.6853744,28.72743 54.6853744,38.2791 L54.6853744,58.5291 C54.6853744,66.66803 48.6936044,74.80808 38.5603744,74.81035 C28.4113044,74.81235 22.3792844,66.6756 22.4041244,58.5291 L22.4666244,38.0291 C22.4955244,28.556034 30.7073644,23.06677 38.1541244,22.9666 L38.1541244,22.9666 Z M38.5603744,97.18535 C47.9434844,97.18535 54.6853744,104.77146 54.6853744,113.5291 L54.6853744,144.31035 C54.6853744,153.86202 47.4469344,159.7166 38.1541244,159.5916 C30.7073644,159.49143 22.4857044,154.03344 22.4666244,144.56035 L22.4041244,113.5291 C22.3864244,104.71932 29.3823144,97.18535 38.5603744,97.18535 L38.5603744,97.18535 Z" id="path3830"></path>
                </g>
            </g>
        </g>
    </g>
</svg>