<?xml version="1.0" encoding="UTF-8" standalone="no"?>
<svg width="218px" height="279px" viewBox="0 0 218 279" version="1.1" xmlns="http://www.w3.org/2000/svg" xmlns:xlink="http://www.w3.org/1999/xlink" xmlns:sketch="http://www.bohemiancoding.com/sketch/ns">
    <title>Slice 1</title>
    <description>Created with Sketch (http://www.bohemiancoding.com/sketch)</description>
    <defs></defs>
    <g id="Page-1" stroke="none" stroke-width="1" fill="none" fill-rule="evenodd" sketch:type="MSPage">
        <g id="Lf7_120_Tafel" sketch:type="MSLayerGroup" transform="translate(6.000000, 7.000000)">
            <g id="layer5" transform="translate(0.000000, -0.009990)" stroke="#000000" stroke-width="12" fill="#FFFFFF" sketch:type="MSShapeGroup">
                <rect id="rect4663" x="0" y="0" width="205.06096" height="265.6701"></rect>
            </g>
            <g id="layer6" transform="translate(64.000000, 41.990010)" fill="#000000" sketch:type="MSShapeGroup">
                <g id="g3807" transform="translate(0.011049, -0.403379)">
                    <path d="M76.13507,181.34082 L0.53967,181.34082 L0.53967,158.70152 L49.65371,64.7696344 C51.88374,60.5046464 54.59788,56.0449164 54.59788,51.5474364 L54.59788,38.624566 C54.59788,28.959916 47.364,23.016156 38.07119,23.142636 C30.62443,23.243996 22.37318,28.782146 22.37318,38.367306 L22.37318,52.8966564 L0.00731,52.8966564 L0.00731,39.944296 C0.00731,15.329136 16.3347,-0.135494 38.8396,-0.135494 C59.6223,-0.135494 76.88507,14.656376 76.88507,39.130476 L76.88507,54.5156964 C76.88507,62.1771364 72.24107,69.897721 68.71659,76.642626 L25.75532,158.85892 L76.13507,158.85892 L76.13507,181.34082" id="path3774"></path>
                </g>
            </g>
        </g>
    </g>
</svg>