<?xml version="1.0" encoding="UTF-8" standalone="no"?>
<svg
   xmlns:dc="http://purl.org/dc/elements/1.1/"
   xmlns:cc="http://creativecommons.org/ns#"
   xmlns:rdf="http://www.w3.org/1999/02/22-rdf-syntax-ns#"
   xmlns:svg="http://www.w3.org/2000/svg"
   xmlns="http://www.w3.org/2000/svg"
   version="1.1"
   id="svg2"
   height="159.83475"
   width="69.1875">
  <defs
     id="defs4" />
  <metadata
     id="metadata7">
    <rdf:RDF>
      <cc:Work
         rdf:about="">
        <dc:format>image/svg+xml</dc:format>
        <dc:type
           rdf:resource="http://purl.org/dc/dcmitype/StillImage" />
        <dc:title></dc:title>
      </cc:Work>
    </rdf:RDF>
  </metadata>
  <g
     transform="translate(28.468267,-576.35276)"
     style="display:inline"
     id="layer1" />
  <g
     transform="translate(28.468267,-576.35276)"
     id="layer2">
    <path
       id="path3211"
       d="m -14.343267,576.35276 -14.125,42.9375 69.1875,0 -14.15625,-42.9375 -40.90625,0 z m 6.1562507,6.46875 28.6249993,0 9.90625,30.03125 -48.4375,0 9.9062507,-30.03125 z"
       style="color:#000000;fill:#000000;fill-opacity:1;stroke:none;stroke-width:1px;marker:none;visibility:visible;display:inline;overflow:visible;enable-background:accumulate" />
  </g>
  <g
     transform="translate(28.468267,-576.35276)"
     id="layer3">
    <path
       id="path3982"
       d="m -8.1985163,582.80778 -9.8995007,30.05204 48.43681,0 -9.8995,-30.05204 z"
       style="color:#000000;fill:#ffffff;fill-opacity:1;stroke:none;stroke-width:0.69999999px;marker:none;visibility:visible;display:inline;overflow:visible;enable-background:accumulate" />
  </g>
  <g
     transform="translate(28.468267,-576.35276)"
     id="layer4">
    <path
       id="rect3997"
       d="m 0,624.5625 0,18.59375 10.09375,-5.09375 0,-13.5 -10.09375,0 z M 10.09375,654.46875 0,659.5625 l 0,15.40625 10.09375,-5.09375 0,-15.40625 z m 0,31.8125 L 0,691.375 l 0,15.15625 10.09375,-5.09375 0,-15.15625 z m 0,31.5625 L 0,722.9375 l 0,13.25 10.09375,0 0,-18.34375 z"
       style="fill:#ffffff;fill-opacity:1;stroke:none" />
    <rect
       y="619.29034"
       x="2.4119334"
       height="5.2749071"
       width="5.5001216"
       id="rect4024"
       style="fill:#727272;fill-opacity:1;stroke:none" />
  </g>
  <g
     transform="translate(28.468267,-576.35276)"
     id="layer5">
    <rect
       transform="matrix(0.8931549,-0.44974917,0,1,0,0)"
       y="706.52924"
       x="0"
       height="16.414978"
       width="11.310469"
       id="rect3999"
       style="fill:#000000;fill-opacity:1;stroke:none" />
    <rect
       style="fill:#000000;fill-opacity:1;stroke:none"
       id="rect4001"
       width="11.310469"
       height="16.414978"
       x="0"
       y="674.96198"
       transform="matrix(0.8931549,-0.44974917,0,1,0,0)" />
    <rect
       transform="matrix(0.8931549,-0.44974917,0,1,0,0)"
       y="643.14215"
       x="0"
       height="16.414978"
       width="11.310469"
       id="rect4003"
       style="fill:#000000;fill-opacity:1;stroke:none" />
  </g>
</svg>
