<?xml version="1.0" encoding="UTF-8" standalone="no"?>
<!-- Created with Inkscape (http://www.inkscape.org/) -->

<svg
   xmlns:sketch="http://www.bohemiancoding.com/sketch/ns"
   xmlns:dc="http://purl.org/dc/elements/1.1/"
   xmlns:cc="http://creativecommons.org/ns#"
   xmlns:rdf="http://www.w3.org/1999/02/22-rdf-syntax-ns#"
   xmlns:svg="http://www.w3.org/2000/svg"
   xmlns="http://www.w3.org/2000/svg"
   xmlns:sodipodi="http://sodipodi.sourceforge.net/DTD/sodipodi-0.dtd"
   xmlns:inkscape="http://www.inkscape.org/namespaces/inkscape"
   width="200"
   height="174.67999"
   id="svg2"
   version="1.1"
   inkscape:version="0.48.5 r10040"
   sodipodi:docname="Zs3_80_Tafel.svg">
  <defs
     id="defs4" />
  <sodipodi:namedview
     id="base"
     pagecolor="#ffffff"
     bordercolor="#666666"
     borderopacity="1.0"
     inkscape:pageopacity="0.0"
     inkscape:pageshadow="2"
     inkscape:zoom="3.959798"
     inkscape:cx="90.442023"
     inkscape:cy="95.567543"
     inkscape:document-units="px"
     inkscape:current-layer="layer1"
     showgrid="false"
     inkscape:window-width="1920"
     inkscape:window-height="1028"
     inkscape:window-x="1366"
     inkscape:window-y="30"
     inkscape:window-maximized="1" />
  <metadata
     id="metadata7">
    <rdf:RDF>
      <cc:Work
         rdf:about="">
        <dc:format>image/svg+xml</dc:format>
        <dc:type
           rdf:resource="http://purl.org/dc/dcmitype/StillImage" />
        <dc:title></dc:title>
      </cc:Work>
    </rdf:RDF>
  </metadata>
  <g
     inkscape:label="Ebene 1"
     inkscape:groupmode="layer"
     id="layer1"
     transform="translate(0,-877.68218)">
    <path
       style="color:#000000;fill:#000000;fill-opacity:1;stroke:#ffffff;stroke-width:10.15501022;stroke-linecap:round;stroke-linejoin:round;stroke-miterlimit:4;stroke-opacity:1;stroke-dasharray:none;stroke-dashoffset:0;marker:none;visibility:visible;display:inline;overflow:visible;enable-background:accumulate"
       d="m 194.43777,1047.2847 -189.3602648,0 94.9877048,-164.52356 94.85728,164.29756"
       id="path3047"
       inkscape:connector-curvature="0"
       sodipodi:nodetypes="cccc" />
    <path
       style="fill:#ffffff;fill-rule:evenodd;stroke:none"
       inkscape:connector-curvature="0"
       sketch:type="MSShapeGroup"
       id="rect4094"
       d="m 115.48628,947.36247 c -7.68773,0.0474 -15.38273,5.74551 -15.39572,16.95618 l -0.0906,0 0,46.31695 0.0906,0 c 0.19095,22.6282 30.76556,22.3748 30.7785,0 l 0.0776,0 0,-46.31695 -0.0776,0 c -0.0192,-11.3951 -7.69816,-17.00359 -15.38278,-16.95618 l 0,0 z m -0.0259,10.07256 c 3.25043,-0.0319 6.50705,2.23198 6.52054,6.88362 l -0.0259,0 0,46.31695 0.0388,0 c -0.0137,9.0993 -13.00226,9.1172 -13.00226,-0.2107 l 0,-46.10625 -0.0259,0 c 0.0137,-4.53304 3.2511,-6.85175 6.49466,-6.88362 l 3e-5,0 z" />
    <path
       style="fill:#ffffff;fill-rule:evenodd;stroke:none"
       inkscape:connector-curvature="0"
       sketch:type="MSShapeGroup"
       id="rect4089"
       d="M 78.850584,949.36217 69,959.66738 l 0,16.19583 9.704808,-10.44449 0,61.94348 10.486519,0 0,-78.00003 -10.340743,0 z" />
  </g>
</svg>
