<?xml version="1.0" encoding="UTF-8" standalone="no"?>
<!-- Created with Inkscape (http://www.inkscape.org/) -->

<svg
   xmlns:sketch="http://www.bohemiancoding.com/sketch/ns"
   xmlns:dc="http://purl.org/dc/elements/1.1/"
   xmlns:cc="http://creativecommons.org/ns#"
   xmlns:rdf="http://www.w3.org/1999/02/22-rdf-syntax-ns#"
   xmlns:svg="http://www.w3.org/2000/svg"
   xmlns="http://www.w3.org/2000/svg"
   xmlns:sodipodi="http://sodipodi.sourceforge.net/DTD/sodipodi-0.dtd"
   xmlns:inkscape="http://www.inkscape.org/namespaces/inkscape"
   width="200"
   height="174.67999"
   id="svg2"
   version="1.1"
   inkscape:version="0.48.5 r10040"
   sodipodi:docname="Zs3_110_Tafel.svg">
  <defs
     id="defs4" />
  <sodipodi:namedview
     id="base"
     pagecolor="#ffffff"
     bordercolor="#666666"
     borderopacity="1.0"
     inkscape:pageopacity="0.0"
     inkscape:pageshadow="2"
     inkscape:zoom="3.959798"
     inkscape:cx="90.442023"
     inkscape:cy="95.567543"
     inkscape:document-units="px"
     inkscape:current-layer="layer1"
     showgrid="false"
     inkscape:window-width="1920"
     inkscape:window-height="1028"
     inkscape:window-x="1366"
     inkscape:window-y="30"
     inkscape:window-maximized="1" />
  <metadata
     id="metadata7">
    <rdf:RDF>
      <cc:Work
         rdf:about="">
        <dc:format>image/svg+xml</dc:format>
        <dc:type
           rdf:resource="http://purl.org/dc/dcmitype/StillImage" />
        <dc:title></dc:title>
      </cc:Work>
    </rdf:RDF>
  </metadata>
  <g
     inkscape:label="Ebene 1"
     inkscape:groupmode="layer"
     id="layer1"
     transform="translate(0,-877.68218)">
    <path
       style="color:#000000;fill:#000000;fill-opacity:1;stroke:#ffffff;stroke-width:10.15501022;stroke-linecap:round;stroke-linejoin:round;stroke-miterlimit:4;stroke-opacity:1;stroke-dasharray:none;stroke-dashoffset:0;marker:none;visibility:visible;display:inline;overflow:visible;enable-background:accumulate"
       d="m 194.43777,1047.2847 -189.3602648,0 94.9877048,-164.52356 94.85728,164.29756"
       id="path3047"
       inkscape:connector-curvature="0"
       sodipodi:nodetypes="cccc" />
    <path
       style="fill:#ffffff;fill-rule:evenodd;stroke:none"
       inkscape:connector-curvature="0"
       sketch:type="MSShapeGroup"
       id="rect4089"
       d="M 78.036491,950.36217 67,961.20904 l 0,13.05417 10.33773,-10.44449 0,64.54348 9.685983,0 0,-78.00003 -8.987222,0 z" />
    <path
       style="fill:#ffffff;fill-rule:evenodd;stroke:none"
       inkscape:connector-curvature="0"
       sketch:type="MSShapeGroup"
       id="path3774"
       d="m 133.61485,1028.5701 -33.37978,0 0,-9.8813 21.68672,-40.99787 c 0.98469,-1.86152 2.18314,-3.80803 2.18314,-5.77102 l 0,-5.64037 c 0,-4.21827 -3.19418,-6.81251 -7.2975,-6.7573 -3.28818,0.0442 -6.93159,2.46144 -6.93159,6.64502 l 0,6.34154 -9.87584,0 0,-5.65324 c 0,-10.74363 7.2095,-17.49339 17.14673,-17.49339 9.17677,0 16.79929,6.45612 16.79929,17.13819 l 0,6.71509 c 0,3.34395 -2.05059,6.7137 -3.60686,9.65761 l -18.96991,35.88444 22.2456,0 0,9.8126" />
  </g>
</svg>
