<?xml version="1.0" encoding="UTF-8" standalone="no"?>
<!-- Created with Inkscape (http://www.inkscape.org/) -->

<svg
   xmlns:sketch="http://www.bohemiancoding.com/sketch/ns"
   xmlns:dc="http://purl.org/dc/elements/1.1/"
   xmlns:cc="http://creativecommons.org/ns#"
   xmlns:rdf="http://www.w3.org/1999/02/22-rdf-syntax-ns#"
   xmlns:svg="http://www.w3.org/2000/svg"
   xmlns="http://www.w3.org/2000/svg"
   xmlns:sodipodi="http://sodipodi.sourceforge.net/DTD/sodipodi-0.dtd"
   xmlns:inkscape="http://www.inkscape.org/namespaces/inkscape"
   width="200"
   height="174.67999"
   id="svg2"
   version="1.1"
   inkscape:version="0.48.5 r10040"
   sodipodi:docname="Zs3_120_Tafel.svg">
  <defs
     id="defs4" />
  <sodipodi:namedview
     id="base"
     pagecolor="#ffffff"
     bordercolor="#666666"
     borderopacity="1.0"
     inkscape:pageopacity="0.0"
     inkscape:pageshadow="2"
     inkscape:zoom="3.959798"
     inkscape:cx="90.442023"
     inkscape:cy="95.567543"
     inkscape:document-units="px"
     inkscape:current-layer="layer1"
     showgrid="false"
     inkscape:window-width="1920"
     inkscape:window-height="1028"
     inkscape:window-x="1366"
     inkscape:window-y="30"
     inkscape:window-maximized="1" />
  <metadata
     id="metadata7">
    <rdf:RDF>
      <cc:Work
         rdf:about="">
        <dc:format>image/svg+xml</dc:format>
        <dc:type
           rdf:resource="http://purl.org/dc/dcmitype/StillImage" />
        <dc:title></dc:title>
      </cc:Work>
    </rdf:RDF>
  </metadata>
  <g
     inkscape:label="Ebene 1"
     inkscape:groupmode="layer"
     id="layer1"
     transform="translate(0,-877.68218)">
    <path
       style="color:#000000;fill:#000000;fill-opacity:1;stroke:#ffffff;stroke-width:10.15501022;stroke-linecap:round;stroke-linejoin:round;stroke-miterlimit:4;stroke-opacity:1;stroke-dasharray:none;stroke-dashoffset:0;marker:none;visibility:visible;display:inline;overflow:visible;enable-background:accumulate"
       d="m 194.43777,1047.2847 -189.3602648,0 94.9877048,-164.52356 94.85728,164.29756"
       id="path3047"
       inkscape:connector-curvature="0"
       sodipodi:nodetypes="cccc" />
    <path
       style="fill:#ffffff;fill-rule:evenodd;stroke:none"
       inkscape:connector-curvature="0"
       sketch:type="MSShapeGroup"
       id="rect4089"
       d="M 78.036491,949.36217 67,960.34811 l 0,13.22152 10.33773,-10.57839 0,65.37096 9.685983,0 0,-79.00003 -8.987222,0 z" />
    <path
       style="fill:#ffffff;fill-rule:evenodd;stroke:none"
       inkscape:connector-curvature="0"
       sketch:type="MSShapeGroup"
       id="path3830"
       d="m 100,966.9011 0,5.97541 9.87987,0 0,-6.667 c 0,-4.19302 3.63877,-6.62268 6.92695,-6.66701 4.10332,-0.0553 7.29951,2.54987 7.29951,6.77766 l 0,10.73361 c 0,4.47127 -4.15474,6.57018 -10.6112,6.57018 l 0,0.26281 c -0.005,-10e-4 -0.0138,4.45389 -0.0138,4.45389 l 0,4.4539 c 0.005,-10e-4 0.0138,0.24897 0.0138,0.24897 6.45646,0 10.6112,2.11275 10.6112,6.58402 l 0,13.62446 c 0,4.2278 -3.19619,6.8192 -7.29951,6.7639 -3.28818,-0.044 -6.92695,-2.4602 -6.92695,-6.6532 l 0,-6.667 -9.87987,0 0,5.9754 c 0,10.7679 7.21456,17.5389 17.15179,17.5389 9.17677,0 16.80681,-6.4731 16.80681,-17.1793 l 0,-13.81812 c 0,-3.98439 -1.74705,-8.03727 -6.43019,-10.87193 4.68314,-2.83465 6.43019,-6.88754 6.43019,-10.87192 l 0,-10.92726 c 0,-10.70617 -7.63004,-17.1793 -16.80681,-17.1793 -9.93723,0 -17.15179,6.77106 -17.15179,17.53893 z" />
  </g>
</svg>
