<?xml version="1.0" encoding="UTF-8" standalone="no"?>
<!-- Created with Inkscape (http://www.inkscape.org/) -->

<svg
   xmlns:sketch="http://www.bohemiancoding.com/sketch/ns"
   xmlns:dc="http://purl.org/dc/elements/1.1/"
   xmlns:cc="http://creativecommons.org/ns#"
   xmlns:rdf="http://www.w3.org/1999/02/22-rdf-syntax-ns#"
   xmlns:svg="http://www.w3.org/2000/svg"
   xmlns="http://www.w3.org/2000/svg"
   xmlns:sodipodi="http://sodipodi.sourceforge.net/DTD/sodipodi-0.dtd"
   xmlns:inkscape="http://www.inkscape.org/namespaces/inkscape"
   width="200"
   height="174.67999"
   id="svg2"
   version="1.1"
   inkscape:version="0.48.5 r10040"
   sodipodi:docname="Zs3_150_Tafel.svg">
  <defs
     id="defs4" />
  <sodipodi:namedview
     id="base"
     pagecolor="#ffffff"
     bordercolor="#666666"
     borderopacity="1.0"
     inkscape:pageopacity="0.0"
     inkscape:pageshadow="2"
     inkscape:zoom="3.959798"
     inkscape:cx="90.442023"
     inkscape:cy="95.567543"
     inkscape:document-units="px"
     inkscape:current-layer="layer1"
     showgrid="false"
     inkscape:window-width="1920"
     inkscape:window-height="1028"
     inkscape:window-x="1366"
     inkscape:window-y="30"
     inkscape:window-maximized="1" />
  <metadata
     id="metadata7">
    <rdf:RDF>
      <cc:Work
         rdf:about="">
        <dc:format>image/svg+xml</dc:format>
        <dc:type
           rdf:resource="http://purl.org/dc/dcmitype/StillImage" />
        <dc:title></dc:title>
      </cc:Work>
    </rdf:RDF>
  </metadata>
  <g
     inkscape:label="Ebene 1"
     inkscape:groupmode="layer"
     id="layer1"
     transform="translate(0,-877.68218)">
    <path
       style="color:#000000;fill:#000000;fill-opacity:1;stroke:#ffffff;stroke-width:10.15501022;stroke-linecap:round;stroke-linejoin:round;stroke-miterlimit:4;stroke-opacity:1;stroke-dasharray:none;stroke-dashoffset:0;marker:none;visibility:visible;display:inline;overflow:visible;enable-background:accumulate"
       d="m 194.43777,1047.2847 -189.3602648,0 94.9877048,-164.52356 94.85728,164.29756"
       id="path3047"
       inkscape:connector-curvature="0"
       sodipodi:nodetypes="cccc" />
    <path
       style="fill:#ffffff;fill-rule:evenodd;stroke:none"
       inkscape:connector-curvature="0"
       sketch:type="MSShapeGroup"
       id="rect4089"
       d="M 79.036491,949.36217 68,960.34811 l 0,13.22152 10.33773,-10.57839 0,65.37096 9.685983,0 0,-79.00003 -8.987222,0 z" />
    <path
       style="fill:#ffffff;fill-rule:evenodd;stroke:none"
       inkscape:connector-curvature="0"
       sketch:type="MSShapeGroup"
       id="path4426"
       d="m 115.52821,949.36217 c -8.70785,0 -15.620026,7.27647 -15.52729,15.53539 l 0,48.12014 c 0,8.1514 6.46783,15.5491 15.55458,15.5491 8.70785,0 15.63367,-7.2901 15.54093,-15.5491 l 0,-20.35011 c 0,-7.45173 -4.15225,-14.78522 -12.32086,-14.78522 -3.58517,0 -6.37012,0.74959 -9.01893,3.10981 l 0,-16.39469 c 0.15552,-3.02417 2.63122,-5.47826 5.83979,-5.48307 3.06846,-0.005 5.74428,2.46724 5.74428,5.78314 l 0,4.66471 9.75572,0 0,-4.66471 c 0,-8.15137 -6.48147,-15.53539 -15.56822,-15.53539 l 0,0 z m 0.0136,37.86326 c 3.00514,0 5.8125,2.41266 5.8125,5.78315 l 0,20.00912 c 0,3.1602 -2.53887,5.7918 -5.85343,5.7968 -3.06843,0 -5.74426,-2.4809 -5.74426,-5.7968 l 0,-4.651 0,-15.35777 c 0,-3.44227 2.97411,-5.7835 5.78521,-5.7835 l -2e-5,0 z" />
  </g>
</svg>
